G75*
%MOIN*%
%OFA0B0*%
%FSLAX25Y25*%
%IPPOS*%
%LPD*%
%AMOC8*
5,1,8,0,0,1.08239X$1,22.5*
%
%ADD10C,0.00000*%
%ADD11C,0.01063*%
%ADD12C,0.00974*%
%ADD13C,0.01744*%
%ADD14C,0.01395*%
%ADD15R,0.03543X0.01575*%
%ADD16C,0.00709*%
%ADD17R,0.09000X0.02362*%
D10*
X0089050Y0003800D02*
X0089050Y0113800D01*
X0254050Y0113800D01*
X0254050Y0003800D01*
X0089050Y0003800D01*
X0094550Y0015800D02*
X0094552Y0015961D01*
X0094558Y0016121D01*
X0094568Y0016282D01*
X0094582Y0016442D01*
X0094600Y0016602D01*
X0094621Y0016761D01*
X0094647Y0016920D01*
X0094677Y0017078D01*
X0094710Y0017235D01*
X0094748Y0017392D01*
X0094789Y0017547D01*
X0094834Y0017701D01*
X0094883Y0017854D01*
X0094936Y0018006D01*
X0094992Y0018157D01*
X0095053Y0018306D01*
X0095116Y0018454D01*
X0095184Y0018600D01*
X0095255Y0018744D01*
X0095329Y0018886D01*
X0095407Y0019027D01*
X0095489Y0019165D01*
X0095574Y0019302D01*
X0095662Y0019436D01*
X0095754Y0019568D01*
X0095849Y0019698D01*
X0095947Y0019826D01*
X0096048Y0019951D01*
X0096152Y0020073D01*
X0096259Y0020193D01*
X0096369Y0020310D01*
X0096482Y0020425D01*
X0096598Y0020536D01*
X0096717Y0020645D01*
X0096838Y0020750D01*
X0096962Y0020853D01*
X0097088Y0020953D01*
X0097216Y0021049D01*
X0097347Y0021142D01*
X0097481Y0021232D01*
X0097616Y0021319D01*
X0097754Y0021402D01*
X0097893Y0021482D01*
X0098035Y0021558D01*
X0098178Y0021631D01*
X0098323Y0021700D01*
X0098470Y0021766D01*
X0098618Y0021828D01*
X0098768Y0021886D01*
X0098919Y0021941D01*
X0099072Y0021992D01*
X0099226Y0022039D01*
X0099381Y0022082D01*
X0099537Y0022121D01*
X0099693Y0022157D01*
X0099851Y0022188D01*
X0100009Y0022216D01*
X0100168Y0022240D01*
X0100328Y0022260D01*
X0100488Y0022276D01*
X0100648Y0022288D01*
X0100809Y0022296D01*
X0100970Y0022300D01*
X0101130Y0022300D01*
X0101291Y0022296D01*
X0101452Y0022288D01*
X0101612Y0022276D01*
X0101772Y0022260D01*
X0101932Y0022240D01*
X0102091Y0022216D01*
X0102249Y0022188D01*
X0102407Y0022157D01*
X0102563Y0022121D01*
X0102719Y0022082D01*
X0102874Y0022039D01*
X0103028Y0021992D01*
X0103181Y0021941D01*
X0103332Y0021886D01*
X0103482Y0021828D01*
X0103630Y0021766D01*
X0103777Y0021700D01*
X0103922Y0021631D01*
X0104065Y0021558D01*
X0104207Y0021482D01*
X0104346Y0021402D01*
X0104484Y0021319D01*
X0104619Y0021232D01*
X0104753Y0021142D01*
X0104884Y0021049D01*
X0105012Y0020953D01*
X0105138Y0020853D01*
X0105262Y0020750D01*
X0105383Y0020645D01*
X0105502Y0020536D01*
X0105618Y0020425D01*
X0105731Y0020310D01*
X0105841Y0020193D01*
X0105948Y0020073D01*
X0106052Y0019951D01*
X0106153Y0019826D01*
X0106251Y0019698D01*
X0106346Y0019568D01*
X0106438Y0019436D01*
X0106526Y0019302D01*
X0106611Y0019165D01*
X0106693Y0019027D01*
X0106771Y0018886D01*
X0106845Y0018744D01*
X0106916Y0018600D01*
X0106984Y0018454D01*
X0107047Y0018306D01*
X0107108Y0018157D01*
X0107164Y0018006D01*
X0107217Y0017854D01*
X0107266Y0017701D01*
X0107311Y0017547D01*
X0107352Y0017392D01*
X0107390Y0017235D01*
X0107423Y0017078D01*
X0107453Y0016920D01*
X0107479Y0016761D01*
X0107500Y0016602D01*
X0107518Y0016442D01*
X0107532Y0016282D01*
X0107542Y0016121D01*
X0107548Y0015961D01*
X0107550Y0015800D01*
X0107548Y0015639D01*
X0107542Y0015479D01*
X0107532Y0015318D01*
X0107518Y0015158D01*
X0107500Y0014998D01*
X0107479Y0014839D01*
X0107453Y0014680D01*
X0107423Y0014522D01*
X0107390Y0014365D01*
X0107352Y0014208D01*
X0107311Y0014053D01*
X0107266Y0013899D01*
X0107217Y0013746D01*
X0107164Y0013594D01*
X0107108Y0013443D01*
X0107047Y0013294D01*
X0106984Y0013146D01*
X0106916Y0013000D01*
X0106845Y0012856D01*
X0106771Y0012714D01*
X0106693Y0012573D01*
X0106611Y0012435D01*
X0106526Y0012298D01*
X0106438Y0012164D01*
X0106346Y0012032D01*
X0106251Y0011902D01*
X0106153Y0011774D01*
X0106052Y0011649D01*
X0105948Y0011527D01*
X0105841Y0011407D01*
X0105731Y0011290D01*
X0105618Y0011175D01*
X0105502Y0011064D01*
X0105383Y0010955D01*
X0105262Y0010850D01*
X0105138Y0010747D01*
X0105012Y0010647D01*
X0104884Y0010551D01*
X0104753Y0010458D01*
X0104619Y0010368D01*
X0104484Y0010281D01*
X0104346Y0010198D01*
X0104207Y0010118D01*
X0104065Y0010042D01*
X0103922Y0009969D01*
X0103777Y0009900D01*
X0103630Y0009834D01*
X0103482Y0009772D01*
X0103332Y0009714D01*
X0103181Y0009659D01*
X0103028Y0009608D01*
X0102874Y0009561D01*
X0102719Y0009518D01*
X0102563Y0009479D01*
X0102407Y0009443D01*
X0102249Y0009412D01*
X0102091Y0009384D01*
X0101932Y0009360D01*
X0101772Y0009340D01*
X0101612Y0009324D01*
X0101452Y0009312D01*
X0101291Y0009304D01*
X0101130Y0009300D01*
X0100970Y0009300D01*
X0100809Y0009304D01*
X0100648Y0009312D01*
X0100488Y0009324D01*
X0100328Y0009340D01*
X0100168Y0009360D01*
X0100009Y0009384D01*
X0099851Y0009412D01*
X0099693Y0009443D01*
X0099537Y0009479D01*
X0099381Y0009518D01*
X0099226Y0009561D01*
X0099072Y0009608D01*
X0098919Y0009659D01*
X0098768Y0009714D01*
X0098618Y0009772D01*
X0098470Y0009834D01*
X0098323Y0009900D01*
X0098178Y0009969D01*
X0098035Y0010042D01*
X0097893Y0010118D01*
X0097754Y0010198D01*
X0097616Y0010281D01*
X0097481Y0010368D01*
X0097347Y0010458D01*
X0097216Y0010551D01*
X0097088Y0010647D01*
X0096962Y0010747D01*
X0096838Y0010850D01*
X0096717Y0010955D01*
X0096598Y0011064D01*
X0096482Y0011175D01*
X0096369Y0011290D01*
X0096259Y0011407D01*
X0096152Y0011527D01*
X0096048Y0011649D01*
X0095947Y0011774D01*
X0095849Y0011902D01*
X0095754Y0012032D01*
X0095662Y0012164D01*
X0095574Y0012298D01*
X0095489Y0012435D01*
X0095407Y0012573D01*
X0095329Y0012714D01*
X0095255Y0012856D01*
X0095184Y0013000D01*
X0095116Y0013146D01*
X0095053Y0013294D01*
X0094992Y0013443D01*
X0094936Y0013594D01*
X0094883Y0013746D01*
X0094834Y0013899D01*
X0094789Y0014053D01*
X0094748Y0014208D01*
X0094710Y0014365D01*
X0094677Y0014522D01*
X0094647Y0014680D01*
X0094621Y0014839D01*
X0094600Y0014998D01*
X0094582Y0015158D01*
X0094568Y0015318D01*
X0094558Y0015479D01*
X0094552Y0015639D01*
X0094550Y0015800D01*
X0235550Y0015800D02*
X0235552Y0015961D01*
X0235558Y0016121D01*
X0235568Y0016282D01*
X0235582Y0016442D01*
X0235600Y0016602D01*
X0235621Y0016761D01*
X0235647Y0016920D01*
X0235677Y0017078D01*
X0235710Y0017235D01*
X0235748Y0017392D01*
X0235789Y0017547D01*
X0235834Y0017701D01*
X0235883Y0017854D01*
X0235936Y0018006D01*
X0235992Y0018157D01*
X0236053Y0018306D01*
X0236116Y0018454D01*
X0236184Y0018600D01*
X0236255Y0018744D01*
X0236329Y0018886D01*
X0236407Y0019027D01*
X0236489Y0019165D01*
X0236574Y0019302D01*
X0236662Y0019436D01*
X0236754Y0019568D01*
X0236849Y0019698D01*
X0236947Y0019826D01*
X0237048Y0019951D01*
X0237152Y0020073D01*
X0237259Y0020193D01*
X0237369Y0020310D01*
X0237482Y0020425D01*
X0237598Y0020536D01*
X0237717Y0020645D01*
X0237838Y0020750D01*
X0237962Y0020853D01*
X0238088Y0020953D01*
X0238216Y0021049D01*
X0238347Y0021142D01*
X0238481Y0021232D01*
X0238616Y0021319D01*
X0238754Y0021402D01*
X0238893Y0021482D01*
X0239035Y0021558D01*
X0239178Y0021631D01*
X0239323Y0021700D01*
X0239470Y0021766D01*
X0239618Y0021828D01*
X0239768Y0021886D01*
X0239919Y0021941D01*
X0240072Y0021992D01*
X0240226Y0022039D01*
X0240381Y0022082D01*
X0240537Y0022121D01*
X0240693Y0022157D01*
X0240851Y0022188D01*
X0241009Y0022216D01*
X0241168Y0022240D01*
X0241328Y0022260D01*
X0241488Y0022276D01*
X0241648Y0022288D01*
X0241809Y0022296D01*
X0241970Y0022300D01*
X0242130Y0022300D01*
X0242291Y0022296D01*
X0242452Y0022288D01*
X0242612Y0022276D01*
X0242772Y0022260D01*
X0242932Y0022240D01*
X0243091Y0022216D01*
X0243249Y0022188D01*
X0243407Y0022157D01*
X0243563Y0022121D01*
X0243719Y0022082D01*
X0243874Y0022039D01*
X0244028Y0021992D01*
X0244181Y0021941D01*
X0244332Y0021886D01*
X0244482Y0021828D01*
X0244630Y0021766D01*
X0244777Y0021700D01*
X0244922Y0021631D01*
X0245065Y0021558D01*
X0245207Y0021482D01*
X0245346Y0021402D01*
X0245484Y0021319D01*
X0245619Y0021232D01*
X0245753Y0021142D01*
X0245884Y0021049D01*
X0246012Y0020953D01*
X0246138Y0020853D01*
X0246262Y0020750D01*
X0246383Y0020645D01*
X0246502Y0020536D01*
X0246618Y0020425D01*
X0246731Y0020310D01*
X0246841Y0020193D01*
X0246948Y0020073D01*
X0247052Y0019951D01*
X0247153Y0019826D01*
X0247251Y0019698D01*
X0247346Y0019568D01*
X0247438Y0019436D01*
X0247526Y0019302D01*
X0247611Y0019165D01*
X0247693Y0019027D01*
X0247771Y0018886D01*
X0247845Y0018744D01*
X0247916Y0018600D01*
X0247984Y0018454D01*
X0248047Y0018306D01*
X0248108Y0018157D01*
X0248164Y0018006D01*
X0248217Y0017854D01*
X0248266Y0017701D01*
X0248311Y0017547D01*
X0248352Y0017392D01*
X0248390Y0017235D01*
X0248423Y0017078D01*
X0248453Y0016920D01*
X0248479Y0016761D01*
X0248500Y0016602D01*
X0248518Y0016442D01*
X0248532Y0016282D01*
X0248542Y0016121D01*
X0248548Y0015961D01*
X0248550Y0015800D01*
X0248548Y0015639D01*
X0248542Y0015479D01*
X0248532Y0015318D01*
X0248518Y0015158D01*
X0248500Y0014998D01*
X0248479Y0014839D01*
X0248453Y0014680D01*
X0248423Y0014522D01*
X0248390Y0014365D01*
X0248352Y0014208D01*
X0248311Y0014053D01*
X0248266Y0013899D01*
X0248217Y0013746D01*
X0248164Y0013594D01*
X0248108Y0013443D01*
X0248047Y0013294D01*
X0247984Y0013146D01*
X0247916Y0013000D01*
X0247845Y0012856D01*
X0247771Y0012714D01*
X0247693Y0012573D01*
X0247611Y0012435D01*
X0247526Y0012298D01*
X0247438Y0012164D01*
X0247346Y0012032D01*
X0247251Y0011902D01*
X0247153Y0011774D01*
X0247052Y0011649D01*
X0246948Y0011527D01*
X0246841Y0011407D01*
X0246731Y0011290D01*
X0246618Y0011175D01*
X0246502Y0011064D01*
X0246383Y0010955D01*
X0246262Y0010850D01*
X0246138Y0010747D01*
X0246012Y0010647D01*
X0245884Y0010551D01*
X0245753Y0010458D01*
X0245619Y0010368D01*
X0245484Y0010281D01*
X0245346Y0010198D01*
X0245207Y0010118D01*
X0245065Y0010042D01*
X0244922Y0009969D01*
X0244777Y0009900D01*
X0244630Y0009834D01*
X0244482Y0009772D01*
X0244332Y0009714D01*
X0244181Y0009659D01*
X0244028Y0009608D01*
X0243874Y0009561D01*
X0243719Y0009518D01*
X0243563Y0009479D01*
X0243407Y0009443D01*
X0243249Y0009412D01*
X0243091Y0009384D01*
X0242932Y0009360D01*
X0242772Y0009340D01*
X0242612Y0009324D01*
X0242452Y0009312D01*
X0242291Y0009304D01*
X0242130Y0009300D01*
X0241970Y0009300D01*
X0241809Y0009304D01*
X0241648Y0009312D01*
X0241488Y0009324D01*
X0241328Y0009340D01*
X0241168Y0009360D01*
X0241009Y0009384D01*
X0240851Y0009412D01*
X0240693Y0009443D01*
X0240537Y0009479D01*
X0240381Y0009518D01*
X0240226Y0009561D01*
X0240072Y0009608D01*
X0239919Y0009659D01*
X0239768Y0009714D01*
X0239618Y0009772D01*
X0239470Y0009834D01*
X0239323Y0009900D01*
X0239178Y0009969D01*
X0239035Y0010042D01*
X0238893Y0010118D01*
X0238754Y0010198D01*
X0238616Y0010281D01*
X0238481Y0010368D01*
X0238347Y0010458D01*
X0238216Y0010551D01*
X0238088Y0010647D01*
X0237962Y0010747D01*
X0237838Y0010850D01*
X0237717Y0010955D01*
X0237598Y0011064D01*
X0237482Y0011175D01*
X0237369Y0011290D01*
X0237259Y0011407D01*
X0237152Y0011527D01*
X0237048Y0011649D01*
X0236947Y0011774D01*
X0236849Y0011902D01*
X0236754Y0012032D01*
X0236662Y0012164D01*
X0236574Y0012298D01*
X0236489Y0012435D01*
X0236407Y0012573D01*
X0236329Y0012714D01*
X0236255Y0012856D01*
X0236184Y0013000D01*
X0236116Y0013146D01*
X0236053Y0013294D01*
X0235992Y0013443D01*
X0235936Y0013594D01*
X0235883Y0013746D01*
X0235834Y0013899D01*
X0235789Y0014053D01*
X0235748Y0014208D01*
X0235710Y0014365D01*
X0235677Y0014522D01*
X0235647Y0014680D01*
X0235621Y0014839D01*
X0235600Y0014998D01*
X0235582Y0015158D01*
X0235568Y0015318D01*
X0235558Y0015479D01*
X0235552Y0015639D01*
X0235550Y0015800D01*
X0235550Y0101800D02*
X0235552Y0101961D01*
X0235558Y0102121D01*
X0235568Y0102282D01*
X0235582Y0102442D01*
X0235600Y0102602D01*
X0235621Y0102761D01*
X0235647Y0102920D01*
X0235677Y0103078D01*
X0235710Y0103235D01*
X0235748Y0103392D01*
X0235789Y0103547D01*
X0235834Y0103701D01*
X0235883Y0103854D01*
X0235936Y0104006D01*
X0235992Y0104157D01*
X0236053Y0104306D01*
X0236116Y0104454D01*
X0236184Y0104600D01*
X0236255Y0104744D01*
X0236329Y0104886D01*
X0236407Y0105027D01*
X0236489Y0105165D01*
X0236574Y0105302D01*
X0236662Y0105436D01*
X0236754Y0105568D01*
X0236849Y0105698D01*
X0236947Y0105826D01*
X0237048Y0105951D01*
X0237152Y0106073D01*
X0237259Y0106193D01*
X0237369Y0106310D01*
X0237482Y0106425D01*
X0237598Y0106536D01*
X0237717Y0106645D01*
X0237838Y0106750D01*
X0237962Y0106853D01*
X0238088Y0106953D01*
X0238216Y0107049D01*
X0238347Y0107142D01*
X0238481Y0107232D01*
X0238616Y0107319D01*
X0238754Y0107402D01*
X0238893Y0107482D01*
X0239035Y0107558D01*
X0239178Y0107631D01*
X0239323Y0107700D01*
X0239470Y0107766D01*
X0239618Y0107828D01*
X0239768Y0107886D01*
X0239919Y0107941D01*
X0240072Y0107992D01*
X0240226Y0108039D01*
X0240381Y0108082D01*
X0240537Y0108121D01*
X0240693Y0108157D01*
X0240851Y0108188D01*
X0241009Y0108216D01*
X0241168Y0108240D01*
X0241328Y0108260D01*
X0241488Y0108276D01*
X0241648Y0108288D01*
X0241809Y0108296D01*
X0241970Y0108300D01*
X0242130Y0108300D01*
X0242291Y0108296D01*
X0242452Y0108288D01*
X0242612Y0108276D01*
X0242772Y0108260D01*
X0242932Y0108240D01*
X0243091Y0108216D01*
X0243249Y0108188D01*
X0243407Y0108157D01*
X0243563Y0108121D01*
X0243719Y0108082D01*
X0243874Y0108039D01*
X0244028Y0107992D01*
X0244181Y0107941D01*
X0244332Y0107886D01*
X0244482Y0107828D01*
X0244630Y0107766D01*
X0244777Y0107700D01*
X0244922Y0107631D01*
X0245065Y0107558D01*
X0245207Y0107482D01*
X0245346Y0107402D01*
X0245484Y0107319D01*
X0245619Y0107232D01*
X0245753Y0107142D01*
X0245884Y0107049D01*
X0246012Y0106953D01*
X0246138Y0106853D01*
X0246262Y0106750D01*
X0246383Y0106645D01*
X0246502Y0106536D01*
X0246618Y0106425D01*
X0246731Y0106310D01*
X0246841Y0106193D01*
X0246948Y0106073D01*
X0247052Y0105951D01*
X0247153Y0105826D01*
X0247251Y0105698D01*
X0247346Y0105568D01*
X0247438Y0105436D01*
X0247526Y0105302D01*
X0247611Y0105165D01*
X0247693Y0105027D01*
X0247771Y0104886D01*
X0247845Y0104744D01*
X0247916Y0104600D01*
X0247984Y0104454D01*
X0248047Y0104306D01*
X0248108Y0104157D01*
X0248164Y0104006D01*
X0248217Y0103854D01*
X0248266Y0103701D01*
X0248311Y0103547D01*
X0248352Y0103392D01*
X0248390Y0103235D01*
X0248423Y0103078D01*
X0248453Y0102920D01*
X0248479Y0102761D01*
X0248500Y0102602D01*
X0248518Y0102442D01*
X0248532Y0102282D01*
X0248542Y0102121D01*
X0248548Y0101961D01*
X0248550Y0101800D01*
X0248548Y0101639D01*
X0248542Y0101479D01*
X0248532Y0101318D01*
X0248518Y0101158D01*
X0248500Y0100998D01*
X0248479Y0100839D01*
X0248453Y0100680D01*
X0248423Y0100522D01*
X0248390Y0100365D01*
X0248352Y0100208D01*
X0248311Y0100053D01*
X0248266Y0099899D01*
X0248217Y0099746D01*
X0248164Y0099594D01*
X0248108Y0099443D01*
X0248047Y0099294D01*
X0247984Y0099146D01*
X0247916Y0099000D01*
X0247845Y0098856D01*
X0247771Y0098714D01*
X0247693Y0098573D01*
X0247611Y0098435D01*
X0247526Y0098298D01*
X0247438Y0098164D01*
X0247346Y0098032D01*
X0247251Y0097902D01*
X0247153Y0097774D01*
X0247052Y0097649D01*
X0246948Y0097527D01*
X0246841Y0097407D01*
X0246731Y0097290D01*
X0246618Y0097175D01*
X0246502Y0097064D01*
X0246383Y0096955D01*
X0246262Y0096850D01*
X0246138Y0096747D01*
X0246012Y0096647D01*
X0245884Y0096551D01*
X0245753Y0096458D01*
X0245619Y0096368D01*
X0245484Y0096281D01*
X0245346Y0096198D01*
X0245207Y0096118D01*
X0245065Y0096042D01*
X0244922Y0095969D01*
X0244777Y0095900D01*
X0244630Y0095834D01*
X0244482Y0095772D01*
X0244332Y0095714D01*
X0244181Y0095659D01*
X0244028Y0095608D01*
X0243874Y0095561D01*
X0243719Y0095518D01*
X0243563Y0095479D01*
X0243407Y0095443D01*
X0243249Y0095412D01*
X0243091Y0095384D01*
X0242932Y0095360D01*
X0242772Y0095340D01*
X0242612Y0095324D01*
X0242452Y0095312D01*
X0242291Y0095304D01*
X0242130Y0095300D01*
X0241970Y0095300D01*
X0241809Y0095304D01*
X0241648Y0095312D01*
X0241488Y0095324D01*
X0241328Y0095340D01*
X0241168Y0095360D01*
X0241009Y0095384D01*
X0240851Y0095412D01*
X0240693Y0095443D01*
X0240537Y0095479D01*
X0240381Y0095518D01*
X0240226Y0095561D01*
X0240072Y0095608D01*
X0239919Y0095659D01*
X0239768Y0095714D01*
X0239618Y0095772D01*
X0239470Y0095834D01*
X0239323Y0095900D01*
X0239178Y0095969D01*
X0239035Y0096042D01*
X0238893Y0096118D01*
X0238754Y0096198D01*
X0238616Y0096281D01*
X0238481Y0096368D01*
X0238347Y0096458D01*
X0238216Y0096551D01*
X0238088Y0096647D01*
X0237962Y0096747D01*
X0237838Y0096850D01*
X0237717Y0096955D01*
X0237598Y0097064D01*
X0237482Y0097175D01*
X0237369Y0097290D01*
X0237259Y0097407D01*
X0237152Y0097527D01*
X0237048Y0097649D01*
X0236947Y0097774D01*
X0236849Y0097902D01*
X0236754Y0098032D01*
X0236662Y0098164D01*
X0236574Y0098298D01*
X0236489Y0098435D01*
X0236407Y0098573D01*
X0236329Y0098714D01*
X0236255Y0098856D01*
X0236184Y0099000D01*
X0236116Y0099146D01*
X0236053Y0099294D01*
X0235992Y0099443D01*
X0235936Y0099594D01*
X0235883Y0099746D01*
X0235834Y0099899D01*
X0235789Y0100053D01*
X0235748Y0100208D01*
X0235710Y0100365D01*
X0235677Y0100522D01*
X0235647Y0100680D01*
X0235621Y0100839D01*
X0235600Y0100998D01*
X0235582Y0101158D01*
X0235568Y0101318D01*
X0235558Y0101479D01*
X0235552Y0101639D01*
X0235550Y0101800D01*
X0094550Y0101800D02*
X0094552Y0101961D01*
X0094558Y0102121D01*
X0094568Y0102282D01*
X0094582Y0102442D01*
X0094600Y0102602D01*
X0094621Y0102761D01*
X0094647Y0102920D01*
X0094677Y0103078D01*
X0094710Y0103235D01*
X0094748Y0103392D01*
X0094789Y0103547D01*
X0094834Y0103701D01*
X0094883Y0103854D01*
X0094936Y0104006D01*
X0094992Y0104157D01*
X0095053Y0104306D01*
X0095116Y0104454D01*
X0095184Y0104600D01*
X0095255Y0104744D01*
X0095329Y0104886D01*
X0095407Y0105027D01*
X0095489Y0105165D01*
X0095574Y0105302D01*
X0095662Y0105436D01*
X0095754Y0105568D01*
X0095849Y0105698D01*
X0095947Y0105826D01*
X0096048Y0105951D01*
X0096152Y0106073D01*
X0096259Y0106193D01*
X0096369Y0106310D01*
X0096482Y0106425D01*
X0096598Y0106536D01*
X0096717Y0106645D01*
X0096838Y0106750D01*
X0096962Y0106853D01*
X0097088Y0106953D01*
X0097216Y0107049D01*
X0097347Y0107142D01*
X0097481Y0107232D01*
X0097616Y0107319D01*
X0097754Y0107402D01*
X0097893Y0107482D01*
X0098035Y0107558D01*
X0098178Y0107631D01*
X0098323Y0107700D01*
X0098470Y0107766D01*
X0098618Y0107828D01*
X0098768Y0107886D01*
X0098919Y0107941D01*
X0099072Y0107992D01*
X0099226Y0108039D01*
X0099381Y0108082D01*
X0099537Y0108121D01*
X0099693Y0108157D01*
X0099851Y0108188D01*
X0100009Y0108216D01*
X0100168Y0108240D01*
X0100328Y0108260D01*
X0100488Y0108276D01*
X0100648Y0108288D01*
X0100809Y0108296D01*
X0100970Y0108300D01*
X0101130Y0108300D01*
X0101291Y0108296D01*
X0101452Y0108288D01*
X0101612Y0108276D01*
X0101772Y0108260D01*
X0101932Y0108240D01*
X0102091Y0108216D01*
X0102249Y0108188D01*
X0102407Y0108157D01*
X0102563Y0108121D01*
X0102719Y0108082D01*
X0102874Y0108039D01*
X0103028Y0107992D01*
X0103181Y0107941D01*
X0103332Y0107886D01*
X0103482Y0107828D01*
X0103630Y0107766D01*
X0103777Y0107700D01*
X0103922Y0107631D01*
X0104065Y0107558D01*
X0104207Y0107482D01*
X0104346Y0107402D01*
X0104484Y0107319D01*
X0104619Y0107232D01*
X0104753Y0107142D01*
X0104884Y0107049D01*
X0105012Y0106953D01*
X0105138Y0106853D01*
X0105262Y0106750D01*
X0105383Y0106645D01*
X0105502Y0106536D01*
X0105618Y0106425D01*
X0105731Y0106310D01*
X0105841Y0106193D01*
X0105948Y0106073D01*
X0106052Y0105951D01*
X0106153Y0105826D01*
X0106251Y0105698D01*
X0106346Y0105568D01*
X0106438Y0105436D01*
X0106526Y0105302D01*
X0106611Y0105165D01*
X0106693Y0105027D01*
X0106771Y0104886D01*
X0106845Y0104744D01*
X0106916Y0104600D01*
X0106984Y0104454D01*
X0107047Y0104306D01*
X0107108Y0104157D01*
X0107164Y0104006D01*
X0107217Y0103854D01*
X0107266Y0103701D01*
X0107311Y0103547D01*
X0107352Y0103392D01*
X0107390Y0103235D01*
X0107423Y0103078D01*
X0107453Y0102920D01*
X0107479Y0102761D01*
X0107500Y0102602D01*
X0107518Y0102442D01*
X0107532Y0102282D01*
X0107542Y0102121D01*
X0107548Y0101961D01*
X0107550Y0101800D01*
X0107548Y0101639D01*
X0107542Y0101479D01*
X0107532Y0101318D01*
X0107518Y0101158D01*
X0107500Y0100998D01*
X0107479Y0100839D01*
X0107453Y0100680D01*
X0107423Y0100522D01*
X0107390Y0100365D01*
X0107352Y0100208D01*
X0107311Y0100053D01*
X0107266Y0099899D01*
X0107217Y0099746D01*
X0107164Y0099594D01*
X0107108Y0099443D01*
X0107047Y0099294D01*
X0106984Y0099146D01*
X0106916Y0099000D01*
X0106845Y0098856D01*
X0106771Y0098714D01*
X0106693Y0098573D01*
X0106611Y0098435D01*
X0106526Y0098298D01*
X0106438Y0098164D01*
X0106346Y0098032D01*
X0106251Y0097902D01*
X0106153Y0097774D01*
X0106052Y0097649D01*
X0105948Y0097527D01*
X0105841Y0097407D01*
X0105731Y0097290D01*
X0105618Y0097175D01*
X0105502Y0097064D01*
X0105383Y0096955D01*
X0105262Y0096850D01*
X0105138Y0096747D01*
X0105012Y0096647D01*
X0104884Y0096551D01*
X0104753Y0096458D01*
X0104619Y0096368D01*
X0104484Y0096281D01*
X0104346Y0096198D01*
X0104207Y0096118D01*
X0104065Y0096042D01*
X0103922Y0095969D01*
X0103777Y0095900D01*
X0103630Y0095834D01*
X0103482Y0095772D01*
X0103332Y0095714D01*
X0103181Y0095659D01*
X0103028Y0095608D01*
X0102874Y0095561D01*
X0102719Y0095518D01*
X0102563Y0095479D01*
X0102407Y0095443D01*
X0102249Y0095412D01*
X0102091Y0095384D01*
X0101932Y0095360D01*
X0101772Y0095340D01*
X0101612Y0095324D01*
X0101452Y0095312D01*
X0101291Y0095304D01*
X0101130Y0095300D01*
X0100970Y0095300D01*
X0100809Y0095304D01*
X0100648Y0095312D01*
X0100488Y0095324D01*
X0100328Y0095340D01*
X0100168Y0095360D01*
X0100009Y0095384D01*
X0099851Y0095412D01*
X0099693Y0095443D01*
X0099537Y0095479D01*
X0099381Y0095518D01*
X0099226Y0095561D01*
X0099072Y0095608D01*
X0098919Y0095659D01*
X0098768Y0095714D01*
X0098618Y0095772D01*
X0098470Y0095834D01*
X0098323Y0095900D01*
X0098178Y0095969D01*
X0098035Y0096042D01*
X0097893Y0096118D01*
X0097754Y0096198D01*
X0097616Y0096281D01*
X0097481Y0096368D01*
X0097347Y0096458D01*
X0097216Y0096551D01*
X0097088Y0096647D01*
X0096962Y0096747D01*
X0096838Y0096850D01*
X0096717Y0096955D01*
X0096598Y0097064D01*
X0096482Y0097175D01*
X0096369Y0097290D01*
X0096259Y0097407D01*
X0096152Y0097527D01*
X0096048Y0097649D01*
X0095947Y0097774D01*
X0095849Y0097902D01*
X0095754Y0098032D01*
X0095662Y0098164D01*
X0095574Y0098298D01*
X0095489Y0098435D01*
X0095407Y0098573D01*
X0095329Y0098714D01*
X0095255Y0098856D01*
X0095184Y0099000D01*
X0095116Y0099146D01*
X0095053Y0099294D01*
X0094992Y0099443D01*
X0094936Y0099594D01*
X0094883Y0099746D01*
X0094834Y0099899D01*
X0094789Y0100053D01*
X0094748Y0100208D01*
X0094710Y0100365D01*
X0094677Y0100522D01*
X0094647Y0100680D01*
X0094621Y0100839D01*
X0094600Y0100998D01*
X0094582Y0101158D01*
X0094568Y0101318D01*
X0094558Y0101479D01*
X0094552Y0101639D01*
X0094550Y0101800D01*
D11*
X0128900Y0095005D02*
X0130200Y0095005D01*
X0130200Y0087067D01*
X0128900Y0087067D01*
X0128900Y0095005D01*
X0128900Y0088129D02*
X0130200Y0088129D01*
X0130200Y0089191D02*
X0128900Y0089191D01*
X0128900Y0090253D02*
X0130200Y0090253D01*
X0130200Y0091315D02*
X0128900Y0091315D01*
X0128900Y0092377D02*
X0130200Y0092377D01*
X0130200Y0093439D02*
X0128900Y0093439D01*
X0128900Y0094501D02*
X0130200Y0094501D01*
X0133900Y0095005D02*
X0135200Y0095005D01*
X0135200Y0087067D01*
X0133900Y0087067D01*
X0133900Y0095005D01*
X0133900Y0088129D02*
X0135200Y0088129D01*
X0135200Y0089191D02*
X0133900Y0089191D01*
X0133900Y0090253D02*
X0135200Y0090253D01*
X0135200Y0091315D02*
X0133900Y0091315D01*
X0133900Y0092377D02*
X0135200Y0092377D01*
X0135200Y0093439D02*
X0133900Y0093439D01*
X0133900Y0094501D02*
X0135200Y0094501D01*
X0138900Y0095005D02*
X0140200Y0095005D01*
X0140200Y0087067D01*
X0138900Y0087067D01*
X0138900Y0095005D01*
X0138900Y0088129D02*
X0140200Y0088129D01*
X0140200Y0089191D02*
X0138900Y0089191D01*
X0138900Y0090253D02*
X0140200Y0090253D01*
X0140200Y0091315D02*
X0138900Y0091315D01*
X0138900Y0092377D02*
X0140200Y0092377D01*
X0140200Y0093439D02*
X0138900Y0093439D01*
X0138900Y0094501D02*
X0140200Y0094501D01*
X0143900Y0095005D02*
X0145200Y0095005D01*
X0145200Y0087067D01*
X0143900Y0087067D01*
X0143900Y0095005D01*
X0143900Y0088129D02*
X0145200Y0088129D01*
X0145200Y0089191D02*
X0143900Y0089191D01*
X0143900Y0090253D02*
X0145200Y0090253D01*
X0145200Y0091315D02*
X0143900Y0091315D01*
X0143900Y0092377D02*
X0145200Y0092377D01*
X0145200Y0093439D02*
X0143900Y0093439D01*
X0143900Y0094501D02*
X0145200Y0094501D01*
X0145200Y0074533D02*
X0143900Y0074533D01*
X0145200Y0074533D02*
X0145200Y0066595D01*
X0143900Y0066595D01*
X0143900Y0074533D01*
X0143900Y0067657D02*
X0145200Y0067657D01*
X0145200Y0068719D02*
X0143900Y0068719D01*
X0143900Y0069781D02*
X0145200Y0069781D01*
X0145200Y0070843D02*
X0143900Y0070843D01*
X0143900Y0071905D02*
X0145200Y0071905D01*
X0145200Y0072967D02*
X0143900Y0072967D01*
X0143900Y0074029D02*
X0145200Y0074029D01*
X0140200Y0074533D02*
X0138900Y0074533D01*
X0140200Y0074533D02*
X0140200Y0066595D01*
X0138900Y0066595D01*
X0138900Y0074533D01*
X0138900Y0067657D02*
X0140200Y0067657D01*
X0140200Y0068719D02*
X0138900Y0068719D01*
X0138900Y0069781D02*
X0140200Y0069781D01*
X0140200Y0070843D02*
X0138900Y0070843D01*
X0138900Y0071905D02*
X0140200Y0071905D01*
X0140200Y0072967D02*
X0138900Y0072967D01*
X0138900Y0074029D02*
X0140200Y0074029D01*
X0135200Y0074533D02*
X0133900Y0074533D01*
X0135200Y0074533D02*
X0135200Y0066595D01*
X0133900Y0066595D01*
X0133900Y0074533D01*
X0133900Y0067657D02*
X0135200Y0067657D01*
X0135200Y0068719D02*
X0133900Y0068719D01*
X0133900Y0069781D02*
X0135200Y0069781D01*
X0135200Y0070843D02*
X0133900Y0070843D01*
X0133900Y0071905D02*
X0135200Y0071905D01*
X0135200Y0072967D02*
X0133900Y0072967D01*
X0133900Y0074029D02*
X0135200Y0074029D01*
X0130200Y0074533D02*
X0128900Y0074533D01*
X0130200Y0074533D02*
X0130200Y0066595D01*
X0128900Y0066595D01*
X0128900Y0074533D01*
X0128900Y0067657D02*
X0130200Y0067657D01*
X0130200Y0068719D02*
X0128900Y0068719D01*
X0128900Y0069781D02*
X0130200Y0069781D01*
X0130200Y0070843D02*
X0128900Y0070843D01*
X0128900Y0071905D02*
X0130200Y0071905D01*
X0130200Y0072967D02*
X0128900Y0072967D01*
X0128900Y0074029D02*
X0130200Y0074029D01*
X0184845Y0071950D02*
X0184845Y0070650D01*
X0184845Y0071950D02*
X0192783Y0071950D01*
X0192783Y0070650D01*
X0184845Y0070650D01*
X0184845Y0071712D02*
X0192783Y0071712D01*
X0184845Y0066950D02*
X0184845Y0065650D01*
X0184845Y0066950D02*
X0192783Y0066950D01*
X0192783Y0065650D01*
X0184845Y0065650D01*
X0184845Y0066712D02*
X0192783Y0066712D01*
X0184845Y0061950D02*
X0184845Y0060650D01*
X0184845Y0061950D02*
X0192783Y0061950D01*
X0192783Y0060650D01*
X0184845Y0060650D01*
X0184845Y0061712D02*
X0192783Y0061712D01*
X0184845Y0056950D02*
X0184845Y0055650D01*
X0184845Y0056950D02*
X0192783Y0056950D01*
X0192783Y0055650D01*
X0184845Y0055650D01*
X0184845Y0056712D02*
X0192783Y0056712D01*
X0205317Y0056950D02*
X0205317Y0055650D01*
X0205317Y0056950D02*
X0213255Y0056950D01*
X0213255Y0055650D01*
X0205317Y0055650D01*
X0205317Y0056712D02*
X0213255Y0056712D01*
X0205317Y0060650D02*
X0205317Y0061950D01*
X0213255Y0061950D01*
X0213255Y0060650D01*
X0205317Y0060650D01*
X0205317Y0061712D02*
X0213255Y0061712D01*
X0205317Y0065650D02*
X0205317Y0066950D01*
X0213255Y0066950D01*
X0213255Y0065650D01*
X0205317Y0065650D01*
X0205317Y0066712D02*
X0213255Y0066712D01*
D12*
X0109155Y0065135D02*
X0109155Y0063945D01*
X0109155Y0065135D02*
X0113181Y0065135D01*
X0113181Y0063945D01*
X0109155Y0063945D01*
X0109155Y0064918D02*
X0113181Y0064918D01*
X0109155Y0061395D02*
X0109155Y0060205D01*
X0109155Y0061395D02*
X0113181Y0061395D01*
X0113181Y0060205D01*
X0109155Y0060205D01*
X0109155Y0061178D02*
X0113181Y0061178D01*
X0109155Y0057655D02*
X0109155Y0056465D01*
X0109155Y0057655D02*
X0113181Y0057655D01*
X0113181Y0056465D01*
X0109155Y0056465D01*
X0109155Y0057438D02*
X0113181Y0057438D01*
X0098919Y0057655D02*
X0098919Y0056465D01*
X0098919Y0057655D02*
X0102945Y0057655D01*
X0102945Y0056465D01*
X0098919Y0056465D01*
X0098919Y0057438D02*
X0102945Y0057438D01*
X0098919Y0063945D02*
X0098919Y0065135D01*
X0102945Y0065135D01*
X0102945Y0063945D01*
X0098919Y0063945D01*
X0098919Y0064918D02*
X0102945Y0064918D01*
D13*
X0095428Y0065408D02*
X0095428Y0063278D01*
X0092672Y0063278D01*
X0092672Y0065408D01*
X0095428Y0065408D01*
X0095428Y0065021D02*
X0092672Y0065021D01*
X0097442Y0070422D02*
X0099572Y0070422D01*
X0097442Y0070422D02*
X0097442Y0073178D01*
X0099572Y0073178D01*
X0099572Y0070422D01*
X0099572Y0072165D02*
X0097442Y0072165D01*
X0104528Y0070422D02*
X0106658Y0070422D01*
X0104528Y0070422D02*
X0104528Y0073178D01*
X0106658Y0073178D01*
X0106658Y0070422D01*
X0106658Y0072165D02*
X0104528Y0072165D01*
X0116442Y0067422D02*
X0118572Y0067422D01*
X0116442Y0067422D02*
X0116442Y0070178D01*
X0118572Y0070178D01*
X0118572Y0067422D01*
X0118572Y0069165D02*
X0116442Y0069165D01*
X0123528Y0067422D02*
X0125658Y0067422D01*
X0123528Y0067422D02*
X0123528Y0070178D01*
X0125658Y0070178D01*
X0125658Y0067422D01*
X0125658Y0069165D02*
X0123528Y0069165D01*
X0123428Y0063408D02*
X0123428Y0061278D01*
X0120672Y0061278D01*
X0120672Y0063408D01*
X0123428Y0063408D01*
X0123428Y0063021D02*
X0120672Y0063021D01*
X0123428Y0056322D02*
X0123428Y0054192D01*
X0120672Y0054192D01*
X0120672Y0056322D01*
X0123428Y0056322D01*
X0123428Y0055935D02*
X0120672Y0055935D01*
X0115658Y0051178D02*
X0113528Y0051178D01*
X0115658Y0051178D02*
X0115658Y0048422D01*
X0113528Y0048422D01*
X0113528Y0051178D01*
X0113528Y0050165D02*
X0115658Y0050165D01*
X0108572Y0051178D02*
X0106442Y0051178D01*
X0108572Y0051178D02*
X0108572Y0048422D01*
X0106442Y0048422D01*
X0106442Y0051178D01*
X0106442Y0050165D02*
X0108572Y0050165D01*
X0095428Y0056192D02*
X0095428Y0058322D01*
X0095428Y0056192D02*
X0092672Y0056192D01*
X0092672Y0058322D01*
X0095428Y0058322D01*
X0095428Y0057935D02*
X0092672Y0057935D01*
X0145442Y0061178D02*
X0147572Y0061178D01*
X0147572Y0058422D01*
X0145442Y0058422D01*
X0145442Y0061178D01*
X0145442Y0060165D02*
X0147572Y0060165D01*
X0152528Y0061178D02*
X0154658Y0061178D01*
X0154658Y0058422D01*
X0152528Y0058422D01*
X0152528Y0061178D01*
X0152528Y0060165D02*
X0154658Y0060165D01*
X0154658Y0054178D02*
X0152528Y0054178D01*
X0154658Y0054178D02*
X0154658Y0051422D01*
X0152528Y0051422D01*
X0152528Y0054178D01*
X0152528Y0053165D02*
X0154658Y0053165D01*
X0147572Y0054178D02*
X0145442Y0054178D01*
X0147572Y0054178D02*
X0147572Y0051422D01*
X0145442Y0051422D01*
X0145442Y0054178D01*
X0145442Y0053165D02*
X0147572Y0053165D01*
X0168428Y0037408D02*
X0168428Y0035278D01*
X0165672Y0035278D01*
X0165672Y0037408D01*
X0168428Y0037408D01*
X0168428Y0037021D02*
X0165672Y0037021D01*
X0168428Y0030322D02*
X0168428Y0028192D01*
X0165672Y0028192D01*
X0165672Y0030322D01*
X0168428Y0030322D01*
X0168428Y0029935D02*
X0165672Y0029935D01*
X0158658Y0027922D02*
X0156528Y0027922D01*
X0156528Y0030678D01*
X0158658Y0030678D01*
X0158658Y0027922D01*
X0158658Y0029665D02*
X0156528Y0029665D01*
X0151572Y0027922D02*
X0149442Y0027922D01*
X0149442Y0030678D01*
X0151572Y0030678D01*
X0151572Y0027922D01*
X0151572Y0029665D02*
X0149442Y0029665D01*
X0221672Y0057192D02*
X0221672Y0059322D01*
X0224428Y0059322D01*
X0224428Y0057192D01*
X0221672Y0057192D01*
X0221672Y0058935D02*
X0224428Y0058935D01*
X0228672Y0059278D02*
X0228672Y0061408D01*
X0231428Y0061408D01*
X0231428Y0059278D01*
X0228672Y0059278D01*
X0228672Y0061021D02*
X0231428Y0061021D01*
X0221672Y0064278D02*
X0221672Y0066408D01*
X0224428Y0066408D01*
X0224428Y0064278D01*
X0221672Y0064278D01*
X0221672Y0066021D02*
X0224428Y0066021D01*
X0228672Y0054322D02*
X0228672Y0052192D01*
X0228672Y0054322D02*
X0231428Y0054322D01*
X0231428Y0052192D01*
X0228672Y0052192D01*
X0228672Y0053935D02*
X0231428Y0053935D01*
X0194658Y0080178D02*
X0192528Y0080178D01*
X0194658Y0080178D02*
X0194658Y0077422D01*
X0192528Y0077422D01*
X0192528Y0080178D01*
X0192528Y0079165D02*
X0194658Y0079165D01*
X0187572Y0080178D02*
X0185442Y0080178D01*
X0187572Y0080178D02*
X0187572Y0077422D01*
X0185442Y0077422D01*
X0185442Y0080178D01*
X0185442Y0079165D02*
X0187572Y0079165D01*
X0185572Y0086422D02*
X0183442Y0086422D01*
X0183442Y0089178D01*
X0185572Y0089178D01*
X0185572Y0086422D01*
X0185572Y0088165D02*
X0183442Y0088165D01*
X0190528Y0086422D02*
X0192658Y0086422D01*
X0190528Y0086422D02*
X0190528Y0089178D01*
X0192658Y0089178D01*
X0192658Y0086422D01*
X0192658Y0088165D02*
X0190528Y0088165D01*
X0211672Y0088408D02*
X0211672Y0086278D01*
X0211672Y0088408D02*
X0214428Y0088408D01*
X0214428Y0086278D01*
X0211672Y0086278D01*
X0211672Y0088021D02*
X0214428Y0088021D01*
X0211672Y0081322D02*
X0211672Y0079192D01*
X0211672Y0081322D02*
X0214428Y0081322D01*
X0214428Y0079192D01*
X0211672Y0079192D01*
X0211672Y0080935D02*
X0214428Y0080935D01*
X0194428Y0098192D02*
X0194428Y0100322D01*
X0194428Y0098192D02*
X0191672Y0098192D01*
X0191672Y0100322D01*
X0194428Y0100322D01*
X0194428Y0099935D02*
X0191672Y0099935D01*
X0194428Y0105278D02*
X0194428Y0107408D01*
X0194428Y0105278D02*
X0191672Y0105278D01*
X0191672Y0107408D01*
X0194428Y0107408D01*
X0194428Y0107021D02*
X0191672Y0107021D01*
X0174428Y0107408D02*
X0174428Y0105278D01*
X0171672Y0105278D01*
X0171672Y0107408D01*
X0174428Y0107408D01*
X0174428Y0107021D02*
X0171672Y0107021D01*
X0161658Y0108178D02*
X0159528Y0108178D01*
X0161658Y0108178D02*
X0161658Y0105422D01*
X0159528Y0105422D01*
X0159528Y0108178D01*
X0159528Y0107165D02*
X0161658Y0107165D01*
X0154572Y0108178D02*
X0152442Y0108178D01*
X0154572Y0108178D02*
X0154572Y0105422D01*
X0152442Y0105422D01*
X0152442Y0108178D01*
X0152442Y0107165D02*
X0154572Y0107165D01*
X0141658Y0109178D02*
X0139528Y0109178D01*
X0141658Y0109178D02*
X0141658Y0106422D01*
X0139528Y0106422D01*
X0139528Y0109178D01*
X0139528Y0108165D02*
X0141658Y0108165D01*
X0134572Y0109178D02*
X0132442Y0109178D01*
X0134572Y0109178D02*
X0134572Y0106422D01*
X0132442Y0106422D01*
X0132442Y0109178D01*
X0132442Y0108165D02*
X0134572Y0108165D01*
X0121672Y0108408D02*
X0121672Y0106278D01*
X0121672Y0108408D02*
X0124428Y0108408D01*
X0124428Y0106278D01*
X0121672Y0106278D01*
X0121672Y0108021D02*
X0124428Y0108021D01*
X0121672Y0101322D02*
X0121672Y0099192D01*
X0121672Y0101322D02*
X0124428Y0101322D01*
X0124428Y0099192D01*
X0121672Y0099192D01*
X0121672Y0100935D02*
X0124428Y0100935D01*
X0132442Y0099422D02*
X0134572Y0099422D01*
X0132442Y0099422D02*
X0132442Y0102178D01*
X0134572Y0102178D01*
X0134572Y0099422D01*
X0134572Y0101165D02*
X0132442Y0101165D01*
X0139528Y0099422D02*
X0141658Y0099422D01*
X0139528Y0099422D02*
X0139528Y0102178D01*
X0141658Y0102178D01*
X0141658Y0099422D01*
X0141658Y0101165D02*
X0139528Y0101165D01*
X0152442Y0097422D02*
X0154572Y0097422D01*
X0152442Y0097422D02*
X0152442Y0100178D01*
X0154572Y0100178D01*
X0154572Y0097422D01*
X0154572Y0099165D02*
X0152442Y0099165D01*
X0159528Y0097422D02*
X0161658Y0097422D01*
X0159528Y0097422D02*
X0159528Y0100178D01*
X0161658Y0100178D01*
X0161658Y0097422D01*
X0161658Y0099165D02*
X0159528Y0099165D01*
X0174428Y0098192D02*
X0174428Y0100322D01*
X0174428Y0098192D02*
X0171672Y0098192D01*
X0171672Y0100322D01*
X0174428Y0100322D01*
X0174428Y0099935D02*
X0171672Y0099935D01*
X0124658Y0093178D02*
X0122528Y0093178D01*
X0124658Y0093178D02*
X0124658Y0090422D01*
X0122528Y0090422D01*
X0122528Y0093178D01*
X0122528Y0092165D02*
X0124658Y0092165D01*
X0117572Y0093178D02*
X0115442Y0093178D01*
X0117572Y0093178D02*
X0117572Y0090422D01*
X0115442Y0090422D01*
X0115442Y0093178D01*
X0115442Y0092165D02*
X0117572Y0092165D01*
D14*
X0178497Y0097497D02*
X0180203Y0097497D01*
X0178497Y0097497D02*
X0178497Y0100103D01*
X0180203Y0100103D01*
X0180203Y0097497D01*
X0180203Y0098891D02*
X0178497Y0098891D01*
X0186097Y0097497D02*
X0187803Y0097497D01*
X0186097Y0097497D02*
X0186097Y0100103D01*
X0187803Y0100103D01*
X0187803Y0097497D01*
X0187803Y0098891D02*
X0186097Y0098891D01*
X0184003Y0105497D02*
X0182297Y0105497D01*
X0182297Y0108103D01*
X0184003Y0108103D01*
X0184003Y0105497D01*
X0184003Y0106891D02*
X0182297Y0106891D01*
D15*
X0158381Y0045359D03*
D16*
X0156964Y0043233D02*
X0156964Y0042367D01*
X0156964Y0043233D02*
X0159798Y0043233D01*
X0159798Y0042367D01*
X0156964Y0042367D01*
X0156964Y0043075D02*
X0159798Y0043075D01*
X0156964Y0040674D02*
X0156964Y0039808D01*
X0156964Y0040674D02*
X0159798Y0040674D01*
X0159798Y0039808D01*
X0156964Y0039808D01*
X0156964Y0040516D02*
X0159798Y0040516D01*
X0148302Y0040674D02*
X0148302Y0039808D01*
X0148302Y0040674D02*
X0151136Y0040674D01*
X0151136Y0039808D01*
X0148302Y0039808D01*
X0148302Y0040516D02*
X0151136Y0040516D01*
X0148302Y0042367D02*
X0148302Y0043233D01*
X0151136Y0043233D01*
X0151136Y0042367D01*
X0148302Y0042367D01*
X0148302Y0043075D02*
X0151136Y0043075D01*
X0148302Y0044926D02*
X0148302Y0045792D01*
X0151136Y0045792D01*
X0151136Y0044926D01*
X0148302Y0044926D01*
X0148302Y0045634D02*
X0151136Y0045634D01*
D17*
X0209286Y0071300D03*
M02*
