G75*
%MOIN*%
%OFA0B0*%
%FSLAX25Y25*%
%IPPOS*%
%LPD*%
%AMOC8*
5,1,8,0,0,1.08239X$1,22.5*
%
%ADD10C,0.00000*%
%ADD11C,0.01334*%
%ADD12C,0.05524*%
%ADD13C,0.13461*%
%ADD14C,0.02104*%
%ADD15C,0.13800*%
%ADD16R,0.05800X0.05800*%
%ADD17C,0.05800*%
%ADD18R,0.08200X0.08200*%
%ADD19C,0.08200*%
%ADD20R,0.06800X0.02450*%
%ADD21C,0.01102*%
%ADD22R,0.03300X0.05800*%
%ADD23C,0.01755*%
%ADD24C,0.03775*%
D10*
X0089050Y0003800D02*
X0089050Y0113800D01*
X0254050Y0113800D01*
X0254050Y0003800D01*
X0089050Y0003800D01*
X0094550Y0015800D02*
X0094552Y0015961D01*
X0094558Y0016121D01*
X0094568Y0016282D01*
X0094582Y0016442D01*
X0094600Y0016602D01*
X0094621Y0016761D01*
X0094647Y0016920D01*
X0094677Y0017078D01*
X0094710Y0017235D01*
X0094748Y0017392D01*
X0094789Y0017547D01*
X0094834Y0017701D01*
X0094883Y0017854D01*
X0094936Y0018006D01*
X0094992Y0018157D01*
X0095053Y0018306D01*
X0095116Y0018454D01*
X0095184Y0018600D01*
X0095255Y0018744D01*
X0095329Y0018886D01*
X0095407Y0019027D01*
X0095489Y0019165D01*
X0095574Y0019302D01*
X0095662Y0019436D01*
X0095754Y0019568D01*
X0095849Y0019698D01*
X0095947Y0019826D01*
X0096048Y0019951D01*
X0096152Y0020073D01*
X0096259Y0020193D01*
X0096369Y0020310D01*
X0096482Y0020425D01*
X0096598Y0020536D01*
X0096717Y0020645D01*
X0096838Y0020750D01*
X0096962Y0020853D01*
X0097088Y0020953D01*
X0097216Y0021049D01*
X0097347Y0021142D01*
X0097481Y0021232D01*
X0097616Y0021319D01*
X0097754Y0021402D01*
X0097893Y0021482D01*
X0098035Y0021558D01*
X0098178Y0021631D01*
X0098323Y0021700D01*
X0098470Y0021766D01*
X0098618Y0021828D01*
X0098768Y0021886D01*
X0098919Y0021941D01*
X0099072Y0021992D01*
X0099226Y0022039D01*
X0099381Y0022082D01*
X0099537Y0022121D01*
X0099693Y0022157D01*
X0099851Y0022188D01*
X0100009Y0022216D01*
X0100168Y0022240D01*
X0100328Y0022260D01*
X0100488Y0022276D01*
X0100648Y0022288D01*
X0100809Y0022296D01*
X0100970Y0022300D01*
X0101130Y0022300D01*
X0101291Y0022296D01*
X0101452Y0022288D01*
X0101612Y0022276D01*
X0101772Y0022260D01*
X0101932Y0022240D01*
X0102091Y0022216D01*
X0102249Y0022188D01*
X0102407Y0022157D01*
X0102563Y0022121D01*
X0102719Y0022082D01*
X0102874Y0022039D01*
X0103028Y0021992D01*
X0103181Y0021941D01*
X0103332Y0021886D01*
X0103482Y0021828D01*
X0103630Y0021766D01*
X0103777Y0021700D01*
X0103922Y0021631D01*
X0104065Y0021558D01*
X0104207Y0021482D01*
X0104346Y0021402D01*
X0104484Y0021319D01*
X0104619Y0021232D01*
X0104753Y0021142D01*
X0104884Y0021049D01*
X0105012Y0020953D01*
X0105138Y0020853D01*
X0105262Y0020750D01*
X0105383Y0020645D01*
X0105502Y0020536D01*
X0105618Y0020425D01*
X0105731Y0020310D01*
X0105841Y0020193D01*
X0105948Y0020073D01*
X0106052Y0019951D01*
X0106153Y0019826D01*
X0106251Y0019698D01*
X0106346Y0019568D01*
X0106438Y0019436D01*
X0106526Y0019302D01*
X0106611Y0019165D01*
X0106693Y0019027D01*
X0106771Y0018886D01*
X0106845Y0018744D01*
X0106916Y0018600D01*
X0106984Y0018454D01*
X0107047Y0018306D01*
X0107108Y0018157D01*
X0107164Y0018006D01*
X0107217Y0017854D01*
X0107266Y0017701D01*
X0107311Y0017547D01*
X0107352Y0017392D01*
X0107390Y0017235D01*
X0107423Y0017078D01*
X0107453Y0016920D01*
X0107479Y0016761D01*
X0107500Y0016602D01*
X0107518Y0016442D01*
X0107532Y0016282D01*
X0107542Y0016121D01*
X0107548Y0015961D01*
X0107550Y0015800D01*
X0107548Y0015639D01*
X0107542Y0015479D01*
X0107532Y0015318D01*
X0107518Y0015158D01*
X0107500Y0014998D01*
X0107479Y0014839D01*
X0107453Y0014680D01*
X0107423Y0014522D01*
X0107390Y0014365D01*
X0107352Y0014208D01*
X0107311Y0014053D01*
X0107266Y0013899D01*
X0107217Y0013746D01*
X0107164Y0013594D01*
X0107108Y0013443D01*
X0107047Y0013294D01*
X0106984Y0013146D01*
X0106916Y0013000D01*
X0106845Y0012856D01*
X0106771Y0012714D01*
X0106693Y0012573D01*
X0106611Y0012435D01*
X0106526Y0012298D01*
X0106438Y0012164D01*
X0106346Y0012032D01*
X0106251Y0011902D01*
X0106153Y0011774D01*
X0106052Y0011649D01*
X0105948Y0011527D01*
X0105841Y0011407D01*
X0105731Y0011290D01*
X0105618Y0011175D01*
X0105502Y0011064D01*
X0105383Y0010955D01*
X0105262Y0010850D01*
X0105138Y0010747D01*
X0105012Y0010647D01*
X0104884Y0010551D01*
X0104753Y0010458D01*
X0104619Y0010368D01*
X0104484Y0010281D01*
X0104346Y0010198D01*
X0104207Y0010118D01*
X0104065Y0010042D01*
X0103922Y0009969D01*
X0103777Y0009900D01*
X0103630Y0009834D01*
X0103482Y0009772D01*
X0103332Y0009714D01*
X0103181Y0009659D01*
X0103028Y0009608D01*
X0102874Y0009561D01*
X0102719Y0009518D01*
X0102563Y0009479D01*
X0102407Y0009443D01*
X0102249Y0009412D01*
X0102091Y0009384D01*
X0101932Y0009360D01*
X0101772Y0009340D01*
X0101612Y0009324D01*
X0101452Y0009312D01*
X0101291Y0009304D01*
X0101130Y0009300D01*
X0100970Y0009300D01*
X0100809Y0009304D01*
X0100648Y0009312D01*
X0100488Y0009324D01*
X0100328Y0009340D01*
X0100168Y0009360D01*
X0100009Y0009384D01*
X0099851Y0009412D01*
X0099693Y0009443D01*
X0099537Y0009479D01*
X0099381Y0009518D01*
X0099226Y0009561D01*
X0099072Y0009608D01*
X0098919Y0009659D01*
X0098768Y0009714D01*
X0098618Y0009772D01*
X0098470Y0009834D01*
X0098323Y0009900D01*
X0098178Y0009969D01*
X0098035Y0010042D01*
X0097893Y0010118D01*
X0097754Y0010198D01*
X0097616Y0010281D01*
X0097481Y0010368D01*
X0097347Y0010458D01*
X0097216Y0010551D01*
X0097088Y0010647D01*
X0096962Y0010747D01*
X0096838Y0010850D01*
X0096717Y0010955D01*
X0096598Y0011064D01*
X0096482Y0011175D01*
X0096369Y0011290D01*
X0096259Y0011407D01*
X0096152Y0011527D01*
X0096048Y0011649D01*
X0095947Y0011774D01*
X0095849Y0011902D01*
X0095754Y0012032D01*
X0095662Y0012164D01*
X0095574Y0012298D01*
X0095489Y0012435D01*
X0095407Y0012573D01*
X0095329Y0012714D01*
X0095255Y0012856D01*
X0095184Y0013000D01*
X0095116Y0013146D01*
X0095053Y0013294D01*
X0094992Y0013443D01*
X0094936Y0013594D01*
X0094883Y0013746D01*
X0094834Y0013899D01*
X0094789Y0014053D01*
X0094748Y0014208D01*
X0094710Y0014365D01*
X0094677Y0014522D01*
X0094647Y0014680D01*
X0094621Y0014839D01*
X0094600Y0014998D01*
X0094582Y0015158D01*
X0094568Y0015318D01*
X0094558Y0015479D01*
X0094552Y0015639D01*
X0094550Y0015800D01*
X0235550Y0015800D02*
X0235552Y0015961D01*
X0235558Y0016121D01*
X0235568Y0016282D01*
X0235582Y0016442D01*
X0235600Y0016602D01*
X0235621Y0016761D01*
X0235647Y0016920D01*
X0235677Y0017078D01*
X0235710Y0017235D01*
X0235748Y0017392D01*
X0235789Y0017547D01*
X0235834Y0017701D01*
X0235883Y0017854D01*
X0235936Y0018006D01*
X0235992Y0018157D01*
X0236053Y0018306D01*
X0236116Y0018454D01*
X0236184Y0018600D01*
X0236255Y0018744D01*
X0236329Y0018886D01*
X0236407Y0019027D01*
X0236489Y0019165D01*
X0236574Y0019302D01*
X0236662Y0019436D01*
X0236754Y0019568D01*
X0236849Y0019698D01*
X0236947Y0019826D01*
X0237048Y0019951D01*
X0237152Y0020073D01*
X0237259Y0020193D01*
X0237369Y0020310D01*
X0237482Y0020425D01*
X0237598Y0020536D01*
X0237717Y0020645D01*
X0237838Y0020750D01*
X0237962Y0020853D01*
X0238088Y0020953D01*
X0238216Y0021049D01*
X0238347Y0021142D01*
X0238481Y0021232D01*
X0238616Y0021319D01*
X0238754Y0021402D01*
X0238893Y0021482D01*
X0239035Y0021558D01*
X0239178Y0021631D01*
X0239323Y0021700D01*
X0239470Y0021766D01*
X0239618Y0021828D01*
X0239768Y0021886D01*
X0239919Y0021941D01*
X0240072Y0021992D01*
X0240226Y0022039D01*
X0240381Y0022082D01*
X0240537Y0022121D01*
X0240693Y0022157D01*
X0240851Y0022188D01*
X0241009Y0022216D01*
X0241168Y0022240D01*
X0241328Y0022260D01*
X0241488Y0022276D01*
X0241648Y0022288D01*
X0241809Y0022296D01*
X0241970Y0022300D01*
X0242130Y0022300D01*
X0242291Y0022296D01*
X0242452Y0022288D01*
X0242612Y0022276D01*
X0242772Y0022260D01*
X0242932Y0022240D01*
X0243091Y0022216D01*
X0243249Y0022188D01*
X0243407Y0022157D01*
X0243563Y0022121D01*
X0243719Y0022082D01*
X0243874Y0022039D01*
X0244028Y0021992D01*
X0244181Y0021941D01*
X0244332Y0021886D01*
X0244482Y0021828D01*
X0244630Y0021766D01*
X0244777Y0021700D01*
X0244922Y0021631D01*
X0245065Y0021558D01*
X0245207Y0021482D01*
X0245346Y0021402D01*
X0245484Y0021319D01*
X0245619Y0021232D01*
X0245753Y0021142D01*
X0245884Y0021049D01*
X0246012Y0020953D01*
X0246138Y0020853D01*
X0246262Y0020750D01*
X0246383Y0020645D01*
X0246502Y0020536D01*
X0246618Y0020425D01*
X0246731Y0020310D01*
X0246841Y0020193D01*
X0246948Y0020073D01*
X0247052Y0019951D01*
X0247153Y0019826D01*
X0247251Y0019698D01*
X0247346Y0019568D01*
X0247438Y0019436D01*
X0247526Y0019302D01*
X0247611Y0019165D01*
X0247693Y0019027D01*
X0247771Y0018886D01*
X0247845Y0018744D01*
X0247916Y0018600D01*
X0247984Y0018454D01*
X0248047Y0018306D01*
X0248108Y0018157D01*
X0248164Y0018006D01*
X0248217Y0017854D01*
X0248266Y0017701D01*
X0248311Y0017547D01*
X0248352Y0017392D01*
X0248390Y0017235D01*
X0248423Y0017078D01*
X0248453Y0016920D01*
X0248479Y0016761D01*
X0248500Y0016602D01*
X0248518Y0016442D01*
X0248532Y0016282D01*
X0248542Y0016121D01*
X0248548Y0015961D01*
X0248550Y0015800D01*
X0248548Y0015639D01*
X0248542Y0015479D01*
X0248532Y0015318D01*
X0248518Y0015158D01*
X0248500Y0014998D01*
X0248479Y0014839D01*
X0248453Y0014680D01*
X0248423Y0014522D01*
X0248390Y0014365D01*
X0248352Y0014208D01*
X0248311Y0014053D01*
X0248266Y0013899D01*
X0248217Y0013746D01*
X0248164Y0013594D01*
X0248108Y0013443D01*
X0248047Y0013294D01*
X0247984Y0013146D01*
X0247916Y0013000D01*
X0247845Y0012856D01*
X0247771Y0012714D01*
X0247693Y0012573D01*
X0247611Y0012435D01*
X0247526Y0012298D01*
X0247438Y0012164D01*
X0247346Y0012032D01*
X0247251Y0011902D01*
X0247153Y0011774D01*
X0247052Y0011649D01*
X0246948Y0011527D01*
X0246841Y0011407D01*
X0246731Y0011290D01*
X0246618Y0011175D01*
X0246502Y0011064D01*
X0246383Y0010955D01*
X0246262Y0010850D01*
X0246138Y0010747D01*
X0246012Y0010647D01*
X0245884Y0010551D01*
X0245753Y0010458D01*
X0245619Y0010368D01*
X0245484Y0010281D01*
X0245346Y0010198D01*
X0245207Y0010118D01*
X0245065Y0010042D01*
X0244922Y0009969D01*
X0244777Y0009900D01*
X0244630Y0009834D01*
X0244482Y0009772D01*
X0244332Y0009714D01*
X0244181Y0009659D01*
X0244028Y0009608D01*
X0243874Y0009561D01*
X0243719Y0009518D01*
X0243563Y0009479D01*
X0243407Y0009443D01*
X0243249Y0009412D01*
X0243091Y0009384D01*
X0242932Y0009360D01*
X0242772Y0009340D01*
X0242612Y0009324D01*
X0242452Y0009312D01*
X0242291Y0009304D01*
X0242130Y0009300D01*
X0241970Y0009300D01*
X0241809Y0009304D01*
X0241648Y0009312D01*
X0241488Y0009324D01*
X0241328Y0009340D01*
X0241168Y0009360D01*
X0241009Y0009384D01*
X0240851Y0009412D01*
X0240693Y0009443D01*
X0240537Y0009479D01*
X0240381Y0009518D01*
X0240226Y0009561D01*
X0240072Y0009608D01*
X0239919Y0009659D01*
X0239768Y0009714D01*
X0239618Y0009772D01*
X0239470Y0009834D01*
X0239323Y0009900D01*
X0239178Y0009969D01*
X0239035Y0010042D01*
X0238893Y0010118D01*
X0238754Y0010198D01*
X0238616Y0010281D01*
X0238481Y0010368D01*
X0238347Y0010458D01*
X0238216Y0010551D01*
X0238088Y0010647D01*
X0237962Y0010747D01*
X0237838Y0010850D01*
X0237717Y0010955D01*
X0237598Y0011064D01*
X0237482Y0011175D01*
X0237369Y0011290D01*
X0237259Y0011407D01*
X0237152Y0011527D01*
X0237048Y0011649D01*
X0236947Y0011774D01*
X0236849Y0011902D01*
X0236754Y0012032D01*
X0236662Y0012164D01*
X0236574Y0012298D01*
X0236489Y0012435D01*
X0236407Y0012573D01*
X0236329Y0012714D01*
X0236255Y0012856D01*
X0236184Y0013000D01*
X0236116Y0013146D01*
X0236053Y0013294D01*
X0235992Y0013443D01*
X0235936Y0013594D01*
X0235883Y0013746D01*
X0235834Y0013899D01*
X0235789Y0014053D01*
X0235748Y0014208D01*
X0235710Y0014365D01*
X0235677Y0014522D01*
X0235647Y0014680D01*
X0235621Y0014839D01*
X0235600Y0014998D01*
X0235582Y0015158D01*
X0235568Y0015318D01*
X0235558Y0015479D01*
X0235552Y0015639D01*
X0235550Y0015800D01*
X0235550Y0101800D02*
X0235552Y0101961D01*
X0235558Y0102121D01*
X0235568Y0102282D01*
X0235582Y0102442D01*
X0235600Y0102602D01*
X0235621Y0102761D01*
X0235647Y0102920D01*
X0235677Y0103078D01*
X0235710Y0103235D01*
X0235748Y0103392D01*
X0235789Y0103547D01*
X0235834Y0103701D01*
X0235883Y0103854D01*
X0235936Y0104006D01*
X0235992Y0104157D01*
X0236053Y0104306D01*
X0236116Y0104454D01*
X0236184Y0104600D01*
X0236255Y0104744D01*
X0236329Y0104886D01*
X0236407Y0105027D01*
X0236489Y0105165D01*
X0236574Y0105302D01*
X0236662Y0105436D01*
X0236754Y0105568D01*
X0236849Y0105698D01*
X0236947Y0105826D01*
X0237048Y0105951D01*
X0237152Y0106073D01*
X0237259Y0106193D01*
X0237369Y0106310D01*
X0237482Y0106425D01*
X0237598Y0106536D01*
X0237717Y0106645D01*
X0237838Y0106750D01*
X0237962Y0106853D01*
X0238088Y0106953D01*
X0238216Y0107049D01*
X0238347Y0107142D01*
X0238481Y0107232D01*
X0238616Y0107319D01*
X0238754Y0107402D01*
X0238893Y0107482D01*
X0239035Y0107558D01*
X0239178Y0107631D01*
X0239323Y0107700D01*
X0239470Y0107766D01*
X0239618Y0107828D01*
X0239768Y0107886D01*
X0239919Y0107941D01*
X0240072Y0107992D01*
X0240226Y0108039D01*
X0240381Y0108082D01*
X0240537Y0108121D01*
X0240693Y0108157D01*
X0240851Y0108188D01*
X0241009Y0108216D01*
X0241168Y0108240D01*
X0241328Y0108260D01*
X0241488Y0108276D01*
X0241648Y0108288D01*
X0241809Y0108296D01*
X0241970Y0108300D01*
X0242130Y0108300D01*
X0242291Y0108296D01*
X0242452Y0108288D01*
X0242612Y0108276D01*
X0242772Y0108260D01*
X0242932Y0108240D01*
X0243091Y0108216D01*
X0243249Y0108188D01*
X0243407Y0108157D01*
X0243563Y0108121D01*
X0243719Y0108082D01*
X0243874Y0108039D01*
X0244028Y0107992D01*
X0244181Y0107941D01*
X0244332Y0107886D01*
X0244482Y0107828D01*
X0244630Y0107766D01*
X0244777Y0107700D01*
X0244922Y0107631D01*
X0245065Y0107558D01*
X0245207Y0107482D01*
X0245346Y0107402D01*
X0245484Y0107319D01*
X0245619Y0107232D01*
X0245753Y0107142D01*
X0245884Y0107049D01*
X0246012Y0106953D01*
X0246138Y0106853D01*
X0246262Y0106750D01*
X0246383Y0106645D01*
X0246502Y0106536D01*
X0246618Y0106425D01*
X0246731Y0106310D01*
X0246841Y0106193D01*
X0246948Y0106073D01*
X0247052Y0105951D01*
X0247153Y0105826D01*
X0247251Y0105698D01*
X0247346Y0105568D01*
X0247438Y0105436D01*
X0247526Y0105302D01*
X0247611Y0105165D01*
X0247693Y0105027D01*
X0247771Y0104886D01*
X0247845Y0104744D01*
X0247916Y0104600D01*
X0247984Y0104454D01*
X0248047Y0104306D01*
X0248108Y0104157D01*
X0248164Y0104006D01*
X0248217Y0103854D01*
X0248266Y0103701D01*
X0248311Y0103547D01*
X0248352Y0103392D01*
X0248390Y0103235D01*
X0248423Y0103078D01*
X0248453Y0102920D01*
X0248479Y0102761D01*
X0248500Y0102602D01*
X0248518Y0102442D01*
X0248532Y0102282D01*
X0248542Y0102121D01*
X0248548Y0101961D01*
X0248550Y0101800D01*
X0248548Y0101639D01*
X0248542Y0101479D01*
X0248532Y0101318D01*
X0248518Y0101158D01*
X0248500Y0100998D01*
X0248479Y0100839D01*
X0248453Y0100680D01*
X0248423Y0100522D01*
X0248390Y0100365D01*
X0248352Y0100208D01*
X0248311Y0100053D01*
X0248266Y0099899D01*
X0248217Y0099746D01*
X0248164Y0099594D01*
X0248108Y0099443D01*
X0248047Y0099294D01*
X0247984Y0099146D01*
X0247916Y0099000D01*
X0247845Y0098856D01*
X0247771Y0098714D01*
X0247693Y0098573D01*
X0247611Y0098435D01*
X0247526Y0098298D01*
X0247438Y0098164D01*
X0247346Y0098032D01*
X0247251Y0097902D01*
X0247153Y0097774D01*
X0247052Y0097649D01*
X0246948Y0097527D01*
X0246841Y0097407D01*
X0246731Y0097290D01*
X0246618Y0097175D01*
X0246502Y0097064D01*
X0246383Y0096955D01*
X0246262Y0096850D01*
X0246138Y0096747D01*
X0246012Y0096647D01*
X0245884Y0096551D01*
X0245753Y0096458D01*
X0245619Y0096368D01*
X0245484Y0096281D01*
X0245346Y0096198D01*
X0245207Y0096118D01*
X0245065Y0096042D01*
X0244922Y0095969D01*
X0244777Y0095900D01*
X0244630Y0095834D01*
X0244482Y0095772D01*
X0244332Y0095714D01*
X0244181Y0095659D01*
X0244028Y0095608D01*
X0243874Y0095561D01*
X0243719Y0095518D01*
X0243563Y0095479D01*
X0243407Y0095443D01*
X0243249Y0095412D01*
X0243091Y0095384D01*
X0242932Y0095360D01*
X0242772Y0095340D01*
X0242612Y0095324D01*
X0242452Y0095312D01*
X0242291Y0095304D01*
X0242130Y0095300D01*
X0241970Y0095300D01*
X0241809Y0095304D01*
X0241648Y0095312D01*
X0241488Y0095324D01*
X0241328Y0095340D01*
X0241168Y0095360D01*
X0241009Y0095384D01*
X0240851Y0095412D01*
X0240693Y0095443D01*
X0240537Y0095479D01*
X0240381Y0095518D01*
X0240226Y0095561D01*
X0240072Y0095608D01*
X0239919Y0095659D01*
X0239768Y0095714D01*
X0239618Y0095772D01*
X0239470Y0095834D01*
X0239323Y0095900D01*
X0239178Y0095969D01*
X0239035Y0096042D01*
X0238893Y0096118D01*
X0238754Y0096198D01*
X0238616Y0096281D01*
X0238481Y0096368D01*
X0238347Y0096458D01*
X0238216Y0096551D01*
X0238088Y0096647D01*
X0237962Y0096747D01*
X0237838Y0096850D01*
X0237717Y0096955D01*
X0237598Y0097064D01*
X0237482Y0097175D01*
X0237369Y0097290D01*
X0237259Y0097407D01*
X0237152Y0097527D01*
X0237048Y0097649D01*
X0236947Y0097774D01*
X0236849Y0097902D01*
X0236754Y0098032D01*
X0236662Y0098164D01*
X0236574Y0098298D01*
X0236489Y0098435D01*
X0236407Y0098573D01*
X0236329Y0098714D01*
X0236255Y0098856D01*
X0236184Y0099000D01*
X0236116Y0099146D01*
X0236053Y0099294D01*
X0235992Y0099443D01*
X0235936Y0099594D01*
X0235883Y0099746D01*
X0235834Y0099899D01*
X0235789Y0100053D01*
X0235748Y0100208D01*
X0235710Y0100365D01*
X0235677Y0100522D01*
X0235647Y0100680D01*
X0235621Y0100839D01*
X0235600Y0100998D01*
X0235582Y0101158D01*
X0235568Y0101318D01*
X0235558Y0101479D01*
X0235552Y0101639D01*
X0235550Y0101800D01*
X0094550Y0101800D02*
X0094552Y0101961D01*
X0094558Y0102121D01*
X0094568Y0102282D01*
X0094582Y0102442D01*
X0094600Y0102602D01*
X0094621Y0102761D01*
X0094647Y0102920D01*
X0094677Y0103078D01*
X0094710Y0103235D01*
X0094748Y0103392D01*
X0094789Y0103547D01*
X0094834Y0103701D01*
X0094883Y0103854D01*
X0094936Y0104006D01*
X0094992Y0104157D01*
X0095053Y0104306D01*
X0095116Y0104454D01*
X0095184Y0104600D01*
X0095255Y0104744D01*
X0095329Y0104886D01*
X0095407Y0105027D01*
X0095489Y0105165D01*
X0095574Y0105302D01*
X0095662Y0105436D01*
X0095754Y0105568D01*
X0095849Y0105698D01*
X0095947Y0105826D01*
X0096048Y0105951D01*
X0096152Y0106073D01*
X0096259Y0106193D01*
X0096369Y0106310D01*
X0096482Y0106425D01*
X0096598Y0106536D01*
X0096717Y0106645D01*
X0096838Y0106750D01*
X0096962Y0106853D01*
X0097088Y0106953D01*
X0097216Y0107049D01*
X0097347Y0107142D01*
X0097481Y0107232D01*
X0097616Y0107319D01*
X0097754Y0107402D01*
X0097893Y0107482D01*
X0098035Y0107558D01*
X0098178Y0107631D01*
X0098323Y0107700D01*
X0098470Y0107766D01*
X0098618Y0107828D01*
X0098768Y0107886D01*
X0098919Y0107941D01*
X0099072Y0107992D01*
X0099226Y0108039D01*
X0099381Y0108082D01*
X0099537Y0108121D01*
X0099693Y0108157D01*
X0099851Y0108188D01*
X0100009Y0108216D01*
X0100168Y0108240D01*
X0100328Y0108260D01*
X0100488Y0108276D01*
X0100648Y0108288D01*
X0100809Y0108296D01*
X0100970Y0108300D01*
X0101130Y0108300D01*
X0101291Y0108296D01*
X0101452Y0108288D01*
X0101612Y0108276D01*
X0101772Y0108260D01*
X0101932Y0108240D01*
X0102091Y0108216D01*
X0102249Y0108188D01*
X0102407Y0108157D01*
X0102563Y0108121D01*
X0102719Y0108082D01*
X0102874Y0108039D01*
X0103028Y0107992D01*
X0103181Y0107941D01*
X0103332Y0107886D01*
X0103482Y0107828D01*
X0103630Y0107766D01*
X0103777Y0107700D01*
X0103922Y0107631D01*
X0104065Y0107558D01*
X0104207Y0107482D01*
X0104346Y0107402D01*
X0104484Y0107319D01*
X0104619Y0107232D01*
X0104753Y0107142D01*
X0104884Y0107049D01*
X0105012Y0106953D01*
X0105138Y0106853D01*
X0105262Y0106750D01*
X0105383Y0106645D01*
X0105502Y0106536D01*
X0105618Y0106425D01*
X0105731Y0106310D01*
X0105841Y0106193D01*
X0105948Y0106073D01*
X0106052Y0105951D01*
X0106153Y0105826D01*
X0106251Y0105698D01*
X0106346Y0105568D01*
X0106438Y0105436D01*
X0106526Y0105302D01*
X0106611Y0105165D01*
X0106693Y0105027D01*
X0106771Y0104886D01*
X0106845Y0104744D01*
X0106916Y0104600D01*
X0106984Y0104454D01*
X0107047Y0104306D01*
X0107108Y0104157D01*
X0107164Y0104006D01*
X0107217Y0103854D01*
X0107266Y0103701D01*
X0107311Y0103547D01*
X0107352Y0103392D01*
X0107390Y0103235D01*
X0107423Y0103078D01*
X0107453Y0102920D01*
X0107479Y0102761D01*
X0107500Y0102602D01*
X0107518Y0102442D01*
X0107532Y0102282D01*
X0107542Y0102121D01*
X0107548Y0101961D01*
X0107550Y0101800D01*
X0107548Y0101639D01*
X0107542Y0101479D01*
X0107532Y0101318D01*
X0107518Y0101158D01*
X0107500Y0100998D01*
X0107479Y0100839D01*
X0107453Y0100680D01*
X0107423Y0100522D01*
X0107390Y0100365D01*
X0107352Y0100208D01*
X0107311Y0100053D01*
X0107266Y0099899D01*
X0107217Y0099746D01*
X0107164Y0099594D01*
X0107108Y0099443D01*
X0107047Y0099294D01*
X0106984Y0099146D01*
X0106916Y0099000D01*
X0106845Y0098856D01*
X0106771Y0098714D01*
X0106693Y0098573D01*
X0106611Y0098435D01*
X0106526Y0098298D01*
X0106438Y0098164D01*
X0106346Y0098032D01*
X0106251Y0097902D01*
X0106153Y0097774D01*
X0106052Y0097649D01*
X0105948Y0097527D01*
X0105841Y0097407D01*
X0105731Y0097290D01*
X0105618Y0097175D01*
X0105502Y0097064D01*
X0105383Y0096955D01*
X0105262Y0096850D01*
X0105138Y0096747D01*
X0105012Y0096647D01*
X0104884Y0096551D01*
X0104753Y0096458D01*
X0104619Y0096368D01*
X0104484Y0096281D01*
X0104346Y0096198D01*
X0104207Y0096118D01*
X0104065Y0096042D01*
X0103922Y0095969D01*
X0103777Y0095900D01*
X0103630Y0095834D01*
X0103482Y0095772D01*
X0103332Y0095714D01*
X0103181Y0095659D01*
X0103028Y0095608D01*
X0102874Y0095561D01*
X0102719Y0095518D01*
X0102563Y0095479D01*
X0102407Y0095443D01*
X0102249Y0095412D01*
X0102091Y0095384D01*
X0101932Y0095360D01*
X0101772Y0095340D01*
X0101612Y0095324D01*
X0101452Y0095312D01*
X0101291Y0095304D01*
X0101130Y0095300D01*
X0100970Y0095300D01*
X0100809Y0095304D01*
X0100648Y0095312D01*
X0100488Y0095324D01*
X0100328Y0095340D01*
X0100168Y0095360D01*
X0100009Y0095384D01*
X0099851Y0095412D01*
X0099693Y0095443D01*
X0099537Y0095479D01*
X0099381Y0095518D01*
X0099226Y0095561D01*
X0099072Y0095608D01*
X0098919Y0095659D01*
X0098768Y0095714D01*
X0098618Y0095772D01*
X0098470Y0095834D01*
X0098323Y0095900D01*
X0098178Y0095969D01*
X0098035Y0096042D01*
X0097893Y0096118D01*
X0097754Y0096198D01*
X0097616Y0096281D01*
X0097481Y0096368D01*
X0097347Y0096458D01*
X0097216Y0096551D01*
X0097088Y0096647D01*
X0096962Y0096747D01*
X0096838Y0096850D01*
X0096717Y0096955D01*
X0096598Y0097064D01*
X0096482Y0097175D01*
X0096369Y0097290D01*
X0096259Y0097407D01*
X0096152Y0097527D01*
X0096048Y0097649D01*
X0095947Y0097774D01*
X0095849Y0097902D01*
X0095754Y0098032D01*
X0095662Y0098164D01*
X0095574Y0098298D01*
X0095489Y0098435D01*
X0095407Y0098573D01*
X0095329Y0098714D01*
X0095255Y0098856D01*
X0095184Y0099000D01*
X0095116Y0099146D01*
X0095053Y0099294D01*
X0094992Y0099443D01*
X0094936Y0099594D01*
X0094883Y0099746D01*
X0094834Y0099899D01*
X0094789Y0100053D01*
X0094748Y0100208D01*
X0094710Y0100365D01*
X0094677Y0100522D01*
X0094647Y0100680D01*
X0094621Y0100839D01*
X0094600Y0100998D01*
X0094582Y0101158D01*
X0094568Y0101318D01*
X0094558Y0101479D01*
X0094552Y0101639D01*
X0094550Y0101800D01*
D11*
X0157495Y0092151D02*
X0159125Y0092151D01*
X0159125Y0087685D01*
X0157495Y0087685D01*
X0157495Y0092151D01*
X0157495Y0089018D02*
X0159125Y0089018D01*
X0159125Y0090351D02*
X0157495Y0090351D01*
X0157495Y0091684D02*
X0159125Y0091684D01*
X0161235Y0092151D02*
X0162865Y0092151D01*
X0162865Y0087685D01*
X0161235Y0087685D01*
X0161235Y0092151D01*
X0161235Y0089018D02*
X0162865Y0089018D01*
X0162865Y0090351D02*
X0161235Y0090351D01*
X0161235Y0091684D02*
X0162865Y0091684D01*
X0164975Y0092151D02*
X0166605Y0092151D01*
X0166605Y0087685D01*
X0164975Y0087685D01*
X0164975Y0092151D01*
X0164975Y0089018D02*
X0166605Y0089018D01*
X0166605Y0090351D02*
X0164975Y0090351D01*
X0164975Y0091684D02*
X0166605Y0091684D01*
X0166605Y0081915D02*
X0164975Y0081915D01*
X0166605Y0081915D02*
X0166605Y0077449D01*
X0164975Y0077449D01*
X0164975Y0081915D01*
X0164975Y0078782D02*
X0166605Y0078782D01*
X0166605Y0080115D02*
X0164975Y0080115D01*
X0164975Y0081448D02*
X0166605Y0081448D01*
X0159125Y0081915D02*
X0157495Y0081915D01*
X0159125Y0081915D02*
X0159125Y0077449D01*
X0157495Y0077449D01*
X0157495Y0081915D01*
X0157495Y0078782D02*
X0159125Y0078782D01*
X0159125Y0080115D02*
X0157495Y0080115D01*
X0157495Y0081448D02*
X0159125Y0081448D01*
D12*
X0136412Y0058800D02*
X0131688Y0058800D01*
X0131688Y0048800D02*
X0136412Y0048800D01*
D13*
X0114050Y0038800D03*
X0114050Y0078800D03*
D14*
X0168222Y0073398D02*
X0170792Y0073398D01*
X0170792Y0070202D01*
X0168222Y0070202D01*
X0168222Y0073398D01*
X0168222Y0072305D02*
X0170792Y0072305D01*
X0175308Y0073398D02*
X0177878Y0073398D01*
X0177878Y0070202D01*
X0175308Y0070202D01*
X0175308Y0073398D01*
X0175308Y0072305D02*
X0177878Y0072305D01*
X0177878Y0065398D02*
X0175308Y0065398D01*
X0177878Y0065398D02*
X0177878Y0062202D01*
X0175308Y0062202D01*
X0175308Y0065398D01*
X0175308Y0064305D02*
X0177878Y0064305D01*
X0170792Y0065398D02*
X0168222Y0065398D01*
X0170792Y0065398D02*
X0170792Y0062202D01*
X0168222Y0062202D01*
X0168222Y0065398D01*
X0168222Y0064305D02*
X0170792Y0064305D01*
X0169792Y0054202D02*
X0167222Y0054202D01*
X0167222Y0057398D01*
X0169792Y0057398D01*
X0169792Y0054202D01*
X0169792Y0056305D02*
X0167222Y0056305D01*
X0174308Y0054202D02*
X0176878Y0054202D01*
X0174308Y0054202D02*
X0174308Y0057398D01*
X0176878Y0057398D01*
X0176878Y0054202D01*
X0176878Y0056305D02*
X0174308Y0056305D01*
X0222222Y0066202D02*
X0224792Y0066202D01*
X0222222Y0066202D02*
X0222222Y0069398D01*
X0224792Y0069398D01*
X0224792Y0066202D01*
X0224792Y0068305D02*
X0222222Y0068305D01*
X0229308Y0066202D02*
X0231878Y0066202D01*
X0229308Y0066202D02*
X0229308Y0069398D01*
X0231878Y0069398D01*
X0231878Y0066202D01*
X0231878Y0068305D02*
X0229308Y0068305D01*
X0229308Y0074202D02*
X0231878Y0074202D01*
X0229308Y0074202D02*
X0229308Y0077398D01*
X0231878Y0077398D01*
X0231878Y0074202D01*
X0231878Y0076305D02*
X0229308Y0076305D01*
X0224792Y0074202D02*
X0222222Y0074202D01*
X0222222Y0077398D01*
X0224792Y0077398D01*
X0224792Y0074202D01*
X0224792Y0076305D02*
X0222222Y0076305D01*
X0181878Y0090398D02*
X0179308Y0090398D01*
X0181878Y0090398D02*
X0181878Y0087202D01*
X0179308Y0087202D01*
X0179308Y0090398D01*
X0179308Y0089305D02*
X0181878Y0089305D01*
X0174792Y0090398D02*
X0172222Y0090398D01*
X0174792Y0090398D02*
X0174792Y0087202D01*
X0172222Y0087202D01*
X0172222Y0090398D01*
X0172222Y0089305D02*
X0174792Y0089305D01*
D15*
X0242050Y0101800D03*
X0101050Y0101800D03*
X0101050Y0015800D03*
X0242050Y0015800D03*
D16*
X0189239Y0021800D03*
D17*
X0197113Y0021800D03*
X0204987Y0021800D03*
X0212861Y0021800D03*
D18*
X0244050Y0038800D03*
D19*
X0244050Y0048800D03*
X0244050Y0058800D03*
X0244050Y0068800D03*
X0244050Y0078800D03*
D20*
X0213322Y0052284D03*
D21*
X0216171Y0054169D02*
X0216171Y0055517D01*
X0216171Y0054169D02*
X0210473Y0054169D01*
X0210473Y0055517D01*
X0216171Y0055517D01*
X0216171Y0055270D02*
X0210473Y0055270D01*
X0216171Y0056728D02*
X0216171Y0058076D01*
X0216171Y0056728D02*
X0210473Y0056728D01*
X0210473Y0058076D01*
X0216171Y0058076D01*
X0216171Y0057829D02*
X0210473Y0057829D01*
X0216171Y0059287D02*
X0216171Y0060635D01*
X0216171Y0059287D02*
X0210473Y0059287D01*
X0210473Y0060635D01*
X0216171Y0060635D01*
X0216171Y0060388D02*
X0210473Y0060388D01*
X0216171Y0061846D02*
X0216171Y0063194D01*
X0216171Y0061846D02*
X0210473Y0061846D01*
X0210473Y0063194D01*
X0216171Y0063194D01*
X0216171Y0062947D02*
X0210473Y0062947D01*
X0216171Y0064406D02*
X0216171Y0065754D01*
X0216171Y0064406D02*
X0210473Y0064406D01*
X0210473Y0065754D01*
X0216171Y0065754D01*
X0216171Y0065507D02*
X0210473Y0065507D01*
X0216171Y0066965D02*
X0216171Y0068313D01*
X0216171Y0066965D02*
X0210473Y0066965D01*
X0210473Y0068313D01*
X0216171Y0068313D01*
X0216171Y0068066D02*
X0210473Y0068066D01*
X0216171Y0069524D02*
X0216171Y0070872D01*
X0216171Y0069524D02*
X0210473Y0069524D01*
X0210473Y0070872D01*
X0216171Y0070872D01*
X0216171Y0070625D02*
X0210473Y0070625D01*
X0216171Y0072083D02*
X0216171Y0073431D01*
X0216171Y0072083D02*
X0210473Y0072083D01*
X0210473Y0073431D01*
X0216171Y0073431D01*
X0216171Y0073184D02*
X0210473Y0073184D01*
X0216171Y0074642D02*
X0216171Y0075990D01*
X0216171Y0074642D02*
X0210473Y0074642D01*
X0210473Y0075990D01*
X0216171Y0075990D01*
X0216171Y0075743D02*
X0210473Y0075743D01*
X0187627Y0075990D02*
X0187627Y0074642D01*
X0181929Y0074642D01*
X0181929Y0075990D01*
X0187627Y0075990D01*
X0187627Y0075743D02*
X0181929Y0075743D01*
X0187627Y0073431D02*
X0187627Y0072083D01*
X0181929Y0072083D01*
X0181929Y0073431D01*
X0187627Y0073431D01*
X0187627Y0073184D02*
X0181929Y0073184D01*
X0187627Y0070872D02*
X0187627Y0069524D01*
X0181929Y0069524D01*
X0181929Y0070872D01*
X0187627Y0070872D01*
X0187627Y0070625D02*
X0181929Y0070625D01*
X0187627Y0068313D02*
X0187627Y0066965D01*
X0181929Y0066965D01*
X0181929Y0068313D01*
X0187627Y0068313D01*
X0187627Y0068066D02*
X0181929Y0068066D01*
X0187627Y0065754D02*
X0187627Y0064406D01*
X0181929Y0064406D01*
X0181929Y0065754D01*
X0187627Y0065754D01*
X0187627Y0065507D02*
X0181929Y0065507D01*
X0187627Y0063194D02*
X0187627Y0061846D01*
X0181929Y0061846D01*
X0181929Y0063194D01*
X0187627Y0063194D01*
X0187627Y0062947D02*
X0181929Y0062947D01*
X0187627Y0060635D02*
X0187627Y0059287D01*
X0181929Y0059287D01*
X0181929Y0060635D01*
X0187627Y0060635D01*
X0187627Y0060388D02*
X0181929Y0060388D01*
X0187627Y0058076D02*
X0187627Y0056728D01*
X0181929Y0056728D01*
X0181929Y0058076D01*
X0187627Y0058076D01*
X0187627Y0057829D02*
X0181929Y0057829D01*
X0187627Y0055517D02*
X0187627Y0054169D01*
X0181929Y0054169D01*
X0181929Y0055517D01*
X0187627Y0055517D01*
X0187627Y0055270D02*
X0181929Y0055270D01*
X0187627Y0052958D02*
X0187627Y0051610D01*
X0181929Y0051610D01*
X0181929Y0052958D01*
X0187627Y0052958D01*
X0187627Y0052711D02*
X0181929Y0052711D01*
D22*
X0220850Y0090800D03*
X0224050Y0090800D03*
X0227250Y0090800D03*
D23*
X0228877Y0043277D02*
X0231023Y0043277D01*
X0228877Y0043277D02*
X0228877Y0046323D01*
X0231023Y0046323D01*
X0231023Y0043277D01*
X0231023Y0045031D02*
X0228877Y0045031D01*
X0223423Y0043277D02*
X0221277Y0043277D01*
X0221277Y0046323D01*
X0223423Y0046323D01*
X0223423Y0043277D01*
X0223423Y0045031D02*
X0221277Y0045031D01*
X0225077Y0035277D02*
X0227223Y0035277D01*
X0225077Y0035277D02*
X0225077Y0038323D01*
X0227223Y0038323D01*
X0227223Y0035277D01*
X0227223Y0037031D02*
X0225077Y0037031D01*
D24*
X0236050Y0032800D03*
X0211050Y0046800D03*
X0223050Y0052800D03*
X0197050Y0056800D03*
X0173050Y0044800D03*
X0167050Y0041800D03*
X0166050Y0048800D03*
X0163050Y0059800D03*
X0141050Y0053800D03*
X0120050Y0047800D03*
X0134050Y0041800D03*
X0141050Y0042800D03*
X0140050Y0035800D03*
X0126050Y0033800D03*
X0139050Y0025800D03*
X0170050Y0019800D03*
X0184050Y0018800D03*
X0213050Y0015800D03*
X0183050Y0038800D03*
X0117050Y0062800D03*
X0094050Y0076800D03*
X0099050Y0078800D03*
X0127050Y0080800D03*
X0142050Y0082800D03*
X0149050Y0080800D03*
X0154050Y0076800D03*
X0176050Y0081800D03*
X0196050Y0090800D03*
X0189050Y0093800D03*
X0173050Y0093800D03*
X0150050Y0092800D03*
X0145050Y0107800D03*
X0128050Y0108800D03*
X0196050Y0071800D03*
X0218050Y0080800D03*
X0236050Y0076800D03*
X0215050Y0092800D03*
X0224050Y0098800D03*
X0215050Y0102800D03*
X0102050Y0046800D03*
X0095050Y0032800D03*
M02*
