%
M48
M72
T01C0.01575
T02C0.03150
T03C0.04000
T04C0.08661
T05C0.13000
%
T01
X128050Y108800
X145050Y107800
X173050Y93800
X189050Y93800
X196050Y90800
X215050Y92800
X224050Y98800
X215050Y102800
X218050Y80800
X236050Y76800
X196050Y71800
X176050Y81800
X154050Y76800
X149050Y80800
X142050Y82800
X127050Y80800
X150050Y92800
X99050Y78800
X94050Y76800
X117050Y62800
X141050Y53800
X120050Y47800
X134050Y41800
X141050Y42800
X140050Y35800
X126050Y33800
X139050Y25800
X170050Y19800
X184050Y18800
X213050Y15800
X236050Y32800
X211050Y46800
X223050Y52800
X197050Y56800
X173050Y44800
X167050Y41800
X166050Y48800
X163050Y59800
X183050Y38800
X102050Y46800
X95050Y32800
T02
X134050Y48800
X134050Y58800
X189239Y21800
X197113Y21800
X204987Y21800
X212861Y21800
T03
X244050Y78800
X244050Y68800
X244050Y58800
X244050Y48800
X244050Y38800
T04
X114050Y38800
X114050Y78800
T05
X101050Y15800
X242050Y15800
X242050Y101800
X101050Y101800
M30
