G75*
%MOIN*%
%OFA0B0*%
%FSLAX25Y25*%
%IPPOS*%
%LPD*%
%AMOC8*
5,1,8,0,0,1.08239X$1,22.5*
%
%ADD10C,0.00000*%
%ADD11C,0.03200*%
%ADD12C,0.00600*%
%ADD13C,0.00100*%
%ADD14C,0.00591*%
%ADD15R,0.03500X0.00500*%
%ADD16R,0.17500X0.00500*%
%ADD17R,0.05500X0.00500*%
%ADD18R,0.07500X0.00500*%
%ADD19R,0.08500X0.00500*%
%ADD20R,0.09500X0.00500*%
%ADD21R,0.02000X0.00500*%
%ADD22R,0.10500X0.00500*%
%ADD23R,0.01000X0.00500*%
%ADD24R,0.11500X0.00500*%
%ADD25R,0.02500X0.00500*%
%ADD26R,0.04500X0.00500*%
%ADD27R,0.03000X0.00500*%
%ADD28R,0.01500X0.00500*%
%ADD29R,0.06500X0.00500*%
%ADD30R,0.04000X0.00500*%
%ADD31R,0.00500X0.00500*%
%ADD32R,0.18000X0.00500*%
%ADD33C,0.00800*%
D10*
X0089050Y0003800D02*
X0089050Y0113800D01*
X0254050Y0113800D01*
X0254050Y0003800D01*
X0089050Y0003800D01*
X0094550Y0015800D02*
X0094552Y0015961D01*
X0094558Y0016121D01*
X0094568Y0016282D01*
X0094582Y0016442D01*
X0094600Y0016602D01*
X0094621Y0016761D01*
X0094647Y0016920D01*
X0094677Y0017078D01*
X0094710Y0017235D01*
X0094748Y0017392D01*
X0094789Y0017547D01*
X0094834Y0017701D01*
X0094883Y0017854D01*
X0094936Y0018006D01*
X0094992Y0018157D01*
X0095053Y0018306D01*
X0095116Y0018454D01*
X0095184Y0018600D01*
X0095255Y0018744D01*
X0095329Y0018886D01*
X0095407Y0019027D01*
X0095489Y0019165D01*
X0095574Y0019302D01*
X0095662Y0019436D01*
X0095754Y0019568D01*
X0095849Y0019698D01*
X0095947Y0019826D01*
X0096048Y0019951D01*
X0096152Y0020073D01*
X0096259Y0020193D01*
X0096369Y0020310D01*
X0096482Y0020425D01*
X0096598Y0020536D01*
X0096717Y0020645D01*
X0096838Y0020750D01*
X0096962Y0020853D01*
X0097088Y0020953D01*
X0097216Y0021049D01*
X0097347Y0021142D01*
X0097481Y0021232D01*
X0097616Y0021319D01*
X0097754Y0021402D01*
X0097893Y0021482D01*
X0098035Y0021558D01*
X0098178Y0021631D01*
X0098323Y0021700D01*
X0098470Y0021766D01*
X0098618Y0021828D01*
X0098768Y0021886D01*
X0098919Y0021941D01*
X0099072Y0021992D01*
X0099226Y0022039D01*
X0099381Y0022082D01*
X0099537Y0022121D01*
X0099693Y0022157D01*
X0099851Y0022188D01*
X0100009Y0022216D01*
X0100168Y0022240D01*
X0100328Y0022260D01*
X0100488Y0022276D01*
X0100648Y0022288D01*
X0100809Y0022296D01*
X0100970Y0022300D01*
X0101130Y0022300D01*
X0101291Y0022296D01*
X0101452Y0022288D01*
X0101612Y0022276D01*
X0101772Y0022260D01*
X0101932Y0022240D01*
X0102091Y0022216D01*
X0102249Y0022188D01*
X0102407Y0022157D01*
X0102563Y0022121D01*
X0102719Y0022082D01*
X0102874Y0022039D01*
X0103028Y0021992D01*
X0103181Y0021941D01*
X0103332Y0021886D01*
X0103482Y0021828D01*
X0103630Y0021766D01*
X0103777Y0021700D01*
X0103922Y0021631D01*
X0104065Y0021558D01*
X0104207Y0021482D01*
X0104346Y0021402D01*
X0104484Y0021319D01*
X0104619Y0021232D01*
X0104753Y0021142D01*
X0104884Y0021049D01*
X0105012Y0020953D01*
X0105138Y0020853D01*
X0105262Y0020750D01*
X0105383Y0020645D01*
X0105502Y0020536D01*
X0105618Y0020425D01*
X0105731Y0020310D01*
X0105841Y0020193D01*
X0105948Y0020073D01*
X0106052Y0019951D01*
X0106153Y0019826D01*
X0106251Y0019698D01*
X0106346Y0019568D01*
X0106438Y0019436D01*
X0106526Y0019302D01*
X0106611Y0019165D01*
X0106693Y0019027D01*
X0106771Y0018886D01*
X0106845Y0018744D01*
X0106916Y0018600D01*
X0106984Y0018454D01*
X0107047Y0018306D01*
X0107108Y0018157D01*
X0107164Y0018006D01*
X0107217Y0017854D01*
X0107266Y0017701D01*
X0107311Y0017547D01*
X0107352Y0017392D01*
X0107390Y0017235D01*
X0107423Y0017078D01*
X0107453Y0016920D01*
X0107479Y0016761D01*
X0107500Y0016602D01*
X0107518Y0016442D01*
X0107532Y0016282D01*
X0107542Y0016121D01*
X0107548Y0015961D01*
X0107550Y0015800D01*
X0107548Y0015639D01*
X0107542Y0015479D01*
X0107532Y0015318D01*
X0107518Y0015158D01*
X0107500Y0014998D01*
X0107479Y0014839D01*
X0107453Y0014680D01*
X0107423Y0014522D01*
X0107390Y0014365D01*
X0107352Y0014208D01*
X0107311Y0014053D01*
X0107266Y0013899D01*
X0107217Y0013746D01*
X0107164Y0013594D01*
X0107108Y0013443D01*
X0107047Y0013294D01*
X0106984Y0013146D01*
X0106916Y0013000D01*
X0106845Y0012856D01*
X0106771Y0012714D01*
X0106693Y0012573D01*
X0106611Y0012435D01*
X0106526Y0012298D01*
X0106438Y0012164D01*
X0106346Y0012032D01*
X0106251Y0011902D01*
X0106153Y0011774D01*
X0106052Y0011649D01*
X0105948Y0011527D01*
X0105841Y0011407D01*
X0105731Y0011290D01*
X0105618Y0011175D01*
X0105502Y0011064D01*
X0105383Y0010955D01*
X0105262Y0010850D01*
X0105138Y0010747D01*
X0105012Y0010647D01*
X0104884Y0010551D01*
X0104753Y0010458D01*
X0104619Y0010368D01*
X0104484Y0010281D01*
X0104346Y0010198D01*
X0104207Y0010118D01*
X0104065Y0010042D01*
X0103922Y0009969D01*
X0103777Y0009900D01*
X0103630Y0009834D01*
X0103482Y0009772D01*
X0103332Y0009714D01*
X0103181Y0009659D01*
X0103028Y0009608D01*
X0102874Y0009561D01*
X0102719Y0009518D01*
X0102563Y0009479D01*
X0102407Y0009443D01*
X0102249Y0009412D01*
X0102091Y0009384D01*
X0101932Y0009360D01*
X0101772Y0009340D01*
X0101612Y0009324D01*
X0101452Y0009312D01*
X0101291Y0009304D01*
X0101130Y0009300D01*
X0100970Y0009300D01*
X0100809Y0009304D01*
X0100648Y0009312D01*
X0100488Y0009324D01*
X0100328Y0009340D01*
X0100168Y0009360D01*
X0100009Y0009384D01*
X0099851Y0009412D01*
X0099693Y0009443D01*
X0099537Y0009479D01*
X0099381Y0009518D01*
X0099226Y0009561D01*
X0099072Y0009608D01*
X0098919Y0009659D01*
X0098768Y0009714D01*
X0098618Y0009772D01*
X0098470Y0009834D01*
X0098323Y0009900D01*
X0098178Y0009969D01*
X0098035Y0010042D01*
X0097893Y0010118D01*
X0097754Y0010198D01*
X0097616Y0010281D01*
X0097481Y0010368D01*
X0097347Y0010458D01*
X0097216Y0010551D01*
X0097088Y0010647D01*
X0096962Y0010747D01*
X0096838Y0010850D01*
X0096717Y0010955D01*
X0096598Y0011064D01*
X0096482Y0011175D01*
X0096369Y0011290D01*
X0096259Y0011407D01*
X0096152Y0011527D01*
X0096048Y0011649D01*
X0095947Y0011774D01*
X0095849Y0011902D01*
X0095754Y0012032D01*
X0095662Y0012164D01*
X0095574Y0012298D01*
X0095489Y0012435D01*
X0095407Y0012573D01*
X0095329Y0012714D01*
X0095255Y0012856D01*
X0095184Y0013000D01*
X0095116Y0013146D01*
X0095053Y0013294D01*
X0094992Y0013443D01*
X0094936Y0013594D01*
X0094883Y0013746D01*
X0094834Y0013899D01*
X0094789Y0014053D01*
X0094748Y0014208D01*
X0094710Y0014365D01*
X0094677Y0014522D01*
X0094647Y0014680D01*
X0094621Y0014839D01*
X0094600Y0014998D01*
X0094582Y0015158D01*
X0094568Y0015318D01*
X0094558Y0015479D01*
X0094552Y0015639D01*
X0094550Y0015800D01*
X0235550Y0015800D02*
X0235552Y0015961D01*
X0235558Y0016121D01*
X0235568Y0016282D01*
X0235582Y0016442D01*
X0235600Y0016602D01*
X0235621Y0016761D01*
X0235647Y0016920D01*
X0235677Y0017078D01*
X0235710Y0017235D01*
X0235748Y0017392D01*
X0235789Y0017547D01*
X0235834Y0017701D01*
X0235883Y0017854D01*
X0235936Y0018006D01*
X0235992Y0018157D01*
X0236053Y0018306D01*
X0236116Y0018454D01*
X0236184Y0018600D01*
X0236255Y0018744D01*
X0236329Y0018886D01*
X0236407Y0019027D01*
X0236489Y0019165D01*
X0236574Y0019302D01*
X0236662Y0019436D01*
X0236754Y0019568D01*
X0236849Y0019698D01*
X0236947Y0019826D01*
X0237048Y0019951D01*
X0237152Y0020073D01*
X0237259Y0020193D01*
X0237369Y0020310D01*
X0237482Y0020425D01*
X0237598Y0020536D01*
X0237717Y0020645D01*
X0237838Y0020750D01*
X0237962Y0020853D01*
X0238088Y0020953D01*
X0238216Y0021049D01*
X0238347Y0021142D01*
X0238481Y0021232D01*
X0238616Y0021319D01*
X0238754Y0021402D01*
X0238893Y0021482D01*
X0239035Y0021558D01*
X0239178Y0021631D01*
X0239323Y0021700D01*
X0239470Y0021766D01*
X0239618Y0021828D01*
X0239768Y0021886D01*
X0239919Y0021941D01*
X0240072Y0021992D01*
X0240226Y0022039D01*
X0240381Y0022082D01*
X0240537Y0022121D01*
X0240693Y0022157D01*
X0240851Y0022188D01*
X0241009Y0022216D01*
X0241168Y0022240D01*
X0241328Y0022260D01*
X0241488Y0022276D01*
X0241648Y0022288D01*
X0241809Y0022296D01*
X0241970Y0022300D01*
X0242130Y0022300D01*
X0242291Y0022296D01*
X0242452Y0022288D01*
X0242612Y0022276D01*
X0242772Y0022260D01*
X0242932Y0022240D01*
X0243091Y0022216D01*
X0243249Y0022188D01*
X0243407Y0022157D01*
X0243563Y0022121D01*
X0243719Y0022082D01*
X0243874Y0022039D01*
X0244028Y0021992D01*
X0244181Y0021941D01*
X0244332Y0021886D01*
X0244482Y0021828D01*
X0244630Y0021766D01*
X0244777Y0021700D01*
X0244922Y0021631D01*
X0245065Y0021558D01*
X0245207Y0021482D01*
X0245346Y0021402D01*
X0245484Y0021319D01*
X0245619Y0021232D01*
X0245753Y0021142D01*
X0245884Y0021049D01*
X0246012Y0020953D01*
X0246138Y0020853D01*
X0246262Y0020750D01*
X0246383Y0020645D01*
X0246502Y0020536D01*
X0246618Y0020425D01*
X0246731Y0020310D01*
X0246841Y0020193D01*
X0246948Y0020073D01*
X0247052Y0019951D01*
X0247153Y0019826D01*
X0247251Y0019698D01*
X0247346Y0019568D01*
X0247438Y0019436D01*
X0247526Y0019302D01*
X0247611Y0019165D01*
X0247693Y0019027D01*
X0247771Y0018886D01*
X0247845Y0018744D01*
X0247916Y0018600D01*
X0247984Y0018454D01*
X0248047Y0018306D01*
X0248108Y0018157D01*
X0248164Y0018006D01*
X0248217Y0017854D01*
X0248266Y0017701D01*
X0248311Y0017547D01*
X0248352Y0017392D01*
X0248390Y0017235D01*
X0248423Y0017078D01*
X0248453Y0016920D01*
X0248479Y0016761D01*
X0248500Y0016602D01*
X0248518Y0016442D01*
X0248532Y0016282D01*
X0248542Y0016121D01*
X0248548Y0015961D01*
X0248550Y0015800D01*
X0248548Y0015639D01*
X0248542Y0015479D01*
X0248532Y0015318D01*
X0248518Y0015158D01*
X0248500Y0014998D01*
X0248479Y0014839D01*
X0248453Y0014680D01*
X0248423Y0014522D01*
X0248390Y0014365D01*
X0248352Y0014208D01*
X0248311Y0014053D01*
X0248266Y0013899D01*
X0248217Y0013746D01*
X0248164Y0013594D01*
X0248108Y0013443D01*
X0248047Y0013294D01*
X0247984Y0013146D01*
X0247916Y0013000D01*
X0247845Y0012856D01*
X0247771Y0012714D01*
X0247693Y0012573D01*
X0247611Y0012435D01*
X0247526Y0012298D01*
X0247438Y0012164D01*
X0247346Y0012032D01*
X0247251Y0011902D01*
X0247153Y0011774D01*
X0247052Y0011649D01*
X0246948Y0011527D01*
X0246841Y0011407D01*
X0246731Y0011290D01*
X0246618Y0011175D01*
X0246502Y0011064D01*
X0246383Y0010955D01*
X0246262Y0010850D01*
X0246138Y0010747D01*
X0246012Y0010647D01*
X0245884Y0010551D01*
X0245753Y0010458D01*
X0245619Y0010368D01*
X0245484Y0010281D01*
X0245346Y0010198D01*
X0245207Y0010118D01*
X0245065Y0010042D01*
X0244922Y0009969D01*
X0244777Y0009900D01*
X0244630Y0009834D01*
X0244482Y0009772D01*
X0244332Y0009714D01*
X0244181Y0009659D01*
X0244028Y0009608D01*
X0243874Y0009561D01*
X0243719Y0009518D01*
X0243563Y0009479D01*
X0243407Y0009443D01*
X0243249Y0009412D01*
X0243091Y0009384D01*
X0242932Y0009360D01*
X0242772Y0009340D01*
X0242612Y0009324D01*
X0242452Y0009312D01*
X0242291Y0009304D01*
X0242130Y0009300D01*
X0241970Y0009300D01*
X0241809Y0009304D01*
X0241648Y0009312D01*
X0241488Y0009324D01*
X0241328Y0009340D01*
X0241168Y0009360D01*
X0241009Y0009384D01*
X0240851Y0009412D01*
X0240693Y0009443D01*
X0240537Y0009479D01*
X0240381Y0009518D01*
X0240226Y0009561D01*
X0240072Y0009608D01*
X0239919Y0009659D01*
X0239768Y0009714D01*
X0239618Y0009772D01*
X0239470Y0009834D01*
X0239323Y0009900D01*
X0239178Y0009969D01*
X0239035Y0010042D01*
X0238893Y0010118D01*
X0238754Y0010198D01*
X0238616Y0010281D01*
X0238481Y0010368D01*
X0238347Y0010458D01*
X0238216Y0010551D01*
X0238088Y0010647D01*
X0237962Y0010747D01*
X0237838Y0010850D01*
X0237717Y0010955D01*
X0237598Y0011064D01*
X0237482Y0011175D01*
X0237369Y0011290D01*
X0237259Y0011407D01*
X0237152Y0011527D01*
X0237048Y0011649D01*
X0236947Y0011774D01*
X0236849Y0011902D01*
X0236754Y0012032D01*
X0236662Y0012164D01*
X0236574Y0012298D01*
X0236489Y0012435D01*
X0236407Y0012573D01*
X0236329Y0012714D01*
X0236255Y0012856D01*
X0236184Y0013000D01*
X0236116Y0013146D01*
X0236053Y0013294D01*
X0235992Y0013443D01*
X0235936Y0013594D01*
X0235883Y0013746D01*
X0235834Y0013899D01*
X0235789Y0014053D01*
X0235748Y0014208D01*
X0235710Y0014365D01*
X0235677Y0014522D01*
X0235647Y0014680D01*
X0235621Y0014839D01*
X0235600Y0014998D01*
X0235582Y0015158D01*
X0235568Y0015318D01*
X0235558Y0015479D01*
X0235552Y0015639D01*
X0235550Y0015800D01*
X0235550Y0101800D02*
X0235552Y0101961D01*
X0235558Y0102121D01*
X0235568Y0102282D01*
X0235582Y0102442D01*
X0235600Y0102602D01*
X0235621Y0102761D01*
X0235647Y0102920D01*
X0235677Y0103078D01*
X0235710Y0103235D01*
X0235748Y0103392D01*
X0235789Y0103547D01*
X0235834Y0103701D01*
X0235883Y0103854D01*
X0235936Y0104006D01*
X0235992Y0104157D01*
X0236053Y0104306D01*
X0236116Y0104454D01*
X0236184Y0104600D01*
X0236255Y0104744D01*
X0236329Y0104886D01*
X0236407Y0105027D01*
X0236489Y0105165D01*
X0236574Y0105302D01*
X0236662Y0105436D01*
X0236754Y0105568D01*
X0236849Y0105698D01*
X0236947Y0105826D01*
X0237048Y0105951D01*
X0237152Y0106073D01*
X0237259Y0106193D01*
X0237369Y0106310D01*
X0237482Y0106425D01*
X0237598Y0106536D01*
X0237717Y0106645D01*
X0237838Y0106750D01*
X0237962Y0106853D01*
X0238088Y0106953D01*
X0238216Y0107049D01*
X0238347Y0107142D01*
X0238481Y0107232D01*
X0238616Y0107319D01*
X0238754Y0107402D01*
X0238893Y0107482D01*
X0239035Y0107558D01*
X0239178Y0107631D01*
X0239323Y0107700D01*
X0239470Y0107766D01*
X0239618Y0107828D01*
X0239768Y0107886D01*
X0239919Y0107941D01*
X0240072Y0107992D01*
X0240226Y0108039D01*
X0240381Y0108082D01*
X0240537Y0108121D01*
X0240693Y0108157D01*
X0240851Y0108188D01*
X0241009Y0108216D01*
X0241168Y0108240D01*
X0241328Y0108260D01*
X0241488Y0108276D01*
X0241648Y0108288D01*
X0241809Y0108296D01*
X0241970Y0108300D01*
X0242130Y0108300D01*
X0242291Y0108296D01*
X0242452Y0108288D01*
X0242612Y0108276D01*
X0242772Y0108260D01*
X0242932Y0108240D01*
X0243091Y0108216D01*
X0243249Y0108188D01*
X0243407Y0108157D01*
X0243563Y0108121D01*
X0243719Y0108082D01*
X0243874Y0108039D01*
X0244028Y0107992D01*
X0244181Y0107941D01*
X0244332Y0107886D01*
X0244482Y0107828D01*
X0244630Y0107766D01*
X0244777Y0107700D01*
X0244922Y0107631D01*
X0245065Y0107558D01*
X0245207Y0107482D01*
X0245346Y0107402D01*
X0245484Y0107319D01*
X0245619Y0107232D01*
X0245753Y0107142D01*
X0245884Y0107049D01*
X0246012Y0106953D01*
X0246138Y0106853D01*
X0246262Y0106750D01*
X0246383Y0106645D01*
X0246502Y0106536D01*
X0246618Y0106425D01*
X0246731Y0106310D01*
X0246841Y0106193D01*
X0246948Y0106073D01*
X0247052Y0105951D01*
X0247153Y0105826D01*
X0247251Y0105698D01*
X0247346Y0105568D01*
X0247438Y0105436D01*
X0247526Y0105302D01*
X0247611Y0105165D01*
X0247693Y0105027D01*
X0247771Y0104886D01*
X0247845Y0104744D01*
X0247916Y0104600D01*
X0247984Y0104454D01*
X0248047Y0104306D01*
X0248108Y0104157D01*
X0248164Y0104006D01*
X0248217Y0103854D01*
X0248266Y0103701D01*
X0248311Y0103547D01*
X0248352Y0103392D01*
X0248390Y0103235D01*
X0248423Y0103078D01*
X0248453Y0102920D01*
X0248479Y0102761D01*
X0248500Y0102602D01*
X0248518Y0102442D01*
X0248532Y0102282D01*
X0248542Y0102121D01*
X0248548Y0101961D01*
X0248550Y0101800D01*
X0248548Y0101639D01*
X0248542Y0101479D01*
X0248532Y0101318D01*
X0248518Y0101158D01*
X0248500Y0100998D01*
X0248479Y0100839D01*
X0248453Y0100680D01*
X0248423Y0100522D01*
X0248390Y0100365D01*
X0248352Y0100208D01*
X0248311Y0100053D01*
X0248266Y0099899D01*
X0248217Y0099746D01*
X0248164Y0099594D01*
X0248108Y0099443D01*
X0248047Y0099294D01*
X0247984Y0099146D01*
X0247916Y0099000D01*
X0247845Y0098856D01*
X0247771Y0098714D01*
X0247693Y0098573D01*
X0247611Y0098435D01*
X0247526Y0098298D01*
X0247438Y0098164D01*
X0247346Y0098032D01*
X0247251Y0097902D01*
X0247153Y0097774D01*
X0247052Y0097649D01*
X0246948Y0097527D01*
X0246841Y0097407D01*
X0246731Y0097290D01*
X0246618Y0097175D01*
X0246502Y0097064D01*
X0246383Y0096955D01*
X0246262Y0096850D01*
X0246138Y0096747D01*
X0246012Y0096647D01*
X0245884Y0096551D01*
X0245753Y0096458D01*
X0245619Y0096368D01*
X0245484Y0096281D01*
X0245346Y0096198D01*
X0245207Y0096118D01*
X0245065Y0096042D01*
X0244922Y0095969D01*
X0244777Y0095900D01*
X0244630Y0095834D01*
X0244482Y0095772D01*
X0244332Y0095714D01*
X0244181Y0095659D01*
X0244028Y0095608D01*
X0243874Y0095561D01*
X0243719Y0095518D01*
X0243563Y0095479D01*
X0243407Y0095443D01*
X0243249Y0095412D01*
X0243091Y0095384D01*
X0242932Y0095360D01*
X0242772Y0095340D01*
X0242612Y0095324D01*
X0242452Y0095312D01*
X0242291Y0095304D01*
X0242130Y0095300D01*
X0241970Y0095300D01*
X0241809Y0095304D01*
X0241648Y0095312D01*
X0241488Y0095324D01*
X0241328Y0095340D01*
X0241168Y0095360D01*
X0241009Y0095384D01*
X0240851Y0095412D01*
X0240693Y0095443D01*
X0240537Y0095479D01*
X0240381Y0095518D01*
X0240226Y0095561D01*
X0240072Y0095608D01*
X0239919Y0095659D01*
X0239768Y0095714D01*
X0239618Y0095772D01*
X0239470Y0095834D01*
X0239323Y0095900D01*
X0239178Y0095969D01*
X0239035Y0096042D01*
X0238893Y0096118D01*
X0238754Y0096198D01*
X0238616Y0096281D01*
X0238481Y0096368D01*
X0238347Y0096458D01*
X0238216Y0096551D01*
X0238088Y0096647D01*
X0237962Y0096747D01*
X0237838Y0096850D01*
X0237717Y0096955D01*
X0237598Y0097064D01*
X0237482Y0097175D01*
X0237369Y0097290D01*
X0237259Y0097407D01*
X0237152Y0097527D01*
X0237048Y0097649D01*
X0236947Y0097774D01*
X0236849Y0097902D01*
X0236754Y0098032D01*
X0236662Y0098164D01*
X0236574Y0098298D01*
X0236489Y0098435D01*
X0236407Y0098573D01*
X0236329Y0098714D01*
X0236255Y0098856D01*
X0236184Y0099000D01*
X0236116Y0099146D01*
X0236053Y0099294D01*
X0235992Y0099443D01*
X0235936Y0099594D01*
X0235883Y0099746D01*
X0235834Y0099899D01*
X0235789Y0100053D01*
X0235748Y0100208D01*
X0235710Y0100365D01*
X0235677Y0100522D01*
X0235647Y0100680D01*
X0235621Y0100839D01*
X0235600Y0100998D01*
X0235582Y0101158D01*
X0235568Y0101318D01*
X0235558Y0101479D01*
X0235552Y0101639D01*
X0235550Y0101800D01*
X0094550Y0101800D02*
X0094552Y0101961D01*
X0094558Y0102121D01*
X0094568Y0102282D01*
X0094582Y0102442D01*
X0094600Y0102602D01*
X0094621Y0102761D01*
X0094647Y0102920D01*
X0094677Y0103078D01*
X0094710Y0103235D01*
X0094748Y0103392D01*
X0094789Y0103547D01*
X0094834Y0103701D01*
X0094883Y0103854D01*
X0094936Y0104006D01*
X0094992Y0104157D01*
X0095053Y0104306D01*
X0095116Y0104454D01*
X0095184Y0104600D01*
X0095255Y0104744D01*
X0095329Y0104886D01*
X0095407Y0105027D01*
X0095489Y0105165D01*
X0095574Y0105302D01*
X0095662Y0105436D01*
X0095754Y0105568D01*
X0095849Y0105698D01*
X0095947Y0105826D01*
X0096048Y0105951D01*
X0096152Y0106073D01*
X0096259Y0106193D01*
X0096369Y0106310D01*
X0096482Y0106425D01*
X0096598Y0106536D01*
X0096717Y0106645D01*
X0096838Y0106750D01*
X0096962Y0106853D01*
X0097088Y0106953D01*
X0097216Y0107049D01*
X0097347Y0107142D01*
X0097481Y0107232D01*
X0097616Y0107319D01*
X0097754Y0107402D01*
X0097893Y0107482D01*
X0098035Y0107558D01*
X0098178Y0107631D01*
X0098323Y0107700D01*
X0098470Y0107766D01*
X0098618Y0107828D01*
X0098768Y0107886D01*
X0098919Y0107941D01*
X0099072Y0107992D01*
X0099226Y0108039D01*
X0099381Y0108082D01*
X0099537Y0108121D01*
X0099693Y0108157D01*
X0099851Y0108188D01*
X0100009Y0108216D01*
X0100168Y0108240D01*
X0100328Y0108260D01*
X0100488Y0108276D01*
X0100648Y0108288D01*
X0100809Y0108296D01*
X0100970Y0108300D01*
X0101130Y0108300D01*
X0101291Y0108296D01*
X0101452Y0108288D01*
X0101612Y0108276D01*
X0101772Y0108260D01*
X0101932Y0108240D01*
X0102091Y0108216D01*
X0102249Y0108188D01*
X0102407Y0108157D01*
X0102563Y0108121D01*
X0102719Y0108082D01*
X0102874Y0108039D01*
X0103028Y0107992D01*
X0103181Y0107941D01*
X0103332Y0107886D01*
X0103482Y0107828D01*
X0103630Y0107766D01*
X0103777Y0107700D01*
X0103922Y0107631D01*
X0104065Y0107558D01*
X0104207Y0107482D01*
X0104346Y0107402D01*
X0104484Y0107319D01*
X0104619Y0107232D01*
X0104753Y0107142D01*
X0104884Y0107049D01*
X0105012Y0106953D01*
X0105138Y0106853D01*
X0105262Y0106750D01*
X0105383Y0106645D01*
X0105502Y0106536D01*
X0105618Y0106425D01*
X0105731Y0106310D01*
X0105841Y0106193D01*
X0105948Y0106073D01*
X0106052Y0105951D01*
X0106153Y0105826D01*
X0106251Y0105698D01*
X0106346Y0105568D01*
X0106438Y0105436D01*
X0106526Y0105302D01*
X0106611Y0105165D01*
X0106693Y0105027D01*
X0106771Y0104886D01*
X0106845Y0104744D01*
X0106916Y0104600D01*
X0106984Y0104454D01*
X0107047Y0104306D01*
X0107108Y0104157D01*
X0107164Y0104006D01*
X0107217Y0103854D01*
X0107266Y0103701D01*
X0107311Y0103547D01*
X0107352Y0103392D01*
X0107390Y0103235D01*
X0107423Y0103078D01*
X0107453Y0102920D01*
X0107479Y0102761D01*
X0107500Y0102602D01*
X0107518Y0102442D01*
X0107532Y0102282D01*
X0107542Y0102121D01*
X0107548Y0101961D01*
X0107550Y0101800D01*
X0107548Y0101639D01*
X0107542Y0101479D01*
X0107532Y0101318D01*
X0107518Y0101158D01*
X0107500Y0100998D01*
X0107479Y0100839D01*
X0107453Y0100680D01*
X0107423Y0100522D01*
X0107390Y0100365D01*
X0107352Y0100208D01*
X0107311Y0100053D01*
X0107266Y0099899D01*
X0107217Y0099746D01*
X0107164Y0099594D01*
X0107108Y0099443D01*
X0107047Y0099294D01*
X0106984Y0099146D01*
X0106916Y0099000D01*
X0106845Y0098856D01*
X0106771Y0098714D01*
X0106693Y0098573D01*
X0106611Y0098435D01*
X0106526Y0098298D01*
X0106438Y0098164D01*
X0106346Y0098032D01*
X0106251Y0097902D01*
X0106153Y0097774D01*
X0106052Y0097649D01*
X0105948Y0097527D01*
X0105841Y0097407D01*
X0105731Y0097290D01*
X0105618Y0097175D01*
X0105502Y0097064D01*
X0105383Y0096955D01*
X0105262Y0096850D01*
X0105138Y0096747D01*
X0105012Y0096647D01*
X0104884Y0096551D01*
X0104753Y0096458D01*
X0104619Y0096368D01*
X0104484Y0096281D01*
X0104346Y0096198D01*
X0104207Y0096118D01*
X0104065Y0096042D01*
X0103922Y0095969D01*
X0103777Y0095900D01*
X0103630Y0095834D01*
X0103482Y0095772D01*
X0103332Y0095714D01*
X0103181Y0095659D01*
X0103028Y0095608D01*
X0102874Y0095561D01*
X0102719Y0095518D01*
X0102563Y0095479D01*
X0102407Y0095443D01*
X0102249Y0095412D01*
X0102091Y0095384D01*
X0101932Y0095360D01*
X0101772Y0095340D01*
X0101612Y0095324D01*
X0101452Y0095312D01*
X0101291Y0095304D01*
X0101130Y0095300D01*
X0100970Y0095300D01*
X0100809Y0095304D01*
X0100648Y0095312D01*
X0100488Y0095324D01*
X0100328Y0095340D01*
X0100168Y0095360D01*
X0100009Y0095384D01*
X0099851Y0095412D01*
X0099693Y0095443D01*
X0099537Y0095479D01*
X0099381Y0095518D01*
X0099226Y0095561D01*
X0099072Y0095608D01*
X0098919Y0095659D01*
X0098768Y0095714D01*
X0098618Y0095772D01*
X0098470Y0095834D01*
X0098323Y0095900D01*
X0098178Y0095969D01*
X0098035Y0096042D01*
X0097893Y0096118D01*
X0097754Y0096198D01*
X0097616Y0096281D01*
X0097481Y0096368D01*
X0097347Y0096458D01*
X0097216Y0096551D01*
X0097088Y0096647D01*
X0096962Y0096747D01*
X0096838Y0096850D01*
X0096717Y0096955D01*
X0096598Y0097064D01*
X0096482Y0097175D01*
X0096369Y0097290D01*
X0096259Y0097407D01*
X0096152Y0097527D01*
X0096048Y0097649D01*
X0095947Y0097774D01*
X0095849Y0097902D01*
X0095754Y0098032D01*
X0095662Y0098164D01*
X0095574Y0098298D01*
X0095489Y0098435D01*
X0095407Y0098573D01*
X0095329Y0098714D01*
X0095255Y0098856D01*
X0095184Y0099000D01*
X0095116Y0099146D01*
X0095053Y0099294D01*
X0094992Y0099443D01*
X0094936Y0099594D01*
X0094883Y0099746D01*
X0094834Y0099899D01*
X0094789Y0100053D01*
X0094748Y0100208D01*
X0094710Y0100365D01*
X0094677Y0100522D01*
X0094647Y0100680D01*
X0094621Y0100839D01*
X0094600Y0100998D01*
X0094582Y0101158D01*
X0094568Y0101318D01*
X0094558Y0101479D01*
X0094552Y0101639D01*
X0094550Y0101800D01*
D11*
X0202050Y0103720D02*
X0202050Y0111800D01*
X0202050Y0097320D02*
X0202050Y0089240D01*
X0202050Y0082840D02*
X0202050Y0074760D01*
X0202050Y0068360D02*
X0202050Y0060280D01*
X0202050Y0053880D02*
X0202050Y0045800D01*
X0193250Y0045800D01*
X0186850Y0045800D02*
X0178050Y0045800D01*
X0178050Y0036733D01*
X0178050Y0030333D02*
X0178050Y0021267D01*
X0178050Y0014867D02*
X0178050Y0005800D01*
D12*
X0155231Y0026938D02*
X0152869Y0026938D01*
X0152869Y0031662D02*
X0155231Y0031662D01*
X0164688Y0031619D02*
X0164688Y0033981D01*
X0169412Y0033981D02*
X0169412Y0031619D01*
X0156239Y0038202D02*
X0156239Y0038572D01*
X0156239Y0038202D02*
X0151861Y0038202D01*
X0151861Y0038572D01*
X0151861Y0040745D02*
X0151861Y0042115D01*
X0151861Y0043485D02*
X0151861Y0044855D01*
X0151861Y0047028D02*
X0151861Y0047398D01*
X0154239Y0047398D01*
X0154239Y0044600D01*
X0156239Y0044600D01*
X0156239Y0044855D01*
X0156239Y0044600D02*
X0156239Y0043485D01*
X0156239Y0042115D02*
X0156239Y0040745D01*
X0156239Y0047028D02*
X0156239Y0047398D01*
X0154239Y0047398D01*
X0151231Y0050438D02*
X0148869Y0050438D01*
X0148869Y0055162D02*
X0151231Y0055162D01*
X0151231Y0057438D02*
X0148869Y0057438D01*
X0148869Y0062162D02*
X0151231Y0062162D01*
X0124412Y0059981D02*
X0124412Y0057619D01*
X0119688Y0057619D02*
X0119688Y0059981D01*
X0109239Y0059115D02*
X0109239Y0058745D01*
X0109239Y0055572D02*
X0109239Y0055202D01*
X0102861Y0055202D01*
X0102861Y0055572D01*
X0102861Y0058745D02*
X0102861Y0062855D01*
X0096412Y0061981D02*
X0096412Y0059619D01*
X0091688Y0059619D02*
X0091688Y0061981D01*
X0102861Y0066028D02*
X0102861Y0066398D01*
X0109239Y0066398D01*
X0109239Y0066028D01*
X0109239Y0062855D02*
X0109239Y0062485D01*
X0119869Y0066438D02*
X0122231Y0066438D01*
X0122231Y0071162D02*
X0119869Y0071162D01*
X0103231Y0069438D02*
X0100869Y0069438D01*
X0100869Y0074162D02*
X0103231Y0074162D01*
X0118869Y0089438D02*
X0121231Y0089438D01*
X0121231Y0094162D02*
X0118869Y0094162D01*
X0135869Y0098438D02*
X0138231Y0098438D01*
X0138231Y0103162D02*
X0135869Y0103162D01*
X0135869Y0105438D02*
X0138231Y0105438D01*
X0138231Y0110162D02*
X0135869Y0110162D01*
X0125412Y0104981D02*
X0125412Y0102619D01*
X0120688Y0102619D02*
X0120688Y0104981D01*
X0155869Y0104438D02*
X0158231Y0104438D01*
X0158231Y0101162D02*
X0155869Y0101162D01*
X0155869Y0096438D02*
X0158231Y0096438D01*
X0170688Y0101619D02*
X0170688Y0103981D01*
X0175412Y0103981D02*
X0175412Y0101619D01*
X0177450Y0101300D02*
X0177450Y0104300D01*
X0188850Y0104300D01*
X0188850Y0101300D01*
X0177450Y0101300D01*
X0190688Y0101619D02*
X0190688Y0103981D01*
X0195412Y0103981D02*
X0195412Y0101619D01*
X0189231Y0090162D02*
X0186869Y0090162D01*
X0186869Y0085438D02*
X0189231Y0085438D01*
X0188869Y0081162D02*
X0191231Y0081162D01*
X0191231Y0076438D02*
X0188869Y0076438D01*
X0210688Y0082619D02*
X0210688Y0084981D01*
X0215412Y0084981D02*
X0215412Y0082619D01*
X0220688Y0062981D02*
X0220688Y0060619D01*
X0225412Y0060619D02*
X0225412Y0062981D01*
X0227688Y0057981D02*
X0227688Y0055619D01*
X0232412Y0055619D02*
X0232412Y0057981D01*
X0158231Y0109162D02*
X0155869Y0109162D01*
X0112231Y0052162D02*
X0109869Y0052162D01*
X0109869Y0047438D02*
X0112231Y0047438D01*
D13*
X0106000Y0044351D02*
X0106000Y0043350D01*
X0105750Y0043100D01*
X0105249Y0043100D01*
X0104999Y0043350D01*
X0104527Y0043100D02*
X0103526Y0043100D01*
X0103053Y0043100D02*
X0102053Y0044101D01*
X0102053Y0044351D01*
X0102303Y0044601D01*
X0102803Y0044601D01*
X0103053Y0044351D01*
X0104026Y0044601D02*
X0104026Y0043100D01*
X0103053Y0043100D02*
X0102053Y0043100D01*
X0104026Y0044601D02*
X0104527Y0044101D01*
X0104999Y0044351D02*
X0105249Y0044601D01*
X0105750Y0044601D01*
X0106000Y0044351D01*
X0096000Y0052350D02*
X0095750Y0052100D01*
X0095249Y0052100D01*
X0094999Y0052350D01*
X0094527Y0052100D02*
X0093526Y0052100D01*
X0094026Y0052100D02*
X0094026Y0053601D01*
X0094527Y0053101D01*
X0094999Y0053351D02*
X0095249Y0053601D01*
X0095750Y0053601D01*
X0096000Y0053351D01*
X0096000Y0052350D01*
X0093053Y0052350D02*
X0093053Y0053351D01*
X0092803Y0053601D01*
X0092303Y0053601D01*
X0092053Y0053351D01*
X0093053Y0052350D01*
X0092803Y0052100D01*
X0092303Y0052100D01*
X0092053Y0052350D01*
X0092053Y0053351D01*
X0126250Y0053680D02*
X0126250Y0054181D01*
X0126500Y0054431D01*
X0126250Y0054903D02*
X0126250Y0055904D01*
X0126250Y0055404D02*
X0127751Y0055404D01*
X0127251Y0054903D01*
X0127501Y0054431D02*
X0127751Y0054181D01*
X0127751Y0053680D01*
X0127501Y0053430D01*
X0126500Y0053430D01*
X0126250Y0053680D01*
X0126500Y0056377D02*
X0126250Y0056627D01*
X0126250Y0057127D01*
X0126500Y0057378D01*
X0127001Y0057378D01*
X0127251Y0057127D01*
X0127251Y0056877D01*
X0127001Y0056377D01*
X0127751Y0056377D01*
X0127751Y0057378D01*
X0157250Y0065154D02*
X0157250Y0065654D01*
X0157500Y0065904D01*
X0157500Y0066377D02*
X0157250Y0066627D01*
X0157250Y0067127D01*
X0157500Y0067378D01*
X0158501Y0067378D01*
X0158751Y0067127D01*
X0158751Y0066627D01*
X0158501Y0066377D01*
X0158251Y0066377D01*
X0158001Y0066627D01*
X0158001Y0067378D01*
X0158501Y0065904D02*
X0158751Y0065654D01*
X0158751Y0065154D01*
X0158501Y0064903D01*
X0157500Y0064903D01*
X0157250Y0065154D01*
X0159501Y0056378D02*
X0158500Y0055377D01*
X0158250Y0055377D01*
X0158250Y0054904D02*
X0158750Y0054404D01*
X0158750Y0054654D02*
X0158750Y0053903D01*
X0158250Y0053903D02*
X0159751Y0053903D01*
X0159751Y0054654D01*
X0159501Y0054904D01*
X0159001Y0054904D01*
X0158750Y0054654D01*
X0159751Y0055377D02*
X0159751Y0056378D01*
X0159501Y0056378D01*
X0125947Y0076000D02*
X0125947Y0077501D01*
X0125196Y0077501D01*
X0124946Y0077251D01*
X0124946Y0076751D01*
X0125196Y0076500D01*
X0125947Y0076500D01*
X0125446Y0076500D02*
X0124946Y0076000D01*
X0124473Y0076250D02*
X0124223Y0076000D01*
X0123723Y0076000D01*
X0123472Y0076250D01*
X0123472Y0076500D01*
X0123723Y0076751D01*
X0124473Y0076751D01*
X0124473Y0076250D01*
X0124473Y0076751D02*
X0123973Y0077251D01*
X0123472Y0077501D01*
X0107420Y0081250D02*
X0107170Y0081000D01*
X0106669Y0081000D01*
X0106419Y0081250D01*
X0105947Y0081000D02*
X0104946Y0081000D01*
X0104473Y0081000D02*
X0103472Y0081000D01*
X0103973Y0081000D02*
X0103973Y0082501D01*
X0104473Y0082001D01*
X0105446Y0082501D02*
X0105446Y0081000D01*
X0105947Y0082001D02*
X0105446Y0082501D01*
X0106419Y0082251D02*
X0106669Y0082501D01*
X0107170Y0082501D01*
X0107420Y0082251D01*
X0107420Y0081250D01*
X0107000Y0089100D02*
X0107000Y0090601D01*
X0106249Y0090601D01*
X0105999Y0090351D01*
X0105999Y0089851D01*
X0106249Y0089600D01*
X0107000Y0089600D01*
X0106500Y0089600D02*
X0105999Y0089100D01*
X0105527Y0089100D02*
X0104526Y0089100D01*
X0105026Y0089100D02*
X0105026Y0090601D01*
X0105527Y0090101D01*
X0104053Y0090351D02*
X0103803Y0090601D01*
X0103303Y0090601D01*
X0103053Y0090351D01*
X0103053Y0090101D01*
X0103303Y0089851D01*
X0103053Y0089600D01*
X0103053Y0089350D01*
X0103303Y0089100D01*
X0103803Y0089100D01*
X0104053Y0089350D01*
X0103553Y0089851D02*
X0103303Y0089851D01*
X0128350Y0098850D02*
X0129851Y0098850D01*
X0129851Y0099601D01*
X0129601Y0099851D01*
X0129101Y0099851D01*
X0128850Y0099601D01*
X0128850Y0098850D01*
X0128850Y0099350D02*
X0128350Y0099851D01*
X0128350Y0100323D02*
X0128350Y0101324D01*
X0128350Y0100824D02*
X0129851Y0100824D01*
X0129351Y0100323D01*
X0129601Y0101797D02*
X0128600Y0101797D01*
X0129601Y0102797D01*
X0128600Y0102797D01*
X0128350Y0102547D01*
X0128350Y0102047D01*
X0128600Y0101797D01*
X0129601Y0101797D02*
X0129851Y0102047D01*
X0129851Y0102547D01*
X0129601Y0102797D01*
X0121420Y0111000D02*
X0121420Y0112501D01*
X0120669Y0112501D01*
X0120419Y0112251D01*
X0120419Y0111751D01*
X0120669Y0111500D01*
X0121420Y0111500D01*
X0120919Y0111500D02*
X0120419Y0111000D01*
X0119947Y0111000D02*
X0118946Y0111000D01*
X0118473Y0111000D02*
X0117472Y0112001D01*
X0117472Y0112251D01*
X0117723Y0112501D01*
X0118223Y0112501D01*
X0118473Y0112251D01*
X0119446Y0112501D02*
X0119446Y0111000D01*
X0118473Y0111000D02*
X0117472Y0111000D01*
X0119446Y0112501D02*
X0119947Y0112001D01*
X0139526Y0111851D02*
X0140277Y0111851D01*
X0140527Y0112101D01*
X0140527Y0112351D01*
X0140277Y0112601D01*
X0139776Y0112601D01*
X0139526Y0112351D01*
X0139526Y0111350D01*
X0139776Y0111100D01*
X0140277Y0111100D01*
X0140527Y0111350D01*
X0140999Y0111100D02*
X0141500Y0111600D01*
X0141249Y0111600D02*
X0142000Y0111600D01*
X0142000Y0111100D02*
X0142000Y0112601D01*
X0141249Y0112601D01*
X0140999Y0112351D01*
X0140999Y0111851D01*
X0141249Y0111600D01*
X0159526Y0111851D02*
X0160527Y0111851D01*
X0159776Y0112601D01*
X0159776Y0111100D01*
X0160999Y0111350D02*
X0161249Y0111100D01*
X0161750Y0111100D01*
X0162000Y0111350D01*
X0162000Y0112351D01*
X0161750Y0112601D01*
X0161249Y0112601D01*
X0160999Y0112351D01*
X0166526Y0111100D02*
X0167527Y0111100D01*
X0167026Y0111100D02*
X0167026Y0112601D01*
X0167527Y0112101D01*
X0167999Y0112351D02*
X0168249Y0112601D01*
X0168750Y0112601D01*
X0169000Y0112351D01*
X0169000Y0111350D01*
X0168750Y0111100D01*
X0168249Y0111100D01*
X0167999Y0111350D01*
X0187526Y0111350D02*
X0187776Y0111100D01*
X0188277Y0111100D01*
X0188527Y0111350D01*
X0188999Y0111350D02*
X0189249Y0111100D01*
X0189750Y0111100D01*
X0190000Y0111350D01*
X0190000Y0112351D01*
X0189750Y0112601D01*
X0189249Y0112601D01*
X0188999Y0112351D01*
X0188527Y0112351D02*
X0188277Y0112601D01*
X0187776Y0112601D01*
X0187526Y0112351D01*
X0187526Y0112101D01*
X0187776Y0111851D01*
X0187526Y0111600D01*
X0187526Y0111350D01*
X0187776Y0111851D02*
X0188026Y0111851D01*
X0164350Y0098797D02*
X0164350Y0097797D01*
X0164350Y0097324D02*
X0164350Y0096323D01*
X0164350Y0095851D02*
X0164850Y0095350D01*
X0164850Y0095601D02*
X0164850Y0094850D01*
X0164350Y0094850D02*
X0165851Y0094850D01*
X0165851Y0095601D01*
X0165601Y0095851D01*
X0165101Y0095851D01*
X0164850Y0095601D01*
X0165351Y0096323D02*
X0165851Y0096824D01*
X0164350Y0096824D01*
X0165351Y0097797D02*
X0165851Y0098297D01*
X0164350Y0098297D01*
X0178350Y0094074D02*
X0178350Y0093573D01*
X0178600Y0093323D01*
X0179101Y0093323D02*
X0179351Y0093824D01*
X0179351Y0094074D01*
X0179101Y0094324D01*
X0178600Y0094324D01*
X0178350Y0094074D01*
X0179101Y0093323D02*
X0179851Y0093323D01*
X0179851Y0094324D01*
X0179601Y0092851D02*
X0179101Y0092851D01*
X0178850Y0092601D01*
X0178850Y0091850D01*
X0178350Y0091850D02*
X0179851Y0091850D01*
X0179851Y0092601D01*
X0179601Y0092851D01*
X0178850Y0092350D02*
X0178350Y0092851D01*
X0181500Y0082378D02*
X0181250Y0082127D01*
X0181250Y0081627D01*
X0181500Y0081377D01*
X0181250Y0080904D02*
X0181250Y0079903D01*
X0181250Y0080404D02*
X0182751Y0080404D01*
X0182251Y0079903D01*
X0182501Y0079431D02*
X0182751Y0079181D01*
X0182751Y0078680D01*
X0182501Y0078430D01*
X0181500Y0078430D01*
X0181250Y0078680D01*
X0181250Y0079181D01*
X0181500Y0079431D01*
X0182501Y0081377D02*
X0182751Y0081627D01*
X0182751Y0082127D01*
X0182501Y0082378D01*
X0182251Y0082378D01*
X0182001Y0082127D01*
X0181750Y0082378D01*
X0181500Y0082378D01*
X0182001Y0082127D02*
X0182001Y0081877D01*
X0208250Y0082680D02*
X0208250Y0083181D01*
X0208500Y0083431D01*
X0208250Y0083903D02*
X0208250Y0084904D01*
X0208250Y0084404D02*
X0209751Y0084404D01*
X0209251Y0083903D01*
X0209501Y0083431D02*
X0209751Y0083181D01*
X0209751Y0082680D01*
X0209501Y0082430D01*
X0208500Y0082430D01*
X0208250Y0082680D01*
X0209001Y0085377D02*
X0209001Y0086378D01*
X0209751Y0086127D02*
X0209001Y0085377D01*
X0209751Y0086127D02*
X0208250Y0086127D01*
X0221723Y0073501D02*
X0222473Y0072751D01*
X0221472Y0072751D01*
X0221723Y0073501D02*
X0221723Y0072000D01*
X0222946Y0072000D02*
X0223947Y0072000D01*
X0224419Y0072000D02*
X0224919Y0072500D01*
X0224669Y0072500D02*
X0225420Y0072500D01*
X0225420Y0072000D02*
X0225420Y0073501D01*
X0224669Y0073501D01*
X0224419Y0073251D01*
X0224419Y0072751D01*
X0224669Y0072500D01*
X0223947Y0073001D02*
X0223446Y0073501D01*
X0223446Y0072000D01*
X0228472Y0068501D02*
X0229473Y0068501D01*
X0229473Y0067751D01*
X0228973Y0068001D01*
X0228723Y0068001D01*
X0228472Y0067751D01*
X0228472Y0067250D01*
X0228723Y0067000D01*
X0229223Y0067000D01*
X0229473Y0067250D01*
X0229946Y0067000D02*
X0230947Y0067000D01*
X0231419Y0067000D02*
X0231919Y0067500D01*
X0231669Y0067500D02*
X0232420Y0067500D01*
X0232420Y0067000D02*
X0232420Y0068501D01*
X0231669Y0068501D01*
X0231419Y0068251D01*
X0231419Y0067751D01*
X0231669Y0067500D01*
X0230947Y0068001D02*
X0230446Y0068501D01*
X0230446Y0067000D01*
X0172851Y0031074D02*
X0172601Y0031324D01*
X0172351Y0031324D01*
X0172101Y0031074D01*
X0172101Y0030573D01*
X0172351Y0030323D01*
X0172601Y0030323D01*
X0172851Y0030573D01*
X0172851Y0031074D01*
X0172101Y0031074D02*
X0171850Y0031324D01*
X0171600Y0031324D01*
X0171350Y0031074D01*
X0171350Y0030573D01*
X0171600Y0030323D01*
X0171850Y0030323D01*
X0172101Y0030573D01*
X0172101Y0029851D02*
X0171850Y0029601D01*
X0171850Y0028850D01*
X0171350Y0028850D02*
X0172851Y0028850D01*
X0172851Y0029601D01*
X0172601Y0029851D01*
X0172101Y0029851D01*
X0171850Y0029350D02*
X0171350Y0029851D01*
X0146947Y0030000D02*
X0146196Y0030000D01*
X0145946Y0030251D01*
X0145946Y0030751D01*
X0146196Y0031001D01*
X0146947Y0031001D01*
X0146947Y0029500D01*
X0146446Y0030000D02*
X0145946Y0029500D01*
X0145473Y0030251D02*
X0144472Y0030251D01*
X0144723Y0031001D02*
X0145473Y0030251D01*
X0144723Y0031001D02*
X0144723Y0029500D01*
D14*
X0208990Y0095044D02*
X0207294Y0096740D01*
X0209311Y0099214D01*
X0208798Y0100211D01*
X0208457Y0101278D01*
X0205281Y0101600D01*
X0205281Y0104000D01*
X0208457Y0104322D01*
X0208798Y0105389D01*
X0209311Y0106386D01*
X0207294Y0108860D01*
X0208990Y0110556D01*
X0211464Y0108539D01*
X0212461Y0109052D01*
X0213528Y0109393D01*
X0213850Y0112569D01*
X0216250Y0112569D01*
X0216572Y0109393D01*
X0217639Y0109052D01*
X0218636Y0108539D01*
X0221110Y0110556D01*
X0222806Y0108860D01*
X0220789Y0106386D01*
X0221302Y0105389D01*
X0221643Y0104322D01*
X0224819Y0104000D01*
X0224819Y0101600D01*
X0221643Y0101278D01*
X0221302Y0100211D01*
X0220789Y0099214D01*
X0222806Y0096740D01*
X0221110Y0095044D01*
X0218636Y0097061D01*
X0217640Y0096548D01*
X0216227Y0099958D01*
X0216759Y0100242D01*
X0217225Y0100625D01*
X0217608Y0101091D01*
X0217892Y0101623D01*
X0218067Y0102200D01*
X0218126Y0102800D01*
X0218061Y0103428D01*
X0217869Y0104030D01*
X0217559Y0104580D01*
X0217142Y0105055D01*
X0216638Y0105435D01*
X0216066Y0105703D01*
X0215452Y0105850D01*
X0214820Y0105867D01*
X0214199Y0105756D01*
X0213613Y0105520D01*
X0213088Y0105169D01*
X0212645Y0104718D01*
X0212304Y0104186D01*
X0212079Y0103596D01*
X0211979Y0102973D01*
X0212008Y0102342D01*
X0212166Y0101730D01*
X0212446Y0101164D01*
X0212835Y0100666D01*
X0213317Y0100259D01*
X0213873Y0099958D01*
X0212460Y0096548D01*
X0211464Y0097061D01*
X0208990Y0095044D01*
X0208930Y0095105D02*
X0209064Y0095105D01*
X0208341Y0095694D02*
X0209787Y0095694D01*
X0210509Y0096283D02*
X0207751Y0096283D01*
X0207401Y0096872D02*
X0211232Y0096872D01*
X0211832Y0096872D02*
X0212594Y0096872D01*
X0212838Y0097461D02*
X0207882Y0097461D01*
X0208362Y0098050D02*
X0213082Y0098050D01*
X0213326Y0098639D02*
X0208842Y0098639D01*
X0209304Y0099228D02*
X0213570Y0099228D01*
X0213814Y0099817D02*
X0209001Y0099817D01*
X0208736Y0100406D02*
X0213142Y0100406D01*
X0212577Y0100995D02*
X0208547Y0100995D01*
X0205438Y0101584D02*
X0212238Y0101584D01*
X0212052Y0102173D02*
X0205281Y0102173D01*
X0205281Y0102762D02*
X0211989Y0102762D01*
X0212040Y0103352D02*
X0205281Y0103352D01*
X0205281Y0103941D02*
X0212210Y0103941D01*
X0212525Y0104530D02*
X0208523Y0104530D01*
X0208712Y0105119D02*
X0213039Y0105119D01*
X0214080Y0105708D02*
X0208962Y0105708D01*
X0209266Y0106297D02*
X0220834Y0106297D01*
X0221138Y0105708D02*
X0216047Y0105708D01*
X0217057Y0105119D02*
X0221388Y0105119D01*
X0221577Y0104530D02*
X0217587Y0104530D01*
X0217898Y0103941D02*
X0224819Y0103941D01*
X0224819Y0103352D02*
X0218069Y0103352D01*
X0218122Y0102762D02*
X0224819Y0102762D01*
X0224819Y0102173D02*
X0218059Y0102173D01*
X0217871Y0101584D02*
X0224662Y0101584D01*
X0221553Y0100995D02*
X0217529Y0100995D01*
X0216959Y0100406D02*
X0221364Y0100406D01*
X0221099Y0099817D02*
X0216286Y0099817D01*
X0216530Y0099228D02*
X0220796Y0099228D01*
X0221258Y0098639D02*
X0216774Y0098639D01*
X0217018Y0098050D02*
X0221738Y0098050D01*
X0222218Y0097461D02*
X0217262Y0097461D01*
X0217506Y0096872D02*
X0218268Y0096872D01*
X0218868Y0096872D02*
X0222698Y0096872D01*
X0222349Y0096283D02*
X0219591Y0096283D01*
X0220313Y0095694D02*
X0221759Y0095694D01*
X0221170Y0095105D02*
X0221036Y0095105D01*
X0221196Y0106886D02*
X0208904Y0106886D01*
X0208423Y0107475D02*
X0221677Y0107475D01*
X0222157Y0108064D02*
X0207943Y0108064D01*
X0207463Y0108653D02*
X0211324Y0108653D01*
X0211687Y0108653D02*
X0218413Y0108653D01*
X0218776Y0108653D02*
X0222637Y0108653D01*
X0222424Y0109242D02*
X0219499Y0109242D01*
X0220221Y0109831D02*
X0221834Y0109831D01*
X0221245Y0110420D02*
X0220944Y0110420D01*
X0217044Y0109242D02*
X0213056Y0109242D01*
X0213572Y0109831D02*
X0216528Y0109831D01*
X0216468Y0110420D02*
X0213632Y0110420D01*
X0213692Y0111009D02*
X0216408Y0111009D01*
X0216348Y0111598D02*
X0213752Y0111598D01*
X0213812Y0112187D02*
X0216288Y0112187D01*
X0209879Y0109831D02*
X0208266Y0109831D01*
X0208855Y0110420D02*
X0209156Y0110420D01*
X0210601Y0109242D02*
X0207676Y0109242D01*
D15*
X0186550Y0040800D03*
X0197550Y0034800D03*
X0195050Y0031300D03*
X0195050Y0030800D03*
X0212050Y0025800D03*
X0212050Y0038300D03*
D16*
X0193550Y0041300D03*
X0193550Y0041800D03*
X0193550Y0042300D03*
X0193550Y0027300D03*
X0193550Y0026800D03*
X0193550Y0026300D03*
X0193550Y0025800D03*
D17*
X0195050Y0032800D03*
X0212050Y0036800D03*
X0212050Y0026300D03*
D18*
X0212050Y0026800D03*
X0212050Y0035800D03*
D19*
X0212050Y0035300D03*
X0212050Y0027300D03*
D20*
X0212050Y0027800D03*
X0212050Y0028300D03*
X0212050Y0034300D03*
X0212050Y0034800D03*
D21*
X0201300Y0034800D03*
X0201300Y0034300D03*
X0201300Y0033800D03*
X0201300Y0033300D03*
X0201300Y0032800D03*
X0201300Y0032300D03*
X0201300Y0031800D03*
X0201300Y0031300D03*
X0201300Y0030800D03*
X0201300Y0030300D03*
X0201300Y0029800D03*
X0201300Y0029300D03*
X0201300Y0028800D03*
X0201300Y0028300D03*
X0201300Y0027800D03*
X0195300Y0029800D03*
X0185800Y0029800D03*
X0185800Y0030300D03*
X0185800Y0030800D03*
X0185800Y0031300D03*
X0185800Y0031800D03*
X0185800Y0032300D03*
X0185800Y0032800D03*
X0185800Y0033300D03*
X0185800Y0033800D03*
X0185800Y0034300D03*
X0185800Y0034800D03*
X0185800Y0035300D03*
X0185800Y0035800D03*
X0185800Y0036300D03*
X0185800Y0036800D03*
X0185800Y0037300D03*
X0185800Y0037800D03*
X0185800Y0038300D03*
X0185800Y0038800D03*
X0185800Y0039300D03*
X0185800Y0039800D03*
X0188300Y0039800D03*
X0188800Y0039300D03*
X0189300Y0038800D03*
X0190300Y0037300D03*
X0190800Y0036800D03*
X0201300Y0036800D03*
X0201300Y0037300D03*
X0201300Y0037800D03*
X0201300Y0038300D03*
X0201300Y0038800D03*
X0201300Y0039300D03*
X0201300Y0039800D03*
X0201300Y0040300D03*
X0201300Y0040800D03*
X0201300Y0036300D03*
X0201300Y0035800D03*
X0201300Y0035300D03*
X0185800Y0029300D03*
X0185800Y0028800D03*
X0185800Y0028300D03*
X0185800Y0027800D03*
D22*
X0212050Y0028800D03*
X0212050Y0029300D03*
X0212050Y0033300D03*
X0212050Y0033800D03*
D23*
X0195800Y0029300D03*
X0184300Y0043300D03*
D24*
X0212050Y0032800D03*
X0212050Y0032300D03*
X0212050Y0031800D03*
X0212050Y0031300D03*
X0212050Y0030800D03*
X0212050Y0030300D03*
X0212050Y0029800D03*
D25*
X0197550Y0035300D03*
X0196550Y0033300D03*
X0193050Y0033800D03*
X0192550Y0034300D03*
X0192550Y0034800D03*
X0192050Y0035300D03*
X0191550Y0035800D03*
X0191050Y0036300D03*
X0190050Y0037800D03*
X0189550Y0038300D03*
X0195050Y0030300D03*
X0212050Y0038800D03*
X0212050Y0039300D03*
D26*
X0212050Y0037800D03*
X0212050Y0037300D03*
X0195050Y0032300D03*
X0195050Y0031800D03*
D27*
X0193300Y0033300D03*
X0196800Y0033800D03*
X0197300Y0034300D03*
D28*
X0197550Y0035800D03*
X0212050Y0039800D03*
X0212050Y0040300D03*
X0212050Y0040800D03*
D29*
X0212050Y0036300D03*
D30*
X0186800Y0040300D03*
D31*
X0212050Y0041300D03*
X0212050Y0041800D03*
X0212050Y0042300D03*
X0212050Y0042800D03*
D32*
X0193300Y0042800D03*
D33*
X0190247Y0018104D02*
X0190247Y0017404D01*
X0190247Y0016002D02*
X0190247Y0013200D01*
X0190947Y0013200D02*
X0189546Y0013200D01*
X0187177Y0013901D02*
X0186477Y0013200D01*
X0187177Y0013901D02*
X0187177Y0016703D01*
X0186477Y0016002D02*
X0187878Y0016002D01*
X0190247Y0016002D02*
X0190947Y0016002D01*
X0193316Y0017404D02*
X0193316Y0013200D01*
X0194017Y0013200D02*
X0192615Y0013200D01*
X0195818Y0013200D02*
X0197920Y0013200D01*
X0198621Y0013901D01*
X0197920Y0014601D01*
X0195818Y0014601D01*
X0195818Y0015302D02*
X0195818Y0013200D01*
X0195818Y0015302D02*
X0196519Y0016002D01*
X0197920Y0016002D01*
X0200422Y0016002D02*
X0200422Y0013200D01*
X0202524Y0013200D01*
X0203224Y0013901D01*
X0203224Y0016002D01*
X0205026Y0016703D02*
X0205026Y0013901D01*
X0205727Y0013200D01*
X0207128Y0013200D01*
X0207828Y0013901D01*
X0207828Y0016703D01*
X0207128Y0017404D01*
X0205727Y0017404D01*
X0205026Y0016703D01*
X0206427Y0014601D02*
X0205026Y0013200D01*
X0205593Y0009904D02*
X0206294Y0009203D01*
X0206294Y0008502D01*
X0205593Y0007802D01*
X0204192Y0007802D01*
X0203491Y0007101D01*
X0203491Y0006401D01*
X0204192Y0005700D01*
X0205593Y0005700D01*
X0206294Y0006401D01*
X0203491Y0009203D02*
X0204192Y0009904D01*
X0205593Y0009904D01*
X0201690Y0007802D02*
X0200989Y0008502D01*
X0199588Y0008502D01*
X0198887Y0007802D01*
X0198887Y0007101D01*
X0201690Y0007101D01*
X0201690Y0006401D02*
X0201690Y0007802D01*
X0201690Y0006401D02*
X0200989Y0005700D01*
X0199588Y0005700D01*
X0197086Y0005700D02*
X0197086Y0008502D01*
X0197086Y0007101D02*
X0195685Y0008502D01*
X0194984Y0008502D01*
X0193249Y0008502D02*
X0192549Y0008502D01*
X0192549Y0005700D01*
X0193249Y0005700D02*
X0191848Y0005700D01*
X0190180Y0006401D02*
X0190180Y0007802D01*
X0189479Y0008502D01*
X0188078Y0008502D01*
X0187378Y0007802D01*
X0187378Y0007101D01*
X0190180Y0007101D01*
X0190180Y0006401D02*
X0189479Y0005700D01*
X0188078Y0005700D01*
X0185576Y0005700D02*
X0183474Y0005700D01*
X0182774Y0006401D01*
X0183474Y0007101D01*
X0184876Y0007101D01*
X0185576Y0007802D01*
X0184876Y0008502D01*
X0182774Y0008502D01*
X0182707Y0011799D02*
X0183408Y0011799D01*
X0182707Y0011799D02*
X0182006Y0012499D01*
X0182006Y0016002D01*
X0184809Y0016002D02*
X0184809Y0013901D01*
X0184108Y0013200D01*
X0182006Y0013200D01*
X0192549Y0010604D02*
X0192549Y0009904D01*
X0193316Y0017404D02*
X0194017Y0017404D01*
X0212633Y0008502D02*
X0214734Y0007101D01*
X0212633Y0005700D01*
X0214734Y0005700D02*
X0214734Y0009904D01*
X0216536Y0008502D02*
X0218638Y0008502D01*
X0219338Y0007802D01*
X0219338Y0006401D01*
X0218638Y0005700D01*
X0216536Y0005700D01*
X0221140Y0007101D02*
X0223942Y0007101D01*
X0223942Y0006401D02*
X0223942Y0007802D01*
X0223242Y0008502D01*
X0221840Y0008502D01*
X0221140Y0007802D01*
X0221140Y0007101D01*
X0223242Y0005700D02*
X0223942Y0006401D01*
X0223242Y0005700D02*
X0221840Y0005700D01*
X0225744Y0005700D02*
X0225744Y0007802D01*
X0226444Y0008502D01*
X0227845Y0008502D01*
X0228546Y0007802D01*
X0230348Y0009203D02*
X0231048Y0009904D01*
X0232449Y0009904D01*
X0233150Y0009203D01*
X0233150Y0006401D01*
X0232449Y0005700D01*
X0231048Y0005700D01*
X0230348Y0006401D01*
X0228546Y0005700D02*
X0228546Y0009904D01*
X0227845Y0013200D02*
X0225744Y0013200D01*
X0225744Y0015302D01*
X0226444Y0016002D01*
X0227845Y0016002D01*
X0227845Y0014601D02*
X0225744Y0014601D01*
X0227845Y0014601D02*
X0228546Y0013901D01*
X0227845Y0013200D01*
X0230348Y0013200D02*
X0231749Y0014601D01*
X0233150Y0013200D01*
X0233150Y0017404D01*
X0230348Y0017404D02*
X0230348Y0013200D01*
X0223942Y0016002D02*
X0222541Y0016002D01*
X0223242Y0016703D02*
X0223242Y0013901D01*
X0222541Y0013200D01*
X0220873Y0013901D02*
X0220873Y0015302D01*
X0220172Y0016002D01*
X0218771Y0016002D01*
X0218070Y0015302D01*
X0218070Y0014601D01*
X0220873Y0014601D01*
X0220873Y0013901D02*
X0220172Y0013200D01*
X0218771Y0013200D01*
X0216269Y0013200D02*
X0216269Y0016002D01*
X0216269Y0014601D02*
X0214868Y0016002D01*
X0214167Y0016002D01*
M02*
