G75*
%MOIN*%
%OFA0B0*%
%FSLAX25Y25*%
%IPPOS*%
%LPD*%
%AMOC8*
5,1,8,0,0,1.08239X$1,22.5*
%
%ADD10C,0.00000*%
%ADD11C,0.00974*%
%ADD12C,0.04724*%
%ADD13C,0.12661*%
%ADD14C,0.01744*%
%ADD15R,0.05000X0.05000*%
%ADD16C,0.05000*%
%ADD17R,0.07400X0.07400*%
%ADD18C,0.07400*%
%ADD19R,0.06000X0.01650*%
%ADD20C,0.00742*%
%ADD21R,0.02500X0.05000*%
%ADD22C,0.01395*%
%ADD23C,0.01600*%
%ADD24C,0.02975*%
%ADD25C,0.01000*%
%ADD26C,0.01200*%
D10*
X0089050Y0003800D02*
X0089050Y0113800D01*
X0254050Y0113800D01*
X0254050Y0003800D01*
X0089050Y0003800D01*
X0094550Y0015800D02*
X0094552Y0015961D01*
X0094558Y0016121D01*
X0094568Y0016282D01*
X0094582Y0016442D01*
X0094600Y0016602D01*
X0094621Y0016761D01*
X0094647Y0016920D01*
X0094677Y0017078D01*
X0094710Y0017235D01*
X0094748Y0017392D01*
X0094789Y0017547D01*
X0094834Y0017701D01*
X0094883Y0017854D01*
X0094936Y0018006D01*
X0094992Y0018157D01*
X0095053Y0018306D01*
X0095116Y0018454D01*
X0095184Y0018600D01*
X0095255Y0018744D01*
X0095329Y0018886D01*
X0095407Y0019027D01*
X0095489Y0019165D01*
X0095574Y0019302D01*
X0095662Y0019436D01*
X0095754Y0019568D01*
X0095849Y0019698D01*
X0095947Y0019826D01*
X0096048Y0019951D01*
X0096152Y0020073D01*
X0096259Y0020193D01*
X0096369Y0020310D01*
X0096482Y0020425D01*
X0096598Y0020536D01*
X0096717Y0020645D01*
X0096838Y0020750D01*
X0096962Y0020853D01*
X0097088Y0020953D01*
X0097216Y0021049D01*
X0097347Y0021142D01*
X0097481Y0021232D01*
X0097616Y0021319D01*
X0097754Y0021402D01*
X0097893Y0021482D01*
X0098035Y0021558D01*
X0098178Y0021631D01*
X0098323Y0021700D01*
X0098470Y0021766D01*
X0098618Y0021828D01*
X0098768Y0021886D01*
X0098919Y0021941D01*
X0099072Y0021992D01*
X0099226Y0022039D01*
X0099381Y0022082D01*
X0099537Y0022121D01*
X0099693Y0022157D01*
X0099851Y0022188D01*
X0100009Y0022216D01*
X0100168Y0022240D01*
X0100328Y0022260D01*
X0100488Y0022276D01*
X0100648Y0022288D01*
X0100809Y0022296D01*
X0100970Y0022300D01*
X0101130Y0022300D01*
X0101291Y0022296D01*
X0101452Y0022288D01*
X0101612Y0022276D01*
X0101772Y0022260D01*
X0101932Y0022240D01*
X0102091Y0022216D01*
X0102249Y0022188D01*
X0102407Y0022157D01*
X0102563Y0022121D01*
X0102719Y0022082D01*
X0102874Y0022039D01*
X0103028Y0021992D01*
X0103181Y0021941D01*
X0103332Y0021886D01*
X0103482Y0021828D01*
X0103630Y0021766D01*
X0103777Y0021700D01*
X0103922Y0021631D01*
X0104065Y0021558D01*
X0104207Y0021482D01*
X0104346Y0021402D01*
X0104484Y0021319D01*
X0104619Y0021232D01*
X0104753Y0021142D01*
X0104884Y0021049D01*
X0105012Y0020953D01*
X0105138Y0020853D01*
X0105262Y0020750D01*
X0105383Y0020645D01*
X0105502Y0020536D01*
X0105618Y0020425D01*
X0105731Y0020310D01*
X0105841Y0020193D01*
X0105948Y0020073D01*
X0106052Y0019951D01*
X0106153Y0019826D01*
X0106251Y0019698D01*
X0106346Y0019568D01*
X0106438Y0019436D01*
X0106526Y0019302D01*
X0106611Y0019165D01*
X0106693Y0019027D01*
X0106771Y0018886D01*
X0106845Y0018744D01*
X0106916Y0018600D01*
X0106984Y0018454D01*
X0107047Y0018306D01*
X0107108Y0018157D01*
X0107164Y0018006D01*
X0107217Y0017854D01*
X0107266Y0017701D01*
X0107311Y0017547D01*
X0107352Y0017392D01*
X0107390Y0017235D01*
X0107423Y0017078D01*
X0107453Y0016920D01*
X0107479Y0016761D01*
X0107500Y0016602D01*
X0107518Y0016442D01*
X0107532Y0016282D01*
X0107542Y0016121D01*
X0107548Y0015961D01*
X0107550Y0015800D01*
X0107548Y0015639D01*
X0107542Y0015479D01*
X0107532Y0015318D01*
X0107518Y0015158D01*
X0107500Y0014998D01*
X0107479Y0014839D01*
X0107453Y0014680D01*
X0107423Y0014522D01*
X0107390Y0014365D01*
X0107352Y0014208D01*
X0107311Y0014053D01*
X0107266Y0013899D01*
X0107217Y0013746D01*
X0107164Y0013594D01*
X0107108Y0013443D01*
X0107047Y0013294D01*
X0106984Y0013146D01*
X0106916Y0013000D01*
X0106845Y0012856D01*
X0106771Y0012714D01*
X0106693Y0012573D01*
X0106611Y0012435D01*
X0106526Y0012298D01*
X0106438Y0012164D01*
X0106346Y0012032D01*
X0106251Y0011902D01*
X0106153Y0011774D01*
X0106052Y0011649D01*
X0105948Y0011527D01*
X0105841Y0011407D01*
X0105731Y0011290D01*
X0105618Y0011175D01*
X0105502Y0011064D01*
X0105383Y0010955D01*
X0105262Y0010850D01*
X0105138Y0010747D01*
X0105012Y0010647D01*
X0104884Y0010551D01*
X0104753Y0010458D01*
X0104619Y0010368D01*
X0104484Y0010281D01*
X0104346Y0010198D01*
X0104207Y0010118D01*
X0104065Y0010042D01*
X0103922Y0009969D01*
X0103777Y0009900D01*
X0103630Y0009834D01*
X0103482Y0009772D01*
X0103332Y0009714D01*
X0103181Y0009659D01*
X0103028Y0009608D01*
X0102874Y0009561D01*
X0102719Y0009518D01*
X0102563Y0009479D01*
X0102407Y0009443D01*
X0102249Y0009412D01*
X0102091Y0009384D01*
X0101932Y0009360D01*
X0101772Y0009340D01*
X0101612Y0009324D01*
X0101452Y0009312D01*
X0101291Y0009304D01*
X0101130Y0009300D01*
X0100970Y0009300D01*
X0100809Y0009304D01*
X0100648Y0009312D01*
X0100488Y0009324D01*
X0100328Y0009340D01*
X0100168Y0009360D01*
X0100009Y0009384D01*
X0099851Y0009412D01*
X0099693Y0009443D01*
X0099537Y0009479D01*
X0099381Y0009518D01*
X0099226Y0009561D01*
X0099072Y0009608D01*
X0098919Y0009659D01*
X0098768Y0009714D01*
X0098618Y0009772D01*
X0098470Y0009834D01*
X0098323Y0009900D01*
X0098178Y0009969D01*
X0098035Y0010042D01*
X0097893Y0010118D01*
X0097754Y0010198D01*
X0097616Y0010281D01*
X0097481Y0010368D01*
X0097347Y0010458D01*
X0097216Y0010551D01*
X0097088Y0010647D01*
X0096962Y0010747D01*
X0096838Y0010850D01*
X0096717Y0010955D01*
X0096598Y0011064D01*
X0096482Y0011175D01*
X0096369Y0011290D01*
X0096259Y0011407D01*
X0096152Y0011527D01*
X0096048Y0011649D01*
X0095947Y0011774D01*
X0095849Y0011902D01*
X0095754Y0012032D01*
X0095662Y0012164D01*
X0095574Y0012298D01*
X0095489Y0012435D01*
X0095407Y0012573D01*
X0095329Y0012714D01*
X0095255Y0012856D01*
X0095184Y0013000D01*
X0095116Y0013146D01*
X0095053Y0013294D01*
X0094992Y0013443D01*
X0094936Y0013594D01*
X0094883Y0013746D01*
X0094834Y0013899D01*
X0094789Y0014053D01*
X0094748Y0014208D01*
X0094710Y0014365D01*
X0094677Y0014522D01*
X0094647Y0014680D01*
X0094621Y0014839D01*
X0094600Y0014998D01*
X0094582Y0015158D01*
X0094568Y0015318D01*
X0094558Y0015479D01*
X0094552Y0015639D01*
X0094550Y0015800D01*
X0235550Y0015800D02*
X0235552Y0015961D01*
X0235558Y0016121D01*
X0235568Y0016282D01*
X0235582Y0016442D01*
X0235600Y0016602D01*
X0235621Y0016761D01*
X0235647Y0016920D01*
X0235677Y0017078D01*
X0235710Y0017235D01*
X0235748Y0017392D01*
X0235789Y0017547D01*
X0235834Y0017701D01*
X0235883Y0017854D01*
X0235936Y0018006D01*
X0235992Y0018157D01*
X0236053Y0018306D01*
X0236116Y0018454D01*
X0236184Y0018600D01*
X0236255Y0018744D01*
X0236329Y0018886D01*
X0236407Y0019027D01*
X0236489Y0019165D01*
X0236574Y0019302D01*
X0236662Y0019436D01*
X0236754Y0019568D01*
X0236849Y0019698D01*
X0236947Y0019826D01*
X0237048Y0019951D01*
X0237152Y0020073D01*
X0237259Y0020193D01*
X0237369Y0020310D01*
X0237482Y0020425D01*
X0237598Y0020536D01*
X0237717Y0020645D01*
X0237838Y0020750D01*
X0237962Y0020853D01*
X0238088Y0020953D01*
X0238216Y0021049D01*
X0238347Y0021142D01*
X0238481Y0021232D01*
X0238616Y0021319D01*
X0238754Y0021402D01*
X0238893Y0021482D01*
X0239035Y0021558D01*
X0239178Y0021631D01*
X0239323Y0021700D01*
X0239470Y0021766D01*
X0239618Y0021828D01*
X0239768Y0021886D01*
X0239919Y0021941D01*
X0240072Y0021992D01*
X0240226Y0022039D01*
X0240381Y0022082D01*
X0240537Y0022121D01*
X0240693Y0022157D01*
X0240851Y0022188D01*
X0241009Y0022216D01*
X0241168Y0022240D01*
X0241328Y0022260D01*
X0241488Y0022276D01*
X0241648Y0022288D01*
X0241809Y0022296D01*
X0241970Y0022300D01*
X0242130Y0022300D01*
X0242291Y0022296D01*
X0242452Y0022288D01*
X0242612Y0022276D01*
X0242772Y0022260D01*
X0242932Y0022240D01*
X0243091Y0022216D01*
X0243249Y0022188D01*
X0243407Y0022157D01*
X0243563Y0022121D01*
X0243719Y0022082D01*
X0243874Y0022039D01*
X0244028Y0021992D01*
X0244181Y0021941D01*
X0244332Y0021886D01*
X0244482Y0021828D01*
X0244630Y0021766D01*
X0244777Y0021700D01*
X0244922Y0021631D01*
X0245065Y0021558D01*
X0245207Y0021482D01*
X0245346Y0021402D01*
X0245484Y0021319D01*
X0245619Y0021232D01*
X0245753Y0021142D01*
X0245884Y0021049D01*
X0246012Y0020953D01*
X0246138Y0020853D01*
X0246262Y0020750D01*
X0246383Y0020645D01*
X0246502Y0020536D01*
X0246618Y0020425D01*
X0246731Y0020310D01*
X0246841Y0020193D01*
X0246948Y0020073D01*
X0247052Y0019951D01*
X0247153Y0019826D01*
X0247251Y0019698D01*
X0247346Y0019568D01*
X0247438Y0019436D01*
X0247526Y0019302D01*
X0247611Y0019165D01*
X0247693Y0019027D01*
X0247771Y0018886D01*
X0247845Y0018744D01*
X0247916Y0018600D01*
X0247984Y0018454D01*
X0248047Y0018306D01*
X0248108Y0018157D01*
X0248164Y0018006D01*
X0248217Y0017854D01*
X0248266Y0017701D01*
X0248311Y0017547D01*
X0248352Y0017392D01*
X0248390Y0017235D01*
X0248423Y0017078D01*
X0248453Y0016920D01*
X0248479Y0016761D01*
X0248500Y0016602D01*
X0248518Y0016442D01*
X0248532Y0016282D01*
X0248542Y0016121D01*
X0248548Y0015961D01*
X0248550Y0015800D01*
X0248548Y0015639D01*
X0248542Y0015479D01*
X0248532Y0015318D01*
X0248518Y0015158D01*
X0248500Y0014998D01*
X0248479Y0014839D01*
X0248453Y0014680D01*
X0248423Y0014522D01*
X0248390Y0014365D01*
X0248352Y0014208D01*
X0248311Y0014053D01*
X0248266Y0013899D01*
X0248217Y0013746D01*
X0248164Y0013594D01*
X0248108Y0013443D01*
X0248047Y0013294D01*
X0247984Y0013146D01*
X0247916Y0013000D01*
X0247845Y0012856D01*
X0247771Y0012714D01*
X0247693Y0012573D01*
X0247611Y0012435D01*
X0247526Y0012298D01*
X0247438Y0012164D01*
X0247346Y0012032D01*
X0247251Y0011902D01*
X0247153Y0011774D01*
X0247052Y0011649D01*
X0246948Y0011527D01*
X0246841Y0011407D01*
X0246731Y0011290D01*
X0246618Y0011175D01*
X0246502Y0011064D01*
X0246383Y0010955D01*
X0246262Y0010850D01*
X0246138Y0010747D01*
X0246012Y0010647D01*
X0245884Y0010551D01*
X0245753Y0010458D01*
X0245619Y0010368D01*
X0245484Y0010281D01*
X0245346Y0010198D01*
X0245207Y0010118D01*
X0245065Y0010042D01*
X0244922Y0009969D01*
X0244777Y0009900D01*
X0244630Y0009834D01*
X0244482Y0009772D01*
X0244332Y0009714D01*
X0244181Y0009659D01*
X0244028Y0009608D01*
X0243874Y0009561D01*
X0243719Y0009518D01*
X0243563Y0009479D01*
X0243407Y0009443D01*
X0243249Y0009412D01*
X0243091Y0009384D01*
X0242932Y0009360D01*
X0242772Y0009340D01*
X0242612Y0009324D01*
X0242452Y0009312D01*
X0242291Y0009304D01*
X0242130Y0009300D01*
X0241970Y0009300D01*
X0241809Y0009304D01*
X0241648Y0009312D01*
X0241488Y0009324D01*
X0241328Y0009340D01*
X0241168Y0009360D01*
X0241009Y0009384D01*
X0240851Y0009412D01*
X0240693Y0009443D01*
X0240537Y0009479D01*
X0240381Y0009518D01*
X0240226Y0009561D01*
X0240072Y0009608D01*
X0239919Y0009659D01*
X0239768Y0009714D01*
X0239618Y0009772D01*
X0239470Y0009834D01*
X0239323Y0009900D01*
X0239178Y0009969D01*
X0239035Y0010042D01*
X0238893Y0010118D01*
X0238754Y0010198D01*
X0238616Y0010281D01*
X0238481Y0010368D01*
X0238347Y0010458D01*
X0238216Y0010551D01*
X0238088Y0010647D01*
X0237962Y0010747D01*
X0237838Y0010850D01*
X0237717Y0010955D01*
X0237598Y0011064D01*
X0237482Y0011175D01*
X0237369Y0011290D01*
X0237259Y0011407D01*
X0237152Y0011527D01*
X0237048Y0011649D01*
X0236947Y0011774D01*
X0236849Y0011902D01*
X0236754Y0012032D01*
X0236662Y0012164D01*
X0236574Y0012298D01*
X0236489Y0012435D01*
X0236407Y0012573D01*
X0236329Y0012714D01*
X0236255Y0012856D01*
X0236184Y0013000D01*
X0236116Y0013146D01*
X0236053Y0013294D01*
X0235992Y0013443D01*
X0235936Y0013594D01*
X0235883Y0013746D01*
X0235834Y0013899D01*
X0235789Y0014053D01*
X0235748Y0014208D01*
X0235710Y0014365D01*
X0235677Y0014522D01*
X0235647Y0014680D01*
X0235621Y0014839D01*
X0235600Y0014998D01*
X0235582Y0015158D01*
X0235568Y0015318D01*
X0235558Y0015479D01*
X0235552Y0015639D01*
X0235550Y0015800D01*
X0235550Y0101800D02*
X0235552Y0101961D01*
X0235558Y0102121D01*
X0235568Y0102282D01*
X0235582Y0102442D01*
X0235600Y0102602D01*
X0235621Y0102761D01*
X0235647Y0102920D01*
X0235677Y0103078D01*
X0235710Y0103235D01*
X0235748Y0103392D01*
X0235789Y0103547D01*
X0235834Y0103701D01*
X0235883Y0103854D01*
X0235936Y0104006D01*
X0235992Y0104157D01*
X0236053Y0104306D01*
X0236116Y0104454D01*
X0236184Y0104600D01*
X0236255Y0104744D01*
X0236329Y0104886D01*
X0236407Y0105027D01*
X0236489Y0105165D01*
X0236574Y0105302D01*
X0236662Y0105436D01*
X0236754Y0105568D01*
X0236849Y0105698D01*
X0236947Y0105826D01*
X0237048Y0105951D01*
X0237152Y0106073D01*
X0237259Y0106193D01*
X0237369Y0106310D01*
X0237482Y0106425D01*
X0237598Y0106536D01*
X0237717Y0106645D01*
X0237838Y0106750D01*
X0237962Y0106853D01*
X0238088Y0106953D01*
X0238216Y0107049D01*
X0238347Y0107142D01*
X0238481Y0107232D01*
X0238616Y0107319D01*
X0238754Y0107402D01*
X0238893Y0107482D01*
X0239035Y0107558D01*
X0239178Y0107631D01*
X0239323Y0107700D01*
X0239470Y0107766D01*
X0239618Y0107828D01*
X0239768Y0107886D01*
X0239919Y0107941D01*
X0240072Y0107992D01*
X0240226Y0108039D01*
X0240381Y0108082D01*
X0240537Y0108121D01*
X0240693Y0108157D01*
X0240851Y0108188D01*
X0241009Y0108216D01*
X0241168Y0108240D01*
X0241328Y0108260D01*
X0241488Y0108276D01*
X0241648Y0108288D01*
X0241809Y0108296D01*
X0241970Y0108300D01*
X0242130Y0108300D01*
X0242291Y0108296D01*
X0242452Y0108288D01*
X0242612Y0108276D01*
X0242772Y0108260D01*
X0242932Y0108240D01*
X0243091Y0108216D01*
X0243249Y0108188D01*
X0243407Y0108157D01*
X0243563Y0108121D01*
X0243719Y0108082D01*
X0243874Y0108039D01*
X0244028Y0107992D01*
X0244181Y0107941D01*
X0244332Y0107886D01*
X0244482Y0107828D01*
X0244630Y0107766D01*
X0244777Y0107700D01*
X0244922Y0107631D01*
X0245065Y0107558D01*
X0245207Y0107482D01*
X0245346Y0107402D01*
X0245484Y0107319D01*
X0245619Y0107232D01*
X0245753Y0107142D01*
X0245884Y0107049D01*
X0246012Y0106953D01*
X0246138Y0106853D01*
X0246262Y0106750D01*
X0246383Y0106645D01*
X0246502Y0106536D01*
X0246618Y0106425D01*
X0246731Y0106310D01*
X0246841Y0106193D01*
X0246948Y0106073D01*
X0247052Y0105951D01*
X0247153Y0105826D01*
X0247251Y0105698D01*
X0247346Y0105568D01*
X0247438Y0105436D01*
X0247526Y0105302D01*
X0247611Y0105165D01*
X0247693Y0105027D01*
X0247771Y0104886D01*
X0247845Y0104744D01*
X0247916Y0104600D01*
X0247984Y0104454D01*
X0248047Y0104306D01*
X0248108Y0104157D01*
X0248164Y0104006D01*
X0248217Y0103854D01*
X0248266Y0103701D01*
X0248311Y0103547D01*
X0248352Y0103392D01*
X0248390Y0103235D01*
X0248423Y0103078D01*
X0248453Y0102920D01*
X0248479Y0102761D01*
X0248500Y0102602D01*
X0248518Y0102442D01*
X0248532Y0102282D01*
X0248542Y0102121D01*
X0248548Y0101961D01*
X0248550Y0101800D01*
X0248548Y0101639D01*
X0248542Y0101479D01*
X0248532Y0101318D01*
X0248518Y0101158D01*
X0248500Y0100998D01*
X0248479Y0100839D01*
X0248453Y0100680D01*
X0248423Y0100522D01*
X0248390Y0100365D01*
X0248352Y0100208D01*
X0248311Y0100053D01*
X0248266Y0099899D01*
X0248217Y0099746D01*
X0248164Y0099594D01*
X0248108Y0099443D01*
X0248047Y0099294D01*
X0247984Y0099146D01*
X0247916Y0099000D01*
X0247845Y0098856D01*
X0247771Y0098714D01*
X0247693Y0098573D01*
X0247611Y0098435D01*
X0247526Y0098298D01*
X0247438Y0098164D01*
X0247346Y0098032D01*
X0247251Y0097902D01*
X0247153Y0097774D01*
X0247052Y0097649D01*
X0246948Y0097527D01*
X0246841Y0097407D01*
X0246731Y0097290D01*
X0246618Y0097175D01*
X0246502Y0097064D01*
X0246383Y0096955D01*
X0246262Y0096850D01*
X0246138Y0096747D01*
X0246012Y0096647D01*
X0245884Y0096551D01*
X0245753Y0096458D01*
X0245619Y0096368D01*
X0245484Y0096281D01*
X0245346Y0096198D01*
X0245207Y0096118D01*
X0245065Y0096042D01*
X0244922Y0095969D01*
X0244777Y0095900D01*
X0244630Y0095834D01*
X0244482Y0095772D01*
X0244332Y0095714D01*
X0244181Y0095659D01*
X0244028Y0095608D01*
X0243874Y0095561D01*
X0243719Y0095518D01*
X0243563Y0095479D01*
X0243407Y0095443D01*
X0243249Y0095412D01*
X0243091Y0095384D01*
X0242932Y0095360D01*
X0242772Y0095340D01*
X0242612Y0095324D01*
X0242452Y0095312D01*
X0242291Y0095304D01*
X0242130Y0095300D01*
X0241970Y0095300D01*
X0241809Y0095304D01*
X0241648Y0095312D01*
X0241488Y0095324D01*
X0241328Y0095340D01*
X0241168Y0095360D01*
X0241009Y0095384D01*
X0240851Y0095412D01*
X0240693Y0095443D01*
X0240537Y0095479D01*
X0240381Y0095518D01*
X0240226Y0095561D01*
X0240072Y0095608D01*
X0239919Y0095659D01*
X0239768Y0095714D01*
X0239618Y0095772D01*
X0239470Y0095834D01*
X0239323Y0095900D01*
X0239178Y0095969D01*
X0239035Y0096042D01*
X0238893Y0096118D01*
X0238754Y0096198D01*
X0238616Y0096281D01*
X0238481Y0096368D01*
X0238347Y0096458D01*
X0238216Y0096551D01*
X0238088Y0096647D01*
X0237962Y0096747D01*
X0237838Y0096850D01*
X0237717Y0096955D01*
X0237598Y0097064D01*
X0237482Y0097175D01*
X0237369Y0097290D01*
X0237259Y0097407D01*
X0237152Y0097527D01*
X0237048Y0097649D01*
X0236947Y0097774D01*
X0236849Y0097902D01*
X0236754Y0098032D01*
X0236662Y0098164D01*
X0236574Y0098298D01*
X0236489Y0098435D01*
X0236407Y0098573D01*
X0236329Y0098714D01*
X0236255Y0098856D01*
X0236184Y0099000D01*
X0236116Y0099146D01*
X0236053Y0099294D01*
X0235992Y0099443D01*
X0235936Y0099594D01*
X0235883Y0099746D01*
X0235834Y0099899D01*
X0235789Y0100053D01*
X0235748Y0100208D01*
X0235710Y0100365D01*
X0235677Y0100522D01*
X0235647Y0100680D01*
X0235621Y0100839D01*
X0235600Y0100998D01*
X0235582Y0101158D01*
X0235568Y0101318D01*
X0235558Y0101479D01*
X0235552Y0101639D01*
X0235550Y0101800D01*
X0094550Y0101800D02*
X0094552Y0101961D01*
X0094558Y0102121D01*
X0094568Y0102282D01*
X0094582Y0102442D01*
X0094600Y0102602D01*
X0094621Y0102761D01*
X0094647Y0102920D01*
X0094677Y0103078D01*
X0094710Y0103235D01*
X0094748Y0103392D01*
X0094789Y0103547D01*
X0094834Y0103701D01*
X0094883Y0103854D01*
X0094936Y0104006D01*
X0094992Y0104157D01*
X0095053Y0104306D01*
X0095116Y0104454D01*
X0095184Y0104600D01*
X0095255Y0104744D01*
X0095329Y0104886D01*
X0095407Y0105027D01*
X0095489Y0105165D01*
X0095574Y0105302D01*
X0095662Y0105436D01*
X0095754Y0105568D01*
X0095849Y0105698D01*
X0095947Y0105826D01*
X0096048Y0105951D01*
X0096152Y0106073D01*
X0096259Y0106193D01*
X0096369Y0106310D01*
X0096482Y0106425D01*
X0096598Y0106536D01*
X0096717Y0106645D01*
X0096838Y0106750D01*
X0096962Y0106853D01*
X0097088Y0106953D01*
X0097216Y0107049D01*
X0097347Y0107142D01*
X0097481Y0107232D01*
X0097616Y0107319D01*
X0097754Y0107402D01*
X0097893Y0107482D01*
X0098035Y0107558D01*
X0098178Y0107631D01*
X0098323Y0107700D01*
X0098470Y0107766D01*
X0098618Y0107828D01*
X0098768Y0107886D01*
X0098919Y0107941D01*
X0099072Y0107992D01*
X0099226Y0108039D01*
X0099381Y0108082D01*
X0099537Y0108121D01*
X0099693Y0108157D01*
X0099851Y0108188D01*
X0100009Y0108216D01*
X0100168Y0108240D01*
X0100328Y0108260D01*
X0100488Y0108276D01*
X0100648Y0108288D01*
X0100809Y0108296D01*
X0100970Y0108300D01*
X0101130Y0108300D01*
X0101291Y0108296D01*
X0101452Y0108288D01*
X0101612Y0108276D01*
X0101772Y0108260D01*
X0101932Y0108240D01*
X0102091Y0108216D01*
X0102249Y0108188D01*
X0102407Y0108157D01*
X0102563Y0108121D01*
X0102719Y0108082D01*
X0102874Y0108039D01*
X0103028Y0107992D01*
X0103181Y0107941D01*
X0103332Y0107886D01*
X0103482Y0107828D01*
X0103630Y0107766D01*
X0103777Y0107700D01*
X0103922Y0107631D01*
X0104065Y0107558D01*
X0104207Y0107482D01*
X0104346Y0107402D01*
X0104484Y0107319D01*
X0104619Y0107232D01*
X0104753Y0107142D01*
X0104884Y0107049D01*
X0105012Y0106953D01*
X0105138Y0106853D01*
X0105262Y0106750D01*
X0105383Y0106645D01*
X0105502Y0106536D01*
X0105618Y0106425D01*
X0105731Y0106310D01*
X0105841Y0106193D01*
X0105948Y0106073D01*
X0106052Y0105951D01*
X0106153Y0105826D01*
X0106251Y0105698D01*
X0106346Y0105568D01*
X0106438Y0105436D01*
X0106526Y0105302D01*
X0106611Y0105165D01*
X0106693Y0105027D01*
X0106771Y0104886D01*
X0106845Y0104744D01*
X0106916Y0104600D01*
X0106984Y0104454D01*
X0107047Y0104306D01*
X0107108Y0104157D01*
X0107164Y0104006D01*
X0107217Y0103854D01*
X0107266Y0103701D01*
X0107311Y0103547D01*
X0107352Y0103392D01*
X0107390Y0103235D01*
X0107423Y0103078D01*
X0107453Y0102920D01*
X0107479Y0102761D01*
X0107500Y0102602D01*
X0107518Y0102442D01*
X0107532Y0102282D01*
X0107542Y0102121D01*
X0107548Y0101961D01*
X0107550Y0101800D01*
X0107548Y0101639D01*
X0107542Y0101479D01*
X0107532Y0101318D01*
X0107518Y0101158D01*
X0107500Y0100998D01*
X0107479Y0100839D01*
X0107453Y0100680D01*
X0107423Y0100522D01*
X0107390Y0100365D01*
X0107352Y0100208D01*
X0107311Y0100053D01*
X0107266Y0099899D01*
X0107217Y0099746D01*
X0107164Y0099594D01*
X0107108Y0099443D01*
X0107047Y0099294D01*
X0106984Y0099146D01*
X0106916Y0099000D01*
X0106845Y0098856D01*
X0106771Y0098714D01*
X0106693Y0098573D01*
X0106611Y0098435D01*
X0106526Y0098298D01*
X0106438Y0098164D01*
X0106346Y0098032D01*
X0106251Y0097902D01*
X0106153Y0097774D01*
X0106052Y0097649D01*
X0105948Y0097527D01*
X0105841Y0097407D01*
X0105731Y0097290D01*
X0105618Y0097175D01*
X0105502Y0097064D01*
X0105383Y0096955D01*
X0105262Y0096850D01*
X0105138Y0096747D01*
X0105012Y0096647D01*
X0104884Y0096551D01*
X0104753Y0096458D01*
X0104619Y0096368D01*
X0104484Y0096281D01*
X0104346Y0096198D01*
X0104207Y0096118D01*
X0104065Y0096042D01*
X0103922Y0095969D01*
X0103777Y0095900D01*
X0103630Y0095834D01*
X0103482Y0095772D01*
X0103332Y0095714D01*
X0103181Y0095659D01*
X0103028Y0095608D01*
X0102874Y0095561D01*
X0102719Y0095518D01*
X0102563Y0095479D01*
X0102407Y0095443D01*
X0102249Y0095412D01*
X0102091Y0095384D01*
X0101932Y0095360D01*
X0101772Y0095340D01*
X0101612Y0095324D01*
X0101452Y0095312D01*
X0101291Y0095304D01*
X0101130Y0095300D01*
X0100970Y0095300D01*
X0100809Y0095304D01*
X0100648Y0095312D01*
X0100488Y0095324D01*
X0100328Y0095340D01*
X0100168Y0095360D01*
X0100009Y0095384D01*
X0099851Y0095412D01*
X0099693Y0095443D01*
X0099537Y0095479D01*
X0099381Y0095518D01*
X0099226Y0095561D01*
X0099072Y0095608D01*
X0098919Y0095659D01*
X0098768Y0095714D01*
X0098618Y0095772D01*
X0098470Y0095834D01*
X0098323Y0095900D01*
X0098178Y0095969D01*
X0098035Y0096042D01*
X0097893Y0096118D01*
X0097754Y0096198D01*
X0097616Y0096281D01*
X0097481Y0096368D01*
X0097347Y0096458D01*
X0097216Y0096551D01*
X0097088Y0096647D01*
X0096962Y0096747D01*
X0096838Y0096850D01*
X0096717Y0096955D01*
X0096598Y0097064D01*
X0096482Y0097175D01*
X0096369Y0097290D01*
X0096259Y0097407D01*
X0096152Y0097527D01*
X0096048Y0097649D01*
X0095947Y0097774D01*
X0095849Y0097902D01*
X0095754Y0098032D01*
X0095662Y0098164D01*
X0095574Y0098298D01*
X0095489Y0098435D01*
X0095407Y0098573D01*
X0095329Y0098714D01*
X0095255Y0098856D01*
X0095184Y0099000D01*
X0095116Y0099146D01*
X0095053Y0099294D01*
X0094992Y0099443D01*
X0094936Y0099594D01*
X0094883Y0099746D01*
X0094834Y0099899D01*
X0094789Y0100053D01*
X0094748Y0100208D01*
X0094710Y0100365D01*
X0094677Y0100522D01*
X0094647Y0100680D01*
X0094621Y0100839D01*
X0094600Y0100998D01*
X0094582Y0101158D01*
X0094568Y0101318D01*
X0094558Y0101479D01*
X0094552Y0101639D01*
X0094550Y0101800D01*
D11*
X0157715Y0091931D02*
X0158905Y0091931D01*
X0158905Y0087905D01*
X0157715Y0087905D01*
X0157715Y0091931D01*
X0157715Y0088878D02*
X0158905Y0088878D01*
X0158905Y0089851D02*
X0157715Y0089851D01*
X0157715Y0090824D02*
X0158905Y0090824D01*
X0158905Y0091797D02*
X0157715Y0091797D01*
X0161455Y0091931D02*
X0162645Y0091931D01*
X0162645Y0087905D01*
X0161455Y0087905D01*
X0161455Y0091931D01*
X0161455Y0088878D02*
X0162645Y0088878D01*
X0162645Y0089851D02*
X0161455Y0089851D01*
X0161455Y0090824D02*
X0162645Y0090824D01*
X0162645Y0091797D02*
X0161455Y0091797D01*
X0165195Y0091931D02*
X0166385Y0091931D01*
X0166385Y0087905D01*
X0165195Y0087905D01*
X0165195Y0091931D01*
X0165195Y0088878D02*
X0166385Y0088878D01*
X0166385Y0089851D02*
X0165195Y0089851D01*
X0165195Y0090824D02*
X0166385Y0090824D01*
X0166385Y0091797D02*
X0165195Y0091797D01*
X0165195Y0081695D02*
X0166385Y0081695D01*
X0166385Y0077669D01*
X0165195Y0077669D01*
X0165195Y0081695D01*
X0165195Y0078642D02*
X0166385Y0078642D01*
X0166385Y0079615D02*
X0165195Y0079615D01*
X0165195Y0080588D02*
X0166385Y0080588D01*
X0166385Y0081561D02*
X0165195Y0081561D01*
X0158905Y0081695D02*
X0157715Y0081695D01*
X0158905Y0081695D02*
X0158905Y0077669D01*
X0157715Y0077669D01*
X0157715Y0081695D01*
X0157715Y0078642D02*
X0158905Y0078642D01*
X0158905Y0079615D02*
X0157715Y0079615D01*
X0157715Y0080588D02*
X0158905Y0080588D01*
X0158905Y0081561D02*
X0157715Y0081561D01*
D12*
X0136412Y0058800D02*
X0131688Y0058800D01*
X0131688Y0048800D02*
X0136412Y0048800D01*
D13*
X0114050Y0038800D03*
X0114050Y0078800D03*
D14*
X0168442Y0073178D02*
X0170572Y0073178D01*
X0170572Y0070422D01*
X0168442Y0070422D01*
X0168442Y0073178D01*
X0168442Y0072165D02*
X0170572Y0072165D01*
X0175528Y0073178D02*
X0177658Y0073178D01*
X0177658Y0070422D01*
X0175528Y0070422D01*
X0175528Y0073178D01*
X0175528Y0072165D02*
X0177658Y0072165D01*
X0177658Y0065178D02*
X0175528Y0065178D01*
X0177658Y0065178D02*
X0177658Y0062422D01*
X0175528Y0062422D01*
X0175528Y0065178D01*
X0175528Y0064165D02*
X0177658Y0064165D01*
X0170572Y0065178D02*
X0168442Y0065178D01*
X0170572Y0065178D02*
X0170572Y0062422D01*
X0168442Y0062422D01*
X0168442Y0065178D01*
X0168442Y0064165D02*
X0170572Y0064165D01*
X0169572Y0054422D02*
X0167442Y0054422D01*
X0167442Y0057178D01*
X0169572Y0057178D01*
X0169572Y0054422D01*
X0169572Y0056165D02*
X0167442Y0056165D01*
X0174528Y0054422D02*
X0176658Y0054422D01*
X0174528Y0054422D02*
X0174528Y0057178D01*
X0176658Y0057178D01*
X0176658Y0054422D01*
X0176658Y0056165D02*
X0174528Y0056165D01*
X0222442Y0066422D02*
X0224572Y0066422D01*
X0222442Y0066422D02*
X0222442Y0069178D01*
X0224572Y0069178D01*
X0224572Y0066422D01*
X0224572Y0068165D02*
X0222442Y0068165D01*
X0229528Y0066422D02*
X0231658Y0066422D01*
X0229528Y0066422D02*
X0229528Y0069178D01*
X0231658Y0069178D01*
X0231658Y0066422D01*
X0231658Y0068165D02*
X0229528Y0068165D01*
X0229528Y0074422D02*
X0231658Y0074422D01*
X0229528Y0074422D02*
X0229528Y0077178D01*
X0231658Y0077178D01*
X0231658Y0074422D01*
X0231658Y0076165D02*
X0229528Y0076165D01*
X0224572Y0074422D02*
X0222442Y0074422D01*
X0222442Y0077178D01*
X0224572Y0077178D01*
X0224572Y0074422D01*
X0224572Y0076165D02*
X0222442Y0076165D01*
X0181658Y0090178D02*
X0179528Y0090178D01*
X0181658Y0090178D02*
X0181658Y0087422D01*
X0179528Y0087422D01*
X0179528Y0090178D01*
X0179528Y0089165D02*
X0181658Y0089165D01*
X0174572Y0090178D02*
X0172442Y0090178D01*
X0174572Y0090178D02*
X0174572Y0087422D01*
X0172442Y0087422D01*
X0172442Y0090178D01*
X0172442Y0089165D02*
X0174572Y0089165D01*
D15*
X0189239Y0021800D03*
D16*
X0197113Y0021800D03*
X0204987Y0021800D03*
X0212861Y0021800D03*
D17*
X0244050Y0038800D03*
D18*
X0244050Y0048800D03*
X0244050Y0058800D03*
X0244050Y0068800D03*
X0244050Y0078800D03*
D19*
X0213322Y0052284D03*
D20*
X0215951Y0054389D02*
X0215951Y0055297D01*
X0215951Y0054389D02*
X0210693Y0054389D01*
X0210693Y0055297D01*
X0215951Y0055297D01*
X0215951Y0055130D02*
X0210693Y0055130D01*
X0215951Y0056948D02*
X0215951Y0057856D01*
X0215951Y0056948D02*
X0210693Y0056948D01*
X0210693Y0057856D01*
X0215951Y0057856D01*
X0215951Y0057689D02*
X0210693Y0057689D01*
X0215951Y0059507D02*
X0215951Y0060415D01*
X0215951Y0059507D02*
X0210693Y0059507D01*
X0210693Y0060415D01*
X0215951Y0060415D01*
X0215951Y0060248D02*
X0210693Y0060248D01*
X0215951Y0062066D02*
X0215951Y0062974D01*
X0215951Y0062066D02*
X0210693Y0062066D01*
X0210693Y0062974D01*
X0215951Y0062974D01*
X0215951Y0062807D02*
X0210693Y0062807D01*
X0215951Y0064626D02*
X0215951Y0065534D01*
X0215951Y0064626D02*
X0210693Y0064626D01*
X0210693Y0065534D01*
X0215951Y0065534D01*
X0215951Y0065367D02*
X0210693Y0065367D01*
X0215951Y0067185D02*
X0215951Y0068093D01*
X0215951Y0067185D02*
X0210693Y0067185D01*
X0210693Y0068093D01*
X0215951Y0068093D01*
X0215951Y0067926D02*
X0210693Y0067926D01*
X0215951Y0069744D02*
X0215951Y0070652D01*
X0215951Y0069744D02*
X0210693Y0069744D01*
X0210693Y0070652D01*
X0215951Y0070652D01*
X0215951Y0070485D02*
X0210693Y0070485D01*
X0215951Y0072303D02*
X0215951Y0073211D01*
X0215951Y0072303D02*
X0210693Y0072303D01*
X0210693Y0073211D01*
X0215951Y0073211D01*
X0215951Y0073044D02*
X0210693Y0073044D01*
X0215951Y0074862D02*
X0215951Y0075770D01*
X0215951Y0074862D02*
X0210693Y0074862D01*
X0210693Y0075770D01*
X0215951Y0075770D01*
X0215951Y0075603D02*
X0210693Y0075603D01*
X0187407Y0075770D02*
X0187407Y0074862D01*
X0182149Y0074862D01*
X0182149Y0075770D01*
X0187407Y0075770D01*
X0187407Y0075603D02*
X0182149Y0075603D01*
X0187407Y0073211D02*
X0187407Y0072303D01*
X0182149Y0072303D01*
X0182149Y0073211D01*
X0187407Y0073211D01*
X0187407Y0073044D02*
X0182149Y0073044D01*
X0187407Y0070652D02*
X0187407Y0069744D01*
X0182149Y0069744D01*
X0182149Y0070652D01*
X0187407Y0070652D01*
X0187407Y0070485D02*
X0182149Y0070485D01*
X0187407Y0068093D02*
X0187407Y0067185D01*
X0182149Y0067185D01*
X0182149Y0068093D01*
X0187407Y0068093D01*
X0187407Y0067926D02*
X0182149Y0067926D01*
X0187407Y0065534D02*
X0187407Y0064626D01*
X0182149Y0064626D01*
X0182149Y0065534D01*
X0187407Y0065534D01*
X0187407Y0065367D02*
X0182149Y0065367D01*
X0187407Y0062974D02*
X0187407Y0062066D01*
X0182149Y0062066D01*
X0182149Y0062974D01*
X0187407Y0062974D01*
X0187407Y0062807D02*
X0182149Y0062807D01*
X0187407Y0060415D02*
X0187407Y0059507D01*
X0182149Y0059507D01*
X0182149Y0060415D01*
X0187407Y0060415D01*
X0187407Y0060248D02*
X0182149Y0060248D01*
X0187407Y0057856D02*
X0187407Y0056948D01*
X0182149Y0056948D01*
X0182149Y0057856D01*
X0187407Y0057856D01*
X0187407Y0057689D02*
X0182149Y0057689D01*
X0187407Y0055297D02*
X0187407Y0054389D01*
X0182149Y0054389D01*
X0182149Y0055297D01*
X0187407Y0055297D01*
X0187407Y0055130D02*
X0182149Y0055130D01*
X0187407Y0052738D02*
X0187407Y0051830D01*
X0182149Y0051830D01*
X0182149Y0052738D01*
X0187407Y0052738D01*
X0187407Y0052571D02*
X0182149Y0052571D01*
D21*
X0220850Y0090800D03*
X0224050Y0090800D03*
X0227250Y0090800D03*
D22*
X0229097Y0043497D02*
X0230803Y0043497D01*
X0229097Y0043497D02*
X0229097Y0046103D01*
X0230803Y0046103D01*
X0230803Y0043497D01*
X0230803Y0044891D02*
X0229097Y0044891D01*
X0223203Y0043497D02*
X0221497Y0043497D01*
X0221497Y0046103D01*
X0223203Y0046103D01*
X0223203Y0043497D01*
X0223203Y0044891D02*
X0221497Y0044891D01*
X0225297Y0035497D02*
X0227003Y0035497D01*
X0225297Y0035497D02*
X0225297Y0038103D01*
X0227003Y0038103D01*
X0227003Y0035497D01*
X0227003Y0036891D02*
X0225297Y0036891D01*
D23*
X0226150Y0036800D02*
X0226150Y0028900D01*
X0226050Y0028800D01*
X0246050Y0028800D01*
X0251050Y0033800D01*
X0251050Y0051800D01*
X0244050Y0058800D01*
X0248865Y0057097D02*
X0249150Y0057786D01*
X0249150Y0059814D01*
X0248374Y0061689D01*
X0246939Y0063124D01*
X0245813Y0063590D01*
X0246161Y0063703D01*
X0246933Y0064096D01*
X0247633Y0064605D01*
X0248245Y0065217D01*
X0248754Y0065917D01*
X0249147Y0066689D01*
X0249415Y0067512D01*
X0249550Y0068367D01*
X0249550Y0068600D01*
X0244250Y0068600D01*
X0244250Y0069000D01*
X0249550Y0069000D01*
X0249550Y0069233D01*
X0249415Y0070088D01*
X0249147Y0070911D01*
X0248754Y0071683D01*
X0248245Y0072383D01*
X0247633Y0072995D01*
X0246933Y0073504D01*
X0246161Y0073897D01*
X0245813Y0074010D01*
X0246939Y0074476D01*
X0248374Y0075911D01*
X0249150Y0077786D01*
X0249150Y0079814D01*
X0248374Y0081689D01*
X0246939Y0083124D01*
X0245064Y0083900D01*
X0243036Y0083900D01*
X0241161Y0083124D01*
X0239726Y0081689D01*
X0238950Y0079814D01*
X0238950Y0077786D01*
X0239726Y0075911D01*
X0241161Y0074476D01*
X0242287Y0074010D01*
X0241939Y0073897D01*
X0241167Y0073504D01*
X0240467Y0072995D01*
X0239855Y0072383D01*
X0239346Y0071683D01*
X0238953Y0070911D01*
X0238685Y0070088D01*
X0238550Y0069233D01*
X0238550Y0069000D01*
X0243850Y0069000D01*
X0243850Y0068600D01*
X0238550Y0068600D01*
X0238550Y0068367D01*
X0238685Y0067512D01*
X0238953Y0066689D01*
X0239346Y0065917D01*
X0239855Y0065217D01*
X0240467Y0064605D01*
X0241167Y0064096D01*
X0241939Y0063703D01*
X0242287Y0063590D01*
X0241161Y0063124D01*
X0239726Y0061689D01*
X0238950Y0059814D01*
X0238950Y0057786D01*
X0239726Y0055911D01*
X0241161Y0054476D01*
X0242794Y0053800D01*
X0241161Y0053124D01*
X0239726Y0051689D01*
X0238950Y0049814D01*
X0238950Y0047786D01*
X0239318Y0046897D01*
X0234050Y0041628D01*
X0234050Y0034883D01*
X0233602Y0034436D01*
X0233163Y0033374D01*
X0233163Y0032226D01*
X0233602Y0031164D01*
X0233767Y0031000D01*
X0228350Y0031000D01*
X0228350Y0033879D01*
X0229100Y0034629D01*
X0229100Y0038971D01*
X0227871Y0040200D01*
X0224429Y0040200D01*
X0223200Y0038971D01*
X0223200Y0034629D01*
X0223950Y0033879D01*
X0223950Y0031000D01*
X0205139Y0031000D01*
X0203850Y0029711D01*
X0202787Y0028648D01*
X0202787Y0025110D01*
X0202778Y0025106D01*
X0201681Y0024009D01*
X0201087Y0022576D01*
X0201087Y0021024D01*
X0201681Y0019591D01*
X0202778Y0018494D01*
X0204211Y0017900D01*
X0205763Y0017900D01*
X0207196Y0018494D01*
X0208293Y0019591D01*
X0208722Y0020625D01*
X0208876Y0020149D01*
X0209183Y0019546D01*
X0209581Y0018999D01*
X0210060Y0018520D01*
X0210607Y0018122D01*
X0211210Y0017815D01*
X0211854Y0017606D01*
X0212523Y0017500D01*
X0212861Y0017500D01*
X0212861Y0021800D01*
X0212861Y0026100D01*
X0212523Y0026100D01*
X0211854Y0025994D01*
X0211210Y0025785D01*
X0210607Y0025478D01*
X0210060Y0025080D01*
X0209581Y0024601D01*
X0209183Y0024054D01*
X0208876Y0023451D01*
X0208722Y0022975D01*
X0208293Y0024009D01*
X0207196Y0025106D01*
X0207187Y0025110D01*
X0207187Y0026600D01*
X0246961Y0026600D01*
X0251750Y0031389D01*
X0251750Y0006100D01*
X0181050Y0006100D01*
X0181050Y0042800D01*
X0205050Y0042800D01*
X0205050Y0068972D01*
X0205222Y0068800D01*
X0205824Y0068198D01*
X0208922Y0068198D01*
X0208922Y0066808D01*
X0208670Y0066371D01*
X0208522Y0065819D01*
X0208522Y0065080D01*
X0210161Y0065080D01*
X0210161Y0065079D01*
X0208522Y0065079D01*
X0208522Y0064340D01*
X0208666Y0063800D01*
X0208522Y0063260D01*
X0208522Y0062521D01*
X0210161Y0062521D01*
X0210161Y0062520D01*
X0208522Y0062520D01*
X0208522Y0061781D01*
X0208670Y0061229D01*
X0208922Y0060792D01*
X0208922Y0058774D01*
X0209014Y0058682D01*
X0208922Y0058590D01*
X0208922Y0056572D01*
X0208670Y0056135D01*
X0208522Y0055583D01*
X0208522Y0054843D01*
X0208522Y0054104D01*
X0208670Y0053551D01*
X0208922Y0053115D01*
X0208922Y0050879D01*
X0209742Y0050059D01*
X0216902Y0050059D01*
X0217722Y0050879D01*
X0217722Y0053115D01*
X0217974Y0053551D01*
X0218122Y0054104D01*
X0218122Y0054843D01*
X0213322Y0054843D01*
X0213322Y0054843D01*
X0218122Y0054843D01*
X0218122Y0055583D01*
X0217974Y0056135D01*
X0217722Y0056572D01*
X0217722Y0058590D01*
X0217630Y0058682D01*
X0217722Y0058774D01*
X0217722Y0060792D01*
X0217974Y0061229D01*
X0218122Y0061781D01*
X0218122Y0062520D01*
X0216482Y0062520D01*
X0216483Y0062521D01*
X0218122Y0062521D01*
X0218122Y0063260D01*
X0217977Y0063800D01*
X0218122Y0064340D01*
X0218122Y0065079D01*
X0216483Y0065079D01*
X0216482Y0065080D01*
X0218122Y0065080D01*
X0218122Y0065819D01*
X0217974Y0066371D01*
X0217722Y0066808D01*
X0217722Y0068826D01*
X0217630Y0068918D01*
X0217722Y0069010D01*
X0217722Y0070757D01*
X0219265Y0070757D01*
X0220169Y0069852D01*
X0220169Y0065481D01*
X0221307Y0064343D01*
X0221307Y0055140D01*
X0220602Y0054436D01*
X0220163Y0053374D01*
X0220163Y0053024D01*
X0220150Y0053011D01*
X0220150Y0047721D01*
X0219400Y0046971D01*
X0219400Y0042629D01*
X0220629Y0041400D01*
X0224071Y0041400D01*
X0225300Y0042629D01*
X0225300Y0046971D01*
X0224550Y0047721D01*
X0224550Y0050275D01*
X0224585Y0050311D01*
X0224686Y0050352D01*
X0225498Y0051164D01*
X0225539Y0051265D01*
X0225707Y0051432D01*
X0225707Y0051669D01*
X0225937Y0052226D01*
X0225937Y0053374D01*
X0225707Y0053931D01*
X0225707Y0064343D01*
X0226844Y0065481D01*
X0226844Y0070119D01*
X0225707Y0071257D01*
X0225707Y0072343D01*
X0226844Y0073481D01*
X0226844Y0078119D01*
X0225513Y0079450D01*
X0225507Y0079450D01*
X0225507Y0081172D01*
X0224335Y0082343D01*
X0222850Y0083828D01*
X0222850Y0086900D01*
X0224854Y0086900D01*
X0224895Y0086860D01*
X0225305Y0086623D01*
X0225763Y0086500D01*
X0227250Y0086500D01*
X0228737Y0086500D01*
X0229195Y0086623D01*
X0229605Y0086860D01*
X0229940Y0087195D01*
X0230177Y0087605D01*
X0230300Y0088063D01*
X0230300Y0090800D01*
X0230300Y0093537D01*
X0230177Y0093995D01*
X0229940Y0094405D01*
X0229605Y0094740D01*
X0229195Y0094977D01*
X0228737Y0095100D01*
X0227250Y0095100D01*
X0227250Y0090800D01*
X0227250Y0090800D01*
X0230300Y0090800D01*
X0227250Y0090800D01*
X0227250Y0090800D01*
X0227250Y0095100D01*
X0226050Y0095100D01*
X0226050Y0096717D01*
X0226498Y0097164D01*
X0226937Y0098226D01*
X0226937Y0099374D01*
X0226498Y0100436D01*
X0225686Y0101248D01*
X0224624Y0101687D01*
X0223476Y0101687D01*
X0222414Y0101248D01*
X0221967Y0100800D01*
X0212222Y0100800D01*
X0211050Y0099628D01*
X0205050Y0093628D01*
X0205050Y0111500D01*
X0251750Y0111500D01*
X0251750Y0054211D01*
X0248865Y0057097D01*
X0249410Y0056551D02*
X0251750Y0056551D01*
X0251750Y0058149D02*
X0249150Y0058149D01*
X0249150Y0059748D02*
X0251750Y0059748D01*
X0251750Y0061346D02*
X0248515Y0061346D01*
X0247118Y0062945D02*
X0251750Y0062945D01*
X0251750Y0064543D02*
X0247548Y0064543D01*
X0248868Y0066142D02*
X0251750Y0066142D01*
X0251750Y0067740D02*
X0249451Y0067740D01*
X0249533Y0069339D02*
X0251750Y0069339D01*
X0251750Y0070937D02*
X0249134Y0070937D01*
X0248092Y0072536D02*
X0251750Y0072536D01*
X0251750Y0074134D02*
X0246113Y0074134D01*
X0248195Y0075733D02*
X0251750Y0075733D01*
X0251750Y0077332D02*
X0248962Y0077332D01*
X0249150Y0078930D02*
X0251750Y0078930D01*
X0251750Y0080529D02*
X0248854Y0080529D01*
X0247935Y0082127D02*
X0251750Y0082127D01*
X0251750Y0083726D02*
X0245486Y0083726D01*
X0242614Y0083726D02*
X0222953Y0083726D01*
X0222850Y0085324D02*
X0251750Y0085324D01*
X0251750Y0086923D02*
X0229668Y0086923D01*
X0227250Y0086923D02*
X0227250Y0086923D01*
X0227250Y0086500D02*
X0227250Y0090800D01*
X0227250Y0090800D01*
X0227250Y0086500D01*
X0227250Y0088521D02*
X0227250Y0088521D01*
X0227250Y0090120D02*
X0227250Y0090120D01*
X0227250Y0091718D02*
X0227250Y0091718D01*
X0230300Y0091718D02*
X0251750Y0091718D01*
X0251750Y0090120D02*
X0230300Y0090120D01*
X0230300Y0088521D02*
X0251750Y0088521D01*
X0251750Y0093317D02*
X0244565Y0093317D01*
X0243800Y0093000D02*
X0247035Y0094340D01*
X0249510Y0096815D01*
X0250850Y0100050D01*
X0250850Y0103550D01*
X0249510Y0106785D01*
X0247035Y0109260D01*
X0243800Y0110600D01*
X0240300Y0110600D01*
X0237065Y0109260D01*
X0234590Y0106785D01*
X0233250Y0103550D01*
X0233250Y0100050D01*
X0234590Y0096815D01*
X0237065Y0094340D01*
X0240300Y0093000D01*
X0243800Y0093000D01*
X0247610Y0094915D02*
X0251750Y0094915D01*
X0251750Y0096514D02*
X0249209Y0096514D01*
X0250047Y0098112D02*
X0251750Y0098112D01*
X0251750Y0099711D02*
X0250710Y0099711D01*
X0250850Y0101309D02*
X0251750Y0101309D01*
X0251750Y0102908D02*
X0250850Y0102908D01*
X0250454Y0104506D02*
X0251750Y0104506D01*
X0251750Y0106105D02*
X0249792Y0106105D01*
X0248592Y0107703D02*
X0251750Y0107703D01*
X0251750Y0109302D02*
X0246935Y0109302D01*
X0251750Y0110900D02*
X0205050Y0110900D01*
X0205050Y0109302D02*
X0237165Y0109302D01*
X0235508Y0107703D02*
X0205050Y0107703D01*
X0205050Y0106105D02*
X0234308Y0106105D01*
X0233646Y0104506D02*
X0205050Y0104506D01*
X0205050Y0102908D02*
X0233250Y0102908D01*
X0233250Y0101309D02*
X0225537Y0101309D01*
X0222563Y0101309D02*
X0205050Y0101309D01*
X0205050Y0099711D02*
X0211132Y0099711D01*
X0209534Y0098112D02*
X0205050Y0098112D01*
X0205050Y0096514D02*
X0207935Y0096514D01*
X0206337Y0094915D02*
X0205050Y0094915D01*
X0210395Y0093317D02*
X0218200Y0093317D01*
X0218200Y0093880D02*
X0218200Y0087720D01*
X0218850Y0087070D01*
X0218850Y0083828D01*
X0218684Y0083663D01*
X0218624Y0083687D01*
X0217476Y0083687D01*
X0216414Y0083248D01*
X0215602Y0082436D01*
X0215163Y0081374D01*
X0215163Y0080226D01*
X0215602Y0079164D01*
X0216414Y0078352D01*
X0217476Y0077913D01*
X0218624Y0077913D01*
X0219686Y0078352D01*
X0220498Y0079164D01*
X0220896Y0080126D01*
X0221507Y0079515D01*
X0221507Y0079450D01*
X0221500Y0079450D01*
X0220169Y0078119D01*
X0220169Y0074757D01*
X0218122Y0074757D01*
X0218122Y0075316D01*
X0218122Y0076055D01*
X0217974Y0076608D01*
X0217688Y0077103D01*
X0217284Y0077507D01*
X0216788Y0077793D01*
X0216236Y0077941D01*
X0213322Y0077941D01*
X0213322Y0075316D01*
X0218122Y0075316D01*
X0213322Y0075316D01*
X0213322Y0075316D01*
X0213322Y0075316D01*
X0213322Y0077941D01*
X0210407Y0077941D01*
X0209855Y0077793D01*
X0209360Y0077507D01*
X0208955Y0077103D01*
X0208670Y0076608D01*
X0208522Y0076055D01*
X0208522Y0075316D01*
X0213322Y0075316D01*
X0213322Y0075316D01*
X0208522Y0075316D01*
X0208522Y0074576D01*
X0208670Y0074024D01*
X0208922Y0073587D01*
X0208922Y0072198D01*
X0208050Y0072198D01*
X0208050Y0090972D01*
X0213878Y0096800D01*
X0221967Y0096800D01*
X0222050Y0096717D01*
X0222050Y0094700D01*
X0219020Y0094700D01*
X0218200Y0093880D01*
X0218200Y0091718D02*
X0208797Y0091718D01*
X0208050Y0090120D02*
X0218200Y0090120D01*
X0218200Y0088521D02*
X0208050Y0088521D01*
X0208050Y0086923D02*
X0218850Y0086923D01*
X0218850Y0085324D02*
X0208050Y0085324D01*
X0208050Y0083726D02*
X0218747Y0083726D01*
X0215474Y0082127D02*
X0208050Y0082127D01*
X0208050Y0080529D02*
X0215163Y0080529D01*
X0215837Y0078930D02*
X0208050Y0078930D01*
X0208050Y0077332D02*
X0209184Y0077332D01*
X0208522Y0075733D02*
X0208050Y0075733D01*
X0208050Y0074134D02*
X0208640Y0074134D01*
X0208922Y0072536D02*
X0208050Y0072536D01*
X0213322Y0075733D02*
X0213322Y0075733D01*
X0213322Y0077332D02*
X0213322Y0077332D01*
X0217459Y0077332D02*
X0220169Y0077332D01*
X0220169Y0075733D02*
X0218122Y0075733D01*
X0223507Y0075800D02*
X0223507Y0071800D01*
X0223507Y0067800D01*
X0223507Y0052343D01*
X0223050Y0052800D01*
X0222350Y0052100D01*
X0222350Y0044800D01*
X0225300Y0045361D02*
X0226600Y0045361D01*
X0226600Y0044800D02*
X0229950Y0044800D01*
X0233300Y0044800D01*
X0233300Y0046348D01*
X0233204Y0046831D01*
X0233016Y0047286D01*
X0232742Y0047695D01*
X0232395Y0048042D01*
X0231986Y0048316D01*
X0231531Y0048504D01*
X0231048Y0048600D01*
X0229950Y0048600D01*
X0229950Y0044800D01*
X0229950Y0044800D01*
X0229950Y0044800D01*
X0233300Y0044800D01*
X0233300Y0043252D01*
X0233204Y0042769D01*
X0233016Y0042314D01*
X0232742Y0041905D01*
X0232395Y0041558D01*
X0231986Y0041284D01*
X0231531Y0041096D01*
X0231048Y0041000D01*
X0229950Y0041000D01*
X0229950Y0044800D01*
X0229950Y0044800D01*
X0229950Y0044800D01*
X0229950Y0048600D01*
X0228852Y0048600D01*
X0228369Y0048504D01*
X0227914Y0048316D01*
X0227505Y0048042D01*
X0227158Y0047695D01*
X0226884Y0047286D01*
X0226696Y0046831D01*
X0226600Y0046348D01*
X0226600Y0044800D01*
X0226600Y0043252D01*
X0226696Y0042769D01*
X0226884Y0042314D01*
X0227158Y0041905D01*
X0227505Y0041558D01*
X0227914Y0041284D01*
X0228369Y0041096D01*
X0228852Y0041000D01*
X0229950Y0041000D01*
X0229950Y0044800D01*
X0226600Y0044800D01*
X0226600Y0043763D02*
X0225300Y0043763D01*
X0224836Y0042164D02*
X0226985Y0042164D01*
X0229950Y0042164D02*
X0229950Y0042164D01*
X0232915Y0042164D02*
X0234586Y0042164D01*
X0234050Y0040566D02*
X0181050Y0040566D01*
X0181050Y0042164D02*
X0219864Y0042164D01*
X0219400Y0043763D02*
X0205050Y0043763D01*
X0205050Y0045361D02*
X0219400Y0045361D01*
X0219400Y0046960D02*
X0205050Y0046960D01*
X0205050Y0048558D02*
X0220150Y0048558D01*
X0220150Y0050157D02*
X0216999Y0050157D01*
X0217722Y0051755D02*
X0220150Y0051755D01*
X0220163Y0053354D02*
X0217860Y0053354D01*
X0218122Y0054952D02*
X0221119Y0054952D01*
X0221307Y0056551D02*
X0217734Y0056551D01*
X0217722Y0058149D02*
X0221307Y0058149D01*
X0221307Y0059748D02*
X0217722Y0059748D01*
X0218005Y0061346D02*
X0221307Y0061346D01*
X0221307Y0062945D02*
X0218122Y0062945D01*
X0218122Y0064543D02*
X0221107Y0064543D01*
X0220169Y0066142D02*
X0218035Y0066142D01*
X0217722Y0067740D02*
X0220169Y0067740D01*
X0220169Y0069339D02*
X0217722Y0069339D01*
X0213322Y0065079D02*
X0213322Y0062521D01*
X0213322Y0062521D01*
X0213322Y0065079D01*
X0213322Y0065079D01*
X0213322Y0064543D02*
X0213322Y0064543D01*
X0213322Y0062945D02*
X0213322Y0062945D01*
X0208522Y0062945D02*
X0205050Y0062945D01*
X0205050Y0064543D02*
X0208522Y0064543D01*
X0208608Y0066142D02*
X0205050Y0066142D01*
X0205050Y0067740D02*
X0208922Y0067740D01*
X0199050Y0066113D02*
X0199050Y0048800D01*
X0175050Y0048800D01*
X0175050Y0006100D01*
X0091350Y0006100D01*
X0091350Y0111500D01*
X0127023Y0111500D01*
X0126414Y0111248D01*
X0125602Y0110436D01*
X0125163Y0109374D01*
X0125163Y0108226D01*
X0125602Y0107164D01*
X0126414Y0106352D01*
X0127476Y0105913D01*
X0128624Y0105913D01*
X0129686Y0106352D01*
X0130498Y0107164D01*
X0130937Y0108226D01*
X0130937Y0108900D01*
X0142380Y0108900D01*
X0142163Y0108374D01*
X0142163Y0107226D01*
X0142602Y0106164D01*
X0143050Y0105717D01*
X0143050Y0088972D01*
X0147050Y0084972D01*
X0147050Y0082883D01*
X0146602Y0082436D01*
X0146163Y0081374D01*
X0146163Y0080226D01*
X0146602Y0079164D01*
X0147050Y0078717D01*
X0147050Y0051628D01*
X0141109Y0045687D01*
X0140476Y0045687D01*
X0139414Y0045248D01*
X0138602Y0044436D01*
X0138163Y0043374D01*
X0138163Y0042226D01*
X0138602Y0041164D01*
X0139414Y0040352D01*
X0140476Y0039913D01*
X0141334Y0039913D01*
X0140109Y0038687D01*
X0139476Y0038687D01*
X0138414Y0038248D01*
X0137602Y0037436D01*
X0137163Y0036374D01*
X0137163Y0035226D01*
X0137602Y0034164D01*
X0138414Y0033352D01*
X0139476Y0032913D01*
X0140624Y0032913D01*
X0141686Y0033352D01*
X0142498Y0034164D01*
X0142937Y0035226D01*
X0142937Y0035859D01*
X0143138Y0036060D01*
X0149760Y0036060D01*
X0150932Y0037231D01*
X0160050Y0046350D01*
X0160050Y0045972D01*
X0164163Y0041859D01*
X0164163Y0041226D01*
X0164602Y0040164D01*
X0165414Y0039352D01*
X0166476Y0038913D01*
X0167624Y0038913D01*
X0168686Y0039352D01*
X0169498Y0040164D01*
X0169937Y0041226D01*
X0169937Y0042374D01*
X0169498Y0043436D01*
X0168686Y0044248D01*
X0167624Y0044687D01*
X0166991Y0044687D01*
X0165766Y0045913D01*
X0166624Y0045913D01*
X0167686Y0046352D01*
X0168498Y0047164D01*
X0168937Y0048226D01*
X0168937Y0048859D01*
X0169335Y0049257D01*
X0170507Y0050428D01*
X0170507Y0052150D01*
X0170513Y0052150D01*
X0171844Y0053481D01*
X0171844Y0058119D01*
X0171021Y0058942D01*
X0171507Y0059428D01*
X0171507Y0060150D01*
X0171513Y0060150D01*
X0172844Y0061481D01*
X0172844Y0063907D01*
X0173256Y0064319D01*
X0173256Y0061481D01*
X0174587Y0060150D01*
X0178600Y0060150D01*
X0179931Y0061481D01*
X0179931Y0065994D01*
X0180060Y0066123D01*
X0179978Y0065819D01*
X0179978Y0065080D01*
X0181618Y0065080D01*
X0181617Y0065079D01*
X0179978Y0065079D01*
X0179978Y0064340D01*
X0180123Y0063800D01*
X0179978Y0063260D01*
X0179978Y0062521D01*
X0181617Y0062521D01*
X0181618Y0062520D01*
X0179978Y0062520D01*
X0179978Y0061781D01*
X0180126Y0061229D01*
X0180378Y0060792D01*
X0180378Y0058774D01*
X0180470Y0058682D01*
X0180378Y0058590D01*
X0180378Y0056572D01*
X0180126Y0056135D01*
X0179978Y0055583D01*
X0179978Y0054843D01*
X0179978Y0054104D01*
X0180126Y0053551D01*
X0180378Y0053115D01*
X0180378Y0051097D01*
X0181416Y0050059D01*
X0188141Y0050059D01*
X0189178Y0051097D01*
X0189178Y0053115D01*
X0189430Y0053551D01*
X0189578Y0054104D01*
X0189578Y0054843D01*
X0184778Y0054843D01*
X0179978Y0054843D01*
X0184778Y0054843D01*
X0184778Y0054843D01*
X0184778Y0054843D01*
X0189578Y0054843D01*
X0189578Y0055583D01*
X0189430Y0056135D01*
X0189178Y0056572D01*
X0189178Y0058590D01*
X0189086Y0058682D01*
X0189178Y0058774D01*
X0189178Y0060792D01*
X0189430Y0061229D01*
X0189578Y0061781D01*
X0189578Y0062520D01*
X0187939Y0062520D01*
X0187939Y0062521D01*
X0189578Y0062521D01*
X0189578Y0063260D01*
X0189434Y0063800D01*
X0189578Y0064340D01*
X0189578Y0065079D01*
X0187939Y0065079D01*
X0187939Y0065080D01*
X0189578Y0065080D01*
X0189578Y0065819D01*
X0189430Y0066371D01*
X0189178Y0066808D01*
X0189178Y0068298D01*
X0190865Y0068298D01*
X0193263Y0065900D01*
X0198837Y0065900D01*
X0199050Y0066113D01*
X0199050Y0064543D02*
X0189578Y0064543D01*
X0189578Y0062945D02*
X0199050Y0062945D01*
X0199050Y0061346D02*
X0189462Y0061346D01*
X0189178Y0059748D02*
X0199050Y0059748D01*
X0199050Y0058149D02*
X0189178Y0058149D01*
X0189190Y0056551D02*
X0199050Y0056551D01*
X0199050Y0054952D02*
X0189578Y0054952D01*
X0189316Y0053354D02*
X0199050Y0053354D01*
X0199050Y0051755D02*
X0189178Y0051755D01*
X0188238Y0050157D02*
X0199050Y0050157D01*
X0205050Y0050157D02*
X0209644Y0050157D01*
X0208922Y0051755D02*
X0205050Y0051755D01*
X0205050Y0053354D02*
X0208784Y0053354D01*
X0208522Y0054843D02*
X0213322Y0054843D01*
X0213322Y0054843D01*
X0208522Y0054843D01*
X0208522Y0054952D02*
X0205050Y0054952D01*
X0205050Y0056551D02*
X0208910Y0056551D01*
X0208922Y0058149D02*
X0205050Y0058149D01*
X0205050Y0059748D02*
X0208922Y0059748D01*
X0208638Y0061346D02*
X0205050Y0061346D01*
X0193021Y0066142D02*
X0189492Y0066142D01*
X0189178Y0067740D02*
X0191423Y0067740D01*
X0184778Y0065079D02*
X0184778Y0065079D01*
X0184778Y0062521D01*
X0184778Y0062521D01*
X0184778Y0065079D01*
X0184778Y0064543D02*
X0184778Y0064543D01*
X0184778Y0062945D02*
X0184778Y0062945D01*
X0179978Y0062945D02*
X0179931Y0062945D01*
X0179931Y0064543D02*
X0179978Y0064543D01*
X0180095Y0061346D02*
X0179796Y0061346D01*
X0180378Y0059748D02*
X0177435Y0059748D01*
X0177438Y0059747D02*
X0176922Y0059850D01*
X0175762Y0059850D01*
X0175762Y0055969D01*
X0175425Y0055969D01*
X0175425Y0059850D01*
X0174265Y0059850D01*
X0173748Y0059747D01*
X0173262Y0059546D01*
X0172825Y0059254D01*
X0172452Y0058881D01*
X0172160Y0058444D01*
X0171959Y0057958D01*
X0171856Y0057441D01*
X0171856Y0055969D01*
X0175425Y0055969D01*
X0175425Y0055631D01*
X0175762Y0055631D01*
X0175762Y0051750D01*
X0176922Y0051750D01*
X0177438Y0051853D01*
X0177924Y0052054D01*
X0178362Y0052346D01*
X0178734Y0052719D01*
X0179027Y0053156D01*
X0179228Y0053642D01*
X0179331Y0054159D01*
X0179331Y0055631D01*
X0175762Y0055631D01*
X0175762Y0055969D01*
X0179331Y0055969D01*
X0179331Y0057441D01*
X0179228Y0057958D01*
X0179027Y0058444D01*
X0178734Y0058881D01*
X0178362Y0059254D01*
X0177924Y0059546D01*
X0177438Y0059747D01*
X0175762Y0059748D02*
X0175425Y0059748D01*
X0175425Y0058149D02*
X0175762Y0058149D01*
X0175762Y0056551D02*
X0175425Y0056551D01*
X0175425Y0055631D02*
X0171856Y0055631D01*
X0171856Y0054159D01*
X0171959Y0053642D01*
X0172160Y0053156D01*
X0172452Y0052719D01*
X0172825Y0052346D01*
X0173262Y0052054D01*
X0173748Y0051853D01*
X0174265Y0051750D01*
X0175425Y0051750D01*
X0175425Y0055631D01*
X0175425Y0054952D02*
X0175762Y0054952D01*
X0175762Y0053354D02*
X0175425Y0053354D01*
X0175425Y0051755D02*
X0175762Y0051755D01*
X0176949Y0051755D02*
X0180378Y0051755D01*
X0180240Y0053354D02*
X0179108Y0053354D01*
X0179331Y0054952D02*
X0179978Y0054952D01*
X0180366Y0056551D02*
X0179331Y0056551D01*
X0179149Y0058149D02*
X0180378Y0058149D01*
X0173751Y0059748D02*
X0171507Y0059748D01*
X0171814Y0058149D02*
X0172038Y0058149D01*
X0171856Y0056551D02*
X0171844Y0056551D01*
X0171844Y0054952D02*
X0171856Y0054952D01*
X0171717Y0053354D02*
X0172078Y0053354D01*
X0170507Y0051755D02*
X0174238Y0051755D01*
X0170235Y0050157D02*
X0181318Y0050157D01*
X0175050Y0048558D02*
X0168937Y0048558D01*
X0168293Y0046960D02*
X0175050Y0046960D01*
X0175050Y0045361D02*
X0166317Y0045361D01*
X0169171Y0043763D02*
X0175050Y0043763D01*
X0175050Y0042164D02*
X0169937Y0042164D01*
X0169664Y0040566D02*
X0175050Y0040566D01*
X0175050Y0038967D02*
X0167756Y0038967D01*
X0166344Y0038967D02*
X0152668Y0038967D01*
X0154266Y0040566D02*
X0164436Y0040566D01*
X0163857Y0042164D02*
X0155865Y0042164D01*
X0157463Y0043763D02*
X0162259Y0043763D01*
X0160660Y0045361D02*
X0159062Y0045361D01*
X0155003Y0046960D02*
X0148038Y0046960D01*
X0146440Y0045361D02*
X0153405Y0045361D01*
X0151806Y0043763D02*
X0144841Y0043763D01*
X0143937Y0042859D02*
X0149878Y0048800D01*
X0151050Y0049972D01*
X0151050Y0078717D01*
X0151498Y0079164D01*
X0151937Y0080226D01*
X0151937Y0081374D01*
X0151498Y0082436D01*
X0151050Y0082883D01*
X0151050Y0086628D01*
X0149878Y0087800D01*
X0147050Y0090628D01*
X0147050Y0105717D01*
X0147498Y0106164D01*
X0147937Y0107226D01*
X0147937Y0108374D01*
X0147720Y0108900D01*
X0163263Y0108900D01*
X0163890Y0108273D01*
X0163890Y0093850D01*
X0163729Y0093958D01*
X0163313Y0094130D01*
X0162871Y0094218D01*
X0162050Y0094218D01*
X0162050Y0089918D01*
X0162050Y0085618D01*
X0162871Y0085618D01*
X0163313Y0085706D01*
X0163729Y0085878D01*
X0164103Y0086129D01*
X0164203Y0086228D01*
X0164413Y0086018D01*
X0167167Y0086018D01*
X0168273Y0087124D01*
X0168273Y0087918D01*
X0169103Y0087918D01*
X0170169Y0086852D01*
X0170169Y0086481D01*
X0171500Y0085150D01*
X0175513Y0085150D01*
X0176844Y0086481D01*
X0176844Y0091119D01*
X0175586Y0092377D01*
X0175937Y0093226D01*
X0175937Y0094374D01*
X0175498Y0095436D01*
X0174686Y0096248D01*
X0173624Y0096687D01*
X0172476Y0096687D01*
X0171414Y0096248D01*
X0170602Y0095436D01*
X0170163Y0094374D01*
X0170163Y0093226D01*
X0170602Y0092164D01*
X0170908Y0091858D01*
X0170864Y0091814D01*
X0170760Y0091918D01*
X0168273Y0091918D01*
X0168273Y0092713D01*
X0167690Y0093295D01*
X0167690Y0109847D01*
X0166037Y0111500D01*
X0199050Y0111500D01*
X0199050Y0091487D01*
X0198778Y0091759D01*
X0198498Y0092436D01*
X0197686Y0093248D01*
X0196624Y0093687D01*
X0195476Y0093687D01*
X0194414Y0093248D01*
X0193602Y0092436D01*
X0193497Y0092181D01*
X0192878Y0092800D01*
X0191937Y0093741D01*
X0191937Y0094374D01*
X0191498Y0095436D01*
X0190686Y0096248D01*
X0189624Y0096687D01*
X0188476Y0096687D01*
X0187414Y0096248D01*
X0186602Y0095436D01*
X0186163Y0094374D01*
X0186163Y0093226D01*
X0186602Y0092164D01*
X0187414Y0091352D01*
X0188476Y0090913D01*
X0189109Y0090913D01*
X0190050Y0089972D01*
X0190050Y0074757D01*
X0189578Y0074757D01*
X0189578Y0075316D01*
X0189578Y0076055D01*
X0189430Y0076608D01*
X0189145Y0077103D01*
X0188740Y0077507D01*
X0188245Y0077793D01*
X0187693Y0077941D01*
X0184778Y0077941D01*
X0181864Y0077941D01*
X0181312Y0077793D01*
X0180816Y0077507D01*
X0180412Y0077103D01*
X0180126Y0076608D01*
X0179978Y0076055D01*
X0179978Y0075316D01*
X0184778Y0075316D01*
X0184778Y0075316D01*
X0184778Y0077941D01*
X0184778Y0075316D01*
X0184778Y0075316D01*
X0179978Y0075316D01*
X0179978Y0074657D01*
X0179393Y0074657D01*
X0178600Y0075450D01*
X0174587Y0075450D01*
X0173256Y0074119D01*
X0173256Y0069693D01*
X0173096Y0069533D01*
X0173141Y0069642D01*
X0173244Y0070159D01*
X0173244Y0071631D01*
X0169675Y0071631D01*
X0169675Y0067750D01*
X0170835Y0067750D01*
X0171352Y0067853D01*
X0171461Y0067898D01*
X0171013Y0067450D01*
X0167500Y0067450D01*
X0166169Y0066119D01*
X0166169Y0061481D01*
X0167036Y0060614D01*
X0166507Y0060085D01*
X0166507Y0059450D01*
X0166500Y0059450D01*
X0165698Y0058648D01*
X0165937Y0059226D01*
X0165937Y0060374D01*
X0165498Y0061436D01*
X0165050Y0061883D01*
X0165050Y0073972D01*
X0166619Y0075540D01*
X0166860Y0075782D01*
X0167167Y0075782D01*
X0168273Y0076887D01*
X0168273Y0082476D01*
X0167167Y0083582D01*
X0164413Y0083582D01*
X0163307Y0082476D01*
X0163307Y0077886D01*
X0161050Y0075628D01*
X0161050Y0061883D01*
X0160602Y0061436D01*
X0160310Y0060730D01*
X0160310Y0076405D01*
X0160793Y0076887D01*
X0160793Y0082476D01*
X0159687Y0083582D01*
X0156933Y0083582D01*
X0155827Y0082476D01*
X0155827Y0081682D01*
X0154103Y0081682D01*
X0152050Y0079628D01*
X0152050Y0078883D01*
X0151602Y0078436D01*
X0151163Y0077374D01*
X0151163Y0076226D01*
X0151602Y0075164D01*
X0152414Y0074352D01*
X0153476Y0073913D01*
X0154624Y0073913D01*
X0155686Y0074352D01*
X0156310Y0074976D01*
X0156310Y0048266D01*
X0148103Y0040060D01*
X0141980Y0040060D01*
X0142686Y0040352D01*
X0143498Y0041164D01*
X0143937Y0042226D01*
X0143937Y0042859D01*
X0143912Y0042164D02*
X0150208Y0042164D01*
X0148609Y0040566D02*
X0142899Y0040566D01*
X0140389Y0038967D02*
X0121781Y0038967D01*
X0121781Y0040338D02*
X0120604Y0043179D01*
X0118442Y0045341D01*
X0119476Y0044913D01*
X0120624Y0044913D01*
X0121686Y0045352D01*
X0122498Y0046164D01*
X0122937Y0047226D01*
X0122937Y0047859D01*
X0124050Y0048972D01*
X0124050Y0067972D01*
X0136878Y0080800D01*
X0139967Y0080800D01*
X0140414Y0080352D01*
X0141476Y0079913D01*
X0142624Y0079913D01*
X0143686Y0080352D01*
X0144498Y0081164D01*
X0144937Y0082226D01*
X0144937Y0083374D01*
X0144498Y0084436D01*
X0143686Y0085248D01*
X0142624Y0085687D01*
X0141476Y0085687D01*
X0140414Y0085248D01*
X0139967Y0084800D01*
X0135222Y0084800D01*
X0134050Y0083628D01*
X0120050Y0069628D01*
X0120050Y0050687D01*
X0119476Y0050687D01*
X0118414Y0050248D01*
X0117602Y0049436D01*
X0117163Y0048374D01*
X0117163Y0047226D01*
X0117602Y0046164D01*
X0118401Y0045365D01*
X0115588Y0046531D01*
X0112512Y0046531D01*
X0109671Y0045354D01*
X0107496Y0043179D01*
X0106319Y0040338D01*
X0106319Y0037262D01*
X0107496Y0034421D01*
X0109671Y0032246D01*
X0112512Y0031069D01*
X0115588Y0031069D01*
X0118429Y0032246D01*
X0120604Y0034421D01*
X0121781Y0037262D01*
X0121781Y0040338D01*
X0121686Y0040566D02*
X0139201Y0040566D01*
X0138188Y0042164D02*
X0121024Y0042164D01*
X0120020Y0043763D02*
X0138323Y0043763D01*
X0138010Y0044943D02*
X0138594Y0045240D01*
X0139124Y0045625D01*
X0139587Y0046088D01*
X0139972Y0046619D01*
X0140269Y0047202D01*
X0140472Y0047825D01*
X0140574Y0048472D01*
X0140574Y0048800D01*
X0140574Y0049128D01*
X0140472Y0049775D01*
X0140269Y0050398D01*
X0139972Y0050981D01*
X0139827Y0051181D01*
X0140476Y0050913D01*
X0141624Y0050913D01*
X0142686Y0051352D01*
X0143498Y0052164D01*
X0143937Y0053226D01*
X0143937Y0054374D01*
X0143498Y0055436D01*
X0142950Y0055983D01*
X0142950Y0062587D01*
X0141837Y0063700D01*
X0139837Y0065700D01*
X0127263Y0065700D01*
X0126150Y0064587D01*
X0125150Y0063587D01*
X0125150Y0054013D01*
X0126263Y0052900D01*
X0127263Y0051900D01*
X0128902Y0051900D01*
X0128513Y0051511D01*
X0128128Y0050981D01*
X0127831Y0050398D01*
X0127628Y0049775D01*
X0127526Y0049128D01*
X0127526Y0048800D01*
X0127526Y0048472D01*
X0127628Y0047825D01*
X0127831Y0047202D01*
X0128128Y0046619D01*
X0128513Y0046088D01*
X0128976Y0045625D01*
X0129506Y0045240D01*
X0130090Y0044943D01*
X0130713Y0044740D01*
X0131360Y0044638D01*
X0134050Y0044638D01*
X0136740Y0044638D01*
X0137387Y0044740D01*
X0138010Y0044943D01*
X0138760Y0045361D02*
X0139688Y0045361D01*
X0140146Y0046960D02*
X0142381Y0046960D01*
X0143980Y0048558D02*
X0140574Y0048558D01*
X0140574Y0048800D02*
X0134050Y0048800D01*
X0140574Y0048800D01*
X0140348Y0050157D02*
X0145578Y0050157D01*
X0147050Y0051755D02*
X0143089Y0051755D01*
X0143937Y0053354D02*
X0147050Y0053354D01*
X0147050Y0054952D02*
X0143698Y0054952D01*
X0142950Y0056551D02*
X0147050Y0056551D01*
X0147050Y0058149D02*
X0142950Y0058149D01*
X0142950Y0059748D02*
X0147050Y0059748D01*
X0151050Y0059748D02*
X0156310Y0059748D01*
X0156310Y0058149D02*
X0151050Y0058149D01*
X0151050Y0056551D02*
X0156310Y0056551D01*
X0156310Y0054952D02*
X0151050Y0054952D01*
X0151050Y0053354D02*
X0156310Y0053354D01*
X0156310Y0051755D02*
X0151050Y0051755D01*
X0151050Y0050157D02*
X0156310Y0050157D01*
X0156310Y0048558D02*
X0149637Y0048558D01*
X0134050Y0048558D02*
X0134050Y0048558D01*
X0134050Y0048800D02*
X0134050Y0044638D01*
X0134050Y0048800D01*
X0134050Y0048800D01*
X0134050Y0048800D01*
X0134050Y0048800D01*
X0127526Y0048800D01*
X0134050Y0048800D01*
X0134050Y0046960D02*
X0134050Y0046960D01*
X0134050Y0045361D02*
X0134050Y0045361D01*
X0129340Y0045361D02*
X0121695Y0045361D01*
X0122827Y0046960D02*
X0127954Y0046960D01*
X0127526Y0048558D02*
X0123637Y0048558D01*
X0124050Y0050157D02*
X0127752Y0050157D01*
X0128757Y0051755D02*
X0124050Y0051755D01*
X0124050Y0053354D02*
X0125809Y0053354D01*
X0125150Y0054952D02*
X0124050Y0054952D01*
X0124050Y0056551D02*
X0125150Y0056551D01*
X0125150Y0058149D02*
X0124050Y0058149D01*
X0124050Y0059748D02*
X0125150Y0059748D01*
X0125150Y0061346D02*
X0124050Y0061346D01*
X0124050Y0062945D02*
X0125150Y0062945D01*
X0126106Y0064543D02*
X0124050Y0064543D01*
X0124050Y0066142D02*
X0147050Y0066142D01*
X0147050Y0067740D02*
X0124050Y0067740D01*
X0125417Y0069339D02*
X0147050Y0069339D01*
X0151050Y0069339D02*
X0156310Y0069339D01*
X0156310Y0067740D02*
X0151050Y0067740D01*
X0151050Y0066142D02*
X0156310Y0066142D01*
X0156310Y0064543D02*
X0151050Y0064543D01*
X0151050Y0062945D02*
X0156310Y0062945D01*
X0156310Y0061346D02*
X0151050Y0061346D01*
X0147050Y0061346D02*
X0142950Y0061346D01*
X0142592Y0062945D02*
X0147050Y0062945D01*
X0147050Y0064543D02*
X0140994Y0064543D01*
X0147050Y0070937D02*
X0127016Y0070937D01*
X0128614Y0072536D02*
X0147050Y0072536D01*
X0151050Y0072536D02*
X0156310Y0072536D01*
X0156310Y0070937D02*
X0151050Y0070937D01*
X0151050Y0074134D02*
X0152940Y0074134D01*
X0155160Y0074134D02*
X0156310Y0074134D01*
X0160310Y0074134D02*
X0161050Y0074134D01*
X0161155Y0075733D02*
X0160310Y0075733D01*
X0160793Y0077332D02*
X0162753Y0077332D01*
X0166811Y0075733D02*
X0167627Y0075733D01*
X0167662Y0075747D02*
X0167176Y0075546D01*
X0166738Y0075254D01*
X0166366Y0074881D01*
X0166073Y0074444D01*
X0165872Y0073958D01*
X0165769Y0073441D01*
X0165769Y0071969D01*
X0169338Y0071969D01*
X0169338Y0075850D01*
X0168178Y0075850D01*
X0167662Y0075747D01*
X0169338Y0075733D02*
X0169675Y0075733D01*
X0169675Y0075850D02*
X0169675Y0071969D01*
X0169338Y0071969D01*
X0169338Y0071631D01*
X0169675Y0071631D01*
X0169675Y0071969D01*
X0173244Y0071969D01*
X0173244Y0073441D01*
X0173141Y0073958D01*
X0172940Y0074444D01*
X0172648Y0074881D01*
X0172275Y0075254D01*
X0171838Y0075546D01*
X0171352Y0075747D01*
X0170835Y0075850D01*
X0169675Y0075850D01*
X0171386Y0075733D02*
X0179978Y0075733D01*
X0180641Y0077332D02*
X0168273Y0077332D01*
X0168273Y0078930D02*
X0190050Y0078930D01*
X0190050Y0080529D02*
X0168273Y0080529D01*
X0168273Y0082127D02*
X0190050Y0082127D01*
X0190050Y0083726D02*
X0151050Y0083726D01*
X0151050Y0085324D02*
X0171326Y0085324D01*
X0170099Y0086923D02*
X0168072Y0086923D01*
X0162050Y0086923D02*
X0162050Y0086923D01*
X0162050Y0085618D02*
X0162050Y0089918D01*
X0162050Y0089918D01*
X0162050Y0094218D01*
X0161229Y0094218D01*
X0160787Y0094130D01*
X0160371Y0093958D01*
X0159997Y0093707D01*
X0159897Y0093608D01*
X0159687Y0093818D01*
X0156933Y0093818D01*
X0155827Y0092713D01*
X0155827Y0091700D01*
X0153837Y0091700D01*
X0152937Y0092600D01*
X0152937Y0093374D01*
X0152498Y0094436D01*
X0151686Y0095248D01*
X0150624Y0095687D01*
X0149476Y0095687D01*
X0148414Y0095248D01*
X0147602Y0094436D01*
X0147163Y0093374D01*
X0147163Y0092226D01*
X0147602Y0091164D01*
X0148414Y0090352D01*
X0149476Y0089913D01*
X0150250Y0089913D01*
X0151150Y0089013D01*
X0152263Y0087900D01*
X0155827Y0087900D01*
X0155827Y0087124D01*
X0156933Y0086018D01*
X0159687Y0086018D01*
X0159897Y0086228D01*
X0159997Y0086129D01*
X0160371Y0085878D01*
X0160787Y0085706D01*
X0161229Y0085618D01*
X0162050Y0085618D01*
X0156028Y0086923D02*
X0150756Y0086923D01*
X0151642Y0088521D02*
X0149157Y0088521D01*
X0148976Y0090120D02*
X0147559Y0090120D01*
X0147373Y0091718D02*
X0147050Y0091718D01*
X0147050Y0093317D02*
X0147163Y0093317D01*
X0147050Y0094915D02*
X0148082Y0094915D01*
X0152018Y0094915D02*
X0163890Y0094915D01*
X0162050Y0093317D02*
X0162050Y0093317D01*
X0162050Y0091718D02*
X0162050Y0091718D01*
X0162050Y0090120D02*
X0162050Y0090120D01*
X0162050Y0089918D02*
X0162050Y0089918D01*
X0162050Y0088521D02*
X0162050Y0088521D01*
X0155827Y0091718D02*
X0153819Y0091718D01*
X0152937Y0093317D02*
X0156431Y0093317D01*
X0163890Y0096514D02*
X0147050Y0096514D01*
X0147050Y0098112D02*
X0163890Y0098112D01*
X0163890Y0099711D02*
X0147050Y0099711D01*
X0147050Y0101309D02*
X0163890Y0101309D01*
X0163890Y0102908D02*
X0147050Y0102908D01*
X0147050Y0104506D02*
X0163890Y0104506D01*
X0163890Y0106105D02*
X0147438Y0106105D01*
X0147937Y0107703D02*
X0163890Y0107703D01*
X0167690Y0107703D02*
X0199050Y0107703D01*
X0199050Y0106105D02*
X0167690Y0106105D01*
X0167690Y0104506D02*
X0199050Y0104506D01*
X0199050Y0102908D02*
X0167690Y0102908D01*
X0167690Y0101309D02*
X0199050Y0101309D01*
X0199050Y0099711D02*
X0167690Y0099711D01*
X0167690Y0098112D02*
X0199050Y0098112D01*
X0199050Y0096514D02*
X0190044Y0096514D01*
X0188056Y0096514D02*
X0174044Y0096514D01*
X0172056Y0096514D02*
X0167690Y0096514D01*
X0167690Y0094915D02*
X0170387Y0094915D01*
X0170163Y0093317D02*
X0167690Y0093317D01*
X0175713Y0094915D02*
X0186387Y0094915D01*
X0186163Y0093317D02*
X0175937Y0093317D01*
X0177452Y0091881D02*
X0177160Y0091444D01*
X0176959Y0090958D01*
X0176856Y0090441D01*
X0176856Y0088969D01*
X0180425Y0088969D01*
X0180425Y0092850D01*
X0179265Y0092850D01*
X0178748Y0092747D01*
X0178262Y0092546D01*
X0177825Y0092254D01*
X0177452Y0091881D01*
X0177343Y0091718D02*
X0176245Y0091718D01*
X0176844Y0090120D02*
X0176856Y0090120D01*
X0176856Y0088631D02*
X0176856Y0087159D01*
X0176959Y0086642D01*
X0177160Y0086156D01*
X0177452Y0085719D01*
X0177825Y0085346D01*
X0178262Y0085054D01*
X0178748Y0084853D01*
X0179265Y0084750D01*
X0180425Y0084750D01*
X0180425Y0088631D01*
X0180762Y0088631D01*
X0180762Y0084750D01*
X0181922Y0084750D01*
X0182438Y0084853D01*
X0182924Y0085054D01*
X0183362Y0085346D01*
X0183734Y0085719D01*
X0184027Y0086156D01*
X0184228Y0086642D01*
X0184331Y0087159D01*
X0184331Y0088631D01*
X0180762Y0088631D01*
X0180762Y0088969D01*
X0180425Y0088969D01*
X0180425Y0088631D01*
X0176856Y0088631D01*
X0176844Y0088521D02*
X0176856Y0088521D01*
X0180425Y0088521D02*
X0180762Y0088521D01*
X0180762Y0088969D02*
X0184331Y0088969D01*
X0184331Y0090441D01*
X0184228Y0090958D01*
X0184027Y0091444D01*
X0183734Y0091881D01*
X0183362Y0092254D01*
X0182924Y0092546D01*
X0182438Y0092747D01*
X0181922Y0092850D01*
X0180762Y0092850D01*
X0180762Y0088969D01*
X0180762Y0090120D02*
X0180425Y0090120D01*
X0180425Y0091718D02*
X0180762Y0091718D01*
X0183843Y0091718D02*
X0187048Y0091718D01*
X0184331Y0090120D02*
X0189902Y0090120D01*
X0190050Y0088521D02*
X0184331Y0088521D01*
X0184284Y0086923D02*
X0190050Y0086923D01*
X0190050Y0085324D02*
X0183329Y0085324D01*
X0180762Y0085324D02*
X0180425Y0085324D01*
X0180425Y0086923D02*
X0180762Y0086923D01*
X0177858Y0085324D02*
X0175687Y0085324D01*
X0176844Y0086923D02*
X0176903Y0086923D01*
X0163307Y0082127D02*
X0160793Y0082127D01*
X0160793Y0080529D02*
X0163307Y0080529D01*
X0163307Y0078930D02*
X0160793Y0078930D01*
X0155827Y0082127D02*
X0151626Y0082127D01*
X0151937Y0080529D02*
X0152950Y0080529D01*
X0152050Y0078930D02*
X0151263Y0078930D01*
X0151163Y0077332D02*
X0151050Y0077332D01*
X0151050Y0075733D02*
X0151367Y0075733D01*
X0147050Y0075733D02*
X0131811Y0075733D01*
X0130213Y0074134D02*
X0147050Y0074134D01*
X0147050Y0077332D02*
X0133410Y0077332D01*
X0135008Y0078930D02*
X0146837Y0078930D01*
X0146163Y0080529D02*
X0143862Y0080529D01*
X0144897Y0082127D02*
X0146474Y0082127D01*
X0147050Y0083726D02*
X0144792Y0083726D01*
X0143501Y0085324D02*
X0146697Y0085324D01*
X0145099Y0086923D02*
X0091350Y0086923D01*
X0091350Y0085324D02*
X0109641Y0085324D01*
X0109671Y0085354D02*
X0107496Y0083179D01*
X0106319Y0080338D01*
X0106319Y0077262D01*
X0107496Y0074421D01*
X0109671Y0072246D01*
X0112512Y0071069D01*
X0115588Y0071069D01*
X0118429Y0072246D01*
X0120604Y0074421D01*
X0121781Y0077262D01*
X0121781Y0080338D01*
X0120604Y0083179D01*
X0118429Y0085354D01*
X0115588Y0086531D01*
X0112512Y0086531D01*
X0109671Y0085354D01*
X0108043Y0083726D02*
X0091350Y0083726D01*
X0091350Y0082127D02*
X0107060Y0082127D01*
X0106398Y0080529D02*
X0091350Y0080529D01*
X0091350Y0078930D02*
X0106319Y0078930D01*
X0106319Y0077332D02*
X0091350Y0077332D01*
X0091350Y0075733D02*
X0106953Y0075733D01*
X0107783Y0074134D02*
X0091350Y0074134D01*
X0091350Y0072536D02*
X0109381Y0072536D01*
X0118719Y0072536D02*
X0122958Y0072536D01*
X0121359Y0070937D02*
X0091350Y0070937D01*
X0091350Y0069339D02*
X0120050Y0069339D01*
X0120050Y0067740D02*
X0091350Y0067740D01*
X0091350Y0066142D02*
X0120050Y0066142D01*
X0118686Y0065248D02*
X0117624Y0065687D01*
X0116476Y0065687D01*
X0115414Y0065248D01*
X0114867Y0064700D01*
X0101263Y0064700D01*
X0098263Y0061700D01*
X0097150Y0060587D01*
X0097150Y0035013D01*
X0104150Y0028013D01*
X0105263Y0026900D01*
X0135263Y0026900D01*
X0136163Y0026000D01*
X0136163Y0025226D01*
X0136602Y0024164D01*
X0137414Y0023352D01*
X0138476Y0022913D01*
X0139624Y0022913D01*
X0140686Y0023352D01*
X0141498Y0024164D01*
X0141937Y0025226D01*
X0141937Y0026374D01*
X0141498Y0027436D01*
X0140686Y0028248D01*
X0139624Y0028687D01*
X0138850Y0028687D01*
X0136837Y0030700D01*
X0106837Y0030700D01*
X0100950Y0036587D01*
X0100950Y0059013D01*
X0102837Y0060900D01*
X0114867Y0060900D01*
X0115414Y0060352D01*
X0116476Y0059913D01*
X0117624Y0059913D01*
X0118686Y0060352D01*
X0119498Y0061164D01*
X0119937Y0062226D01*
X0119937Y0063374D01*
X0119498Y0064436D01*
X0118686Y0065248D01*
X0119390Y0064543D02*
X0120050Y0064543D01*
X0120050Y0062945D02*
X0119937Y0062945D01*
X0120050Y0061346D02*
X0119573Y0061346D01*
X0120050Y0059748D02*
X0101685Y0059748D01*
X0100950Y0058149D02*
X0120050Y0058149D01*
X0120050Y0056551D02*
X0100950Y0056551D01*
X0100950Y0054952D02*
X0120050Y0054952D01*
X0120050Y0053354D02*
X0100950Y0053354D01*
X0100950Y0051755D02*
X0120050Y0051755D01*
X0118323Y0050157D02*
X0100950Y0050157D01*
X0100950Y0048558D02*
X0117239Y0048558D01*
X0117273Y0046960D02*
X0100950Y0046960D01*
X0100950Y0045361D02*
X0109689Y0045361D01*
X0108080Y0043763D02*
X0100950Y0043763D01*
X0100950Y0042164D02*
X0107076Y0042164D01*
X0106414Y0040566D02*
X0100950Y0040566D01*
X0100950Y0038967D02*
X0106319Y0038967D01*
X0106319Y0037369D02*
X0100950Y0037369D01*
X0101767Y0035770D02*
X0106937Y0035770D01*
X0107745Y0034172D02*
X0103365Y0034172D01*
X0104964Y0032573D02*
X0109344Y0032573D01*
X0106562Y0030975D02*
X0175050Y0030975D01*
X0175050Y0032573D02*
X0118756Y0032573D01*
X0120355Y0034172D02*
X0137599Y0034172D01*
X0137163Y0035770D02*
X0121163Y0035770D01*
X0121781Y0037369D02*
X0137574Y0037369D01*
X0142937Y0035770D02*
X0175050Y0035770D01*
X0175050Y0034172D02*
X0142501Y0034172D01*
X0151069Y0037369D02*
X0175050Y0037369D01*
X0181050Y0037369D02*
X0223200Y0037369D01*
X0223200Y0035770D02*
X0181050Y0035770D01*
X0181050Y0034172D02*
X0223657Y0034172D01*
X0223950Y0032573D02*
X0181050Y0032573D01*
X0181050Y0030975D02*
X0205113Y0030975D01*
X0203515Y0029376D02*
X0181050Y0029376D01*
X0181050Y0027778D02*
X0202787Y0027778D01*
X0202787Y0026179D02*
X0181050Y0026179D01*
X0185339Y0024880D02*
X0185339Y0018720D01*
X0186159Y0017900D01*
X0192319Y0017900D01*
X0193139Y0018720D01*
X0193139Y0024880D01*
X0192319Y0025700D01*
X0186159Y0025700D01*
X0185339Y0024880D01*
X0185339Y0024581D02*
X0181050Y0024581D01*
X0181050Y0022982D02*
X0185339Y0022982D01*
X0185339Y0021384D02*
X0181050Y0021384D01*
X0181050Y0019785D02*
X0185339Y0019785D01*
X0185872Y0018187D02*
X0181050Y0018187D01*
X0181050Y0016588D02*
X0233250Y0016588D01*
X0233250Y0017550D02*
X0233250Y0014050D01*
X0234590Y0010815D01*
X0237065Y0008340D01*
X0240300Y0007000D01*
X0243800Y0007000D01*
X0247035Y0008340D01*
X0249510Y0010815D01*
X0250850Y0014050D01*
X0250850Y0017550D01*
X0249510Y0020785D01*
X0247035Y0023260D01*
X0243800Y0024600D01*
X0240300Y0024600D01*
X0237065Y0023260D01*
X0234590Y0020785D01*
X0233250Y0017550D01*
X0233514Y0018187D02*
X0215203Y0018187D01*
X0215115Y0018122D02*
X0215662Y0018520D01*
X0216141Y0018999D01*
X0216539Y0019546D01*
X0216846Y0020149D01*
X0217055Y0020793D01*
X0217161Y0021462D01*
X0217161Y0021800D01*
X0217161Y0022138D01*
X0217055Y0022807D01*
X0216846Y0023451D01*
X0216539Y0024054D01*
X0216141Y0024601D01*
X0215662Y0025080D01*
X0215115Y0025478D01*
X0214512Y0025785D01*
X0213868Y0025994D01*
X0213199Y0026100D01*
X0212861Y0026100D01*
X0212861Y0021800D01*
X0212861Y0021800D01*
X0212861Y0021800D01*
X0217161Y0021800D01*
X0212861Y0021800D01*
X0212861Y0021800D01*
X0212861Y0017500D01*
X0213199Y0017500D01*
X0213868Y0017606D01*
X0214512Y0017815D01*
X0215115Y0018122D01*
X0212861Y0018187D02*
X0212861Y0018187D01*
X0212861Y0019785D02*
X0212861Y0019785D01*
X0210519Y0018187D02*
X0206455Y0018187D01*
X0208374Y0019785D02*
X0209062Y0019785D01*
X0212861Y0021384D02*
X0212861Y0021384D01*
X0212861Y0022982D02*
X0212861Y0022982D01*
X0212861Y0024581D02*
X0212861Y0024581D01*
X0209566Y0024581D02*
X0207722Y0024581D01*
X0208719Y0022982D02*
X0208724Y0022982D01*
X0204987Y0021800D02*
X0204987Y0027737D01*
X0206050Y0028800D01*
X0226050Y0028800D01*
X0228350Y0032573D02*
X0233163Y0032573D01*
X0233493Y0034172D02*
X0228643Y0034172D01*
X0229100Y0035770D02*
X0234050Y0035770D01*
X0234050Y0037369D02*
X0229100Y0037369D01*
X0229100Y0038967D02*
X0234050Y0038967D01*
X0233300Y0043763D02*
X0236184Y0043763D01*
X0237783Y0045361D02*
X0233300Y0045361D01*
X0233151Y0046960D02*
X0239292Y0046960D01*
X0238950Y0048558D02*
X0231258Y0048558D01*
X0229950Y0048558D02*
X0229950Y0048558D01*
X0228642Y0048558D02*
X0224550Y0048558D01*
X0224550Y0050157D02*
X0239092Y0050157D01*
X0239793Y0051755D02*
X0225743Y0051755D01*
X0225937Y0053354D02*
X0241717Y0053354D01*
X0240685Y0054952D02*
X0225707Y0054952D01*
X0225707Y0056551D02*
X0239461Y0056551D01*
X0238950Y0058149D02*
X0225707Y0058149D01*
X0225707Y0059748D02*
X0238950Y0059748D01*
X0239585Y0061346D02*
X0225707Y0061346D01*
X0225707Y0062945D02*
X0240982Y0062945D01*
X0240552Y0064543D02*
X0233559Y0064543D01*
X0233734Y0064719D02*
X0233362Y0064346D01*
X0232924Y0064054D01*
X0232438Y0063853D01*
X0231922Y0063750D01*
X0230762Y0063750D01*
X0230762Y0067631D01*
X0230425Y0067631D01*
X0230425Y0063750D01*
X0229265Y0063750D01*
X0228748Y0063853D01*
X0228262Y0064054D01*
X0227825Y0064346D01*
X0227452Y0064719D01*
X0227160Y0065156D01*
X0226959Y0065642D01*
X0226856Y0066159D01*
X0226856Y0067631D01*
X0230425Y0067631D01*
X0230425Y0067969D01*
X0230425Y0071850D01*
X0230425Y0075631D01*
X0230762Y0075631D01*
X0230762Y0067969D01*
X0230425Y0067969D01*
X0226856Y0067969D01*
X0226856Y0069441D01*
X0226959Y0069958D01*
X0227160Y0070444D01*
X0227452Y0070881D01*
X0227825Y0071254D01*
X0228262Y0071546D01*
X0228748Y0071747D01*
X0229013Y0071800D01*
X0228748Y0071853D01*
X0228262Y0072054D01*
X0227825Y0072346D01*
X0227452Y0072719D01*
X0227160Y0073156D01*
X0226959Y0073642D01*
X0226856Y0074159D01*
X0226856Y0075631D01*
X0230425Y0075631D01*
X0230425Y0075969D01*
X0230425Y0079850D01*
X0229265Y0079850D01*
X0228748Y0079747D01*
X0228262Y0079546D01*
X0227825Y0079254D01*
X0227452Y0078881D01*
X0227160Y0078444D01*
X0226959Y0077958D01*
X0226856Y0077441D01*
X0226856Y0075969D01*
X0230425Y0075969D01*
X0230762Y0075969D01*
X0230762Y0079850D01*
X0231922Y0079850D01*
X0232438Y0079747D01*
X0232924Y0079546D01*
X0233362Y0079254D01*
X0233734Y0078881D01*
X0234027Y0078444D01*
X0234228Y0077958D01*
X0234331Y0077441D01*
X0234331Y0075969D01*
X0230762Y0075969D01*
X0230762Y0075631D01*
X0234331Y0075631D01*
X0234331Y0074159D01*
X0234228Y0073642D01*
X0234027Y0073156D01*
X0233734Y0072719D01*
X0233362Y0072346D01*
X0232924Y0072054D01*
X0232438Y0071853D01*
X0232173Y0071800D01*
X0232438Y0071747D01*
X0232924Y0071546D01*
X0233362Y0071254D01*
X0233734Y0070881D01*
X0234027Y0070444D01*
X0234228Y0069958D01*
X0234331Y0069441D01*
X0234331Y0067969D01*
X0230762Y0067969D01*
X0230762Y0067631D01*
X0234331Y0067631D01*
X0234331Y0066159D01*
X0234228Y0065642D01*
X0234027Y0065156D01*
X0233734Y0064719D01*
X0234327Y0066142D02*
X0239232Y0066142D01*
X0238649Y0067740D02*
X0230762Y0067740D01*
X0230425Y0067740D02*
X0226844Y0067740D01*
X0226844Y0066142D02*
X0226859Y0066142D01*
X0227628Y0064543D02*
X0225907Y0064543D01*
X0230425Y0064543D02*
X0230762Y0064543D01*
X0230762Y0066142D02*
X0230425Y0066142D01*
X0230425Y0069339D02*
X0230762Y0069339D01*
X0234331Y0069339D02*
X0238567Y0069339D01*
X0238966Y0070937D02*
X0233678Y0070937D01*
X0233552Y0072536D02*
X0240008Y0072536D01*
X0241987Y0074134D02*
X0234326Y0074134D01*
X0230762Y0074134D02*
X0230425Y0074134D01*
X0230425Y0075733D02*
X0226844Y0075733D01*
X0226844Y0074134D02*
X0226861Y0074134D01*
X0227635Y0072536D02*
X0225899Y0072536D01*
X0226026Y0070937D02*
X0227509Y0070937D01*
X0230425Y0070937D02*
X0230762Y0070937D01*
X0230762Y0072536D02*
X0230425Y0072536D01*
X0230762Y0075733D02*
X0239904Y0075733D01*
X0239138Y0077332D02*
X0234331Y0077332D01*
X0230762Y0077332D02*
X0230425Y0077332D01*
X0230425Y0078930D02*
X0230762Y0078930D01*
X0233686Y0078930D02*
X0238950Y0078930D01*
X0239246Y0080529D02*
X0225507Y0080529D01*
X0226033Y0078930D02*
X0227501Y0078930D01*
X0226856Y0077332D02*
X0226844Y0077332D01*
X0220980Y0078930D02*
X0220263Y0078930D01*
X0224551Y0082127D02*
X0240165Y0082127D01*
X0239535Y0093317D02*
X0230300Y0093317D01*
X0229302Y0094915D02*
X0236490Y0094915D01*
X0234891Y0096514D02*
X0226050Y0096514D01*
X0226890Y0098112D02*
X0234052Y0098112D01*
X0233390Y0099711D02*
X0226798Y0099711D01*
X0222050Y0096514D02*
X0213592Y0096514D01*
X0211994Y0094915D02*
X0222050Y0094915D01*
X0227250Y0094915D02*
X0227250Y0094915D01*
X0227250Y0093317D02*
X0227250Y0093317D01*
X0199050Y0093317D02*
X0197519Y0093317D01*
X0199050Y0094915D02*
X0191713Y0094915D01*
X0192362Y0093317D02*
X0194581Y0093317D01*
X0198819Y0091718D02*
X0199050Y0091718D01*
X0190050Y0077332D02*
X0188916Y0077332D01*
X0189578Y0075733D02*
X0190050Y0075733D01*
X0189578Y0075316D02*
X0184778Y0075316D01*
X0184778Y0075316D01*
X0189578Y0075316D01*
X0184778Y0075733D02*
X0184778Y0075733D01*
X0184778Y0077332D02*
X0184778Y0077332D01*
X0173271Y0074134D02*
X0173068Y0074134D01*
X0173244Y0072536D02*
X0173256Y0072536D01*
X0173244Y0070937D02*
X0173256Y0070937D01*
X0169675Y0070937D02*
X0169338Y0070937D01*
X0169338Y0071631D02*
X0169338Y0067750D01*
X0168178Y0067750D01*
X0167662Y0067853D01*
X0167176Y0068054D01*
X0166738Y0068346D01*
X0166366Y0068719D01*
X0166073Y0069156D01*
X0165872Y0069642D01*
X0165769Y0070159D01*
X0165769Y0071631D01*
X0169338Y0071631D01*
X0169338Y0072536D02*
X0169675Y0072536D01*
X0165769Y0072536D02*
X0165050Y0072536D01*
X0165050Y0070937D02*
X0165769Y0070937D01*
X0165998Y0069339D02*
X0165050Y0069339D01*
X0165050Y0067740D02*
X0171303Y0067740D01*
X0169675Y0069339D02*
X0169338Y0069339D01*
X0166192Y0066142D02*
X0165050Y0066142D01*
X0165050Y0064543D02*
X0166169Y0064543D01*
X0166169Y0062945D02*
X0165050Y0062945D01*
X0165535Y0061346D02*
X0166304Y0061346D01*
X0166507Y0059748D02*
X0165937Y0059748D01*
X0160565Y0061346D02*
X0160310Y0061346D01*
X0160310Y0062945D02*
X0161050Y0062945D01*
X0161050Y0064543D02*
X0160310Y0064543D01*
X0160310Y0066142D02*
X0161050Y0066142D01*
X0161050Y0067740D02*
X0160310Y0067740D01*
X0160310Y0069339D02*
X0161050Y0069339D01*
X0161050Y0070937D02*
X0160310Y0070937D01*
X0160310Y0072536D02*
X0161050Y0072536D01*
X0165213Y0074134D02*
X0165945Y0074134D01*
X0169338Y0074134D02*
X0169675Y0074134D01*
X0172844Y0062945D02*
X0173256Y0062945D01*
X0173390Y0061346D02*
X0172710Y0061346D01*
X0140238Y0080529D02*
X0136607Y0080529D01*
X0132549Y0082127D02*
X0121040Y0082127D01*
X0121702Y0080529D02*
X0130950Y0080529D01*
X0129352Y0078930D02*
X0121781Y0078930D01*
X0121781Y0077332D02*
X0127753Y0077332D01*
X0126155Y0075733D02*
X0121147Y0075733D01*
X0120317Y0074134D02*
X0124556Y0074134D01*
X0120057Y0083726D02*
X0134147Y0083726D01*
X0140599Y0085324D02*
X0118459Y0085324D01*
X0106035Y0094340D02*
X0102800Y0093000D01*
X0099300Y0093000D01*
X0096065Y0094340D01*
X0093590Y0096815D01*
X0092250Y0100050D01*
X0092250Y0103550D01*
X0093590Y0106785D01*
X0096065Y0109260D01*
X0099300Y0110600D01*
X0102800Y0110600D01*
X0106035Y0109260D01*
X0108510Y0106785D01*
X0109850Y0103550D01*
X0109850Y0100050D01*
X0108510Y0096815D01*
X0106035Y0094340D01*
X0106610Y0094915D02*
X0143050Y0094915D01*
X0143050Y0093317D02*
X0103565Y0093317D01*
X0098535Y0093317D02*
X0091350Y0093317D01*
X0091350Y0094915D02*
X0095490Y0094915D01*
X0093891Y0096514D02*
X0091350Y0096514D01*
X0091350Y0098112D02*
X0093052Y0098112D01*
X0092390Y0099711D02*
X0091350Y0099711D01*
X0091350Y0101309D02*
X0092250Y0101309D01*
X0092250Y0102908D02*
X0091350Y0102908D01*
X0091350Y0104506D02*
X0092646Y0104506D01*
X0093308Y0106105D02*
X0091350Y0106105D01*
X0091350Y0107703D02*
X0094508Y0107703D01*
X0096165Y0109302D02*
X0091350Y0109302D01*
X0091350Y0110900D02*
X0126067Y0110900D01*
X0125163Y0109302D02*
X0105935Y0109302D01*
X0107592Y0107703D02*
X0125379Y0107703D01*
X0127012Y0106105D02*
X0108792Y0106105D01*
X0109454Y0104506D02*
X0143050Y0104506D01*
X0143050Y0102908D02*
X0109850Y0102908D01*
X0109850Y0101309D02*
X0143050Y0101309D01*
X0143050Y0099711D02*
X0109710Y0099711D01*
X0109047Y0098112D02*
X0143050Y0098112D01*
X0143050Y0096514D02*
X0108209Y0096514D01*
X0091350Y0091718D02*
X0143050Y0091718D01*
X0143050Y0090120D02*
X0091350Y0090120D01*
X0091350Y0088521D02*
X0143500Y0088521D01*
X0142662Y0106105D02*
X0129088Y0106105D01*
X0130721Y0107703D02*
X0142163Y0107703D01*
X0166637Y0110900D02*
X0199050Y0110900D01*
X0199050Y0109302D02*
X0167690Y0109302D01*
X0226844Y0069339D02*
X0226856Y0069339D01*
X0251009Y0054952D02*
X0251750Y0054952D01*
X0229950Y0046960D02*
X0229950Y0046960D01*
X0229950Y0045361D02*
X0229950Y0045361D01*
X0229950Y0043763D02*
X0229950Y0043763D01*
X0226749Y0046960D02*
X0225300Y0046960D01*
X0223200Y0038967D02*
X0181050Y0038967D01*
X0175050Y0029376D02*
X0138161Y0029376D01*
X0141156Y0027778D02*
X0175050Y0027778D01*
X0175050Y0026179D02*
X0141937Y0026179D01*
X0141670Y0024581D02*
X0175050Y0024581D01*
X0175050Y0022982D02*
X0139792Y0022982D01*
X0138308Y0022982D02*
X0106313Y0022982D01*
X0106035Y0023260D02*
X0102800Y0024600D01*
X0099300Y0024600D01*
X0096065Y0023260D01*
X0093590Y0020785D01*
X0092250Y0017550D01*
X0092250Y0014050D01*
X0093590Y0010815D01*
X0096065Y0008340D01*
X0099300Y0007000D01*
X0102800Y0007000D01*
X0106035Y0008340D01*
X0108510Y0010815D01*
X0109850Y0014050D01*
X0109850Y0017550D01*
X0108510Y0020785D01*
X0106035Y0023260D01*
X0107911Y0021384D02*
X0175050Y0021384D01*
X0175050Y0019785D02*
X0108924Y0019785D01*
X0109586Y0018187D02*
X0175050Y0018187D01*
X0175050Y0016588D02*
X0109850Y0016588D01*
X0109850Y0014990D02*
X0175050Y0014990D01*
X0175050Y0013391D02*
X0109577Y0013391D01*
X0108915Y0011793D02*
X0175050Y0011793D01*
X0175050Y0010194D02*
X0107889Y0010194D01*
X0106291Y0008596D02*
X0175050Y0008596D01*
X0175050Y0006997D02*
X0091350Y0006997D01*
X0091350Y0008596D02*
X0095809Y0008596D01*
X0094211Y0010194D02*
X0091350Y0010194D01*
X0091350Y0011793D02*
X0093185Y0011793D01*
X0092523Y0013391D02*
X0091350Y0013391D01*
X0091350Y0014990D02*
X0092250Y0014990D01*
X0092250Y0016588D02*
X0091350Y0016588D01*
X0091350Y0018187D02*
X0092514Y0018187D01*
X0093176Y0019785D02*
X0091350Y0019785D01*
X0091350Y0021384D02*
X0094189Y0021384D01*
X0095787Y0022982D02*
X0091350Y0022982D01*
X0091350Y0024581D02*
X0099253Y0024581D01*
X0102847Y0024581D02*
X0136430Y0024581D01*
X0135984Y0026179D02*
X0091350Y0026179D01*
X0091350Y0027778D02*
X0104385Y0027778D01*
X0102787Y0029376D02*
X0091350Y0029376D01*
X0091350Y0030975D02*
X0101188Y0030975D01*
X0099590Y0032573D02*
X0091350Y0032573D01*
X0091350Y0034172D02*
X0097991Y0034172D01*
X0097150Y0035770D02*
X0091350Y0035770D01*
X0091350Y0037369D02*
X0097150Y0037369D01*
X0097150Y0038967D02*
X0091350Y0038967D01*
X0091350Y0040566D02*
X0097150Y0040566D01*
X0097150Y0042164D02*
X0091350Y0042164D01*
X0091350Y0043763D02*
X0097150Y0043763D01*
X0097150Y0045361D02*
X0091350Y0045361D01*
X0091350Y0046960D02*
X0097150Y0046960D01*
X0097150Y0048558D02*
X0091350Y0048558D01*
X0091350Y0050157D02*
X0097150Y0050157D01*
X0097150Y0051755D02*
X0091350Y0051755D01*
X0091350Y0053354D02*
X0097150Y0053354D01*
X0097150Y0054952D02*
X0091350Y0054952D01*
X0091350Y0056551D02*
X0097150Y0056551D01*
X0097150Y0058149D02*
X0091350Y0058149D01*
X0091350Y0059748D02*
X0097150Y0059748D01*
X0097909Y0061346D02*
X0091350Y0061346D01*
X0091350Y0062945D02*
X0099508Y0062945D01*
X0101106Y0064543D02*
X0091350Y0064543D01*
X0193139Y0024581D02*
X0194378Y0024581D01*
X0194904Y0025106D02*
X0193807Y0024009D01*
X0193213Y0022576D01*
X0193213Y0021024D01*
X0193807Y0019591D01*
X0194904Y0018494D01*
X0196337Y0017900D01*
X0197889Y0017900D01*
X0199322Y0018494D01*
X0200419Y0019591D01*
X0201013Y0021024D01*
X0201013Y0022576D01*
X0200419Y0024009D01*
X0199322Y0025106D01*
X0197889Y0025700D01*
X0196337Y0025700D01*
X0194904Y0025106D01*
X0193381Y0022982D02*
X0193139Y0022982D01*
X0193139Y0021384D02*
X0193213Y0021384D01*
X0193139Y0019785D02*
X0193726Y0019785D01*
X0192605Y0018187D02*
X0195645Y0018187D01*
X0198581Y0018187D02*
X0203519Y0018187D01*
X0201600Y0019785D02*
X0200500Y0019785D01*
X0201013Y0021384D02*
X0201087Y0021384D01*
X0201255Y0022982D02*
X0200845Y0022982D01*
X0199848Y0024581D02*
X0202252Y0024581D01*
X0207187Y0026179D02*
X0251750Y0026179D01*
X0251750Y0027778D02*
X0248139Y0027778D01*
X0249737Y0029376D02*
X0251750Y0029376D01*
X0251750Y0030975D02*
X0251336Y0030975D01*
X0251750Y0024581D02*
X0243847Y0024581D01*
X0240253Y0024581D02*
X0216156Y0024581D01*
X0216998Y0022982D02*
X0236787Y0022982D01*
X0235189Y0021384D02*
X0217149Y0021384D01*
X0216660Y0019785D02*
X0234176Y0019785D01*
X0233250Y0014990D02*
X0181050Y0014990D01*
X0181050Y0013391D02*
X0233523Y0013391D01*
X0234185Y0011793D02*
X0181050Y0011793D01*
X0181050Y0010194D02*
X0235211Y0010194D01*
X0236809Y0008596D02*
X0181050Y0008596D01*
X0181050Y0006997D02*
X0251750Y0006997D01*
X0251750Y0008596D02*
X0247291Y0008596D01*
X0248889Y0010194D02*
X0251750Y0010194D01*
X0251750Y0011793D02*
X0249915Y0011793D01*
X0250577Y0013391D02*
X0251750Y0013391D01*
X0251750Y0014990D02*
X0250850Y0014990D01*
X0250850Y0016588D02*
X0251750Y0016588D01*
X0251750Y0018187D02*
X0250586Y0018187D01*
X0249924Y0019785D02*
X0251750Y0019785D01*
X0251750Y0021384D02*
X0248911Y0021384D01*
X0247313Y0022982D02*
X0251750Y0022982D01*
D24*
X0236050Y0032800D03*
X0211050Y0046800D03*
X0223050Y0052800D03*
X0197050Y0056800D03*
X0173050Y0044800D03*
X0167050Y0041800D03*
X0166050Y0048800D03*
X0163050Y0059800D03*
X0141050Y0053800D03*
X0120050Y0047800D03*
X0134050Y0041800D03*
X0141050Y0042800D03*
X0140050Y0035800D03*
X0126050Y0033800D03*
X0139050Y0025800D03*
X0170050Y0019800D03*
X0184050Y0018800D03*
X0213050Y0015800D03*
X0183050Y0038800D03*
X0117050Y0062800D03*
X0094050Y0076800D03*
X0099050Y0078800D03*
X0127050Y0080800D03*
X0142050Y0082800D03*
X0149050Y0080800D03*
X0154050Y0076800D03*
X0176050Y0081800D03*
X0196050Y0090800D03*
X0189050Y0093800D03*
X0173050Y0093800D03*
X0150050Y0092800D03*
X0145050Y0107800D03*
X0128050Y0108800D03*
X0196050Y0071800D03*
X0218050Y0080800D03*
X0236050Y0076800D03*
X0215050Y0092800D03*
X0224050Y0098800D03*
X0215050Y0102800D03*
X0102050Y0046800D03*
X0095050Y0032800D03*
D25*
X0099050Y0035800D02*
X0106050Y0028800D01*
X0136050Y0028800D01*
X0139050Y0025800D01*
X0099050Y0035800D02*
X0099050Y0059800D01*
X0102050Y0062800D01*
X0117050Y0062800D01*
X0127050Y0062800D02*
X0128050Y0063800D01*
X0139050Y0063800D01*
X0141050Y0061800D01*
X0141050Y0053800D01*
X0128050Y0053800D01*
X0127050Y0054800D01*
X0127050Y0062800D01*
X0169507Y0063800D02*
X0170050Y0063800D01*
X0176050Y0069800D01*
X0176050Y0071257D01*
X0176593Y0071800D01*
X0177550Y0072757D01*
X0184778Y0072757D01*
X0184778Y0070198D02*
X0181448Y0070198D01*
X0176593Y0065343D01*
X0176593Y0063800D01*
X0184778Y0062520D02*
X0194330Y0062520D01*
X0197050Y0059800D01*
X0197050Y0056800D01*
X0207050Y0053036D02*
X0207050Y0061800D01*
X0207770Y0062520D01*
X0213322Y0062520D01*
X0199050Y0068800D02*
X0198050Y0067800D01*
X0194050Y0067800D01*
X0191652Y0070198D01*
X0184778Y0070198D01*
X0199050Y0068800D02*
X0199050Y0088800D01*
X0197050Y0090800D01*
X0196050Y0090800D01*
X0165790Y0089918D02*
X0165790Y0109060D01*
X0164050Y0110800D01*
X0130050Y0110800D01*
X0128050Y0108800D01*
X0150050Y0092800D02*
X0153050Y0089800D01*
X0158192Y0089800D01*
X0158310Y0089918D01*
X0213050Y0054572D02*
X0213322Y0054843D01*
X0209286Y0050800D02*
X0207050Y0053036D01*
X0211050Y0048800D02*
X0211050Y0046800D01*
D26*
X0236050Y0040800D02*
X0244050Y0048800D01*
X0236050Y0040800D02*
X0236050Y0032800D01*
X0168507Y0051257D02*
X0168507Y0055800D01*
X0168507Y0059257D01*
X0169507Y0060257D01*
X0169507Y0063800D01*
X0163050Y0059800D02*
X0163050Y0057800D01*
X0162050Y0056800D01*
X0162050Y0046800D01*
X0167050Y0041800D01*
X0158310Y0047438D02*
X0148932Y0038060D01*
X0142310Y0038060D01*
X0140050Y0035800D01*
X0141050Y0042800D02*
X0149050Y0050800D01*
X0149050Y0080800D01*
X0149050Y0085800D01*
X0145050Y0089800D01*
X0145050Y0107800D01*
X0173050Y0093800D02*
X0173507Y0093343D01*
X0173507Y0088800D01*
X0171050Y0088800D01*
X0169932Y0089918D01*
X0165790Y0089918D01*
X0165790Y0079682D02*
X0165790Y0077540D01*
X0163050Y0074800D01*
X0163050Y0059800D01*
X0168507Y0051257D02*
X0166050Y0048800D01*
X0158310Y0047438D02*
X0158310Y0079682D01*
X0154932Y0079682D01*
X0154050Y0078800D01*
X0154050Y0076800D01*
X0142050Y0082800D02*
X0136050Y0082800D01*
X0122050Y0068800D01*
X0122050Y0049800D01*
X0120050Y0047800D01*
X0184778Y0072757D02*
X0191007Y0072757D01*
X0192050Y0073800D01*
X0195050Y0073800D01*
X0196050Y0072800D01*
X0196050Y0071800D01*
X0192050Y0073800D02*
X0192050Y0090800D01*
X0189050Y0093800D01*
X0206050Y0091800D02*
X0213050Y0098800D01*
X0224050Y0098800D01*
X0224050Y0090800D01*
X0220850Y0090800D02*
X0220850Y0083000D01*
X0218650Y0080800D01*
X0218050Y0080800D01*
X0220850Y0083000D02*
X0223507Y0080343D01*
X0223507Y0075800D01*
X0223507Y0071800D02*
X0221050Y0071800D01*
X0220093Y0072757D01*
X0213322Y0072757D01*
X0213322Y0070198D02*
X0206652Y0070198D01*
X0206050Y0070800D01*
X0206050Y0091800D01*
M02*
