G75*
%MOIN*%
%OFA0B0*%
%FSLAX25Y25*%
%IPPOS*%
%LPD*%
%AMOC8*
5,1,8,0,0,1.08239X$1,22.5*
%
%ADD10C,0.00000*%
%ADD11C,0.04724*%
%ADD12C,0.12661*%
%ADD13C,0.01063*%
%ADD14C,0.00974*%
%ADD15C,0.01744*%
%ADD16R,0.05000X0.05000*%
%ADD17C,0.05000*%
%ADD18R,0.07400X0.07400*%
%ADD19C,0.07400*%
%ADD20C,0.01395*%
%ADD21R,0.03543X0.01575*%
%ADD22C,0.00709*%
%ADD23R,0.09000X0.02362*%
%ADD24R,0.05000X0.01800*%
%ADD25R,0.02500X0.01800*%
%ADD26R,0.10000X0.01800*%
%ADD27C,0.00800*%
%ADD28C,0.02500*%
%ADD29R,0.01800X0.05000*%
%ADD30C,0.03000*%
%ADD31C,0.01200*%
%ADD32C,0.01600*%
%ADD33C,0.02975*%
%ADD34C,0.01000*%
D10*
X0089050Y0003800D02*
X0089050Y0113800D01*
X0254050Y0113800D01*
X0254050Y0003800D01*
X0089050Y0003800D01*
X0094550Y0015800D02*
X0094552Y0015961D01*
X0094558Y0016121D01*
X0094568Y0016282D01*
X0094582Y0016442D01*
X0094600Y0016602D01*
X0094621Y0016761D01*
X0094647Y0016920D01*
X0094677Y0017078D01*
X0094710Y0017235D01*
X0094748Y0017392D01*
X0094789Y0017547D01*
X0094834Y0017701D01*
X0094883Y0017854D01*
X0094936Y0018006D01*
X0094992Y0018157D01*
X0095053Y0018306D01*
X0095116Y0018454D01*
X0095184Y0018600D01*
X0095255Y0018744D01*
X0095329Y0018886D01*
X0095407Y0019027D01*
X0095489Y0019165D01*
X0095574Y0019302D01*
X0095662Y0019436D01*
X0095754Y0019568D01*
X0095849Y0019698D01*
X0095947Y0019826D01*
X0096048Y0019951D01*
X0096152Y0020073D01*
X0096259Y0020193D01*
X0096369Y0020310D01*
X0096482Y0020425D01*
X0096598Y0020536D01*
X0096717Y0020645D01*
X0096838Y0020750D01*
X0096962Y0020853D01*
X0097088Y0020953D01*
X0097216Y0021049D01*
X0097347Y0021142D01*
X0097481Y0021232D01*
X0097616Y0021319D01*
X0097754Y0021402D01*
X0097893Y0021482D01*
X0098035Y0021558D01*
X0098178Y0021631D01*
X0098323Y0021700D01*
X0098470Y0021766D01*
X0098618Y0021828D01*
X0098768Y0021886D01*
X0098919Y0021941D01*
X0099072Y0021992D01*
X0099226Y0022039D01*
X0099381Y0022082D01*
X0099537Y0022121D01*
X0099693Y0022157D01*
X0099851Y0022188D01*
X0100009Y0022216D01*
X0100168Y0022240D01*
X0100328Y0022260D01*
X0100488Y0022276D01*
X0100648Y0022288D01*
X0100809Y0022296D01*
X0100970Y0022300D01*
X0101130Y0022300D01*
X0101291Y0022296D01*
X0101452Y0022288D01*
X0101612Y0022276D01*
X0101772Y0022260D01*
X0101932Y0022240D01*
X0102091Y0022216D01*
X0102249Y0022188D01*
X0102407Y0022157D01*
X0102563Y0022121D01*
X0102719Y0022082D01*
X0102874Y0022039D01*
X0103028Y0021992D01*
X0103181Y0021941D01*
X0103332Y0021886D01*
X0103482Y0021828D01*
X0103630Y0021766D01*
X0103777Y0021700D01*
X0103922Y0021631D01*
X0104065Y0021558D01*
X0104207Y0021482D01*
X0104346Y0021402D01*
X0104484Y0021319D01*
X0104619Y0021232D01*
X0104753Y0021142D01*
X0104884Y0021049D01*
X0105012Y0020953D01*
X0105138Y0020853D01*
X0105262Y0020750D01*
X0105383Y0020645D01*
X0105502Y0020536D01*
X0105618Y0020425D01*
X0105731Y0020310D01*
X0105841Y0020193D01*
X0105948Y0020073D01*
X0106052Y0019951D01*
X0106153Y0019826D01*
X0106251Y0019698D01*
X0106346Y0019568D01*
X0106438Y0019436D01*
X0106526Y0019302D01*
X0106611Y0019165D01*
X0106693Y0019027D01*
X0106771Y0018886D01*
X0106845Y0018744D01*
X0106916Y0018600D01*
X0106984Y0018454D01*
X0107047Y0018306D01*
X0107108Y0018157D01*
X0107164Y0018006D01*
X0107217Y0017854D01*
X0107266Y0017701D01*
X0107311Y0017547D01*
X0107352Y0017392D01*
X0107390Y0017235D01*
X0107423Y0017078D01*
X0107453Y0016920D01*
X0107479Y0016761D01*
X0107500Y0016602D01*
X0107518Y0016442D01*
X0107532Y0016282D01*
X0107542Y0016121D01*
X0107548Y0015961D01*
X0107550Y0015800D01*
X0107548Y0015639D01*
X0107542Y0015479D01*
X0107532Y0015318D01*
X0107518Y0015158D01*
X0107500Y0014998D01*
X0107479Y0014839D01*
X0107453Y0014680D01*
X0107423Y0014522D01*
X0107390Y0014365D01*
X0107352Y0014208D01*
X0107311Y0014053D01*
X0107266Y0013899D01*
X0107217Y0013746D01*
X0107164Y0013594D01*
X0107108Y0013443D01*
X0107047Y0013294D01*
X0106984Y0013146D01*
X0106916Y0013000D01*
X0106845Y0012856D01*
X0106771Y0012714D01*
X0106693Y0012573D01*
X0106611Y0012435D01*
X0106526Y0012298D01*
X0106438Y0012164D01*
X0106346Y0012032D01*
X0106251Y0011902D01*
X0106153Y0011774D01*
X0106052Y0011649D01*
X0105948Y0011527D01*
X0105841Y0011407D01*
X0105731Y0011290D01*
X0105618Y0011175D01*
X0105502Y0011064D01*
X0105383Y0010955D01*
X0105262Y0010850D01*
X0105138Y0010747D01*
X0105012Y0010647D01*
X0104884Y0010551D01*
X0104753Y0010458D01*
X0104619Y0010368D01*
X0104484Y0010281D01*
X0104346Y0010198D01*
X0104207Y0010118D01*
X0104065Y0010042D01*
X0103922Y0009969D01*
X0103777Y0009900D01*
X0103630Y0009834D01*
X0103482Y0009772D01*
X0103332Y0009714D01*
X0103181Y0009659D01*
X0103028Y0009608D01*
X0102874Y0009561D01*
X0102719Y0009518D01*
X0102563Y0009479D01*
X0102407Y0009443D01*
X0102249Y0009412D01*
X0102091Y0009384D01*
X0101932Y0009360D01*
X0101772Y0009340D01*
X0101612Y0009324D01*
X0101452Y0009312D01*
X0101291Y0009304D01*
X0101130Y0009300D01*
X0100970Y0009300D01*
X0100809Y0009304D01*
X0100648Y0009312D01*
X0100488Y0009324D01*
X0100328Y0009340D01*
X0100168Y0009360D01*
X0100009Y0009384D01*
X0099851Y0009412D01*
X0099693Y0009443D01*
X0099537Y0009479D01*
X0099381Y0009518D01*
X0099226Y0009561D01*
X0099072Y0009608D01*
X0098919Y0009659D01*
X0098768Y0009714D01*
X0098618Y0009772D01*
X0098470Y0009834D01*
X0098323Y0009900D01*
X0098178Y0009969D01*
X0098035Y0010042D01*
X0097893Y0010118D01*
X0097754Y0010198D01*
X0097616Y0010281D01*
X0097481Y0010368D01*
X0097347Y0010458D01*
X0097216Y0010551D01*
X0097088Y0010647D01*
X0096962Y0010747D01*
X0096838Y0010850D01*
X0096717Y0010955D01*
X0096598Y0011064D01*
X0096482Y0011175D01*
X0096369Y0011290D01*
X0096259Y0011407D01*
X0096152Y0011527D01*
X0096048Y0011649D01*
X0095947Y0011774D01*
X0095849Y0011902D01*
X0095754Y0012032D01*
X0095662Y0012164D01*
X0095574Y0012298D01*
X0095489Y0012435D01*
X0095407Y0012573D01*
X0095329Y0012714D01*
X0095255Y0012856D01*
X0095184Y0013000D01*
X0095116Y0013146D01*
X0095053Y0013294D01*
X0094992Y0013443D01*
X0094936Y0013594D01*
X0094883Y0013746D01*
X0094834Y0013899D01*
X0094789Y0014053D01*
X0094748Y0014208D01*
X0094710Y0014365D01*
X0094677Y0014522D01*
X0094647Y0014680D01*
X0094621Y0014839D01*
X0094600Y0014998D01*
X0094582Y0015158D01*
X0094568Y0015318D01*
X0094558Y0015479D01*
X0094552Y0015639D01*
X0094550Y0015800D01*
X0235550Y0015800D02*
X0235552Y0015961D01*
X0235558Y0016121D01*
X0235568Y0016282D01*
X0235582Y0016442D01*
X0235600Y0016602D01*
X0235621Y0016761D01*
X0235647Y0016920D01*
X0235677Y0017078D01*
X0235710Y0017235D01*
X0235748Y0017392D01*
X0235789Y0017547D01*
X0235834Y0017701D01*
X0235883Y0017854D01*
X0235936Y0018006D01*
X0235992Y0018157D01*
X0236053Y0018306D01*
X0236116Y0018454D01*
X0236184Y0018600D01*
X0236255Y0018744D01*
X0236329Y0018886D01*
X0236407Y0019027D01*
X0236489Y0019165D01*
X0236574Y0019302D01*
X0236662Y0019436D01*
X0236754Y0019568D01*
X0236849Y0019698D01*
X0236947Y0019826D01*
X0237048Y0019951D01*
X0237152Y0020073D01*
X0237259Y0020193D01*
X0237369Y0020310D01*
X0237482Y0020425D01*
X0237598Y0020536D01*
X0237717Y0020645D01*
X0237838Y0020750D01*
X0237962Y0020853D01*
X0238088Y0020953D01*
X0238216Y0021049D01*
X0238347Y0021142D01*
X0238481Y0021232D01*
X0238616Y0021319D01*
X0238754Y0021402D01*
X0238893Y0021482D01*
X0239035Y0021558D01*
X0239178Y0021631D01*
X0239323Y0021700D01*
X0239470Y0021766D01*
X0239618Y0021828D01*
X0239768Y0021886D01*
X0239919Y0021941D01*
X0240072Y0021992D01*
X0240226Y0022039D01*
X0240381Y0022082D01*
X0240537Y0022121D01*
X0240693Y0022157D01*
X0240851Y0022188D01*
X0241009Y0022216D01*
X0241168Y0022240D01*
X0241328Y0022260D01*
X0241488Y0022276D01*
X0241648Y0022288D01*
X0241809Y0022296D01*
X0241970Y0022300D01*
X0242130Y0022300D01*
X0242291Y0022296D01*
X0242452Y0022288D01*
X0242612Y0022276D01*
X0242772Y0022260D01*
X0242932Y0022240D01*
X0243091Y0022216D01*
X0243249Y0022188D01*
X0243407Y0022157D01*
X0243563Y0022121D01*
X0243719Y0022082D01*
X0243874Y0022039D01*
X0244028Y0021992D01*
X0244181Y0021941D01*
X0244332Y0021886D01*
X0244482Y0021828D01*
X0244630Y0021766D01*
X0244777Y0021700D01*
X0244922Y0021631D01*
X0245065Y0021558D01*
X0245207Y0021482D01*
X0245346Y0021402D01*
X0245484Y0021319D01*
X0245619Y0021232D01*
X0245753Y0021142D01*
X0245884Y0021049D01*
X0246012Y0020953D01*
X0246138Y0020853D01*
X0246262Y0020750D01*
X0246383Y0020645D01*
X0246502Y0020536D01*
X0246618Y0020425D01*
X0246731Y0020310D01*
X0246841Y0020193D01*
X0246948Y0020073D01*
X0247052Y0019951D01*
X0247153Y0019826D01*
X0247251Y0019698D01*
X0247346Y0019568D01*
X0247438Y0019436D01*
X0247526Y0019302D01*
X0247611Y0019165D01*
X0247693Y0019027D01*
X0247771Y0018886D01*
X0247845Y0018744D01*
X0247916Y0018600D01*
X0247984Y0018454D01*
X0248047Y0018306D01*
X0248108Y0018157D01*
X0248164Y0018006D01*
X0248217Y0017854D01*
X0248266Y0017701D01*
X0248311Y0017547D01*
X0248352Y0017392D01*
X0248390Y0017235D01*
X0248423Y0017078D01*
X0248453Y0016920D01*
X0248479Y0016761D01*
X0248500Y0016602D01*
X0248518Y0016442D01*
X0248532Y0016282D01*
X0248542Y0016121D01*
X0248548Y0015961D01*
X0248550Y0015800D01*
X0248548Y0015639D01*
X0248542Y0015479D01*
X0248532Y0015318D01*
X0248518Y0015158D01*
X0248500Y0014998D01*
X0248479Y0014839D01*
X0248453Y0014680D01*
X0248423Y0014522D01*
X0248390Y0014365D01*
X0248352Y0014208D01*
X0248311Y0014053D01*
X0248266Y0013899D01*
X0248217Y0013746D01*
X0248164Y0013594D01*
X0248108Y0013443D01*
X0248047Y0013294D01*
X0247984Y0013146D01*
X0247916Y0013000D01*
X0247845Y0012856D01*
X0247771Y0012714D01*
X0247693Y0012573D01*
X0247611Y0012435D01*
X0247526Y0012298D01*
X0247438Y0012164D01*
X0247346Y0012032D01*
X0247251Y0011902D01*
X0247153Y0011774D01*
X0247052Y0011649D01*
X0246948Y0011527D01*
X0246841Y0011407D01*
X0246731Y0011290D01*
X0246618Y0011175D01*
X0246502Y0011064D01*
X0246383Y0010955D01*
X0246262Y0010850D01*
X0246138Y0010747D01*
X0246012Y0010647D01*
X0245884Y0010551D01*
X0245753Y0010458D01*
X0245619Y0010368D01*
X0245484Y0010281D01*
X0245346Y0010198D01*
X0245207Y0010118D01*
X0245065Y0010042D01*
X0244922Y0009969D01*
X0244777Y0009900D01*
X0244630Y0009834D01*
X0244482Y0009772D01*
X0244332Y0009714D01*
X0244181Y0009659D01*
X0244028Y0009608D01*
X0243874Y0009561D01*
X0243719Y0009518D01*
X0243563Y0009479D01*
X0243407Y0009443D01*
X0243249Y0009412D01*
X0243091Y0009384D01*
X0242932Y0009360D01*
X0242772Y0009340D01*
X0242612Y0009324D01*
X0242452Y0009312D01*
X0242291Y0009304D01*
X0242130Y0009300D01*
X0241970Y0009300D01*
X0241809Y0009304D01*
X0241648Y0009312D01*
X0241488Y0009324D01*
X0241328Y0009340D01*
X0241168Y0009360D01*
X0241009Y0009384D01*
X0240851Y0009412D01*
X0240693Y0009443D01*
X0240537Y0009479D01*
X0240381Y0009518D01*
X0240226Y0009561D01*
X0240072Y0009608D01*
X0239919Y0009659D01*
X0239768Y0009714D01*
X0239618Y0009772D01*
X0239470Y0009834D01*
X0239323Y0009900D01*
X0239178Y0009969D01*
X0239035Y0010042D01*
X0238893Y0010118D01*
X0238754Y0010198D01*
X0238616Y0010281D01*
X0238481Y0010368D01*
X0238347Y0010458D01*
X0238216Y0010551D01*
X0238088Y0010647D01*
X0237962Y0010747D01*
X0237838Y0010850D01*
X0237717Y0010955D01*
X0237598Y0011064D01*
X0237482Y0011175D01*
X0237369Y0011290D01*
X0237259Y0011407D01*
X0237152Y0011527D01*
X0237048Y0011649D01*
X0236947Y0011774D01*
X0236849Y0011902D01*
X0236754Y0012032D01*
X0236662Y0012164D01*
X0236574Y0012298D01*
X0236489Y0012435D01*
X0236407Y0012573D01*
X0236329Y0012714D01*
X0236255Y0012856D01*
X0236184Y0013000D01*
X0236116Y0013146D01*
X0236053Y0013294D01*
X0235992Y0013443D01*
X0235936Y0013594D01*
X0235883Y0013746D01*
X0235834Y0013899D01*
X0235789Y0014053D01*
X0235748Y0014208D01*
X0235710Y0014365D01*
X0235677Y0014522D01*
X0235647Y0014680D01*
X0235621Y0014839D01*
X0235600Y0014998D01*
X0235582Y0015158D01*
X0235568Y0015318D01*
X0235558Y0015479D01*
X0235552Y0015639D01*
X0235550Y0015800D01*
X0235550Y0101800D02*
X0235552Y0101961D01*
X0235558Y0102121D01*
X0235568Y0102282D01*
X0235582Y0102442D01*
X0235600Y0102602D01*
X0235621Y0102761D01*
X0235647Y0102920D01*
X0235677Y0103078D01*
X0235710Y0103235D01*
X0235748Y0103392D01*
X0235789Y0103547D01*
X0235834Y0103701D01*
X0235883Y0103854D01*
X0235936Y0104006D01*
X0235992Y0104157D01*
X0236053Y0104306D01*
X0236116Y0104454D01*
X0236184Y0104600D01*
X0236255Y0104744D01*
X0236329Y0104886D01*
X0236407Y0105027D01*
X0236489Y0105165D01*
X0236574Y0105302D01*
X0236662Y0105436D01*
X0236754Y0105568D01*
X0236849Y0105698D01*
X0236947Y0105826D01*
X0237048Y0105951D01*
X0237152Y0106073D01*
X0237259Y0106193D01*
X0237369Y0106310D01*
X0237482Y0106425D01*
X0237598Y0106536D01*
X0237717Y0106645D01*
X0237838Y0106750D01*
X0237962Y0106853D01*
X0238088Y0106953D01*
X0238216Y0107049D01*
X0238347Y0107142D01*
X0238481Y0107232D01*
X0238616Y0107319D01*
X0238754Y0107402D01*
X0238893Y0107482D01*
X0239035Y0107558D01*
X0239178Y0107631D01*
X0239323Y0107700D01*
X0239470Y0107766D01*
X0239618Y0107828D01*
X0239768Y0107886D01*
X0239919Y0107941D01*
X0240072Y0107992D01*
X0240226Y0108039D01*
X0240381Y0108082D01*
X0240537Y0108121D01*
X0240693Y0108157D01*
X0240851Y0108188D01*
X0241009Y0108216D01*
X0241168Y0108240D01*
X0241328Y0108260D01*
X0241488Y0108276D01*
X0241648Y0108288D01*
X0241809Y0108296D01*
X0241970Y0108300D01*
X0242130Y0108300D01*
X0242291Y0108296D01*
X0242452Y0108288D01*
X0242612Y0108276D01*
X0242772Y0108260D01*
X0242932Y0108240D01*
X0243091Y0108216D01*
X0243249Y0108188D01*
X0243407Y0108157D01*
X0243563Y0108121D01*
X0243719Y0108082D01*
X0243874Y0108039D01*
X0244028Y0107992D01*
X0244181Y0107941D01*
X0244332Y0107886D01*
X0244482Y0107828D01*
X0244630Y0107766D01*
X0244777Y0107700D01*
X0244922Y0107631D01*
X0245065Y0107558D01*
X0245207Y0107482D01*
X0245346Y0107402D01*
X0245484Y0107319D01*
X0245619Y0107232D01*
X0245753Y0107142D01*
X0245884Y0107049D01*
X0246012Y0106953D01*
X0246138Y0106853D01*
X0246262Y0106750D01*
X0246383Y0106645D01*
X0246502Y0106536D01*
X0246618Y0106425D01*
X0246731Y0106310D01*
X0246841Y0106193D01*
X0246948Y0106073D01*
X0247052Y0105951D01*
X0247153Y0105826D01*
X0247251Y0105698D01*
X0247346Y0105568D01*
X0247438Y0105436D01*
X0247526Y0105302D01*
X0247611Y0105165D01*
X0247693Y0105027D01*
X0247771Y0104886D01*
X0247845Y0104744D01*
X0247916Y0104600D01*
X0247984Y0104454D01*
X0248047Y0104306D01*
X0248108Y0104157D01*
X0248164Y0104006D01*
X0248217Y0103854D01*
X0248266Y0103701D01*
X0248311Y0103547D01*
X0248352Y0103392D01*
X0248390Y0103235D01*
X0248423Y0103078D01*
X0248453Y0102920D01*
X0248479Y0102761D01*
X0248500Y0102602D01*
X0248518Y0102442D01*
X0248532Y0102282D01*
X0248542Y0102121D01*
X0248548Y0101961D01*
X0248550Y0101800D01*
X0248548Y0101639D01*
X0248542Y0101479D01*
X0248532Y0101318D01*
X0248518Y0101158D01*
X0248500Y0100998D01*
X0248479Y0100839D01*
X0248453Y0100680D01*
X0248423Y0100522D01*
X0248390Y0100365D01*
X0248352Y0100208D01*
X0248311Y0100053D01*
X0248266Y0099899D01*
X0248217Y0099746D01*
X0248164Y0099594D01*
X0248108Y0099443D01*
X0248047Y0099294D01*
X0247984Y0099146D01*
X0247916Y0099000D01*
X0247845Y0098856D01*
X0247771Y0098714D01*
X0247693Y0098573D01*
X0247611Y0098435D01*
X0247526Y0098298D01*
X0247438Y0098164D01*
X0247346Y0098032D01*
X0247251Y0097902D01*
X0247153Y0097774D01*
X0247052Y0097649D01*
X0246948Y0097527D01*
X0246841Y0097407D01*
X0246731Y0097290D01*
X0246618Y0097175D01*
X0246502Y0097064D01*
X0246383Y0096955D01*
X0246262Y0096850D01*
X0246138Y0096747D01*
X0246012Y0096647D01*
X0245884Y0096551D01*
X0245753Y0096458D01*
X0245619Y0096368D01*
X0245484Y0096281D01*
X0245346Y0096198D01*
X0245207Y0096118D01*
X0245065Y0096042D01*
X0244922Y0095969D01*
X0244777Y0095900D01*
X0244630Y0095834D01*
X0244482Y0095772D01*
X0244332Y0095714D01*
X0244181Y0095659D01*
X0244028Y0095608D01*
X0243874Y0095561D01*
X0243719Y0095518D01*
X0243563Y0095479D01*
X0243407Y0095443D01*
X0243249Y0095412D01*
X0243091Y0095384D01*
X0242932Y0095360D01*
X0242772Y0095340D01*
X0242612Y0095324D01*
X0242452Y0095312D01*
X0242291Y0095304D01*
X0242130Y0095300D01*
X0241970Y0095300D01*
X0241809Y0095304D01*
X0241648Y0095312D01*
X0241488Y0095324D01*
X0241328Y0095340D01*
X0241168Y0095360D01*
X0241009Y0095384D01*
X0240851Y0095412D01*
X0240693Y0095443D01*
X0240537Y0095479D01*
X0240381Y0095518D01*
X0240226Y0095561D01*
X0240072Y0095608D01*
X0239919Y0095659D01*
X0239768Y0095714D01*
X0239618Y0095772D01*
X0239470Y0095834D01*
X0239323Y0095900D01*
X0239178Y0095969D01*
X0239035Y0096042D01*
X0238893Y0096118D01*
X0238754Y0096198D01*
X0238616Y0096281D01*
X0238481Y0096368D01*
X0238347Y0096458D01*
X0238216Y0096551D01*
X0238088Y0096647D01*
X0237962Y0096747D01*
X0237838Y0096850D01*
X0237717Y0096955D01*
X0237598Y0097064D01*
X0237482Y0097175D01*
X0237369Y0097290D01*
X0237259Y0097407D01*
X0237152Y0097527D01*
X0237048Y0097649D01*
X0236947Y0097774D01*
X0236849Y0097902D01*
X0236754Y0098032D01*
X0236662Y0098164D01*
X0236574Y0098298D01*
X0236489Y0098435D01*
X0236407Y0098573D01*
X0236329Y0098714D01*
X0236255Y0098856D01*
X0236184Y0099000D01*
X0236116Y0099146D01*
X0236053Y0099294D01*
X0235992Y0099443D01*
X0235936Y0099594D01*
X0235883Y0099746D01*
X0235834Y0099899D01*
X0235789Y0100053D01*
X0235748Y0100208D01*
X0235710Y0100365D01*
X0235677Y0100522D01*
X0235647Y0100680D01*
X0235621Y0100839D01*
X0235600Y0100998D01*
X0235582Y0101158D01*
X0235568Y0101318D01*
X0235558Y0101479D01*
X0235552Y0101639D01*
X0235550Y0101800D01*
X0094550Y0101800D02*
X0094552Y0101961D01*
X0094558Y0102121D01*
X0094568Y0102282D01*
X0094582Y0102442D01*
X0094600Y0102602D01*
X0094621Y0102761D01*
X0094647Y0102920D01*
X0094677Y0103078D01*
X0094710Y0103235D01*
X0094748Y0103392D01*
X0094789Y0103547D01*
X0094834Y0103701D01*
X0094883Y0103854D01*
X0094936Y0104006D01*
X0094992Y0104157D01*
X0095053Y0104306D01*
X0095116Y0104454D01*
X0095184Y0104600D01*
X0095255Y0104744D01*
X0095329Y0104886D01*
X0095407Y0105027D01*
X0095489Y0105165D01*
X0095574Y0105302D01*
X0095662Y0105436D01*
X0095754Y0105568D01*
X0095849Y0105698D01*
X0095947Y0105826D01*
X0096048Y0105951D01*
X0096152Y0106073D01*
X0096259Y0106193D01*
X0096369Y0106310D01*
X0096482Y0106425D01*
X0096598Y0106536D01*
X0096717Y0106645D01*
X0096838Y0106750D01*
X0096962Y0106853D01*
X0097088Y0106953D01*
X0097216Y0107049D01*
X0097347Y0107142D01*
X0097481Y0107232D01*
X0097616Y0107319D01*
X0097754Y0107402D01*
X0097893Y0107482D01*
X0098035Y0107558D01*
X0098178Y0107631D01*
X0098323Y0107700D01*
X0098470Y0107766D01*
X0098618Y0107828D01*
X0098768Y0107886D01*
X0098919Y0107941D01*
X0099072Y0107992D01*
X0099226Y0108039D01*
X0099381Y0108082D01*
X0099537Y0108121D01*
X0099693Y0108157D01*
X0099851Y0108188D01*
X0100009Y0108216D01*
X0100168Y0108240D01*
X0100328Y0108260D01*
X0100488Y0108276D01*
X0100648Y0108288D01*
X0100809Y0108296D01*
X0100970Y0108300D01*
X0101130Y0108300D01*
X0101291Y0108296D01*
X0101452Y0108288D01*
X0101612Y0108276D01*
X0101772Y0108260D01*
X0101932Y0108240D01*
X0102091Y0108216D01*
X0102249Y0108188D01*
X0102407Y0108157D01*
X0102563Y0108121D01*
X0102719Y0108082D01*
X0102874Y0108039D01*
X0103028Y0107992D01*
X0103181Y0107941D01*
X0103332Y0107886D01*
X0103482Y0107828D01*
X0103630Y0107766D01*
X0103777Y0107700D01*
X0103922Y0107631D01*
X0104065Y0107558D01*
X0104207Y0107482D01*
X0104346Y0107402D01*
X0104484Y0107319D01*
X0104619Y0107232D01*
X0104753Y0107142D01*
X0104884Y0107049D01*
X0105012Y0106953D01*
X0105138Y0106853D01*
X0105262Y0106750D01*
X0105383Y0106645D01*
X0105502Y0106536D01*
X0105618Y0106425D01*
X0105731Y0106310D01*
X0105841Y0106193D01*
X0105948Y0106073D01*
X0106052Y0105951D01*
X0106153Y0105826D01*
X0106251Y0105698D01*
X0106346Y0105568D01*
X0106438Y0105436D01*
X0106526Y0105302D01*
X0106611Y0105165D01*
X0106693Y0105027D01*
X0106771Y0104886D01*
X0106845Y0104744D01*
X0106916Y0104600D01*
X0106984Y0104454D01*
X0107047Y0104306D01*
X0107108Y0104157D01*
X0107164Y0104006D01*
X0107217Y0103854D01*
X0107266Y0103701D01*
X0107311Y0103547D01*
X0107352Y0103392D01*
X0107390Y0103235D01*
X0107423Y0103078D01*
X0107453Y0102920D01*
X0107479Y0102761D01*
X0107500Y0102602D01*
X0107518Y0102442D01*
X0107532Y0102282D01*
X0107542Y0102121D01*
X0107548Y0101961D01*
X0107550Y0101800D01*
X0107548Y0101639D01*
X0107542Y0101479D01*
X0107532Y0101318D01*
X0107518Y0101158D01*
X0107500Y0100998D01*
X0107479Y0100839D01*
X0107453Y0100680D01*
X0107423Y0100522D01*
X0107390Y0100365D01*
X0107352Y0100208D01*
X0107311Y0100053D01*
X0107266Y0099899D01*
X0107217Y0099746D01*
X0107164Y0099594D01*
X0107108Y0099443D01*
X0107047Y0099294D01*
X0106984Y0099146D01*
X0106916Y0099000D01*
X0106845Y0098856D01*
X0106771Y0098714D01*
X0106693Y0098573D01*
X0106611Y0098435D01*
X0106526Y0098298D01*
X0106438Y0098164D01*
X0106346Y0098032D01*
X0106251Y0097902D01*
X0106153Y0097774D01*
X0106052Y0097649D01*
X0105948Y0097527D01*
X0105841Y0097407D01*
X0105731Y0097290D01*
X0105618Y0097175D01*
X0105502Y0097064D01*
X0105383Y0096955D01*
X0105262Y0096850D01*
X0105138Y0096747D01*
X0105012Y0096647D01*
X0104884Y0096551D01*
X0104753Y0096458D01*
X0104619Y0096368D01*
X0104484Y0096281D01*
X0104346Y0096198D01*
X0104207Y0096118D01*
X0104065Y0096042D01*
X0103922Y0095969D01*
X0103777Y0095900D01*
X0103630Y0095834D01*
X0103482Y0095772D01*
X0103332Y0095714D01*
X0103181Y0095659D01*
X0103028Y0095608D01*
X0102874Y0095561D01*
X0102719Y0095518D01*
X0102563Y0095479D01*
X0102407Y0095443D01*
X0102249Y0095412D01*
X0102091Y0095384D01*
X0101932Y0095360D01*
X0101772Y0095340D01*
X0101612Y0095324D01*
X0101452Y0095312D01*
X0101291Y0095304D01*
X0101130Y0095300D01*
X0100970Y0095300D01*
X0100809Y0095304D01*
X0100648Y0095312D01*
X0100488Y0095324D01*
X0100328Y0095340D01*
X0100168Y0095360D01*
X0100009Y0095384D01*
X0099851Y0095412D01*
X0099693Y0095443D01*
X0099537Y0095479D01*
X0099381Y0095518D01*
X0099226Y0095561D01*
X0099072Y0095608D01*
X0098919Y0095659D01*
X0098768Y0095714D01*
X0098618Y0095772D01*
X0098470Y0095834D01*
X0098323Y0095900D01*
X0098178Y0095969D01*
X0098035Y0096042D01*
X0097893Y0096118D01*
X0097754Y0096198D01*
X0097616Y0096281D01*
X0097481Y0096368D01*
X0097347Y0096458D01*
X0097216Y0096551D01*
X0097088Y0096647D01*
X0096962Y0096747D01*
X0096838Y0096850D01*
X0096717Y0096955D01*
X0096598Y0097064D01*
X0096482Y0097175D01*
X0096369Y0097290D01*
X0096259Y0097407D01*
X0096152Y0097527D01*
X0096048Y0097649D01*
X0095947Y0097774D01*
X0095849Y0097902D01*
X0095754Y0098032D01*
X0095662Y0098164D01*
X0095574Y0098298D01*
X0095489Y0098435D01*
X0095407Y0098573D01*
X0095329Y0098714D01*
X0095255Y0098856D01*
X0095184Y0099000D01*
X0095116Y0099146D01*
X0095053Y0099294D01*
X0094992Y0099443D01*
X0094936Y0099594D01*
X0094883Y0099746D01*
X0094834Y0099899D01*
X0094789Y0100053D01*
X0094748Y0100208D01*
X0094710Y0100365D01*
X0094677Y0100522D01*
X0094647Y0100680D01*
X0094621Y0100839D01*
X0094600Y0100998D01*
X0094582Y0101158D01*
X0094568Y0101318D01*
X0094558Y0101479D01*
X0094552Y0101639D01*
X0094550Y0101800D01*
D11*
X0131688Y0058800D02*
X0136412Y0058800D01*
X0136412Y0048800D02*
X0131688Y0048800D01*
D12*
X0114050Y0038800D03*
X0114050Y0078800D03*
D13*
X0128900Y0074533D02*
X0130200Y0074533D01*
X0130200Y0066595D01*
X0128900Y0066595D01*
X0128900Y0074533D01*
X0128900Y0067657D02*
X0130200Y0067657D01*
X0130200Y0068719D02*
X0128900Y0068719D01*
X0128900Y0069781D02*
X0130200Y0069781D01*
X0130200Y0070843D02*
X0128900Y0070843D01*
X0128900Y0071905D02*
X0130200Y0071905D01*
X0130200Y0072967D02*
X0128900Y0072967D01*
X0128900Y0074029D02*
X0130200Y0074029D01*
X0133900Y0074533D02*
X0135200Y0074533D01*
X0135200Y0066595D01*
X0133900Y0066595D01*
X0133900Y0074533D01*
X0133900Y0067657D02*
X0135200Y0067657D01*
X0135200Y0068719D02*
X0133900Y0068719D01*
X0133900Y0069781D02*
X0135200Y0069781D01*
X0135200Y0070843D02*
X0133900Y0070843D01*
X0133900Y0071905D02*
X0135200Y0071905D01*
X0135200Y0072967D02*
X0133900Y0072967D01*
X0133900Y0074029D02*
X0135200Y0074029D01*
X0138900Y0074533D02*
X0140200Y0074533D01*
X0140200Y0066595D01*
X0138900Y0066595D01*
X0138900Y0074533D01*
X0138900Y0067657D02*
X0140200Y0067657D01*
X0140200Y0068719D02*
X0138900Y0068719D01*
X0138900Y0069781D02*
X0140200Y0069781D01*
X0140200Y0070843D02*
X0138900Y0070843D01*
X0138900Y0071905D02*
X0140200Y0071905D01*
X0140200Y0072967D02*
X0138900Y0072967D01*
X0138900Y0074029D02*
X0140200Y0074029D01*
X0143900Y0074533D02*
X0145200Y0074533D01*
X0145200Y0066595D01*
X0143900Y0066595D01*
X0143900Y0074533D01*
X0143900Y0067657D02*
X0145200Y0067657D01*
X0145200Y0068719D02*
X0143900Y0068719D01*
X0143900Y0069781D02*
X0145200Y0069781D01*
X0145200Y0070843D02*
X0143900Y0070843D01*
X0143900Y0071905D02*
X0145200Y0071905D01*
X0145200Y0072967D02*
X0143900Y0072967D01*
X0143900Y0074029D02*
X0145200Y0074029D01*
X0145200Y0095005D02*
X0143900Y0095005D01*
X0145200Y0095005D02*
X0145200Y0087067D01*
X0143900Y0087067D01*
X0143900Y0095005D01*
X0143900Y0088129D02*
X0145200Y0088129D01*
X0145200Y0089191D02*
X0143900Y0089191D01*
X0143900Y0090253D02*
X0145200Y0090253D01*
X0145200Y0091315D02*
X0143900Y0091315D01*
X0143900Y0092377D02*
X0145200Y0092377D01*
X0145200Y0093439D02*
X0143900Y0093439D01*
X0143900Y0094501D02*
X0145200Y0094501D01*
X0140200Y0095005D02*
X0138900Y0095005D01*
X0140200Y0095005D02*
X0140200Y0087067D01*
X0138900Y0087067D01*
X0138900Y0095005D01*
X0138900Y0088129D02*
X0140200Y0088129D01*
X0140200Y0089191D02*
X0138900Y0089191D01*
X0138900Y0090253D02*
X0140200Y0090253D01*
X0140200Y0091315D02*
X0138900Y0091315D01*
X0138900Y0092377D02*
X0140200Y0092377D01*
X0140200Y0093439D02*
X0138900Y0093439D01*
X0138900Y0094501D02*
X0140200Y0094501D01*
X0135200Y0095005D02*
X0133900Y0095005D01*
X0135200Y0095005D02*
X0135200Y0087067D01*
X0133900Y0087067D01*
X0133900Y0095005D01*
X0133900Y0088129D02*
X0135200Y0088129D01*
X0135200Y0089191D02*
X0133900Y0089191D01*
X0133900Y0090253D02*
X0135200Y0090253D01*
X0135200Y0091315D02*
X0133900Y0091315D01*
X0133900Y0092377D02*
X0135200Y0092377D01*
X0135200Y0093439D02*
X0133900Y0093439D01*
X0133900Y0094501D02*
X0135200Y0094501D01*
X0130200Y0095005D02*
X0128900Y0095005D01*
X0130200Y0095005D02*
X0130200Y0087067D01*
X0128900Y0087067D01*
X0128900Y0095005D01*
X0128900Y0088129D02*
X0130200Y0088129D01*
X0130200Y0089191D02*
X0128900Y0089191D01*
X0128900Y0090253D02*
X0130200Y0090253D01*
X0130200Y0091315D02*
X0128900Y0091315D01*
X0128900Y0092377D02*
X0130200Y0092377D01*
X0130200Y0093439D02*
X0128900Y0093439D01*
X0128900Y0094501D02*
X0130200Y0094501D01*
X0184845Y0071950D02*
X0184845Y0070650D01*
X0184845Y0071950D02*
X0192783Y0071950D01*
X0192783Y0070650D01*
X0184845Y0070650D01*
X0184845Y0071712D02*
X0192783Y0071712D01*
X0184845Y0066950D02*
X0184845Y0065650D01*
X0184845Y0066950D02*
X0192783Y0066950D01*
X0192783Y0065650D01*
X0184845Y0065650D01*
X0184845Y0066712D02*
X0192783Y0066712D01*
X0184845Y0061950D02*
X0184845Y0060650D01*
X0184845Y0061950D02*
X0192783Y0061950D01*
X0192783Y0060650D01*
X0184845Y0060650D01*
X0184845Y0061712D02*
X0192783Y0061712D01*
X0184845Y0056950D02*
X0184845Y0055650D01*
X0184845Y0056950D02*
X0192783Y0056950D01*
X0192783Y0055650D01*
X0184845Y0055650D01*
X0184845Y0056712D02*
X0192783Y0056712D01*
X0205317Y0056950D02*
X0205317Y0055650D01*
X0205317Y0056950D02*
X0213255Y0056950D01*
X0213255Y0055650D01*
X0205317Y0055650D01*
X0205317Y0056712D02*
X0213255Y0056712D01*
X0205317Y0060650D02*
X0205317Y0061950D01*
X0213255Y0061950D01*
X0213255Y0060650D01*
X0205317Y0060650D01*
X0205317Y0061712D02*
X0213255Y0061712D01*
X0205317Y0065650D02*
X0205317Y0066950D01*
X0213255Y0066950D01*
X0213255Y0065650D01*
X0205317Y0065650D01*
X0205317Y0066712D02*
X0213255Y0066712D01*
D14*
X0109155Y0065135D02*
X0109155Y0063945D01*
X0109155Y0065135D02*
X0113181Y0065135D01*
X0113181Y0063945D01*
X0109155Y0063945D01*
X0109155Y0064918D02*
X0113181Y0064918D01*
X0109155Y0061395D02*
X0109155Y0060205D01*
X0109155Y0061395D02*
X0113181Y0061395D01*
X0113181Y0060205D01*
X0109155Y0060205D01*
X0109155Y0061178D02*
X0113181Y0061178D01*
X0109155Y0057655D02*
X0109155Y0056465D01*
X0109155Y0057655D02*
X0113181Y0057655D01*
X0113181Y0056465D01*
X0109155Y0056465D01*
X0109155Y0057438D02*
X0113181Y0057438D01*
X0098919Y0057655D02*
X0098919Y0056465D01*
X0098919Y0057655D02*
X0102945Y0057655D01*
X0102945Y0056465D01*
X0098919Y0056465D01*
X0098919Y0057438D02*
X0102945Y0057438D01*
X0098919Y0063945D02*
X0098919Y0065135D01*
X0102945Y0065135D01*
X0102945Y0063945D01*
X0098919Y0063945D01*
X0098919Y0064918D02*
X0102945Y0064918D01*
D15*
X0095428Y0065408D02*
X0095428Y0063278D01*
X0092672Y0063278D01*
X0092672Y0065408D01*
X0095428Y0065408D01*
X0095428Y0065021D02*
X0092672Y0065021D01*
X0097442Y0070422D02*
X0099572Y0070422D01*
X0097442Y0070422D02*
X0097442Y0073178D01*
X0099572Y0073178D01*
X0099572Y0070422D01*
X0099572Y0072165D02*
X0097442Y0072165D01*
X0104528Y0070422D02*
X0106658Y0070422D01*
X0104528Y0070422D02*
X0104528Y0073178D01*
X0106658Y0073178D01*
X0106658Y0070422D01*
X0106658Y0072165D02*
X0104528Y0072165D01*
X0116442Y0067422D02*
X0118572Y0067422D01*
X0116442Y0067422D02*
X0116442Y0070178D01*
X0118572Y0070178D01*
X0118572Y0067422D01*
X0118572Y0069165D02*
X0116442Y0069165D01*
X0123528Y0067422D02*
X0125658Y0067422D01*
X0123528Y0067422D02*
X0123528Y0070178D01*
X0125658Y0070178D01*
X0125658Y0067422D01*
X0125658Y0069165D02*
X0123528Y0069165D01*
X0123428Y0063408D02*
X0123428Y0061278D01*
X0120672Y0061278D01*
X0120672Y0063408D01*
X0123428Y0063408D01*
X0123428Y0063021D02*
X0120672Y0063021D01*
X0123428Y0056322D02*
X0123428Y0054192D01*
X0120672Y0054192D01*
X0120672Y0056322D01*
X0123428Y0056322D01*
X0123428Y0055935D02*
X0120672Y0055935D01*
X0115658Y0051178D02*
X0113528Y0051178D01*
X0115658Y0051178D02*
X0115658Y0048422D01*
X0113528Y0048422D01*
X0113528Y0051178D01*
X0113528Y0050165D02*
X0115658Y0050165D01*
X0108572Y0051178D02*
X0106442Y0051178D01*
X0108572Y0051178D02*
X0108572Y0048422D01*
X0106442Y0048422D01*
X0106442Y0051178D01*
X0106442Y0050165D02*
X0108572Y0050165D01*
X0095428Y0056192D02*
X0095428Y0058322D01*
X0095428Y0056192D02*
X0092672Y0056192D01*
X0092672Y0058322D01*
X0095428Y0058322D01*
X0095428Y0057935D02*
X0092672Y0057935D01*
X0145442Y0061178D02*
X0147572Y0061178D01*
X0147572Y0058422D01*
X0145442Y0058422D01*
X0145442Y0061178D01*
X0145442Y0060165D02*
X0147572Y0060165D01*
X0152528Y0061178D02*
X0154658Y0061178D01*
X0154658Y0058422D01*
X0152528Y0058422D01*
X0152528Y0061178D01*
X0152528Y0060165D02*
X0154658Y0060165D01*
X0154658Y0054178D02*
X0152528Y0054178D01*
X0154658Y0054178D02*
X0154658Y0051422D01*
X0152528Y0051422D01*
X0152528Y0054178D01*
X0152528Y0053165D02*
X0154658Y0053165D01*
X0147572Y0054178D02*
X0145442Y0054178D01*
X0147572Y0054178D02*
X0147572Y0051422D01*
X0145442Y0051422D01*
X0145442Y0054178D01*
X0145442Y0053165D02*
X0147572Y0053165D01*
X0168428Y0037408D02*
X0168428Y0035278D01*
X0165672Y0035278D01*
X0165672Y0037408D01*
X0168428Y0037408D01*
X0168428Y0037021D02*
X0165672Y0037021D01*
X0168428Y0030322D02*
X0168428Y0028192D01*
X0165672Y0028192D01*
X0165672Y0030322D01*
X0168428Y0030322D01*
X0168428Y0029935D02*
X0165672Y0029935D01*
X0158658Y0027922D02*
X0156528Y0027922D01*
X0156528Y0030678D01*
X0158658Y0030678D01*
X0158658Y0027922D01*
X0158658Y0029665D02*
X0156528Y0029665D01*
X0151572Y0027922D02*
X0149442Y0027922D01*
X0149442Y0030678D01*
X0151572Y0030678D01*
X0151572Y0027922D01*
X0151572Y0029665D02*
X0149442Y0029665D01*
X0221672Y0057192D02*
X0221672Y0059322D01*
X0224428Y0059322D01*
X0224428Y0057192D01*
X0221672Y0057192D01*
X0221672Y0058935D02*
X0224428Y0058935D01*
X0228672Y0059278D02*
X0228672Y0061408D01*
X0231428Y0061408D01*
X0231428Y0059278D01*
X0228672Y0059278D01*
X0228672Y0061021D02*
X0231428Y0061021D01*
X0221672Y0064278D02*
X0221672Y0066408D01*
X0224428Y0066408D01*
X0224428Y0064278D01*
X0221672Y0064278D01*
X0221672Y0066021D02*
X0224428Y0066021D01*
X0228672Y0054322D02*
X0228672Y0052192D01*
X0228672Y0054322D02*
X0231428Y0054322D01*
X0231428Y0052192D01*
X0228672Y0052192D01*
X0228672Y0053935D02*
X0231428Y0053935D01*
X0194658Y0080178D02*
X0192528Y0080178D01*
X0194658Y0080178D02*
X0194658Y0077422D01*
X0192528Y0077422D01*
X0192528Y0080178D01*
X0192528Y0079165D02*
X0194658Y0079165D01*
X0187572Y0080178D02*
X0185442Y0080178D01*
X0187572Y0080178D02*
X0187572Y0077422D01*
X0185442Y0077422D01*
X0185442Y0080178D01*
X0185442Y0079165D02*
X0187572Y0079165D01*
X0185572Y0086422D02*
X0183442Y0086422D01*
X0183442Y0089178D01*
X0185572Y0089178D01*
X0185572Y0086422D01*
X0185572Y0088165D02*
X0183442Y0088165D01*
X0190528Y0086422D02*
X0192658Y0086422D01*
X0190528Y0086422D02*
X0190528Y0089178D01*
X0192658Y0089178D01*
X0192658Y0086422D01*
X0192658Y0088165D02*
X0190528Y0088165D01*
X0211672Y0088408D02*
X0211672Y0086278D01*
X0211672Y0088408D02*
X0214428Y0088408D01*
X0214428Y0086278D01*
X0211672Y0086278D01*
X0211672Y0088021D02*
X0214428Y0088021D01*
X0211672Y0081322D02*
X0211672Y0079192D01*
X0211672Y0081322D02*
X0214428Y0081322D01*
X0214428Y0079192D01*
X0211672Y0079192D01*
X0211672Y0080935D02*
X0214428Y0080935D01*
X0194428Y0098192D02*
X0194428Y0100322D01*
X0194428Y0098192D02*
X0191672Y0098192D01*
X0191672Y0100322D01*
X0194428Y0100322D01*
X0194428Y0099935D02*
X0191672Y0099935D01*
X0194428Y0105278D02*
X0194428Y0107408D01*
X0194428Y0105278D02*
X0191672Y0105278D01*
X0191672Y0107408D01*
X0194428Y0107408D01*
X0194428Y0107021D02*
X0191672Y0107021D01*
X0174428Y0107408D02*
X0174428Y0105278D01*
X0171672Y0105278D01*
X0171672Y0107408D01*
X0174428Y0107408D01*
X0174428Y0107021D02*
X0171672Y0107021D01*
X0161658Y0108178D02*
X0159528Y0108178D01*
X0161658Y0108178D02*
X0161658Y0105422D01*
X0159528Y0105422D01*
X0159528Y0108178D01*
X0159528Y0107165D02*
X0161658Y0107165D01*
X0154572Y0108178D02*
X0152442Y0108178D01*
X0154572Y0108178D02*
X0154572Y0105422D01*
X0152442Y0105422D01*
X0152442Y0108178D01*
X0152442Y0107165D02*
X0154572Y0107165D01*
X0141658Y0109178D02*
X0139528Y0109178D01*
X0141658Y0109178D02*
X0141658Y0106422D01*
X0139528Y0106422D01*
X0139528Y0109178D01*
X0139528Y0108165D02*
X0141658Y0108165D01*
X0134572Y0109178D02*
X0132442Y0109178D01*
X0134572Y0109178D02*
X0134572Y0106422D01*
X0132442Y0106422D01*
X0132442Y0109178D01*
X0132442Y0108165D02*
X0134572Y0108165D01*
X0121672Y0108408D02*
X0121672Y0106278D01*
X0121672Y0108408D02*
X0124428Y0108408D01*
X0124428Y0106278D01*
X0121672Y0106278D01*
X0121672Y0108021D02*
X0124428Y0108021D01*
X0121672Y0101322D02*
X0121672Y0099192D01*
X0121672Y0101322D02*
X0124428Y0101322D01*
X0124428Y0099192D01*
X0121672Y0099192D01*
X0121672Y0100935D02*
X0124428Y0100935D01*
X0132442Y0099422D02*
X0134572Y0099422D01*
X0132442Y0099422D02*
X0132442Y0102178D01*
X0134572Y0102178D01*
X0134572Y0099422D01*
X0134572Y0101165D02*
X0132442Y0101165D01*
X0139528Y0099422D02*
X0141658Y0099422D01*
X0139528Y0099422D02*
X0139528Y0102178D01*
X0141658Y0102178D01*
X0141658Y0099422D01*
X0141658Y0101165D02*
X0139528Y0101165D01*
X0152442Y0097422D02*
X0154572Y0097422D01*
X0152442Y0097422D02*
X0152442Y0100178D01*
X0154572Y0100178D01*
X0154572Y0097422D01*
X0154572Y0099165D02*
X0152442Y0099165D01*
X0159528Y0097422D02*
X0161658Y0097422D01*
X0159528Y0097422D02*
X0159528Y0100178D01*
X0161658Y0100178D01*
X0161658Y0097422D01*
X0161658Y0099165D02*
X0159528Y0099165D01*
X0174428Y0098192D02*
X0174428Y0100322D01*
X0174428Y0098192D02*
X0171672Y0098192D01*
X0171672Y0100322D01*
X0174428Y0100322D01*
X0174428Y0099935D02*
X0171672Y0099935D01*
X0124658Y0093178D02*
X0122528Y0093178D01*
X0124658Y0093178D02*
X0124658Y0090422D01*
X0122528Y0090422D01*
X0122528Y0093178D01*
X0122528Y0092165D02*
X0124658Y0092165D01*
X0117572Y0093178D02*
X0115442Y0093178D01*
X0117572Y0093178D02*
X0117572Y0090422D01*
X0115442Y0090422D01*
X0115442Y0093178D01*
X0115442Y0092165D02*
X0117572Y0092165D01*
D16*
X0189239Y0021800D03*
D17*
X0197113Y0021800D03*
X0204987Y0021800D03*
X0212861Y0021800D03*
D18*
X0244050Y0038800D03*
D19*
X0244050Y0048800D03*
X0244050Y0058800D03*
X0244050Y0068800D03*
X0244050Y0078800D03*
D20*
X0187803Y0097497D02*
X0186097Y0097497D01*
X0186097Y0100103D01*
X0187803Y0100103D01*
X0187803Y0097497D01*
X0187803Y0098891D02*
X0186097Y0098891D01*
X0180203Y0097497D02*
X0178497Y0097497D01*
X0178497Y0100103D01*
X0180203Y0100103D01*
X0180203Y0097497D01*
X0180203Y0098891D02*
X0178497Y0098891D01*
X0182297Y0105497D02*
X0184003Y0105497D01*
X0182297Y0105497D02*
X0182297Y0108103D01*
X0184003Y0108103D01*
X0184003Y0105497D01*
X0184003Y0106891D02*
X0182297Y0106891D01*
D21*
X0158381Y0045359D03*
D22*
X0156964Y0043233D02*
X0156964Y0042367D01*
X0156964Y0043233D02*
X0159798Y0043233D01*
X0159798Y0042367D01*
X0156964Y0042367D01*
X0156964Y0043075D02*
X0159798Y0043075D01*
X0156964Y0040674D02*
X0156964Y0039808D01*
X0156964Y0040674D02*
X0159798Y0040674D01*
X0159798Y0039808D01*
X0156964Y0039808D01*
X0156964Y0040516D02*
X0159798Y0040516D01*
X0148302Y0040674D02*
X0148302Y0039808D01*
X0148302Y0040674D02*
X0151136Y0040674D01*
X0151136Y0039808D01*
X0148302Y0039808D01*
X0148302Y0040516D02*
X0151136Y0040516D01*
X0148302Y0042367D02*
X0148302Y0043233D01*
X0151136Y0043233D01*
X0151136Y0042367D01*
X0148302Y0042367D01*
X0148302Y0043075D02*
X0151136Y0043075D01*
X0148302Y0044926D02*
X0148302Y0045792D01*
X0151136Y0045792D01*
X0151136Y0044926D01*
X0148302Y0044926D01*
X0148302Y0045634D02*
X0151136Y0045634D01*
D23*
X0209286Y0071300D03*
D24*
X0119050Y0014800D03*
D25*
X0119050Y0011800D03*
D26*
X0119050Y0017800D03*
X0132050Y0017800D03*
X0145050Y0017800D03*
D27*
X0119050Y0020800D02*
X0119050Y0011800D01*
D28*
X0119050Y0020800D03*
D29*
X0132050Y0020300D03*
X0132050Y0015300D03*
D30*
X0124050Y0084800D03*
X0152050Y0089800D03*
D31*
X0152168Y0089918D01*
X0158310Y0089918D01*
X0160593Y0092202D01*
X0160593Y0098800D01*
X0160593Y0106800D01*
X0149050Y0098800D02*
X0147050Y0100800D01*
X0140593Y0100800D01*
X0139550Y0099757D01*
X0139550Y0091036D01*
X0134550Y0091036D02*
X0134550Y0099757D01*
X0133507Y0100800D01*
X0133507Y0107800D01*
X0140593Y0107800D02*
X0145050Y0107800D01*
X0149050Y0098800D02*
X0153507Y0098800D01*
X0144550Y0091036D02*
X0144550Y0083300D01*
X0144050Y0082800D01*
X0142050Y0082800D01*
X0149050Y0080800D02*
X0149050Y0070800D01*
X0144786Y0070800D01*
X0144550Y0070564D01*
X0149050Y0070800D02*
X0152050Y0070800D01*
X0153593Y0069257D01*
X0153593Y0059800D01*
X0163050Y0059800D02*
X0164550Y0061300D01*
X0188814Y0061300D01*
X0188814Y0066300D02*
X0181550Y0066300D01*
X0180050Y0064800D01*
X0166050Y0064800D01*
X0154050Y0076800D01*
X0124050Y0084800D02*
X0123593Y0085257D01*
X0123593Y0091800D01*
X0126050Y0091800D01*
X0126814Y0091036D01*
X0129550Y0091036D01*
X0123593Y0091800D02*
X0123593Y0099713D01*
X0123050Y0100257D01*
X0173050Y0099257D02*
X0173050Y0093800D01*
X0173050Y0099257D02*
X0175593Y0099257D01*
X0176050Y0098800D01*
X0179350Y0098800D01*
X0186950Y0098800D02*
X0186950Y0095900D01*
X0189050Y0093800D01*
X0190050Y0098800D02*
X0186950Y0098800D01*
X0190050Y0098800D02*
X0190507Y0099257D01*
X0193050Y0099257D01*
X0191593Y0087800D02*
X0192593Y0087343D01*
X0186507Y0078800D02*
X0186507Y0071343D01*
X0187050Y0070800D01*
X0188314Y0070800D01*
X0188814Y0071300D01*
X0195550Y0071300D01*
X0196050Y0071800D01*
X0209286Y0071300D02*
X0209286Y0076493D01*
X0213050Y0080257D01*
X0217507Y0080257D01*
X0218050Y0080800D01*
X0224050Y0098800D02*
X0244050Y0078800D01*
X0219507Y0065343D02*
X0218550Y0066300D01*
X0209286Y0066300D01*
X0219507Y0065343D02*
X0223050Y0065343D01*
X0235507Y0065343D01*
X0238050Y0062800D01*
X0238050Y0054800D01*
X0244050Y0048800D01*
X0235050Y0042800D02*
X0235050Y0058800D01*
X0233507Y0060343D01*
X0230050Y0060343D01*
X0224050Y0057257D02*
X0223050Y0058257D01*
X0224050Y0057257D02*
X0224050Y0052800D01*
X0229593Y0052800D01*
X0230050Y0053257D01*
X0224050Y0052800D02*
X0223050Y0052800D01*
X0235050Y0042800D02*
X0239050Y0038800D01*
X0241050Y0038800D01*
X0241050Y0029800D01*
X0220050Y0008800D01*
X0197050Y0008800D01*
X0189239Y0016611D01*
X0189239Y0021800D01*
X0197113Y0021800D02*
X0197113Y0018737D01*
X0203050Y0012800D01*
X0219050Y0012800D01*
X0236050Y0029800D01*
X0236050Y0032800D01*
X0241050Y0038800D02*
X0244050Y0038800D01*
X0167050Y0036343D02*
X0167050Y0041800D01*
X0162790Y0045540D02*
X0166050Y0048800D01*
X0149719Y0040241D02*
X0149719Y0034131D01*
X0150507Y0033343D01*
X0150507Y0029300D01*
X0157593Y0029300D02*
X0157593Y0012343D01*
X0155050Y0009800D01*
X0136050Y0009800D01*
X0132050Y0013800D01*
X0132050Y0020300D01*
X0132050Y0035800D01*
X0120050Y0047800D01*
X0117050Y0047800D01*
X0115050Y0049800D01*
X0114593Y0049800D01*
X0140050Y0035800D02*
X0144491Y0040241D01*
X0149719Y0040241D01*
X0163507Y0036343D02*
X0167050Y0036343D01*
X0167050Y0029257D02*
X0157637Y0029257D01*
X0157593Y0029300D01*
D32*
X0160931Y0027257D02*
X0163400Y0027257D01*
X0163400Y0027250D01*
X0164731Y0025919D01*
X0169369Y0025919D01*
X0170700Y0027250D01*
X0170700Y0031263D01*
X0169369Y0032594D01*
X0164731Y0032594D01*
X0163400Y0031263D01*
X0163400Y0031257D01*
X0160931Y0031257D01*
X0160931Y0031619D01*
X0159600Y0032950D01*
X0156587Y0032950D01*
X0154950Y0034587D01*
X0154950Y0041557D01*
X0154956Y0041535D01*
X0155209Y0041097D01*
X0155209Y0039081D01*
X0156237Y0038054D01*
X0156481Y0038054D01*
X0156481Y0037682D01*
X0159720Y0034443D01*
X0162578Y0034443D01*
X0162678Y0034343D01*
X0163400Y0034343D01*
X0163400Y0034337D01*
X0164731Y0033006D01*
X0169369Y0033006D01*
X0170700Y0034337D01*
X0170700Y0038350D01*
X0169369Y0039681D01*
X0169050Y0039681D01*
X0169050Y0039717D01*
X0169498Y0040164D01*
X0169937Y0041226D01*
X0169937Y0042374D01*
X0169498Y0043436D01*
X0168686Y0044248D01*
X0167624Y0044687D01*
X0166476Y0044687D01*
X0165414Y0044248D01*
X0164602Y0043436D01*
X0164163Y0042374D01*
X0164163Y0041226D01*
X0164602Y0040164D01*
X0165050Y0039717D01*
X0165050Y0039681D01*
X0164731Y0039681D01*
X0163400Y0038350D01*
X0163400Y0038343D01*
X0162678Y0038343D01*
X0162578Y0038243D01*
X0161294Y0038243D01*
X0161004Y0038533D01*
X0161552Y0039081D01*
X0161552Y0041097D01*
X0161806Y0041535D01*
X0161952Y0042083D01*
X0161952Y0042800D01*
X0161952Y0043459D01*
X0163396Y0043459D01*
X0163477Y0043540D01*
X0163619Y0043540D01*
X0165991Y0045913D01*
X0166624Y0045913D01*
X0167686Y0046352D01*
X0168498Y0047164D01*
X0168937Y0048226D01*
X0168937Y0049374D01*
X0168498Y0050436D01*
X0167686Y0051248D01*
X0166624Y0051687D01*
X0165476Y0051687D01*
X0164414Y0051248D01*
X0163602Y0050436D01*
X0163163Y0049374D01*
X0163163Y0048741D01*
X0161681Y0047259D01*
X0161020Y0047259D01*
X0160732Y0047546D01*
X0156029Y0047546D01*
X0155742Y0047259D01*
X0153822Y0047259D01*
X0152891Y0046328D01*
X0152891Y0046519D01*
X0151950Y0047460D01*
X0151950Y0048813D01*
X0152265Y0048750D01*
X0153425Y0048750D01*
X0153425Y0052631D01*
X0153762Y0052631D01*
X0153762Y0048750D01*
X0154922Y0048750D01*
X0155438Y0048853D01*
X0155924Y0049054D01*
X0156362Y0049346D01*
X0156734Y0049719D01*
X0157027Y0050156D01*
X0157228Y0050642D01*
X0157331Y0051159D01*
X0157331Y0052631D01*
X0153762Y0052631D01*
X0153762Y0052969D01*
X0157331Y0052969D01*
X0157331Y0054441D01*
X0157228Y0054958D01*
X0157027Y0055444D01*
X0156734Y0055881D01*
X0156362Y0056254D01*
X0155967Y0056517D01*
X0156931Y0057481D01*
X0156931Y0062119D01*
X0155600Y0063450D01*
X0155593Y0063450D01*
X0155593Y0070085D01*
X0154050Y0071628D01*
X0152878Y0072800D01*
X0151050Y0072800D01*
X0151050Y0078717D01*
X0151498Y0079164D01*
X0151937Y0080226D01*
X0151937Y0081374D01*
X0151498Y0082436D01*
X0150686Y0083248D01*
X0149624Y0083687D01*
X0148476Y0083687D01*
X0147414Y0083248D01*
X0146602Y0082436D01*
X0146163Y0081374D01*
X0146163Y0080226D01*
X0146602Y0079164D01*
X0147050Y0078717D01*
X0147050Y0075413D01*
X0146000Y0076464D01*
X0143950Y0076464D01*
X0143950Y0076587D01*
X0142950Y0077587D01*
X0141837Y0078700D01*
X0132263Y0078700D01*
X0131263Y0077700D01*
X0130150Y0076587D01*
X0130150Y0076464D01*
X0128100Y0076464D01*
X0126969Y0075332D01*
X0126969Y0072081D01*
X0126600Y0072450D01*
X0122587Y0072450D01*
X0121256Y0071119D01*
X0121256Y0066481D01*
X0122056Y0065681D01*
X0120044Y0065681D01*
X0120844Y0066481D01*
X0120844Y0071119D01*
X0119513Y0072450D01*
X0118633Y0072450D01*
X0120604Y0074421D01*
X0121781Y0077262D01*
X0121781Y0080338D01*
X0120604Y0083179D01*
X0118429Y0085354D01*
X0115588Y0086531D01*
X0112512Y0086531D01*
X0109671Y0085354D01*
X0107496Y0083179D01*
X0106319Y0080338D01*
X0106319Y0077262D01*
X0107070Y0075450D01*
X0103587Y0075450D01*
X0102256Y0074119D01*
X0102256Y0069481D01*
X0103587Y0068150D01*
X0103693Y0068150D01*
X0103693Y0067023D01*
X0098137Y0067023D01*
X0097582Y0066468D01*
X0096369Y0067681D01*
X0091731Y0067681D01*
X0091350Y0067300D01*
X0091350Y0111500D01*
X0127023Y0111500D01*
X0126414Y0111248D01*
X0125608Y0110442D01*
X0125369Y0110681D01*
X0120731Y0110681D01*
X0119400Y0109350D01*
X0119400Y0105337D01*
X0120731Y0104006D01*
X0125369Y0104006D01*
X0126263Y0104900D01*
X0126837Y0104900D01*
X0127850Y0105913D01*
X0128624Y0105913D01*
X0129686Y0106352D01*
X0130169Y0106836D01*
X0130169Y0105481D01*
X0131350Y0104300D01*
X0130169Y0103119D01*
X0130169Y0098481D01*
X0131500Y0097150D01*
X0132550Y0097150D01*
X0132550Y0096386D01*
X0132050Y0095886D01*
X0131000Y0096936D01*
X0128100Y0096936D01*
X0126969Y0095805D01*
X0126969Y0093709D01*
X0126931Y0093748D01*
X0126931Y0094119D01*
X0125600Y0095450D01*
X0125593Y0095450D01*
X0125593Y0097143D01*
X0126700Y0098250D01*
X0126700Y0102263D01*
X0125369Y0103594D01*
X0120731Y0103594D01*
X0119400Y0102263D01*
X0119400Y0098250D01*
X0120731Y0096919D01*
X0121593Y0096919D01*
X0121593Y0095450D01*
X0121587Y0095450D01*
X0120256Y0094119D01*
X0120256Y0089481D01*
X0121587Y0088150D01*
X0121593Y0088150D01*
X0121593Y0086445D01*
X0121591Y0086443D01*
X0121150Y0085377D01*
X0121150Y0084223D01*
X0121591Y0083157D01*
X0122407Y0082341D01*
X0123473Y0081900D01*
X0124627Y0081900D01*
X0125693Y0082341D01*
X0126508Y0083157D01*
X0126950Y0084223D01*
X0126950Y0085377D01*
X0126508Y0086443D01*
X0125693Y0087258D01*
X0125593Y0087300D01*
X0125593Y0088150D01*
X0125600Y0088150D01*
X0126486Y0089036D01*
X0126969Y0089036D01*
X0126969Y0086268D01*
X0128100Y0085136D01*
X0131000Y0085136D01*
X0132050Y0086187D01*
X0133100Y0085136D01*
X0136000Y0085136D01*
X0137050Y0086187D01*
X0138100Y0085136D01*
X0140303Y0085136D01*
X0139602Y0084436D01*
X0139163Y0083374D01*
X0139163Y0082226D01*
X0139602Y0081164D01*
X0140414Y0080352D01*
X0141476Y0079913D01*
X0142624Y0079913D01*
X0143686Y0080352D01*
X0144133Y0080800D01*
X0144878Y0080800D01*
X0146550Y0082472D01*
X0146550Y0085687D01*
X0147131Y0086268D01*
X0147131Y0095805D01*
X0146000Y0096936D01*
X0143100Y0096936D01*
X0142050Y0095886D01*
X0141550Y0096386D01*
X0141550Y0097150D01*
X0142600Y0097150D01*
X0143931Y0098481D01*
X0143931Y0098800D01*
X0146222Y0098800D01*
X0147050Y0097972D01*
X0148222Y0096800D01*
X0150169Y0096800D01*
X0150169Y0096481D01*
X0151202Y0095448D01*
X0150624Y0095687D01*
X0149476Y0095687D01*
X0148414Y0095248D01*
X0147602Y0094436D01*
X0147163Y0093374D01*
X0147163Y0092226D01*
X0147602Y0091164D01*
X0148414Y0090352D01*
X0149150Y0090047D01*
X0149150Y0089223D01*
X0149591Y0088157D01*
X0150407Y0087341D01*
X0151473Y0086900D01*
X0152627Y0086900D01*
X0153693Y0087341D01*
X0154269Y0087918D01*
X0159138Y0087918D01*
X0160310Y0089090D01*
X0162593Y0091373D01*
X0162593Y0095150D01*
X0162600Y0095150D01*
X0163931Y0096481D01*
X0163931Y0101119D01*
X0162600Y0102450D01*
X0162593Y0102450D01*
X0162593Y0103150D01*
X0162600Y0103150D01*
X0163931Y0104481D01*
X0163931Y0109119D01*
X0162600Y0110450D01*
X0158587Y0110450D01*
X0157256Y0109119D01*
X0157256Y0104481D01*
X0158587Y0103150D01*
X0158593Y0103150D01*
X0158593Y0102450D01*
X0158587Y0102450D01*
X0157256Y0101119D01*
X0157256Y0096481D01*
X0158587Y0095150D01*
X0158593Y0095150D01*
X0158593Y0093030D01*
X0157481Y0091918D01*
X0154033Y0091918D01*
X0153693Y0092258D01*
X0152986Y0092551D01*
X0152937Y0092600D01*
X0152937Y0093374D01*
X0152498Y0094436D01*
X0151783Y0095150D01*
X0155513Y0095150D01*
X0156844Y0096481D01*
X0156844Y0101119D01*
X0155513Y0102450D01*
X0151500Y0102450D01*
X0150169Y0101119D01*
X0150169Y0100800D01*
X0149878Y0100800D01*
X0147878Y0102800D01*
X0143931Y0102800D01*
X0143931Y0103119D01*
X0142750Y0104300D01*
X0143689Y0105239D01*
X0144476Y0104913D01*
X0145624Y0104913D01*
X0146686Y0105352D01*
X0147498Y0106164D01*
X0147937Y0107226D01*
X0147937Y0108374D01*
X0147498Y0109436D01*
X0146686Y0110248D01*
X0145624Y0110687D01*
X0144476Y0110687D01*
X0143689Y0110361D01*
X0142600Y0111450D01*
X0138587Y0111450D01*
X0137256Y0110119D01*
X0137256Y0105481D01*
X0138437Y0104300D01*
X0137256Y0103119D01*
X0137256Y0098481D01*
X0137550Y0098187D01*
X0137550Y0096386D01*
X0137050Y0095886D01*
X0136550Y0096386D01*
X0136550Y0098187D01*
X0136844Y0098481D01*
X0136844Y0103119D01*
X0135663Y0104300D01*
X0136844Y0105481D01*
X0136844Y0110119D01*
X0135513Y0111450D01*
X0131500Y0111450D01*
X0130492Y0110442D01*
X0129686Y0111248D01*
X0129077Y0111500D01*
X0199050Y0111500D01*
X0199050Y0048800D01*
X0175050Y0048800D01*
X0175050Y0006100D01*
X0091350Y0006100D01*
X0091350Y0054300D01*
X0091731Y0053919D01*
X0096369Y0053919D01*
X0097299Y0054849D01*
X0097461Y0054688D01*
X0097836Y0054437D01*
X0098252Y0054265D01*
X0098694Y0054177D01*
X0100932Y0054177D01*
X0103170Y0054177D01*
X0103612Y0054265D01*
X0104028Y0054437D01*
X0104403Y0054688D01*
X0104721Y0055006D01*
X0104972Y0055381D01*
X0105144Y0055797D01*
X0105232Y0056239D01*
X0105232Y0056931D01*
X0105890Y0056273D01*
X0107003Y0055160D01*
X0107791Y0055160D01*
X0108374Y0054577D01*
X0112693Y0054577D01*
X0112693Y0053450D01*
X0112587Y0053450D01*
X0111256Y0052119D01*
X0111256Y0047481D01*
X0112296Y0046441D01*
X0109671Y0045354D01*
X0107496Y0043179D01*
X0106319Y0040338D01*
X0106319Y0037262D01*
X0107496Y0034421D01*
X0109671Y0032246D01*
X0112512Y0031069D01*
X0115588Y0031069D01*
X0118429Y0032246D01*
X0120604Y0034421D01*
X0121781Y0037262D01*
X0121781Y0040338D01*
X0120604Y0043179D01*
X0118442Y0045341D01*
X0119476Y0044913D01*
X0120109Y0044913D01*
X0130050Y0034972D01*
X0130050Y0023680D01*
X0129750Y0023380D01*
X0129750Y0020100D01*
X0126470Y0020100D01*
X0125650Y0019280D01*
X0125650Y0016320D01*
X0126470Y0015500D01*
X0129750Y0015500D01*
X0129750Y0012220D01*
X0130570Y0011400D01*
X0131622Y0011400D01*
X0135222Y0007800D01*
X0155878Y0007800D01*
X0157050Y0008972D01*
X0159593Y0011515D01*
X0159593Y0025650D01*
X0159600Y0025650D01*
X0160931Y0026981D01*
X0160931Y0027257D01*
X0160129Y0026179D02*
X0164471Y0026179D01*
X0159593Y0024581D02*
X0175050Y0024581D01*
X0175050Y0022982D02*
X0159593Y0022982D01*
X0159593Y0021384D02*
X0175050Y0021384D01*
X0175050Y0019785D02*
X0159593Y0019785D01*
X0159593Y0018187D02*
X0175050Y0018187D01*
X0175050Y0016588D02*
X0159593Y0016588D01*
X0155593Y0016588D02*
X0151450Y0016588D01*
X0151450Y0016320D02*
X0151450Y0019280D01*
X0150630Y0020100D01*
X0146950Y0020100D01*
X0146950Y0020587D01*
X0145837Y0021700D01*
X0141937Y0025600D01*
X0141937Y0026374D01*
X0141498Y0027436D01*
X0140686Y0028248D01*
X0139624Y0028687D01*
X0138476Y0028687D01*
X0137414Y0028248D01*
X0136602Y0027436D01*
X0136163Y0026374D01*
X0136163Y0025226D01*
X0136602Y0024164D01*
X0137414Y0023352D01*
X0138476Y0022913D01*
X0139250Y0022913D01*
X0142063Y0020100D01*
X0139470Y0020100D01*
X0138650Y0019280D01*
X0138650Y0016320D01*
X0139470Y0015500D01*
X0150630Y0015500D01*
X0151450Y0016320D01*
X0151450Y0018187D02*
X0155593Y0018187D01*
X0155593Y0019785D02*
X0150945Y0019785D01*
X0155593Y0021384D02*
X0146153Y0021384D01*
X0145837Y0021700D02*
X0145837Y0021700D01*
X0144555Y0022982D02*
X0155593Y0022982D01*
X0155593Y0024581D02*
X0142956Y0024581D01*
X0141937Y0026179D02*
X0147971Y0026179D01*
X0148500Y0025650D02*
X0147169Y0026981D01*
X0147169Y0031619D01*
X0148286Y0032736D01*
X0147719Y0033302D01*
X0147719Y0038054D01*
X0147575Y0038054D01*
X0147388Y0038241D01*
X0145319Y0038241D01*
X0142937Y0035859D01*
X0142937Y0035226D01*
X0142498Y0034164D01*
X0141686Y0033352D01*
X0140624Y0032913D01*
X0139476Y0032913D01*
X0138414Y0033352D01*
X0137602Y0034164D01*
X0137163Y0035226D01*
X0137163Y0036374D01*
X0137602Y0037436D01*
X0138414Y0038248D01*
X0139476Y0038687D01*
X0140109Y0038687D01*
X0141334Y0039913D01*
X0140476Y0039913D01*
X0139414Y0040352D01*
X0138602Y0041164D01*
X0138163Y0042226D01*
X0138163Y0043374D01*
X0138602Y0044436D01*
X0139414Y0045248D01*
X0140476Y0045687D01*
X0141476Y0045687D01*
X0140165Y0046998D01*
X0139972Y0046619D01*
X0139587Y0046088D01*
X0139124Y0045625D01*
X0138594Y0045240D01*
X0138010Y0044943D01*
X0137387Y0044740D01*
X0136740Y0044638D01*
X0134050Y0044638D01*
X0134050Y0048800D01*
X0134050Y0048800D01*
X0134050Y0048800D01*
X0127526Y0048800D01*
X0127526Y0048472D01*
X0127628Y0047825D01*
X0127831Y0047202D01*
X0128128Y0046619D01*
X0128513Y0046088D01*
X0128976Y0045625D01*
X0129506Y0045240D01*
X0130090Y0044943D01*
X0130713Y0044740D01*
X0131360Y0044638D01*
X0134050Y0044638D01*
X0134050Y0048800D01*
X0127526Y0048800D01*
X0127526Y0049128D01*
X0127628Y0049775D01*
X0127831Y0050398D01*
X0128128Y0050981D01*
X0128513Y0051511D01*
X0128902Y0051900D01*
X0127263Y0051900D01*
X0126150Y0053013D01*
X0125925Y0053238D01*
X0125796Y0052926D01*
X0125504Y0052488D01*
X0125131Y0052116D01*
X0124694Y0051823D01*
X0124208Y0051622D01*
X0123691Y0051519D01*
X0122219Y0051519D01*
X0122219Y0055088D01*
X0121881Y0055088D01*
X0118000Y0055088D01*
X0118000Y0053928D01*
X0118103Y0053412D01*
X0118304Y0052926D01*
X0118596Y0052488D01*
X0118969Y0052116D01*
X0119406Y0051823D01*
X0119892Y0051622D01*
X0120409Y0051519D01*
X0121881Y0051519D01*
X0121881Y0055088D01*
X0121881Y0055425D01*
X0118000Y0055425D01*
X0118000Y0056585D01*
X0118103Y0057102D01*
X0118304Y0057588D01*
X0118596Y0058025D01*
X0118969Y0058398D01*
X0119406Y0058690D01*
X0119892Y0058891D01*
X0120409Y0058994D01*
X0121881Y0058994D01*
X0121881Y0055425D01*
X0122219Y0055425D01*
X0122219Y0058994D01*
X0123691Y0058994D01*
X0124208Y0058891D01*
X0124694Y0058690D01*
X0125131Y0058398D01*
X0125150Y0058379D01*
X0125150Y0059787D01*
X0124369Y0059006D01*
X0119731Y0059006D01*
X0118473Y0060264D01*
X0117950Y0060047D01*
X0117950Y0055013D01*
X0116493Y0053556D01*
X0116493Y0053450D01*
X0116600Y0053450D01*
X0117931Y0052119D01*
X0117931Y0049800D01*
X0117967Y0049800D01*
X0118414Y0050248D01*
X0119476Y0050687D01*
X0120624Y0050687D01*
X0121686Y0050248D01*
X0122498Y0049436D01*
X0122937Y0048374D01*
X0122937Y0047741D01*
X0134050Y0036628D01*
X0134050Y0023680D01*
X0134350Y0023380D01*
X0134350Y0020100D01*
X0137630Y0020100D01*
X0138450Y0019280D01*
X0138450Y0016320D01*
X0137630Y0015500D01*
X0134350Y0015500D01*
X0134350Y0014328D01*
X0136878Y0011800D01*
X0154222Y0011800D01*
X0155593Y0013172D01*
X0155593Y0025650D01*
X0155587Y0025650D01*
X0154256Y0026981D01*
X0154256Y0029907D01*
X0153844Y0030319D01*
X0153844Y0026981D01*
X0152513Y0025650D01*
X0148500Y0025650D01*
X0147169Y0027778D02*
X0141156Y0027778D01*
X0136944Y0027778D02*
X0134050Y0027778D01*
X0134050Y0029376D02*
X0147169Y0029376D01*
X0147169Y0030975D02*
X0134050Y0030975D01*
X0134050Y0032573D02*
X0148123Y0032573D01*
X0147719Y0034172D02*
X0142501Y0034172D01*
X0142937Y0035770D02*
X0147719Y0035770D01*
X0147719Y0037369D02*
X0144447Y0037369D01*
X0140389Y0038967D02*
X0131711Y0038967D01*
X0130113Y0040566D02*
X0139201Y0040566D01*
X0138188Y0042164D02*
X0128514Y0042164D01*
X0124456Y0040566D02*
X0121686Y0040566D01*
X0121781Y0038967D02*
X0126054Y0038967D01*
X0127653Y0037369D02*
X0121781Y0037369D01*
X0121163Y0035770D02*
X0129251Y0035770D01*
X0130050Y0034172D02*
X0120355Y0034172D01*
X0118756Y0032573D02*
X0130050Y0032573D01*
X0130050Y0030975D02*
X0091350Y0030975D01*
X0091350Y0032573D02*
X0109344Y0032573D01*
X0107745Y0034172D02*
X0091350Y0034172D01*
X0091350Y0035770D02*
X0106937Y0035770D01*
X0106319Y0037369D02*
X0091350Y0037369D01*
X0091350Y0038967D02*
X0106319Y0038967D01*
X0106414Y0040566D02*
X0091350Y0040566D01*
X0091350Y0042164D02*
X0107076Y0042164D01*
X0108080Y0043763D02*
X0091350Y0043763D01*
X0091350Y0045361D02*
X0109689Y0045361D01*
X0109352Y0045853D02*
X0109838Y0046054D01*
X0110275Y0046346D01*
X0110648Y0046719D01*
X0110940Y0047156D01*
X0111141Y0047642D01*
X0111244Y0048159D01*
X0111244Y0049631D01*
X0107675Y0049631D01*
X0107675Y0045750D01*
X0108835Y0045750D01*
X0109352Y0045853D01*
X0110809Y0046960D02*
X0111777Y0046960D01*
X0111256Y0048558D02*
X0111244Y0048558D01*
X0111244Y0049969D02*
X0111244Y0051441D01*
X0111141Y0051958D01*
X0110940Y0052444D01*
X0110648Y0052881D01*
X0110275Y0053254D01*
X0109838Y0053546D01*
X0109352Y0053747D01*
X0108835Y0053850D01*
X0107675Y0053850D01*
X0107675Y0049969D01*
X0107338Y0049969D01*
X0107338Y0053850D01*
X0106178Y0053850D01*
X0105662Y0053747D01*
X0105176Y0053546D01*
X0104738Y0053254D01*
X0104366Y0052881D01*
X0104073Y0052444D01*
X0103872Y0051958D01*
X0103769Y0051441D01*
X0103769Y0049969D01*
X0107338Y0049969D01*
X0107338Y0049631D01*
X0107675Y0049631D01*
X0107675Y0049969D01*
X0111244Y0049969D01*
X0111244Y0050157D02*
X0111256Y0050157D01*
X0111256Y0051755D02*
X0111182Y0051755D01*
X0110125Y0053354D02*
X0112491Y0053354D01*
X0116696Y0053354D02*
X0118127Y0053354D01*
X0118000Y0054952D02*
X0117889Y0054952D01*
X0117950Y0056551D02*
X0118000Y0056551D01*
X0117950Y0058149D02*
X0118720Y0058149D01*
X0118989Y0059748D02*
X0117950Y0059748D01*
X0121881Y0058149D02*
X0122219Y0058149D01*
X0122219Y0056551D02*
X0121881Y0056551D01*
X0121881Y0054952D02*
X0122219Y0054952D01*
X0122219Y0053354D02*
X0121881Y0053354D01*
X0121881Y0051755D02*
X0122219Y0051755D01*
X0124529Y0051755D02*
X0128757Y0051755D01*
X0127752Y0050157D02*
X0121777Y0050157D01*
X0122861Y0048558D02*
X0127526Y0048558D01*
X0127954Y0046960D02*
X0123719Y0046960D01*
X0125317Y0045361D02*
X0129340Y0045361D01*
X0126916Y0043763D02*
X0138323Y0043763D01*
X0138760Y0045361D02*
X0139688Y0045361D01*
X0140146Y0046960D02*
X0140203Y0046960D01*
X0134050Y0046960D02*
X0134050Y0046960D01*
X0134050Y0045361D02*
X0134050Y0045361D01*
X0134050Y0048558D02*
X0134050Y0048558D01*
X0121259Y0043763D02*
X0120020Y0043763D01*
X0121024Y0042164D02*
X0122857Y0042164D01*
X0133310Y0037369D02*
X0137574Y0037369D01*
X0137163Y0035770D02*
X0134050Y0035770D01*
X0134050Y0034172D02*
X0137599Y0034172D01*
X0130050Y0029376D02*
X0091350Y0029376D01*
X0091350Y0027778D02*
X0130050Y0027778D01*
X0130050Y0026179D02*
X0091350Y0026179D01*
X0091350Y0024581D02*
X0099253Y0024581D01*
X0099300Y0024600D02*
X0096065Y0023260D01*
X0093590Y0020785D01*
X0092250Y0017550D01*
X0092250Y0014050D01*
X0093590Y0010815D01*
X0096065Y0008340D01*
X0099300Y0007000D01*
X0102800Y0007000D01*
X0106035Y0008340D01*
X0108510Y0010815D01*
X0109850Y0014050D01*
X0109850Y0017550D01*
X0108510Y0020785D01*
X0106035Y0023260D01*
X0102800Y0024600D01*
X0099300Y0024600D01*
X0102847Y0024581D02*
X0130050Y0024581D01*
X0129750Y0022982D02*
X0121181Y0022982D01*
X0120994Y0023169D02*
X0120495Y0023503D01*
X0119940Y0023733D01*
X0119350Y0023850D01*
X0119050Y0023850D01*
X0119050Y0022600D01*
X0119050Y0022600D01*
X0119050Y0023850D01*
X0118750Y0023850D01*
X0118160Y0023733D01*
X0117605Y0023503D01*
X0117106Y0023169D01*
X0116681Y0022744D01*
X0116347Y0022245D01*
X0116117Y0021690D01*
X0116000Y0021100D01*
X0116000Y0020800D01*
X0117250Y0020800D01*
X0117250Y0020800D01*
X0116000Y0020800D01*
X0116000Y0020500D01*
X0116079Y0020100D01*
X0113470Y0020100D01*
X0112650Y0019280D01*
X0112650Y0016320D01*
X0113470Y0015500D01*
X0115150Y0015500D01*
X0115150Y0013320D01*
X0115970Y0012500D01*
X0116400Y0012500D01*
X0116400Y0010320D01*
X0117220Y0009500D01*
X0120880Y0009500D01*
X0121700Y0010320D01*
X0121700Y0012500D01*
X0122130Y0012500D01*
X0122950Y0013320D01*
X0122950Y0015500D01*
X0124630Y0015500D01*
X0125450Y0016320D01*
X0125450Y0019280D01*
X0124630Y0020100D01*
X0122020Y0020100D01*
X0122100Y0020500D01*
X0122100Y0020800D01*
X0122100Y0021100D01*
X0121983Y0021690D01*
X0121753Y0022245D01*
X0121419Y0022744D01*
X0120994Y0023169D01*
X0119050Y0022982D02*
X0119050Y0022982D01*
X0116919Y0022982D02*
X0106313Y0022982D01*
X0107911Y0021384D02*
X0116056Y0021384D01*
X0120850Y0020800D02*
X0122100Y0020800D01*
X0120850Y0020800D01*
X0120850Y0020800D01*
X0122044Y0021384D02*
X0129750Y0021384D01*
X0126155Y0019785D02*
X0124945Y0019785D01*
X0125450Y0018187D02*
X0125650Y0018187D01*
X0125650Y0016588D02*
X0125450Y0016588D01*
X0122950Y0014990D02*
X0129750Y0014990D01*
X0129750Y0013391D02*
X0122950Y0013391D01*
X0121700Y0011793D02*
X0130178Y0011793D01*
X0132828Y0010194D02*
X0121574Y0010194D01*
X0116526Y0010194D02*
X0107889Y0010194D01*
X0106291Y0008596D02*
X0134426Y0008596D01*
X0135287Y0013391D02*
X0155593Y0013391D01*
X0155593Y0014990D02*
X0134350Y0014990D01*
X0138450Y0016588D02*
X0138650Y0016588D01*
X0138650Y0018187D02*
X0138450Y0018187D01*
X0137945Y0019785D02*
X0139155Y0019785D01*
X0140779Y0021384D02*
X0134350Y0021384D01*
X0134350Y0022982D02*
X0138308Y0022982D01*
X0136430Y0024581D02*
X0134050Y0024581D01*
X0134050Y0026179D02*
X0136163Y0026179D01*
X0153042Y0026179D02*
X0155058Y0026179D01*
X0154256Y0027778D02*
X0153844Y0027778D01*
X0153844Y0029376D02*
X0154256Y0029376D01*
X0159977Y0032573D02*
X0164710Y0032573D01*
X0163565Y0034172D02*
X0155365Y0034172D01*
X0154950Y0035770D02*
X0158393Y0035770D01*
X0156794Y0037369D02*
X0154950Y0037369D01*
X0154950Y0038967D02*
X0155323Y0038967D01*
X0155209Y0040566D02*
X0154950Y0040566D01*
X0158381Y0042800D02*
X0158381Y0042800D01*
X0161952Y0042800D01*
X0158381Y0042800D01*
X0161952Y0042164D02*
X0164163Y0042164D01*
X0164436Y0040566D02*
X0161552Y0040566D01*
X0161438Y0038967D02*
X0164017Y0038967D01*
X0169664Y0040566D02*
X0175050Y0040566D01*
X0175050Y0042164D02*
X0169937Y0042164D01*
X0169171Y0043763D02*
X0175050Y0043763D01*
X0175050Y0045361D02*
X0165440Y0045361D01*
X0164929Y0043763D02*
X0163841Y0043763D01*
X0168293Y0046960D02*
X0175050Y0046960D01*
X0175050Y0048558D02*
X0168937Y0048558D01*
X0168613Y0050157D02*
X0199050Y0050157D01*
X0199050Y0051755D02*
X0157331Y0051755D01*
X0157331Y0053354D02*
X0184440Y0053354D01*
X0184616Y0053319D02*
X0188814Y0053319D01*
X0193012Y0053319D01*
X0193462Y0053408D01*
X0193887Y0053584D01*
X0194269Y0053839D01*
X0194593Y0054164D01*
X0194848Y0054546D01*
X0195024Y0054970D01*
X0195114Y0055421D01*
X0195114Y0056300D01*
X0195114Y0057179D01*
X0195024Y0057630D01*
X0194848Y0058054D01*
X0194593Y0058436D01*
X0194269Y0058761D01*
X0193887Y0059016D01*
X0193881Y0059018D01*
X0194714Y0059850D01*
X0194714Y0062750D01*
X0193663Y0063800D01*
X0194714Y0064850D01*
X0194714Y0067750D01*
X0193663Y0068800D01*
X0194163Y0069300D01*
X0194540Y0069300D01*
X0195476Y0068913D01*
X0196624Y0068913D01*
X0197686Y0069352D01*
X0198498Y0070164D01*
X0198937Y0071226D01*
X0198937Y0072374D01*
X0198498Y0073436D01*
X0197686Y0074248D01*
X0196624Y0074687D01*
X0195476Y0074687D01*
X0194414Y0074248D01*
X0193815Y0073648D01*
X0193582Y0073881D01*
X0188507Y0073881D01*
X0188507Y0075150D01*
X0188513Y0075150D01*
X0189844Y0076481D01*
X0189844Y0081119D01*
X0188513Y0082450D01*
X0184500Y0082450D01*
X0183169Y0081119D01*
X0183169Y0076481D01*
X0184500Y0075150D01*
X0184507Y0075150D01*
X0184507Y0073881D01*
X0184045Y0073881D01*
X0182914Y0072750D01*
X0182914Y0069850D01*
X0183964Y0068800D01*
X0183464Y0068300D01*
X0180722Y0068300D01*
X0179222Y0066800D01*
X0166878Y0066800D01*
X0156937Y0076741D01*
X0156937Y0077374D01*
X0156498Y0078436D01*
X0155686Y0079248D01*
X0154624Y0079687D01*
X0153476Y0079687D01*
X0152414Y0079248D01*
X0151602Y0078436D01*
X0151163Y0077374D01*
X0151163Y0076226D01*
X0151602Y0075164D01*
X0152414Y0074352D01*
X0153476Y0073913D01*
X0154109Y0073913D01*
X0164722Y0063300D01*
X0163722Y0063300D01*
X0163109Y0062687D01*
X0162476Y0062687D01*
X0161414Y0062248D01*
X0160602Y0061436D01*
X0160163Y0060374D01*
X0160163Y0059226D01*
X0160602Y0058164D01*
X0161414Y0057352D01*
X0162476Y0056913D01*
X0163624Y0056913D01*
X0164686Y0057352D01*
X0165498Y0058164D01*
X0165937Y0059226D01*
X0165937Y0059300D01*
X0183464Y0059300D01*
X0183746Y0059018D01*
X0183741Y0059016D01*
X0183359Y0058761D01*
X0183034Y0058436D01*
X0182779Y0058054D01*
X0182603Y0057630D01*
X0182514Y0057179D01*
X0182514Y0056300D01*
X0182514Y0055421D01*
X0182603Y0054970D01*
X0182779Y0054546D01*
X0183034Y0054164D01*
X0183359Y0053839D01*
X0183741Y0053584D01*
X0184165Y0053408D01*
X0184616Y0053319D01*
X0182611Y0054952D02*
X0157229Y0054952D01*
X0156001Y0056551D02*
X0182514Y0056551D01*
X0182514Y0056300D02*
X0188814Y0056300D01*
X0195114Y0056300D01*
X0188814Y0056300D01*
X0188814Y0056300D01*
X0188814Y0053319D01*
X0188814Y0056300D01*
X0188814Y0056300D01*
X0182514Y0056300D01*
X0182843Y0058149D02*
X0165483Y0058149D01*
X0160617Y0058149D02*
X0156931Y0058149D01*
X0156931Y0059748D02*
X0160163Y0059748D01*
X0160565Y0061346D02*
X0156931Y0061346D01*
X0156105Y0062945D02*
X0163366Y0062945D01*
X0163478Y0064543D02*
X0155593Y0064543D01*
X0155593Y0066142D02*
X0161880Y0066142D01*
X0160281Y0067740D02*
X0155593Y0067740D01*
X0155593Y0069339D02*
X0158683Y0069339D01*
X0157084Y0070937D02*
X0154741Y0070937D01*
X0155486Y0072536D02*
X0153142Y0072536D01*
X0152940Y0074134D02*
X0151050Y0074134D01*
X0151050Y0075733D02*
X0151367Y0075733D01*
X0151163Y0077332D02*
X0151050Y0077332D01*
X0147050Y0077332D02*
X0143205Y0077332D01*
X0146730Y0075733D02*
X0147050Y0075733D01*
X0146837Y0078930D02*
X0121781Y0078930D01*
X0121702Y0080529D02*
X0140238Y0080529D01*
X0139203Y0082127D02*
X0125175Y0082127D01*
X0122925Y0082127D02*
X0121040Y0082127D01*
X0121356Y0083726D02*
X0120057Y0083726D01*
X0121150Y0085324D02*
X0118459Y0085324D01*
X0117835Y0087750D02*
X0118352Y0087853D01*
X0118838Y0088054D01*
X0119275Y0088346D01*
X0119648Y0088719D01*
X0119940Y0089156D01*
X0120141Y0089642D01*
X0120244Y0090159D01*
X0120244Y0091631D01*
X0116675Y0091631D01*
X0116675Y0087750D01*
X0117835Y0087750D01*
X0116675Y0088521D02*
X0116338Y0088521D01*
X0116338Y0087750D02*
X0115178Y0087750D01*
X0114662Y0087853D01*
X0114176Y0088054D01*
X0113738Y0088346D01*
X0113366Y0088719D01*
X0113073Y0089156D01*
X0112872Y0089642D01*
X0112769Y0090159D01*
X0112769Y0091631D01*
X0116338Y0091631D01*
X0116675Y0091631D01*
X0116675Y0091969D01*
X0116338Y0091969D01*
X0116338Y0095850D01*
X0115178Y0095850D01*
X0114662Y0095747D01*
X0114176Y0095546D01*
X0113738Y0095254D01*
X0113366Y0094881D01*
X0113073Y0094444D01*
X0112872Y0093958D01*
X0112769Y0093441D01*
X0112769Y0091969D01*
X0116338Y0091969D01*
X0116338Y0091631D01*
X0116338Y0087750D01*
X0113563Y0088521D02*
X0091350Y0088521D01*
X0091350Y0090120D02*
X0112777Y0090120D01*
X0116338Y0090120D02*
X0116675Y0090120D01*
X0116675Y0091718D02*
X0120256Y0091718D01*
X0120244Y0091969D02*
X0116675Y0091969D01*
X0116675Y0095850D01*
X0117835Y0095850D01*
X0118352Y0095747D01*
X0118838Y0095546D01*
X0119275Y0095254D01*
X0119648Y0094881D01*
X0119940Y0094444D01*
X0120141Y0093958D01*
X0120244Y0093441D01*
X0120244Y0091969D01*
X0120244Y0093317D02*
X0120256Y0093317D01*
X0119614Y0094915D02*
X0121052Y0094915D01*
X0116675Y0094915D02*
X0116338Y0094915D01*
X0116338Y0093317D02*
X0116675Y0093317D01*
X0116338Y0091718D02*
X0091350Y0091718D01*
X0091350Y0093317D02*
X0098535Y0093317D01*
X0099300Y0093000D02*
X0102800Y0093000D01*
X0106035Y0094340D01*
X0108510Y0096815D01*
X0109850Y0100050D01*
X0109850Y0103550D01*
X0108510Y0106785D01*
X0106035Y0109260D01*
X0102800Y0110600D01*
X0099300Y0110600D01*
X0096065Y0109260D01*
X0093590Y0106785D01*
X0092250Y0103550D01*
X0092250Y0100050D01*
X0093590Y0096815D01*
X0096065Y0094340D01*
X0099300Y0093000D01*
X0095490Y0094915D02*
X0091350Y0094915D01*
X0091350Y0096514D02*
X0093891Y0096514D01*
X0093052Y0098112D02*
X0091350Y0098112D01*
X0091350Y0099711D02*
X0092390Y0099711D01*
X0092250Y0101309D02*
X0091350Y0101309D01*
X0091350Y0102908D02*
X0092250Y0102908D01*
X0092646Y0104506D02*
X0091350Y0104506D01*
X0091350Y0106105D02*
X0093308Y0106105D01*
X0094508Y0107703D02*
X0091350Y0107703D01*
X0091350Y0109302D02*
X0096165Y0109302D01*
X0091350Y0110900D02*
X0126067Y0110900D01*
X0130033Y0110900D02*
X0130950Y0110900D01*
X0136063Y0110900D02*
X0138037Y0110900D01*
X0137256Y0109302D02*
X0136844Y0109302D01*
X0136844Y0107703D02*
X0137256Y0107703D01*
X0137256Y0106105D02*
X0136844Y0106105D01*
X0135870Y0104506D02*
X0138230Y0104506D01*
X0137256Y0102908D02*
X0136844Y0102908D01*
X0136844Y0101309D02*
X0137256Y0101309D01*
X0137256Y0099711D02*
X0136844Y0099711D01*
X0136550Y0098112D02*
X0137550Y0098112D01*
X0137550Y0096514D02*
X0136550Y0096514D01*
X0132550Y0096514D02*
X0131422Y0096514D01*
X0130538Y0098112D02*
X0126562Y0098112D01*
X0126700Y0099711D02*
X0130169Y0099711D01*
X0130169Y0101309D02*
X0126700Y0101309D01*
X0126056Y0102908D02*
X0130169Y0102908D01*
X0131144Y0104506D02*
X0125869Y0104506D01*
X0129088Y0106105D02*
X0130169Y0106105D01*
X0120230Y0104506D02*
X0109454Y0104506D01*
X0109850Y0102908D02*
X0120044Y0102908D01*
X0119400Y0101309D02*
X0109850Y0101309D01*
X0109710Y0099711D02*
X0119400Y0099711D01*
X0119538Y0098112D02*
X0109047Y0098112D01*
X0108209Y0096514D02*
X0121593Y0096514D01*
X0125593Y0096514D02*
X0127678Y0096514D01*
X0126969Y0094915D02*
X0126135Y0094915D01*
X0120256Y0090120D02*
X0120236Y0090120D01*
X0119450Y0088521D02*
X0121216Y0088521D01*
X0125971Y0088521D02*
X0126969Y0088521D01*
X0126969Y0086923D02*
X0126029Y0086923D01*
X0126950Y0085324D02*
X0127912Y0085324D01*
X0126744Y0083726D02*
X0139308Y0083726D01*
X0137912Y0085324D02*
X0136188Y0085324D01*
X0132912Y0085324D02*
X0131188Y0085324D01*
X0121593Y0086923D02*
X0091350Y0086923D01*
X0091350Y0085324D02*
X0109641Y0085324D01*
X0108043Y0083726D02*
X0091350Y0083726D01*
X0091350Y0082127D02*
X0107060Y0082127D01*
X0106398Y0080529D02*
X0091350Y0080529D01*
X0091350Y0078930D02*
X0106319Y0078930D01*
X0106319Y0077332D02*
X0091350Y0077332D01*
X0091350Y0075733D02*
X0096627Y0075733D01*
X0096662Y0075747D02*
X0096176Y0075546D01*
X0095738Y0075254D01*
X0095366Y0074881D01*
X0095073Y0074444D01*
X0094872Y0073958D01*
X0094769Y0073441D01*
X0094769Y0071969D01*
X0098338Y0071969D01*
X0098338Y0075850D01*
X0097178Y0075850D01*
X0096662Y0075747D01*
X0098338Y0075733D02*
X0098675Y0075733D01*
X0098675Y0075850D02*
X0099835Y0075850D01*
X0100352Y0075747D01*
X0100838Y0075546D01*
X0101275Y0075254D01*
X0101648Y0074881D01*
X0101940Y0074444D01*
X0102141Y0073958D01*
X0102244Y0073441D01*
X0102244Y0071969D01*
X0098675Y0071969D01*
X0098338Y0071969D01*
X0098338Y0071631D01*
X0098675Y0071631D01*
X0098675Y0067750D01*
X0099835Y0067750D01*
X0100352Y0067853D01*
X0100838Y0068054D01*
X0101275Y0068346D01*
X0101648Y0068719D01*
X0101940Y0069156D01*
X0102141Y0069642D01*
X0102244Y0070159D01*
X0102244Y0071631D01*
X0098675Y0071631D01*
X0098675Y0071969D01*
X0098675Y0075850D01*
X0100386Y0075733D02*
X0106953Y0075733D01*
X0102271Y0074134D02*
X0102068Y0074134D01*
X0098675Y0074134D02*
X0098338Y0074134D01*
X0098338Y0072536D02*
X0098675Y0072536D01*
X0098338Y0071631D02*
X0094769Y0071631D01*
X0094769Y0070159D01*
X0094872Y0069642D01*
X0095073Y0069156D01*
X0095366Y0068719D01*
X0095738Y0068346D01*
X0096176Y0068054D01*
X0096662Y0067853D01*
X0097178Y0067750D01*
X0098338Y0067750D01*
X0098338Y0071631D01*
X0098338Y0070937D02*
X0098675Y0070937D01*
X0102244Y0070937D02*
X0102256Y0070937D01*
X0102244Y0072536D02*
X0102256Y0072536D01*
X0102398Y0069339D02*
X0102016Y0069339D01*
X0103693Y0067740D02*
X0091350Y0067740D01*
X0091350Y0069339D02*
X0094998Y0069339D01*
X0094769Y0070937D02*
X0091350Y0070937D01*
X0091350Y0072536D02*
X0094769Y0072536D01*
X0094945Y0074134D02*
X0091350Y0074134D01*
X0098338Y0069339D02*
X0098675Y0069339D01*
X0118719Y0072536D02*
X0126969Y0072536D01*
X0126969Y0074134D02*
X0120317Y0074134D01*
X0121147Y0075733D02*
X0127370Y0075733D01*
X0130895Y0077332D02*
X0121781Y0077332D01*
X0121256Y0070937D02*
X0120844Y0070937D01*
X0120844Y0069339D02*
X0121256Y0069339D01*
X0121256Y0067740D02*
X0120844Y0067740D01*
X0120505Y0066142D02*
X0121595Y0066142D01*
X0125111Y0059748D02*
X0125150Y0059748D01*
X0119570Y0051755D02*
X0117931Y0051755D01*
X0117931Y0050157D02*
X0118323Y0050157D01*
X0107675Y0050157D02*
X0107338Y0050157D01*
X0107338Y0049631D02*
X0103769Y0049631D01*
X0103769Y0048159D01*
X0103872Y0047642D01*
X0104073Y0047156D01*
X0104366Y0046719D01*
X0104738Y0046346D01*
X0105176Y0046054D01*
X0105662Y0045853D01*
X0106178Y0045750D01*
X0107338Y0045750D01*
X0107338Y0049631D01*
X0107338Y0048558D02*
X0107675Y0048558D01*
X0103769Y0048558D02*
X0091350Y0048558D01*
X0091350Y0050157D02*
X0103769Y0050157D01*
X0103832Y0051755D02*
X0091350Y0051755D01*
X0091350Y0053354D02*
X0104888Y0053354D01*
X0104667Y0054952D02*
X0107998Y0054952D01*
X0107675Y0053354D02*
X0107338Y0053354D01*
X0107338Y0051755D02*
X0107675Y0051755D01*
X0100932Y0054177D02*
X0100932Y0057060D01*
X0100932Y0057060D01*
X0100932Y0054177D01*
X0100932Y0054952D02*
X0100932Y0054952D01*
X0100932Y0056551D02*
X0100932Y0056551D01*
X0105232Y0056551D02*
X0105612Y0056551D01*
X0104205Y0046960D02*
X0091350Y0046960D01*
X0107338Y0046960D02*
X0107675Y0046960D01*
X0151950Y0048558D02*
X0162980Y0048558D01*
X0163487Y0050157D02*
X0157027Y0050157D01*
X0153762Y0050157D02*
X0153425Y0050157D01*
X0153425Y0051755D02*
X0153762Y0051755D01*
X0153523Y0046960D02*
X0152450Y0046960D01*
X0170083Y0038967D02*
X0175050Y0038967D01*
X0175050Y0037369D02*
X0170700Y0037369D01*
X0170700Y0035770D02*
X0175050Y0035770D01*
X0175050Y0034172D02*
X0170535Y0034172D01*
X0169390Y0032573D02*
X0175050Y0032573D01*
X0175050Y0030975D02*
X0170700Y0030975D01*
X0170700Y0029376D02*
X0175050Y0029376D01*
X0175050Y0027778D02*
X0170700Y0027778D01*
X0169629Y0026179D02*
X0175050Y0026179D01*
X0181050Y0026179D02*
X0229601Y0026179D01*
X0231199Y0027778D02*
X0181050Y0027778D01*
X0181050Y0029376D02*
X0232798Y0029376D01*
X0234050Y0030628D02*
X0218222Y0014800D01*
X0203878Y0014800D01*
X0199753Y0018925D01*
X0200419Y0019591D01*
X0201013Y0021024D01*
X0201013Y0022576D01*
X0200419Y0024009D01*
X0199322Y0025106D01*
X0197889Y0025700D01*
X0196337Y0025700D01*
X0194904Y0025106D01*
X0193807Y0024009D01*
X0193213Y0022576D01*
X0193213Y0021024D01*
X0193807Y0019591D01*
X0194904Y0018494D01*
X0195113Y0018407D01*
X0195113Y0017909D01*
X0201050Y0011972D01*
X0202222Y0010800D01*
X0219222Y0010800D01*
X0219222Y0010800D01*
X0197878Y0010800D01*
X0191239Y0017439D01*
X0191239Y0017900D01*
X0192319Y0017900D01*
X0193139Y0018720D01*
X0193139Y0024880D01*
X0192319Y0025700D01*
X0186159Y0025700D01*
X0185339Y0024880D01*
X0185339Y0018720D01*
X0186159Y0017900D01*
X0187239Y0017900D01*
X0187239Y0015783D01*
X0195050Y0007972D01*
X0196222Y0006800D01*
X0220878Y0006800D01*
X0222050Y0007972D01*
X0234396Y0020318D01*
X0233250Y0017550D01*
X0233250Y0014050D01*
X0234590Y0010815D01*
X0237065Y0008340D01*
X0240300Y0007000D01*
X0243800Y0007000D01*
X0247035Y0008340D01*
X0249510Y0010815D01*
X0250850Y0014050D01*
X0250850Y0017550D01*
X0249510Y0020785D01*
X0247035Y0023260D01*
X0243800Y0024600D01*
X0240300Y0024600D01*
X0237532Y0023454D01*
X0241878Y0027800D01*
X0241878Y0027800D01*
X0243050Y0028972D01*
X0243050Y0033700D01*
X0248330Y0033700D01*
X0249150Y0034520D01*
X0249150Y0043080D01*
X0248330Y0043900D01*
X0245547Y0043900D01*
X0246939Y0044476D01*
X0248374Y0045911D01*
X0249150Y0047786D01*
X0249150Y0049814D01*
X0248374Y0051689D01*
X0246939Y0053124D01*
X0245306Y0053800D01*
X0246939Y0054476D01*
X0248374Y0055911D01*
X0249150Y0057786D01*
X0249150Y0059814D01*
X0248374Y0061689D01*
X0246939Y0063124D01*
X0245813Y0063590D01*
X0246161Y0063703D01*
X0246933Y0064096D01*
X0247633Y0064605D01*
X0248245Y0065217D01*
X0248754Y0065917D01*
X0249147Y0066689D01*
X0249415Y0067512D01*
X0249550Y0068367D01*
X0249550Y0068600D01*
X0244250Y0068600D01*
X0244250Y0069000D01*
X0249550Y0069000D01*
X0249550Y0069233D01*
X0249415Y0070088D01*
X0249147Y0070911D01*
X0248754Y0071683D01*
X0248245Y0072383D01*
X0247633Y0072995D01*
X0246933Y0073504D01*
X0246161Y0073897D01*
X0245813Y0074010D01*
X0246939Y0074476D01*
X0248374Y0075911D01*
X0249150Y0077786D01*
X0249150Y0079814D01*
X0248374Y0081689D01*
X0246939Y0083124D01*
X0245064Y0083900D01*
X0243036Y0083900D01*
X0242147Y0083532D01*
X0226937Y0098741D01*
X0226937Y0099374D01*
X0226498Y0100436D01*
X0225686Y0101248D01*
X0224624Y0101687D01*
X0223476Y0101687D01*
X0222414Y0101248D01*
X0221602Y0100436D01*
X0221163Y0099374D01*
X0221163Y0098226D01*
X0221602Y0097164D01*
X0222414Y0096352D01*
X0223476Y0095913D01*
X0224109Y0095913D01*
X0239318Y0080703D01*
X0238950Y0079814D01*
X0238950Y0077786D01*
X0239726Y0075911D01*
X0241161Y0074476D01*
X0242287Y0074010D01*
X0241939Y0073897D01*
X0241167Y0073504D01*
X0240467Y0072995D01*
X0239855Y0072383D01*
X0239346Y0071683D01*
X0238953Y0070911D01*
X0238685Y0070088D01*
X0238550Y0069233D01*
X0238550Y0069000D01*
X0243850Y0069000D01*
X0243850Y0068600D01*
X0238550Y0068600D01*
X0238550Y0068367D01*
X0238685Y0067512D01*
X0238953Y0066689D01*
X0239346Y0065917D01*
X0239855Y0065217D01*
X0240467Y0064605D01*
X0241167Y0064096D01*
X0241939Y0063703D01*
X0242287Y0063590D01*
X0241161Y0063124D01*
X0240050Y0062012D01*
X0240050Y0063628D01*
X0237507Y0066172D01*
X0236335Y0067343D01*
X0226700Y0067343D01*
X0226700Y0067350D01*
X0225369Y0068681D01*
X0220731Y0068681D01*
X0219864Y0067814D01*
X0219378Y0068300D01*
X0214636Y0068300D01*
X0214217Y0068719D01*
X0214366Y0068719D01*
X0215186Y0069539D01*
X0215186Y0073061D01*
X0214366Y0073881D01*
X0211286Y0073881D01*
X0211286Y0075664D01*
X0212541Y0076919D01*
X0215369Y0076919D01*
X0216689Y0078239D01*
X0217476Y0077913D01*
X0218624Y0077913D01*
X0219686Y0078352D01*
X0220498Y0079164D01*
X0220937Y0080226D01*
X0220937Y0081374D01*
X0220498Y0082436D01*
X0219686Y0083248D01*
X0218624Y0083687D01*
X0217476Y0083687D01*
X0216414Y0083248D01*
X0216065Y0082898D01*
X0215369Y0083594D01*
X0210731Y0083594D01*
X0209400Y0082263D01*
X0209400Y0079435D01*
X0207286Y0077321D01*
X0207286Y0073881D01*
X0205050Y0073881D01*
X0205050Y0111500D01*
X0251750Y0111500D01*
X0251750Y0006100D01*
X0181050Y0006100D01*
X0181050Y0042800D01*
X0205050Y0042800D01*
X0205050Y0053326D01*
X0205088Y0053319D01*
X0209286Y0053319D01*
X0209286Y0056300D01*
X0209286Y0056300D01*
X0209286Y0053319D01*
X0213484Y0053319D01*
X0213935Y0053408D01*
X0214359Y0053584D01*
X0214741Y0053839D01*
X0215066Y0054164D01*
X0215321Y0054546D01*
X0215497Y0054970D01*
X0215586Y0055421D01*
X0215586Y0056300D01*
X0215586Y0057179D01*
X0215497Y0057630D01*
X0215321Y0058054D01*
X0215066Y0058436D01*
X0214741Y0058761D01*
X0214359Y0059016D01*
X0214354Y0059018D01*
X0214736Y0059400D01*
X0217337Y0059400D01*
X0217837Y0059900D01*
X0219400Y0059900D01*
X0219400Y0056250D01*
X0220731Y0054919D01*
X0221086Y0054919D01*
X0220602Y0054436D01*
X0220163Y0053374D01*
X0220163Y0052226D01*
X0220602Y0051164D01*
X0221414Y0050352D01*
X0222476Y0049913D01*
X0223624Y0049913D01*
X0224686Y0050352D01*
X0225133Y0050800D01*
X0226850Y0050800D01*
X0227731Y0049919D01*
X0232369Y0049919D01*
X0233050Y0050600D01*
X0233050Y0041972D01*
X0234222Y0040800D01*
X0238222Y0036800D01*
X0238950Y0036800D01*
X0238950Y0034520D01*
X0239050Y0034420D01*
X0239050Y0030628D01*
X0238050Y0029628D01*
X0238050Y0030717D01*
X0238498Y0031164D01*
X0238937Y0032226D01*
X0238937Y0033374D01*
X0238498Y0034436D01*
X0237686Y0035248D01*
X0236624Y0035687D01*
X0235476Y0035687D01*
X0234414Y0035248D01*
X0233602Y0034436D01*
X0233163Y0033374D01*
X0233163Y0032226D01*
X0233602Y0031164D01*
X0234050Y0030717D01*
X0234050Y0030628D01*
X0233792Y0030975D02*
X0181050Y0030975D01*
X0181050Y0032573D02*
X0233163Y0032573D01*
X0233493Y0034172D02*
X0181050Y0034172D01*
X0181050Y0035770D02*
X0238950Y0035770D01*
X0239050Y0034172D02*
X0238607Y0034172D01*
X0238937Y0032573D02*
X0239050Y0032573D01*
X0239050Y0030975D02*
X0238308Y0030975D01*
X0243050Y0030975D02*
X0251750Y0030975D01*
X0251750Y0032573D02*
X0243050Y0032573D01*
X0248802Y0034172D02*
X0251750Y0034172D01*
X0251750Y0035770D02*
X0249150Y0035770D01*
X0249150Y0037369D02*
X0251750Y0037369D01*
X0251750Y0038967D02*
X0249150Y0038967D01*
X0249150Y0040566D02*
X0251750Y0040566D01*
X0251750Y0042164D02*
X0249150Y0042164D01*
X0248467Y0043763D02*
X0251750Y0043763D01*
X0251750Y0045361D02*
X0247824Y0045361D01*
X0248808Y0046960D02*
X0251750Y0046960D01*
X0251750Y0048558D02*
X0249150Y0048558D01*
X0249008Y0050157D02*
X0251750Y0050157D01*
X0251750Y0051755D02*
X0248307Y0051755D01*
X0246383Y0053354D02*
X0251750Y0053354D01*
X0251750Y0054952D02*
X0247415Y0054952D01*
X0248639Y0056551D02*
X0251750Y0056551D01*
X0251750Y0058149D02*
X0249150Y0058149D01*
X0249150Y0059748D02*
X0251750Y0059748D01*
X0251750Y0061346D02*
X0248515Y0061346D01*
X0247118Y0062945D02*
X0251750Y0062945D01*
X0251750Y0064543D02*
X0247548Y0064543D01*
X0248868Y0066142D02*
X0251750Y0066142D01*
X0251750Y0067740D02*
X0249451Y0067740D01*
X0249533Y0069339D02*
X0251750Y0069339D01*
X0251750Y0070937D02*
X0249134Y0070937D01*
X0248092Y0072536D02*
X0251750Y0072536D01*
X0251750Y0074134D02*
X0246113Y0074134D01*
X0248195Y0075733D02*
X0251750Y0075733D01*
X0251750Y0077332D02*
X0248962Y0077332D01*
X0249150Y0078930D02*
X0251750Y0078930D01*
X0251750Y0080529D02*
X0248854Y0080529D01*
X0247935Y0082127D02*
X0251750Y0082127D01*
X0251750Y0083726D02*
X0245486Y0083726D01*
X0242614Y0083726D02*
X0241953Y0083726D01*
X0240354Y0085324D02*
X0251750Y0085324D01*
X0251750Y0086923D02*
X0238756Y0086923D01*
X0234697Y0085324D02*
X0216925Y0085324D01*
X0216997Y0085498D02*
X0217100Y0086015D01*
X0217100Y0087175D01*
X0213219Y0087175D01*
X0213219Y0087512D01*
X0217100Y0087512D01*
X0217100Y0088672D01*
X0216997Y0089188D01*
X0216796Y0089674D01*
X0216504Y0090112D01*
X0216131Y0090484D01*
X0215694Y0090777D01*
X0215208Y0090978D01*
X0214691Y0091081D01*
X0213219Y0091081D01*
X0213219Y0087512D01*
X0212881Y0087512D01*
X0212881Y0087175D01*
X0209000Y0087175D01*
X0209000Y0086015D01*
X0209103Y0085498D01*
X0209304Y0085012D01*
X0209596Y0084575D01*
X0209969Y0084202D01*
X0210406Y0083910D01*
X0210892Y0083709D01*
X0211409Y0083606D01*
X0212881Y0083606D01*
X0212881Y0087175D01*
X0213219Y0087175D01*
X0213219Y0083606D01*
X0214691Y0083606D01*
X0215208Y0083709D01*
X0215694Y0083910D01*
X0216131Y0084202D01*
X0216504Y0084575D01*
X0216796Y0085012D01*
X0216997Y0085498D01*
X0217100Y0086923D02*
X0233099Y0086923D01*
X0231500Y0088521D02*
X0217100Y0088521D01*
X0216496Y0090120D02*
X0229902Y0090120D01*
X0228303Y0091718D02*
X0205050Y0091718D01*
X0205050Y0090120D02*
X0209604Y0090120D01*
X0209596Y0090112D02*
X0209304Y0089674D01*
X0209103Y0089188D01*
X0209000Y0088672D01*
X0209000Y0087512D01*
X0212881Y0087512D01*
X0212881Y0091081D01*
X0211409Y0091081D01*
X0210892Y0090978D01*
X0210406Y0090777D01*
X0209969Y0090484D01*
X0209596Y0090112D01*
X0209000Y0088521D02*
X0205050Y0088521D01*
X0205050Y0086923D02*
X0209000Y0086923D01*
X0209175Y0085324D02*
X0205050Y0085324D01*
X0205050Y0083726D02*
X0210851Y0083726D01*
X0212881Y0083726D02*
X0213219Y0083726D01*
X0213219Y0085324D02*
X0212881Y0085324D01*
X0212881Y0086923D02*
X0213219Y0086923D01*
X0213219Y0088521D02*
X0212881Y0088521D01*
X0212881Y0090120D02*
X0213219Y0090120D01*
X0205050Y0093317D02*
X0226705Y0093317D01*
X0225106Y0094915D02*
X0205050Y0094915D01*
X0205050Y0096514D02*
X0222253Y0096514D01*
X0221210Y0098112D02*
X0205050Y0098112D01*
X0205050Y0099711D02*
X0221302Y0099711D01*
X0222563Y0101309D02*
X0205050Y0101309D01*
X0205050Y0102908D02*
X0233250Y0102908D01*
X0233250Y0103550D02*
X0233250Y0100050D01*
X0234590Y0096815D01*
X0237065Y0094340D01*
X0240300Y0093000D01*
X0243800Y0093000D01*
X0247035Y0094340D01*
X0249510Y0096815D01*
X0250850Y0100050D01*
X0250850Y0103550D01*
X0249510Y0106785D01*
X0247035Y0109260D01*
X0243800Y0110600D01*
X0240300Y0110600D01*
X0237065Y0109260D01*
X0234590Y0106785D01*
X0233250Y0103550D01*
X0233646Y0104506D02*
X0205050Y0104506D01*
X0205050Y0106105D02*
X0234308Y0106105D01*
X0235508Y0107703D02*
X0205050Y0107703D01*
X0205050Y0109302D02*
X0237165Y0109302D01*
X0246935Y0109302D02*
X0251750Y0109302D01*
X0251750Y0107703D02*
X0248592Y0107703D01*
X0249792Y0106105D02*
X0251750Y0106105D01*
X0251750Y0104506D02*
X0250454Y0104506D01*
X0250850Y0102908D02*
X0251750Y0102908D01*
X0251750Y0101309D02*
X0250850Y0101309D01*
X0250710Y0099711D02*
X0251750Y0099711D01*
X0251750Y0098112D02*
X0250047Y0098112D01*
X0249209Y0096514D02*
X0251750Y0096514D01*
X0251750Y0094915D02*
X0247610Y0094915D01*
X0244565Y0093317D02*
X0251750Y0093317D01*
X0251750Y0091718D02*
X0233960Y0091718D01*
X0235559Y0090120D02*
X0251750Y0090120D01*
X0251750Y0088521D02*
X0237157Y0088521D01*
X0236296Y0083726D02*
X0215248Y0083726D01*
X0220626Y0082127D02*
X0237895Y0082127D01*
X0239246Y0080529D02*
X0220937Y0080529D01*
X0220263Y0078930D02*
X0238950Y0078930D01*
X0239138Y0077332D02*
X0215781Y0077332D01*
X0211355Y0075733D02*
X0239904Y0075733D01*
X0241987Y0074134D02*
X0211286Y0074134D01*
X0207286Y0074134D02*
X0205050Y0074134D01*
X0205050Y0075733D02*
X0207286Y0075733D01*
X0207296Y0077332D02*
X0205050Y0077332D01*
X0205050Y0078930D02*
X0208895Y0078930D01*
X0209400Y0080529D02*
X0205050Y0080529D01*
X0205050Y0082127D02*
X0209400Y0082127D01*
X0199050Y0082127D02*
X0196489Y0082127D01*
X0196362Y0082254D02*
X0195924Y0082546D01*
X0195438Y0082747D01*
X0194922Y0082850D01*
X0193762Y0082850D01*
X0193762Y0078969D01*
X0193425Y0078969D01*
X0193425Y0082850D01*
X0192265Y0082850D01*
X0191748Y0082747D01*
X0191262Y0082546D01*
X0190825Y0082254D01*
X0190452Y0081881D01*
X0190160Y0081444D01*
X0189959Y0080958D01*
X0189856Y0080441D01*
X0189856Y0078969D01*
X0193425Y0078969D01*
X0193425Y0078631D01*
X0193762Y0078631D01*
X0193762Y0074750D01*
X0194922Y0074750D01*
X0195438Y0074853D01*
X0195924Y0075054D01*
X0196362Y0075346D01*
X0196734Y0075719D01*
X0197027Y0076156D01*
X0197228Y0076642D01*
X0197331Y0077159D01*
X0197331Y0078631D01*
X0193762Y0078631D01*
X0193762Y0078969D01*
X0197331Y0078969D01*
X0197331Y0080441D01*
X0197228Y0080958D01*
X0197027Y0081444D01*
X0196734Y0081881D01*
X0196362Y0082254D01*
X0197313Y0080529D02*
X0199050Y0080529D01*
X0199050Y0078930D02*
X0193762Y0078930D01*
X0193425Y0078930D02*
X0189844Y0078930D01*
X0189856Y0078631D02*
X0189856Y0077159D01*
X0189959Y0076642D01*
X0190160Y0076156D01*
X0190452Y0075719D01*
X0190825Y0075346D01*
X0191262Y0075054D01*
X0191748Y0074853D01*
X0192265Y0074750D01*
X0193425Y0074750D01*
X0193425Y0078631D01*
X0189856Y0078631D01*
X0189844Y0077332D02*
X0189856Y0077332D01*
X0190443Y0075733D02*
X0189096Y0075733D01*
X0188507Y0074134D02*
X0194301Y0074134D01*
X0193762Y0075733D02*
X0193425Y0075733D01*
X0193425Y0077332D02*
X0193762Y0077332D01*
X0196744Y0075733D02*
X0199050Y0075733D01*
X0199050Y0074134D02*
X0197799Y0074134D01*
X0198870Y0072536D02*
X0199050Y0072536D01*
X0199050Y0070937D02*
X0198818Y0070937D01*
X0199050Y0069339D02*
X0197654Y0069339D01*
X0199050Y0067740D02*
X0194714Y0067740D01*
X0194714Y0066142D02*
X0199050Y0066142D01*
X0199050Y0064543D02*
X0194407Y0064543D01*
X0194519Y0062945D02*
X0199050Y0062945D01*
X0199050Y0061346D02*
X0194714Y0061346D01*
X0194611Y0059748D02*
X0199050Y0059748D01*
X0199050Y0058149D02*
X0194785Y0058149D01*
X0195114Y0056551D02*
X0199050Y0056551D01*
X0199050Y0054952D02*
X0195017Y0054952D01*
X0193188Y0053354D02*
X0199050Y0053354D01*
X0205050Y0051755D02*
X0220357Y0051755D01*
X0220163Y0053354D02*
X0213660Y0053354D01*
X0215489Y0054952D02*
X0220698Y0054952D01*
X0219400Y0056551D02*
X0215586Y0056551D01*
X0215586Y0056300D02*
X0209286Y0056300D01*
X0209286Y0056300D01*
X0215586Y0056300D01*
X0215257Y0058149D02*
X0219400Y0058149D01*
X0219400Y0059748D02*
X0217685Y0059748D01*
X0209286Y0054952D02*
X0209286Y0054952D01*
X0209286Y0053354D02*
X0209286Y0053354D01*
X0205050Y0050157D02*
X0221886Y0050157D01*
X0224214Y0050157D02*
X0227493Y0050157D01*
X0232607Y0050157D02*
X0233050Y0050157D01*
X0233050Y0048558D02*
X0205050Y0048558D01*
X0205050Y0046960D02*
X0233050Y0046960D01*
X0233050Y0045361D02*
X0205050Y0045361D01*
X0205050Y0043763D02*
X0233050Y0043763D01*
X0233050Y0042164D02*
X0181050Y0042164D01*
X0181050Y0040566D02*
X0234456Y0040566D01*
X0236054Y0038967D02*
X0181050Y0038967D01*
X0181050Y0037369D02*
X0237653Y0037369D01*
X0243050Y0029376D02*
X0251750Y0029376D01*
X0251750Y0027778D02*
X0241856Y0027778D01*
X0240258Y0026179D02*
X0251750Y0026179D01*
X0251750Y0024581D02*
X0243847Y0024581D01*
X0240253Y0024581D02*
X0238659Y0024581D01*
X0247313Y0022982D02*
X0251750Y0022982D01*
X0251750Y0021384D02*
X0248911Y0021384D01*
X0249924Y0019785D02*
X0251750Y0019785D01*
X0251750Y0018187D02*
X0250586Y0018187D01*
X0250850Y0016588D02*
X0251750Y0016588D01*
X0251750Y0014990D02*
X0250850Y0014990D01*
X0250577Y0013391D02*
X0251750Y0013391D01*
X0251750Y0011793D02*
X0249915Y0011793D01*
X0248889Y0010194D02*
X0251750Y0010194D01*
X0251750Y0008596D02*
X0247291Y0008596D01*
X0251750Y0006997D02*
X0221075Y0006997D01*
X0222050Y0007972D02*
X0222050Y0007972D01*
X0222674Y0008596D02*
X0236809Y0008596D01*
X0235211Y0010194D02*
X0224272Y0010194D01*
X0225871Y0011793D02*
X0234185Y0011793D01*
X0233523Y0013391D02*
X0227469Y0013391D01*
X0229068Y0014990D02*
X0233250Y0014990D01*
X0233250Y0016588D02*
X0230666Y0016588D01*
X0232265Y0018187D02*
X0233514Y0018187D01*
X0233864Y0019785D02*
X0234176Y0019785D01*
X0226404Y0022982D02*
X0216998Y0022982D01*
X0217055Y0022807D02*
X0216846Y0023451D01*
X0216539Y0024054D01*
X0216141Y0024601D01*
X0215662Y0025080D01*
X0215115Y0025478D01*
X0214512Y0025785D01*
X0213868Y0025994D01*
X0213199Y0026100D01*
X0212861Y0026100D01*
X0212523Y0026100D01*
X0211854Y0025994D01*
X0211210Y0025785D01*
X0210607Y0025478D01*
X0210060Y0025080D01*
X0209581Y0024601D01*
X0209183Y0024054D01*
X0208876Y0023451D01*
X0208722Y0022975D01*
X0208293Y0024009D01*
X0207196Y0025106D01*
X0205763Y0025700D01*
X0204211Y0025700D01*
X0202778Y0025106D01*
X0201681Y0024009D01*
X0201087Y0022576D01*
X0201087Y0021024D01*
X0201681Y0019591D01*
X0202778Y0018494D01*
X0204211Y0017900D01*
X0205763Y0017900D01*
X0207196Y0018494D01*
X0208293Y0019591D01*
X0208722Y0020625D01*
X0208876Y0020149D01*
X0209183Y0019546D01*
X0209581Y0018999D01*
X0210060Y0018520D01*
X0210607Y0018122D01*
X0211210Y0017815D01*
X0211854Y0017606D01*
X0212523Y0017500D01*
X0212861Y0017500D01*
X0212861Y0021800D01*
X0212861Y0026100D01*
X0212861Y0021800D01*
X0212861Y0021800D01*
X0212861Y0021800D01*
X0217161Y0021800D01*
X0217161Y0022138D01*
X0217055Y0022807D01*
X0217161Y0021800D02*
X0212861Y0021800D01*
X0212861Y0021800D01*
X0212861Y0017500D01*
X0213199Y0017500D01*
X0213868Y0017606D01*
X0214512Y0017815D01*
X0215115Y0018122D01*
X0215662Y0018520D01*
X0216141Y0018999D01*
X0216539Y0019546D01*
X0216846Y0020149D01*
X0217055Y0020793D01*
X0217161Y0021462D01*
X0217161Y0021800D01*
X0217149Y0021384D02*
X0224805Y0021384D01*
X0223207Y0019785D02*
X0216660Y0019785D01*
X0215203Y0018187D02*
X0221608Y0018187D01*
X0220010Y0016588D02*
X0202090Y0016588D01*
X0203519Y0018187D02*
X0200492Y0018187D01*
X0200500Y0019785D02*
X0201600Y0019785D01*
X0201087Y0021384D02*
X0201013Y0021384D01*
X0200845Y0022982D02*
X0201255Y0022982D01*
X0202252Y0024581D02*
X0199848Y0024581D01*
X0194378Y0024581D02*
X0193139Y0024581D01*
X0193139Y0022982D02*
X0193381Y0022982D01*
X0193213Y0021384D02*
X0193139Y0021384D01*
X0193139Y0019785D02*
X0193726Y0019785D01*
X0192605Y0018187D02*
X0195113Y0018187D01*
X0196433Y0016588D02*
X0192090Y0016588D01*
X0193689Y0014990D02*
X0198032Y0014990D01*
X0199630Y0013391D02*
X0195287Y0013391D01*
X0196886Y0011793D02*
X0201229Y0011793D01*
X0203689Y0014990D02*
X0218411Y0014990D01*
X0212861Y0018187D02*
X0212861Y0018187D01*
X0212861Y0019785D02*
X0212861Y0019785D01*
X0210519Y0018187D02*
X0206455Y0018187D01*
X0208374Y0019785D02*
X0209062Y0019785D01*
X0212861Y0021384D02*
X0212861Y0021384D01*
X0212861Y0022982D02*
X0212861Y0022982D01*
X0212861Y0024581D02*
X0212861Y0024581D01*
X0209566Y0024581D02*
X0207722Y0024581D01*
X0208719Y0022982D02*
X0208724Y0022982D01*
X0216156Y0024581D02*
X0228002Y0024581D01*
X0194426Y0008596D02*
X0181050Y0008596D01*
X0181050Y0010194D02*
X0192828Y0010194D01*
X0191229Y0011793D02*
X0181050Y0011793D01*
X0181050Y0013391D02*
X0189630Y0013391D01*
X0188032Y0014990D02*
X0181050Y0014990D01*
X0181050Y0016588D02*
X0187239Y0016588D01*
X0185872Y0018187D02*
X0181050Y0018187D01*
X0181050Y0019785D02*
X0185339Y0019785D01*
X0185339Y0021384D02*
X0181050Y0021384D01*
X0181050Y0022982D02*
X0185339Y0022982D01*
X0185339Y0024581D02*
X0181050Y0024581D01*
X0175050Y0014990D02*
X0159593Y0014990D01*
X0159593Y0013391D02*
X0175050Y0013391D01*
X0175050Y0011793D02*
X0159593Y0011793D01*
X0158272Y0010194D02*
X0175050Y0010194D01*
X0175050Y0008596D02*
X0156674Y0008596D01*
X0175050Y0006997D02*
X0091350Y0006997D01*
X0091350Y0008596D02*
X0095809Y0008596D01*
X0094211Y0010194D02*
X0091350Y0010194D01*
X0091350Y0011793D02*
X0093185Y0011793D01*
X0092523Y0013391D02*
X0091350Y0013391D01*
X0091350Y0014990D02*
X0092250Y0014990D01*
X0092250Y0016588D02*
X0091350Y0016588D01*
X0091350Y0018187D02*
X0092514Y0018187D01*
X0093176Y0019785D02*
X0091350Y0019785D01*
X0091350Y0021384D02*
X0094189Y0021384D01*
X0095787Y0022982D02*
X0091350Y0022982D01*
X0108924Y0019785D02*
X0113155Y0019785D01*
X0112650Y0018187D02*
X0109586Y0018187D01*
X0109850Y0016588D02*
X0112650Y0016588D01*
X0115150Y0014990D02*
X0109850Y0014990D01*
X0109577Y0013391D02*
X0115150Y0013391D01*
X0116400Y0011793D02*
X0108915Y0011793D01*
X0181050Y0006997D02*
X0196025Y0006997D01*
X0188814Y0053354D02*
X0188814Y0053354D01*
X0188814Y0054952D02*
X0188814Y0054952D01*
X0188814Y0056300D02*
X0188814Y0056300D01*
X0180162Y0067740D02*
X0165938Y0067740D01*
X0164339Y0069339D02*
X0183425Y0069339D01*
X0182914Y0070937D02*
X0162741Y0070937D01*
X0161142Y0072536D02*
X0182914Y0072536D01*
X0184507Y0074134D02*
X0159544Y0074134D01*
X0157945Y0075733D02*
X0183917Y0075733D01*
X0183169Y0077332D02*
X0156937Y0077332D01*
X0156003Y0078930D02*
X0183169Y0078930D01*
X0183169Y0080529D02*
X0151937Y0080529D01*
X0152097Y0078930D02*
X0151263Y0078930D01*
X0151626Y0082127D02*
X0184177Y0082127D01*
X0184338Y0083750D02*
X0184338Y0087631D01*
X0184675Y0087631D01*
X0184675Y0083750D01*
X0185835Y0083750D01*
X0186352Y0083853D01*
X0186838Y0084054D01*
X0187275Y0084346D01*
X0187648Y0084719D01*
X0187940Y0085156D01*
X0188141Y0085642D01*
X0188244Y0086159D01*
X0188244Y0087631D01*
X0184675Y0087631D01*
X0184675Y0087969D01*
X0184338Y0087969D01*
X0184338Y0091850D01*
X0183178Y0091850D01*
X0182662Y0091747D01*
X0182176Y0091546D01*
X0181738Y0091254D01*
X0181366Y0090881D01*
X0181073Y0090444D01*
X0180872Y0089958D01*
X0180769Y0089441D01*
X0180769Y0087969D01*
X0184338Y0087969D01*
X0184338Y0087631D01*
X0180769Y0087631D01*
X0180769Y0086159D01*
X0180872Y0085642D01*
X0181073Y0085156D01*
X0181366Y0084719D01*
X0181738Y0084346D01*
X0182176Y0084054D01*
X0182662Y0083853D01*
X0183178Y0083750D01*
X0184338Y0083750D01*
X0184338Y0085324D02*
X0184675Y0085324D01*
X0184675Y0086923D02*
X0184338Y0086923D01*
X0184675Y0087969D02*
X0188244Y0087969D01*
X0188244Y0089441D01*
X0188141Y0089958D01*
X0187940Y0090444D01*
X0187648Y0090881D01*
X0187275Y0091254D01*
X0186838Y0091546D01*
X0186352Y0091747D01*
X0185835Y0091850D01*
X0184675Y0091850D01*
X0184675Y0087969D01*
X0184675Y0088521D02*
X0184338Y0088521D01*
X0184338Y0090120D02*
X0184675Y0090120D01*
X0184675Y0091718D02*
X0184338Y0091718D01*
X0182591Y0091718D02*
X0175052Y0091718D01*
X0174686Y0091352D02*
X0175498Y0092164D01*
X0175937Y0093226D01*
X0175937Y0094374D01*
X0175498Y0095436D01*
X0175050Y0095883D01*
X0175050Y0095919D01*
X0175369Y0095919D01*
X0176250Y0096800D01*
X0176400Y0096800D01*
X0176400Y0096629D01*
X0177629Y0095400D01*
X0181071Y0095400D01*
X0182300Y0096629D01*
X0182300Y0100971D01*
X0181071Y0102200D01*
X0177629Y0102200D01*
X0176696Y0101267D01*
X0175369Y0102594D01*
X0170731Y0102594D01*
X0169400Y0101263D01*
X0169400Y0097250D01*
X0170731Y0095919D01*
X0171050Y0095919D01*
X0171050Y0095883D01*
X0170602Y0095436D01*
X0170163Y0094374D01*
X0170163Y0093226D01*
X0170602Y0092164D01*
X0171414Y0091352D01*
X0172476Y0090913D01*
X0173624Y0090913D01*
X0174686Y0091352D01*
X0171048Y0091718D02*
X0162593Y0091718D01*
X0161340Y0090120D02*
X0180939Y0090120D01*
X0180769Y0088521D02*
X0159741Y0088521D01*
X0152681Y0086923D02*
X0180769Y0086923D01*
X0181004Y0085324D02*
X0146550Y0085324D01*
X0146550Y0083726D02*
X0199050Y0083726D01*
X0199050Y0085324D02*
X0194774Y0085324D01*
X0194931Y0085481D02*
X0194931Y0086994D01*
X0195850Y0087913D01*
X0196624Y0087913D01*
X0197686Y0088352D01*
X0198498Y0089164D01*
X0198937Y0090226D01*
X0198937Y0091374D01*
X0198498Y0092436D01*
X0197686Y0093248D01*
X0196624Y0093687D01*
X0195476Y0093687D01*
X0194414Y0093248D01*
X0193602Y0092436D01*
X0193194Y0091450D01*
X0190783Y0091450D01*
X0191498Y0092164D01*
X0191937Y0093226D01*
X0191937Y0094374D01*
X0191498Y0095436D01*
X0191014Y0095919D01*
X0195369Y0095919D01*
X0196700Y0097250D01*
X0196700Y0101263D01*
X0195369Y0102594D01*
X0190731Y0102594D01*
X0189504Y0101367D01*
X0188671Y0102200D01*
X0185229Y0102200D01*
X0184000Y0100971D01*
X0184000Y0096629D01*
X0184950Y0095679D01*
X0184950Y0095072D01*
X0186163Y0093859D01*
X0186163Y0093226D01*
X0186602Y0092164D01*
X0187414Y0091352D01*
X0188476Y0090913D01*
X0189049Y0090913D01*
X0188256Y0090119D01*
X0188256Y0085481D01*
X0189587Y0084150D01*
X0193600Y0084150D01*
X0194931Y0085481D01*
X0194931Y0086923D02*
X0199050Y0086923D01*
X0199050Y0088521D02*
X0197855Y0088521D01*
X0198893Y0090120D02*
X0199050Y0090120D01*
X0199050Y0091718D02*
X0198795Y0091718D01*
X0199050Y0093317D02*
X0197519Y0093317D01*
X0199050Y0094915D02*
X0191713Y0094915D01*
X0191937Y0093317D02*
X0194581Y0093317D01*
X0193305Y0091718D02*
X0191052Y0091718D01*
X0188256Y0090120D02*
X0188074Y0090120D01*
X0188244Y0088521D02*
X0188256Y0088521D01*
X0188244Y0086923D02*
X0188256Y0086923D01*
X0188413Y0085324D02*
X0188010Y0085324D01*
X0188836Y0082127D02*
X0190698Y0082127D01*
X0189873Y0080529D02*
X0189844Y0080529D01*
X0193425Y0080529D02*
X0193762Y0080529D01*
X0193762Y0082127D02*
X0193425Y0082127D01*
X0197331Y0077332D02*
X0199050Y0077332D01*
X0215186Y0072536D02*
X0240008Y0072536D01*
X0238966Y0070937D02*
X0215186Y0070937D01*
X0214986Y0069339D02*
X0238567Y0069339D01*
X0238649Y0067740D02*
X0226309Y0067740D01*
X0237536Y0066142D02*
X0239232Y0066142D01*
X0239135Y0064543D02*
X0240552Y0064543D01*
X0240982Y0062945D02*
X0240050Y0062945D01*
X0187048Y0091718D02*
X0186422Y0091718D01*
X0186163Y0093317D02*
X0175937Y0093317D01*
X0175713Y0094915D02*
X0185106Y0094915D01*
X0184115Y0096514D02*
X0182185Y0096514D01*
X0182300Y0098112D02*
X0184000Y0098112D01*
X0184000Y0099711D02*
X0182300Y0099711D01*
X0181962Y0101309D02*
X0184338Y0101309D01*
X0184248Y0103000D02*
X0184731Y0103096D01*
X0185186Y0103284D01*
X0185595Y0103558D01*
X0185942Y0103905D01*
X0186216Y0104314D01*
X0186404Y0104769D01*
X0186500Y0105252D01*
X0186500Y0106800D01*
X0186500Y0108348D01*
X0186404Y0108831D01*
X0186216Y0109286D01*
X0185942Y0109695D01*
X0185595Y0110042D01*
X0185186Y0110316D01*
X0184731Y0110504D01*
X0184248Y0110600D01*
X0183150Y0110600D01*
X0183150Y0106800D01*
X0186500Y0106800D01*
X0183150Y0106800D01*
X0183150Y0106800D01*
X0183150Y0106800D01*
X0183150Y0103000D01*
X0184248Y0103000D01*
X0183150Y0103000D02*
X0183150Y0106800D01*
X0183150Y0106800D01*
X0183150Y0106800D01*
X0179800Y0106800D01*
X0179800Y0108348D01*
X0179896Y0108831D01*
X0180084Y0109286D01*
X0180358Y0109695D01*
X0180705Y0110042D01*
X0181114Y0110316D01*
X0181569Y0110504D01*
X0182052Y0110600D01*
X0183150Y0110600D01*
X0183150Y0106800D01*
X0179800Y0106800D01*
X0179800Y0105252D01*
X0179896Y0104769D01*
X0180084Y0104314D01*
X0180358Y0103905D01*
X0180705Y0103558D01*
X0181114Y0103284D01*
X0181569Y0103096D01*
X0182052Y0103000D01*
X0183150Y0103000D01*
X0183150Y0104506D02*
X0183150Y0104506D01*
X0186295Y0104506D02*
X0189101Y0104506D01*
X0189103Y0104498D02*
X0189304Y0104012D01*
X0189596Y0103575D01*
X0189969Y0103202D01*
X0190406Y0102910D01*
X0190892Y0102709D01*
X0191409Y0102606D01*
X0192881Y0102606D01*
X0192881Y0106175D01*
X0189000Y0106175D01*
X0189000Y0105015D01*
X0189103Y0104498D01*
X0190412Y0102908D02*
X0175688Y0102908D01*
X0175694Y0102910D02*
X0176131Y0103202D01*
X0176504Y0103575D01*
X0176796Y0104012D01*
X0176997Y0104498D01*
X0177100Y0105015D01*
X0177100Y0106175D01*
X0173219Y0106175D01*
X0173219Y0106512D01*
X0177100Y0106512D01*
X0177100Y0107672D01*
X0176997Y0108188D01*
X0176796Y0108674D01*
X0176504Y0109112D01*
X0176131Y0109484D01*
X0175694Y0109777D01*
X0175208Y0109978D01*
X0174691Y0110081D01*
X0173219Y0110081D01*
X0173219Y0106512D01*
X0172881Y0106512D01*
X0172881Y0106175D01*
X0169000Y0106175D01*
X0169000Y0105015D01*
X0169103Y0104498D01*
X0169304Y0104012D01*
X0169596Y0103575D01*
X0169969Y0103202D01*
X0170406Y0102910D01*
X0170892Y0102709D01*
X0171409Y0102606D01*
X0172881Y0102606D01*
X0172881Y0106175D01*
X0173219Y0106175D01*
X0173219Y0102606D01*
X0174691Y0102606D01*
X0175208Y0102709D01*
X0175694Y0102910D01*
X0176654Y0101309D02*
X0176738Y0101309D01*
X0173219Y0102908D02*
X0172881Y0102908D01*
X0172881Y0104506D02*
X0173219Y0104506D01*
X0170412Y0102908D02*
X0162593Y0102908D01*
X0163741Y0101309D02*
X0169446Y0101309D01*
X0169400Y0099711D02*
X0163931Y0099711D01*
X0163931Y0098112D02*
X0169400Y0098112D01*
X0170136Y0096514D02*
X0163931Y0096514D01*
X0162593Y0094915D02*
X0170387Y0094915D01*
X0170163Y0093317D02*
X0162593Y0093317D01*
X0158593Y0093317D02*
X0152937Y0093317D01*
X0152018Y0094915D02*
X0158593Y0094915D01*
X0157256Y0096514D02*
X0156844Y0096514D01*
X0156844Y0098112D02*
X0157256Y0098112D01*
X0157256Y0099711D02*
X0156844Y0099711D01*
X0156654Y0101309D02*
X0157446Y0101309D01*
X0158593Y0102908D02*
X0155484Y0102908D01*
X0155352Y0102853D02*
X0155838Y0103054D01*
X0156275Y0103346D01*
X0156648Y0103719D01*
X0156940Y0104156D01*
X0157141Y0104642D01*
X0157244Y0105159D01*
X0157244Y0106631D01*
X0153675Y0106631D01*
X0153675Y0102750D01*
X0154835Y0102750D01*
X0155352Y0102853D01*
X0153675Y0102908D02*
X0153338Y0102908D01*
X0153338Y0102750D02*
X0152178Y0102750D01*
X0151662Y0102853D01*
X0151176Y0103054D01*
X0150738Y0103346D01*
X0150366Y0103719D01*
X0150073Y0104156D01*
X0149872Y0104642D01*
X0149769Y0105159D01*
X0149769Y0106631D01*
X0153338Y0106631D01*
X0153675Y0106631D01*
X0153675Y0106969D01*
X0153338Y0106969D01*
X0153338Y0110850D01*
X0152178Y0110850D01*
X0151662Y0110747D01*
X0151176Y0110546D01*
X0150738Y0110254D01*
X0150366Y0109881D01*
X0150073Y0109444D01*
X0149872Y0108958D01*
X0149769Y0108441D01*
X0149769Y0106969D01*
X0153338Y0106969D01*
X0153338Y0106631D01*
X0153338Y0102750D01*
X0153338Y0104506D02*
X0153675Y0104506D01*
X0151529Y0102908D02*
X0143931Y0102908D01*
X0142956Y0104506D02*
X0149928Y0104506D01*
X0149769Y0106105D02*
X0147438Y0106105D01*
X0147937Y0107703D02*
X0149769Y0107703D01*
X0150015Y0109302D02*
X0147553Y0109302D01*
X0143150Y0110900D02*
X0199050Y0110900D01*
X0196504Y0109112D02*
X0196131Y0109484D01*
X0195694Y0109777D01*
X0195208Y0109978D01*
X0194691Y0110081D01*
X0193219Y0110081D01*
X0193219Y0106512D01*
X0197100Y0106512D01*
X0197100Y0107672D01*
X0196997Y0108188D01*
X0196796Y0108674D01*
X0196504Y0109112D01*
X0196314Y0109302D02*
X0199050Y0109302D01*
X0199050Y0107703D02*
X0197094Y0107703D01*
X0197100Y0106175D02*
X0193219Y0106175D01*
X0193219Y0106512D01*
X0192881Y0106512D01*
X0192881Y0106175D01*
X0193219Y0106175D01*
X0193219Y0102606D01*
X0194691Y0102606D01*
X0195208Y0102709D01*
X0195694Y0102910D01*
X0196131Y0103202D01*
X0196504Y0103575D01*
X0196796Y0104012D01*
X0196997Y0104498D01*
X0197100Y0105015D01*
X0197100Y0106175D01*
X0197100Y0106105D02*
X0199050Y0106105D01*
X0199050Y0104506D02*
X0196999Y0104506D01*
X0195688Y0102908D02*
X0199050Y0102908D01*
X0199050Y0101309D02*
X0196654Y0101309D01*
X0196700Y0099711D02*
X0199050Y0099711D01*
X0199050Y0098112D02*
X0196700Y0098112D01*
X0195964Y0096514D02*
X0199050Y0096514D01*
X0193219Y0102908D02*
X0192881Y0102908D01*
X0192881Y0104506D02*
X0193219Y0104506D01*
X0193219Y0106105D02*
X0192881Y0106105D01*
X0192881Y0106512D02*
X0189000Y0106512D01*
X0189000Y0107672D01*
X0189103Y0108188D01*
X0189304Y0108674D01*
X0189596Y0109112D01*
X0189969Y0109484D01*
X0190406Y0109777D01*
X0190892Y0109978D01*
X0191409Y0110081D01*
X0192881Y0110081D01*
X0192881Y0106512D01*
X0192881Y0107703D02*
X0193219Y0107703D01*
X0193219Y0109302D02*
X0192881Y0109302D01*
X0189786Y0109302D02*
X0186205Y0109302D01*
X0186500Y0107703D02*
X0189006Y0107703D01*
X0189000Y0106105D02*
X0186500Y0106105D01*
X0183150Y0106105D02*
X0183150Y0106105D01*
X0183150Y0107703D02*
X0183150Y0107703D01*
X0183150Y0109302D02*
X0183150Y0109302D01*
X0180095Y0109302D02*
X0176314Y0109302D01*
X0177094Y0107703D02*
X0179800Y0107703D01*
X0179800Y0106105D02*
X0177100Y0106105D01*
X0173219Y0106105D02*
X0172881Y0106105D01*
X0172881Y0106512D02*
X0169000Y0106512D01*
X0169000Y0107672D01*
X0169103Y0108188D01*
X0169304Y0108674D01*
X0169596Y0109112D01*
X0169969Y0109484D01*
X0170406Y0109777D01*
X0170892Y0109978D01*
X0171409Y0110081D01*
X0172881Y0110081D01*
X0172881Y0106512D01*
X0172881Y0107703D02*
X0173219Y0107703D01*
X0173219Y0109302D02*
X0172881Y0109302D01*
X0169786Y0109302D02*
X0163748Y0109302D01*
X0163931Y0107703D02*
X0169006Y0107703D01*
X0169000Y0106105D02*
X0163931Y0106105D01*
X0163931Y0104506D02*
X0169101Y0104506D01*
X0176999Y0104506D02*
X0180005Y0104506D01*
X0176515Y0096514D02*
X0175964Y0096514D01*
X0157256Y0104506D02*
X0157085Y0104506D01*
X0157244Y0106105D02*
X0157256Y0106105D01*
X0157244Y0106969D02*
X0157244Y0108441D01*
X0157141Y0108958D01*
X0156940Y0109444D01*
X0156648Y0109881D01*
X0156275Y0110254D01*
X0155838Y0110546D01*
X0155352Y0110747D01*
X0154835Y0110850D01*
X0153675Y0110850D01*
X0153675Y0106969D01*
X0157244Y0106969D01*
X0157244Y0107703D02*
X0157256Y0107703D01*
X0157438Y0109302D02*
X0156999Y0109302D01*
X0153675Y0109302D02*
X0153338Y0109302D01*
X0153338Y0107703D02*
X0153675Y0107703D01*
X0153675Y0106105D02*
X0153338Y0106105D01*
X0150359Y0101309D02*
X0149369Y0101309D01*
X0146909Y0098112D02*
X0143562Y0098112D01*
X0142678Y0096514D02*
X0141550Y0096514D01*
X0146422Y0096514D02*
X0150169Y0096514D01*
X0148082Y0094915D02*
X0147131Y0094915D01*
X0147131Y0093317D02*
X0147163Y0093317D01*
X0147131Y0091718D02*
X0147373Y0091718D01*
X0147131Y0090120D02*
X0148976Y0090120D01*
X0149441Y0088521D02*
X0147131Y0088521D01*
X0147131Y0086923D02*
X0151419Y0086923D01*
X0146474Y0082127D02*
X0146205Y0082127D01*
X0146163Y0080529D02*
X0143862Y0080529D01*
X0112769Y0093317D02*
X0103565Y0093317D01*
X0106610Y0094915D02*
X0113400Y0094915D01*
X0108792Y0106105D02*
X0119400Y0106105D01*
X0119400Y0107703D02*
X0107592Y0107703D01*
X0105935Y0109302D02*
X0119400Y0109302D01*
X0205050Y0110900D02*
X0251750Y0110900D01*
X0233250Y0101309D02*
X0225537Y0101309D01*
X0226798Y0099711D02*
X0233390Y0099711D01*
X0234052Y0098112D02*
X0227566Y0098112D01*
X0229165Y0096514D02*
X0234891Y0096514D01*
X0236490Y0094915D02*
X0230763Y0094915D01*
X0232362Y0093317D02*
X0239535Y0093317D01*
D33*
X0224050Y0098800D03*
X0215050Y0102800D03*
X0215050Y0092800D03*
X0196050Y0090800D03*
X0189050Y0093800D03*
X0173050Y0093800D03*
X0150050Y0092800D03*
X0142050Y0082800D03*
X0149050Y0080800D03*
X0154050Y0076800D03*
X0176050Y0081800D03*
X0196050Y0071800D03*
X0218050Y0080800D03*
X0236050Y0076800D03*
X0197050Y0056800D03*
X0211050Y0046800D03*
X0223050Y0052800D03*
X0183050Y0038800D03*
X0173050Y0044800D03*
X0167050Y0041800D03*
X0166050Y0048800D03*
X0163050Y0059800D03*
X0141050Y0053800D03*
X0120050Y0047800D03*
X0134050Y0041800D03*
X0141050Y0042800D03*
X0140050Y0035800D03*
X0126050Y0033800D03*
X0139050Y0025800D03*
X0170050Y0019800D03*
X0184050Y0018800D03*
X0213050Y0015800D03*
X0236050Y0032800D03*
X0127050Y0080800D03*
X0099050Y0078800D03*
X0094050Y0076800D03*
X0117050Y0062800D03*
X0102050Y0046800D03*
X0095050Y0032800D03*
X0145050Y0107800D03*
X0128050Y0108800D03*
D34*
X0126050Y0106800D01*
X0123593Y0106800D01*
X0123050Y0107343D01*
X0150050Y0092800D02*
X0152168Y0090682D01*
X0152168Y0089918D01*
X0141050Y0076800D02*
X0133050Y0076800D01*
X0132050Y0075800D01*
X0132050Y0064800D01*
X0131050Y0063800D01*
X0128050Y0063800D01*
X0127050Y0062800D01*
X0127050Y0054800D01*
X0128050Y0053800D01*
X0140050Y0053800D01*
X0140550Y0053300D01*
X0141050Y0053800D01*
X0140550Y0053300D02*
X0142050Y0051800D01*
X0142050Y0047800D01*
X0144491Y0045359D01*
X0149719Y0045359D01*
X0148932Y0045682D01*
X0150050Y0046800D01*
X0150050Y0059800D01*
X0150050Y0063800D01*
X0143050Y0063800D01*
X0142050Y0064800D01*
X0142050Y0075800D01*
X0141050Y0076800D01*
X0139550Y0070564D02*
X0139550Y0063300D01*
X0143050Y0059800D01*
X0146507Y0059800D01*
X0146507Y0052800D01*
X0146507Y0051343D01*
X0153050Y0043800D02*
X0154609Y0045359D01*
X0158381Y0045359D01*
X0162609Y0045359D01*
X0162790Y0045540D01*
X0158381Y0040241D02*
X0158381Y0038469D01*
X0160507Y0036343D01*
X0163507Y0036343D01*
X0157550Y0029300D02*
X0153050Y0033800D01*
X0153050Y0043800D01*
X0149719Y0042800D02*
X0141050Y0042800D01*
X0126050Y0033800D02*
X0119050Y0026800D01*
X0119050Y0020800D01*
X0139050Y0025800D02*
X0145050Y0019800D01*
X0145050Y0017800D01*
X0157550Y0029300D02*
X0157593Y0029300D01*
X0114593Y0049800D02*
X0114593Y0054343D01*
X0116050Y0055800D01*
X0116050Y0059800D01*
X0115050Y0060800D01*
X0111168Y0060800D01*
X0117050Y0062800D02*
X0117507Y0062343D01*
X0122050Y0062343D01*
X0121593Y0062343D01*
X0124593Y0065343D01*
X0124593Y0068800D01*
X0128050Y0068800D01*
X0129550Y0070300D01*
X0129550Y0070564D01*
X0134550Y0070564D02*
X0134550Y0059300D01*
X0134050Y0058800D01*
X0146507Y0059800D02*
X0150050Y0059800D01*
X0117507Y0067257D02*
X0114790Y0064540D01*
X0111168Y0064540D01*
X0107310Y0064540D01*
X0105593Y0066257D01*
X0105593Y0071800D01*
X0117507Y0068800D02*
X0117507Y0067257D01*
X0107790Y0057060D02*
X0104050Y0060800D01*
X0098050Y0060800D01*
X0094507Y0057257D01*
X0094050Y0057257D01*
X0107790Y0057060D02*
X0111168Y0057060D01*
X0100932Y0064540D02*
X0094050Y0064540D01*
X0094050Y0064343D01*
X0188814Y0056300D02*
X0196550Y0056300D01*
X0197050Y0056800D01*
X0209286Y0056300D02*
X0209286Y0049036D01*
X0211050Y0046800D01*
X0226050Y0061800D02*
X0227507Y0060343D01*
X0230050Y0060343D01*
X0226050Y0061800D02*
X0217050Y0061800D01*
X0216550Y0061300D01*
X0209286Y0061300D01*
X0192593Y0087343D02*
X0196050Y0090800D01*
M02*
