G75*
%MOIN*%
%OFA0B0*%
%FSLAX25Y25*%
%IPPOS*%
%LPD*%
%AMOC8*
5,1,8,0,0,1.08239X$1,22.5*
%
%ADD10C,0.00000*%
%ADD11C,0.05524*%
%ADD12C,0.13461*%
%ADD13C,0.01423*%
%ADD14C,0.01334*%
%ADD15C,0.02104*%
%ADD16C,0.13800*%
%ADD17R,0.05800X0.05800*%
%ADD18C,0.05800*%
%ADD19R,0.08200X0.08200*%
%ADD20C,0.08200*%
%ADD21C,0.01755*%
%ADD22R,0.04343X0.02375*%
%ADD23C,0.01069*%
%ADD24R,0.09800X0.03162*%
%ADD25R,0.05800X0.02600*%
%ADD26R,0.03300X0.02600*%
%ADD27R,0.10800X0.02600*%
%ADD28C,0.03300*%
%ADD29R,0.02600X0.05800*%
%ADD30C,0.03800*%
%ADD31C,0.03775*%
D10*
X0089050Y0003800D02*
X0089050Y0113800D01*
X0254050Y0113800D01*
X0254050Y0003800D01*
X0089050Y0003800D01*
X0094550Y0015800D02*
X0094552Y0015961D01*
X0094558Y0016121D01*
X0094568Y0016282D01*
X0094582Y0016442D01*
X0094600Y0016602D01*
X0094621Y0016761D01*
X0094647Y0016920D01*
X0094677Y0017078D01*
X0094710Y0017235D01*
X0094748Y0017392D01*
X0094789Y0017547D01*
X0094834Y0017701D01*
X0094883Y0017854D01*
X0094936Y0018006D01*
X0094992Y0018157D01*
X0095053Y0018306D01*
X0095116Y0018454D01*
X0095184Y0018600D01*
X0095255Y0018744D01*
X0095329Y0018886D01*
X0095407Y0019027D01*
X0095489Y0019165D01*
X0095574Y0019302D01*
X0095662Y0019436D01*
X0095754Y0019568D01*
X0095849Y0019698D01*
X0095947Y0019826D01*
X0096048Y0019951D01*
X0096152Y0020073D01*
X0096259Y0020193D01*
X0096369Y0020310D01*
X0096482Y0020425D01*
X0096598Y0020536D01*
X0096717Y0020645D01*
X0096838Y0020750D01*
X0096962Y0020853D01*
X0097088Y0020953D01*
X0097216Y0021049D01*
X0097347Y0021142D01*
X0097481Y0021232D01*
X0097616Y0021319D01*
X0097754Y0021402D01*
X0097893Y0021482D01*
X0098035Y0021558D01*
X0098178Y0021631D01*
X0098323Y0021700D01*
X0098470Y0021766D01*
X0098618Y0021828D01*
X0098768Y0021886D01*
X0098919Y0021941D01*
X0099072Y0021992D01*
X0099226Y0022039D01*
X0099381Y0022082D01*
X0099537Y0022121D01*
X0099693Y0022157D01*
X0099851Y0022188D01*
X0100009Y0022216D01*
X0100168Y0022240D01*
X0100328Y0022260D01*
X0100488Y0022276D01*
X0100648Y0022288D01*
X0100809Y0022296D01*
X0100970Y0022300D01*
X0101130Y0022300D01*
X0101291Y0022296D01*
X0101452Y0022288D01*
X0101612Y0022276D01*
X0101772Y0022260D01*
X0101932Y0022240D01*
X0102091Y0022216D01*
X0102249Y0022188D01*
X0102407Y0022157D01*
X0102563Y0022121D01*
X0102719Y0022082D01*
X0102874Y0022039D01*
X0103028Y0021992D01*
X0103181Y0021941D01*
X0103332Y0021886D01*
X0103482Y0021828D01*
X0103630Y0021766D01*
X0103777Y0021700D01*
X0103922Y0021631D01*
X0104065Y0021558D01*
X0104207Y0021482D01*
X0104346Y0021402D01*
X0104484Y0021319D01*
X0104619Y0021232D01*
X0104753Y0021142D01*
X0104884Y0021049D01*
X0105012Y0020953D01*
X0105138Y0020853D01*
X0105262Y0020750D01*
X0105383Y0020645D01*
X0105502Y0020536D01*
X0105618Y0020425D01*
X0105731Y0020310D01*
X0105841Y0020193D01*
X0105948Y0020073D01*
X0106052Y0019951D01*
X0106153Y0019826D01*
X0106251Y0019698D01*
X0106346Y0019568D01*
X0106438Y0019436D01*
X0106526Y0019302D01*
X0106611Y0019165D01*
X0106693Y0019027D01*
X0106771Y0018886D01*
X0106845Y0018744D01*
X0106916Y0018600D01*
X0106984Y0018454D01*
X0107047Y0018306D01*
X0107108Y0018157D01*
X0107164Y0018006D01*
X0107217Y0017854D01*
X0107266Y0017701D01*
X0107311Y0017547D01*
X0107352Y0017392D01*
X0107390Y0017235D01*
X0107423Y0017078D01*
X0107453Y0016920D01*
X0107479Y0016761D01*
X0107500Y0016602D01*
X0107518Y0016442D01*
X0107532Y0016282D01*
X0107542Y0016121D01*
X0107548Y0015961D01*
X0107550Y0015800D01*
X0107548Y0015639D01*
X0107542Y0015479D01*
X0107532Y0015318D01*
X0107518Y0015158D01*
X0107500Y0014998D01*
X0107479Y0014839D01*
X0107453Y0014680D01*
X0107423Y0014522D01*
X0107390Y0014365D01*
X0107352Y0014208D01*
X0107311Y0014053D01*
X0107266Y0013899D01*
X0107217Y0013746D01*
X0107164Y0013594D01*
X0107108Y0013443D01*
X0107047Y0013294D01*
X0106984Y0013146D01*
X0106916Y0013000D01*
X0106845Y0012856D01*
X0106771Y0012714D01*
X0106693Y0012573D01*
X0106611Y0012435D01*
X0106526Y0012298D01*
X0106438Y0012164D01*
X0106346Y0012032D01*
X0106251Y0011902D01*
X0106153Y0011774D01*
X0106052Y0011649D01*
X0105948Y0011527D01*
X0105841Y0011407D01*
X0105731Y0011290D01*
X0105618Y0011175D01*
X0105502Y0011064D01*
X0105383Y0010955D01*
X0105262Y0010850D01*
X0105138Y0010747D01*
X0105012Y0010647D01*
X0104884Y0010551D01*
X0104753Y0010458D01*
X0104619Y0010368D01*
X0104484Y0010281D01*
X0104346Y0010198D01*
X0104207Y0010118D01*
X0104065Y0010042D01*
X0103922Y0009969D01*
X0103777Y0009900D01*
X0103630Y0009834D01*
X0103482Y0009772D01*
X0103332Y0009714D01*
X0103181Y0009659D01*
X0103028Y0009608D01*
X0102874Y0009561D01*
X0102719Y0009518D01*
X0102563Y0009479D01*
X0102407Y0009443D01*
X0102249Y0009412D01*
X0102091Y0009384D01*
X0101932Y0009360D01*
X0101772Y0009340D01*
X0101612Y0009324D01*
X0101452Y0009312D01*
X0101291Y0009304D01*
X0101130Y0009300D01*
X0100970Y0009300D01*
X0100809Y0009304D01*
X0100648Y0009312D01*
X0100488Y0009324D01*
X0100328Y0009340D01*
X0100168Y0009360D01*
X0100009Y0009384D01*
X0099851Y0009412D01*
X0099693Y0009443D01*
X0099537Y0009479D01*
X0099381Y0009518D01*
X0099226Y0009561D01*
X0099072Y0009608D01*
X0098919Y0009659D01*
X0098768Y0009714D01*
X0098618Y0009772D01*
X0098470Y0009834D01*
X0098323Y0009900D01*
X0098178Y0009969D01*
X0098035Y0010042D01*
X0097893Y0010118D01*
X0097754Y0010198D01*
X0097616Y0010281D01*
X0097481Y0010368D01*
X0097347Y0010458D01*
X0097216Y0010551D01*
X0097088Y0010647D01*
X0096962Y0010747D01*
X0096838Y0010850D01*
X0096717Y0010955D01*
X0096598Y0011064D01*
X0096482Y0011175D01*
X0096369Y0011290D01*
X0096259Y0011407D01*
X0096152Y0011527D01*
X0096048Y0011649D01*
X0095947Y0011774D01*
X0095849Y0011902D01*
X0095754Y0012032D01*
X0095662Y0012164D01*
X0095574Y0012298D01*
X0095489Y0012435D01*
X0095407Y0012573D01*
X0095329Y0012714D01*
X0095255Y0012856D01*
X0095184Y0013000D01*
X0095116Y0013146D01*
X0095053Y0013294D01*
X0094992Y0013443D01*
X0094936Y0013594D01*
X0094883Y0013746D01*
X0094834Y0013899D01*
X0094789Y0014053D01*
X0094748Y0014208D01*
X0094710Y0014365D01*
X0094677Y0014522D01*
X0094647Y0014680D01*
X0094621Y0014839D01*
X0094600Y0014998D01*
X0094582Y0015158D01*
X0094568Y0015318D01*
X0094558Y0015479D01*
X0094552Y0015639D01*
X0094550Y0015800D01*
X0235550Y0015800D02*
X0235552Y0015961D01*
X0235558Y0016121D01*
X0235568Y0016282D01*
X0235582Y0016442D01*
X0235600Y0016602D01*
X0235621Y0016761D01*
X0235647Y0016920D01*
X0235677Y0017078D01*
X0235710Y0017235D01*
X0235748Y0017392D01*
X0235789Y0017547D01*
X0235834Y0017701D01*
X0235883Y0017854D01*
X0235936Y0018006D01*
X0235992Y0018157D01*
X0236053Y0018306D01*
X0236116Y0018454D01*
X0236184Y0018600D01*
X0236255Y0018744D01*
X0236329Y0018886D01*
X0236407Y0019027D01*
X0236489Y0019165D01*
X0236574Y0019302D01*
X0236662Y0019436D01*
X0236754Y0019568D01*
X0236849Y0019698D01*
X0236947Y0019826D01*
X0237048Y0019951D01*
X0237152Y0020073D01*
X0237259Y0020193D01*
X0237369Y0020310D01*
X0237482Y0020425D01*
X0237598Y0020536D01*
X0237717Y0020645D01*
X0237838Y0020750D01*
X0237962Y0020853D01*
X0238088Y0020953D01*
X0238216Y0021049D01*
X0238347Y0021142D01*
X0238481Y0021232D01*
X0238616Y0021319D01*
X0238754Y0021402D01*
X0238893Y0021482D01*
X0239035Y0021558D01*
X0239178Y0021631D01*
X0239323Y0021700D01*
X0239470Y0021766D01*
X0239618Y0021828D01*
X0239768Y0021886D01*
X0239919Y0021941D01*
X0240072Y0021992D01*
X0240226Y0022039D01*
X0240381Y0022082D01*
X0240537Y0022121D01*
X0240693Y0022157D01*
X0240851Y0022188D01*
X0241009Y0022216D01*
X0241168Y0022240D01*
X0241328Y0022260D01*
X0241488Y0022276D01*
X0241648Y0022288D01*
X0241809Y0022296D01*
X0241970Y0022300D01*
X0242130Y0022300D01*
X0242291Y0022296D01*
X0242452Y0022288D01*
X0242612Y0022276D01*
X0242772Y0022260D01*
X0242932Y0022240D01*
X0243091Y0022216D01*
X0243249Y0022188D01*
X0243407Y0022157D01*
X0243563Y0022121D01*
X0243719Y0022082D01*
X0243874Y0022039D01*
X0244028Y0021992D01*
X0244181Y0021941D01*
X0244332Y0021886D01*
X0244482Y0021828D01*
X0244630Y0021766D01*
X0244777Y0021700D01*
X0244922Y0021631D01*
X0245065Y0021558D01*
X0245207Y0021482D01*
X0245346Y0021402D01*
X0245484Y0021319D01*
X0245619Y0021232D01*
X0245753Y0021142D01*
X0245884Y0021049D01*
X0246012Y0020953D01*
X0246138Y0020853D01*
X0246262Y0020750D01*
X0246383Y0020645D01*
X0246502Y0020536D01*
X0246618Y0020425D01*
X0246731Y0020310D01*
X0246841Y0020193D01*
X0246948Y0020073D01*
X0247052Y0019951D01*
X0247153Y0019826D01*
X0247251Y0019698D01*
X0247346Y0019568D01*
X0247438Y0019436D01*
X0247526Y0019302D01*
X0247611Y0019165D01*
X0247693Y0019027D01*
X0247771Y0018886D01*
X0247845Y0018744D01*
X0247916Y0018600D01*
X0247984Y0018454D01*
X0248047Y0018306D01*
X0248108Y0018157D01*
X0248164Y0018006D01*
X0248217Y0017854D01*
X0248266Y0017701D01*
X0248311Y0017547D01*
X0248352Y0017392D01*
X0248390Y0017235D01*
X0248423Y0017078D01*
X0248453Y0016920D01*
X0248479Y0016761D01*
X0248500Y0016602D01*
X0248518Y0016442D01*
X0248532Y0016282D01*
X0248542Y0016121D01*
X0248548Y0015961D01*
X0248550Y0015800D01*
X0248548Y0015639D01*
X0248542Y0015479D01*
X0248532Y0015318D01*
X0248518Y0015158D01*
X0248500Y0014998D01*
X0248479Y0014839D01*
X0248453Y0014680D01*
X0248423Y0014522D01*
X0248390Y0014365D01*
X0248352Y0014208D01*
X0248311Y0014053D01*
X0248266Y0013899D01*
X0248217Y0013746D01*
X0248164Y0013594D01*
X0248108Y0013443D01*
X0248047Y0013294D01*
X0247984Y0013146D01*
X0247916Y0013000D01*
X0247845Y0012856D01*
X0247771Y0012714D01*
X0247693Y0012573D01*
X0247611Y0012435D01*
X0247526Y0012298D01*
X0247438Y0012164D01*
X0247346Y0012032D01*
X0247251Y0011902D01*
X0247153Y0011774D01*
X0247052Y0011649D01*
X0246948Y0011527D01*
X0246841Y0011407D01*
X0246731Y0011290D01*
X0246618Y0011175D01*
X0246502Y0011064D01*
X0246383Y0010955D01*
X0246262Y0010850D01*
X0246138Y0010747D01*
X0246012Y0010647D01*
X0245884Y0010551D01*
X0245753Y0010458D01*
X0245619Y0010368D01*
X0245484Y0010281D01*
X0245346Y0010198D01*
X0245207Y0010118D01*
X0245065Y0010042D01*
X0244922Y0009969D01*
X0244777Y0009900D01*
X0244630Y0009834D01*
X0244482Y0009772D01*
X0244332Y0009714D01*
X0244181Y0009659D01*
X0244028Y0009608D01*
X0243874Y0009561D01*
X0243719Y0009518D01*
X0243563Y0009479D01*
X0243407Y0009443D01*
X0243249Y0009412D01*
X0243091Y0009384D01*
X0242932Y0009360D01*
X0242772Y0009340D01*
X0242612Y0009324D01*
X0242452Y0009312D01*
X0242291Y0009304D01*
X0242130Y0009300D01*
X0241970Y0009300D01*
X0241809Y0009304D01*
X0241648Y0009312D01*
X0241488Y0009324D01*
X0241328Y0009340D01*
X0241168Y0009360D01*
X0241009Y0009384D01*
X0240851Y0009412D01*
X0240693Y0009443D01*
X0240537Y0009479D01*
X0240381Y0009518D01*
X0240226Y0009561D01*
X0240072Y0009608D01*
X0239919Y0009659D01*
X0239768Y0009714D01*
X0239618Y0009772D01*
X0239470Y0009834D01*
X0239323Y0009900D01*
X0239178Y0009969D01*
X0239035Y0010042D01*
X0238893Y0010118D01*
X0238754Y0010198D01*
X0238616Y0010281D01*
X0238481Y0010368D01*
X0238347Y0010458D01*
X0238216Y0010551D01*
X0238088Y0010647D01*
X0237962Y0010747D01*
X0237838Y0010850D01*
X0237717Y0010955D01*
X0237598Y0011064D01*
X0237482Y0011175D01*
X0237369Y0011290D01*
X0237259Y0011407D01*
X0237152Y0011527D01*
X0237048Y0011649D01*
X0236947Y0011774D01*
X0236849Y0011902D01*
X0236754Y0012032D01*
X0236662Y0012164D01*
X0236574Y0012298D01*
X0236489Y0012435D01*
X0236407Y0012573D01*
X0236329Y0012714D01*
X0236255Y0012856D01*
X0236184Y0013000D01*
X0236116Y0013146D01*
X0236053Y0013294D01*
X0235992Y0013443D01*
X0235936Y0013594D01*
X0235883Y0013746D01*
X0235834Y0013899D01*
X0235789Y0014053D01*
X0235748Y0014208D01*
X0235710Y0014365D01*
X0235677Y0014522D01*
X0235647Y0014680D01*
X0235621Y0014839D01*
X0235600Y0014998D01*
X0235582Y0015158D01*
X0235568Y0015318D01*
X0235558Y0015479D01*
X0235552Y0015639D01*
X0235550Y0015800D01*
X0235550Y0101800D02*
X0235552Y0101961D01*
X0235558Y0102121D01*
X0235568Y0102282D01*
X0235582Y0102442D01*
X0235600Y0102602D01*
X0235621Y0102761D01*
X0235647Y0102920D01*
X0235677Y0103078D01*
X0235710Y0103235D01*
X0235748Y0103392D01*
X0235789Y0103547D01*
X0235834Y0103701D01*
X0235883Y0103854D01*
X0235936Y0104006D01*
X0235992Y0104157D01*
X0236053Y0104306D01*
X0236116Y0104454D01*
X0236184Y0104600D01*
X0236255Y0104744D01*
X0236329Y0104886D01*
X0236407Y0105027D01*
X0236489Y0105165D01*
X0236574Y0105302D01*
X0236662Y0105436D01*
X0236754Y0105568D01*
X0236849Y0105698D01*
X0236947Y0105826D01*
X0237048Y0105951D01*
X0237152Y0106073D01*
X0237259Y0106193D01*
X0237369Y0106310D01*
X0237482Y0106425D01*
X0237598Y0106536D01*
X0237717Y0106645D01*
X0237838Y0106750D01*
X0237962Y0106853D01*
X0238088Y0106953D01*
X0238216Y0107049D01*
X0238347Y0107142D01*
X0238481Y0107232D01*
X0238616Y0107319D01*
X0238754Y0107402D01*
X0238893Y0107482D01*
X0239035Y0107558D01*
X0239178Y0107631D01*
X0239323Y0107700D01*
X0239470Y0107766D01*
X0239618Y0107828D01*
X0239768Y0107886D01*
X0239919Y0107941D01*
X0240072Y0107992D01*
X0240226Y0108039D01*
X0240381Y0108082D01*
X0240537Y0108121D01*
X0240693Y0108157D01*
X0240851Y0108188D01*
X0241009Y0108216D01*
X0241168Y0108240D01*
X0241328Y0108260D01*
X0241488Y0108276D01*
X0241648Y0108288D01*
X0241809Y0108296D01*
X0241970Y0108300D01*
X0242130Y0108300D01*
X0242291Y0108296D01*
X0242452Y0108288D01*
X0242612Y0108276D01*
X0242772Y0108260D01*
X0242932Y0108240D01*
X0243091Y0108216D01*
X0243249Y0108188D01*
X0243407Y0108157D01*
X0243563Y0108121D01*
X0243719Y0108082D01*
X0243874Y0108039D01*
X0244028Y0107992D01*
X0244181Y0107941D01*
X0244332Y0107886D01*
X0244482Y0107828D01*
X0244630Y0107766D01*
X0244777Y0107700D01*
X0244922Y0107631D01*
X0245065Y0107558D01*
X0245207Y0107482D01*
X0245346Y0107402D01*
X0245484Y0107319D01*
X0245619Y0107232D01*
X0245753Y0107142D01*
X0245884Y0107049D01*
X0246012Y0106953D01*
X0246138Y0106853D01*
X0246262Y0106750D01*
X0246383Y0106645D01*
X0246502Y0106536D01*
X0246618Y0106425D01*
X0246731Y0106310D01*
X0246841Y0106193D01*
X0246948Y0106073D01*
X0247052Y0105951D01*
X0247153Y0105826D01*
X0247251Y0105698D01*
X0247346Y0105568D01*
X0247438Y0105436D01*
X0247526Y0105302D01*
X0247611Y0105165D01*
X0247693Y0105027D01*
X0247771Y0104886D01*
X0247845Y0104744D01*
X0247916Y0104600D01*
X0247984Y0104454D01*
X0248047Y0104306D01*
X0248108Y0104157D01*
X0248164Y0104006D01*
X0248217Y0103854D01*
X0248266Y0103701D01*
X0248311Y0103547D01*
X0248352Y0103392D01*
X0248390Y0103235D01*
X0248423Y0103078D01*
X0248453Y0102920D01*
X0248479Y0102761D01*
X0248500Y0102602D01*
X0248518Y0102442D01*
X0248532Y0102282D01*
X0248542Y0102121D01*
X0248548Y0101961D01*
X0248550Y0101800D01*
X0248548Y0101639D01*
X0248542Y0101479D01*
X0248532Y0101318D01*
X0248518Y0101158D01*
X0248500Y0100998D01*
X0248479Y0100839D01*
X0248453Y0100680D01*
X0248423Y0100522D01*
X0248390Y0100365D01*
X0248352Y0100208D01*
X0248311Y0100053D01*
X0248266Y0099899D01*
X0248217Y0099746D01*
X0248164Y0099594D01*
X0248108Y0099443D01*
X0248047Y0099294D01*
X0247984Y0099146D01*
X0247916Y0099000D01*
X0247845Y0098856D01*
X0247771Y0098714D01*
X0247693Y0098573D01*
X0247611Y0098435D01*
X0247526Y0098298D01*
X0247438Y0098164D01*
X0247346Y0098032D01*
X0247251Y0097902D01*
X0247153Y0097774D01*
X0247052Y0097649D01*
X0246948Y0097527D01*
X0246841Y0097407D01*
X0246731Y0097290D01*
X0246618Y0097175D01*
X0246502Y0097064D01*
X0246383Y0096955D01*
X0246262Y0096850D01*
X0246138Y0096747D01*
X0246012Y0096647D01*
X0245884Y0096551D01*
X0245753Y0096458D01*
X0245619Y0096368D01*
X0245484Y0096281D01*
X0245346Y0096198D01*
X0245207Y0096118D01*
X0245065Y0096042D01*
X0244922Y0095969D01*
X0244777Y0095900D01*
X0244630Y0095834D01*
X0244482Y0095772D01*
X0244332Y0095714D01*
X0244181Y0095659D01*
X0244028Y0095608D01*
X0243874Y0095561D01*
X0243719Y0095518D01*
X0243563Y0095479D01*
X0243407Y0095443D01*
X0243249Y0095412D01*
X0243091Y0095384D01*
X0242932Y0095360D01*
X0242772Y0095340D01*
X0242612Y0095324D01*
X0242452Y0095312D01*
X0242291Y0095304D01*
X0242130Y0095300D01*
X0241970Y0095300D01*
X0241809Y0095304D01*
X0241648Y0095312D01*
X0241488Y0095324D01*
X0241328Y0095340D01*
X0241168Y0095360D01*
X0241009Y0095384D01*
X0240851Y0095412D01*
X0240693Y0095443D01*
X0240537Y0095479D01*
X0240381Y0095518D01*
X0240226Y0095561D01*
X0240072Y0095608D01*
X0239919Y0095659D01*
X0239768Y0095714D01*
X0239618Y0095772D01*
X0239470Y0095834D01*
X0239323Y0095900D01*
X0239178Y0095969D01*
X0239035Y0096042D01*
X0238893Y0096118D01*
X0238754Y0096198D01*
X0238616Y0096281D01*
X0238481Y0096368D01*
X0238347Y0096458D01*
X0238216Y0096551D01*
X0238088Y0096647D01*
X0237962Y0096747D01*
X0237838Y0096850D01*
X0237717Y0096955D01*
X0237598Y0097064D01*
X0237482Y0097175D01*
X0237369Y0097290D01*
X0237259Y0097407D01*
X0237152Y0097527D01*
X0237048Y0097649D01*
X0236947Y0097774D01*
X0236849Y0097902D01*
X0236754Y0098032D01*
X0236662Y0098164D01*
X0236574Y0098298D01*
X0236489Y0098435D01*
X0236407Y0098573D01*
X0236329Y0098714D01*
X0236255Y0098856D01*
X0236184Y0099000D01*
X0236116Y0099146D01*
X0236053Y0099294D01*
X0235992Y0099443D01*
X0235936Y0099594D01*
X0235883Y0099746D01*
X0235834Y0099899D01*
X0235789Y0100053D01*
X0235748Y0100208D01*
X0235710Y0100365D01*
X0235677Y0100522D01*
X0235647Y0100680D01*
X0235621Y0100839D01*
X0235600Y0100998D01*
X0235582Y0101158D01*
X0235568Y0101318D01*
X0235558Y0101479D01*
X0235552Y0101639D01*
X0235550Y0101800D01*
X0094550Y0101800D02*
X0094552Y0101961D01*
X0094558Y0102121D01*
X0094568Y0102282D01*
X0094582Y0102442D01*
X0094600Y0102602D01*
X0094621Y0102761D01*
X0094647Y0102920D01*
X0094677Y0103078D01*
X0094710Y0103235D01*
X0094748Y0103392D01*
X0094789Y0103547D01*
X0094834Y0103701D01*
X0094883Y0103854D01*
X0094936Y0104006D01*
X0094992Y0104157D01*
X0095053Y0104306D01*
X0095116Y0104454D01*
X0095184Y0104600D01*
X0095255Y0104744D01*
X0095329Y0104886D01*
X0095407Y0105027D01*
X0095489Y0105165D01*
X0095574Y0105302D01*
X0095662Y0105436D01*
X0095754Y0105568D01*
X0095849Y0105698D01*
X0095947Y0105826D01*
X0096048Y0105951D01*
X0096152Y0106073D01*
X0096259Y0106193D01*
X0096369Y0106310D01*
X0096482Y0106425D01*
X0096598Y0106536D01*
X0096717Y0106645D01*
X0096838Y0106750D01*
X0096962Y0106853D01*
X0097088Y0106953D01*
X0097216Y0107049D01*
X0097347Y0107142D01*
X0097481Y0107232D01*
X0097616Y0107319D01*
X0097754Y0107402D01*
X0097893Y0107482D01*
X0098035Y0107558D01*
X0098178Y0107631D01*
X0098323Y0107700D01*
X0098470Y0107766D01*
X0098618Y0107828D01*
X0098768Y0107886D01*
X0098919Y0107941D01*
X0099072Y0107992D01*
X0099226Y0108039D01*
X0099381Y0108082D01*
X0099537Y0108121D01*
X0099693Y0108157D01*
X0099851Y0108188D01*
X0100009Y0108216D01*
X0100168Y0108240D01*
X0100328Y0108260D01*
X0100488Y0108276D01*
X0100648Y0108288D01*
X0100809Y0108296D01*
X0100970Y0108300D01*
X0101130Y0108300D01*
X0101291Y0108296D01*
X0101452Y0108288D01*
X0101612Y0108276D01*
X0101772Y0108260D01*
X0101932Y0108240D01*
X0102091Y0108216D01*
X0102249Y0108188D01*
X0102407Y0108157D01*
X0102563Y0108121D01*
X0102719Y0108082D01*
X0102874Y0108039D01*
X0103028Y0107992D01*
X0103181Y0107941D01*
X0103332Y0107886D01*
X0103482Y0107828D01*
X0103630Y0107766D01*
X0103777Y0107700D01*
X0103922Y0107631D01*
X0104065Y0107558D01*
X0104207Y0107482D01*
X0104346Y0107402D01*
X0104484Y0107319D01*
X0104619Y0107232D01*
X0104753Y0107142D01*
X0104884Y0107049D01*
X0105012Y0106953D01*
X0105138Y0106853D01*
X0105262Y0106750D01*
X0105383Y0106645D01*
X0105502Y0106536D01*
X0105618Y0106425D01*
X0105731Y0106310D01*
X0105841Y0106193D01*
X0105948Y0106073D01*
X0106052Y0105951D01*
X0106153Y0105826D01*
X0106251Y0105698D01*
X0106346Y0105568D01*
X0106438Y0105436D01*
X0106526Y0105302D01*
X0106611Y0105165D01*
X0106693Y0105027D01*
X0106771Y0104886D01*
X0106845Y0104744D01*
X0106916Y0104600D01*
X0106984Y0104454D01*
X0107047Y0104306D01*
X0107108Y0104157D01*
X0107164Y0104006D01*
X0107217Y0103854D01*
X0107266Y0103701D01*
X0107311Y0103547D01*
X0107352Y0103392D01*
X0107390Y0103235D01*
X0107423Y0103078D01*
X0107453Y0102920D01*
X0107479Y0102761D01*
X0107500Y0102602D01*
X0107518Y0102442D01*
X0107532Y0102282D01*
X0107542Y0102121D01*
X0107548Y0101961D01*
X0107550Y0101800D01*
X0107548Y0101639D01*
X0107542Y0101479D01*
X0107532Y0101318D01*
X0107518Y0101158D01*
X0107500Y0100998D01*
X0107479Y0100839D01*
X0107453Y0100680D01*
X0107423Y0100522D01*
X0107390Y0100365D01*
X0107352Y0100208D01*
X0107311Y0100053D01*
X0107266Y0099899D01*
X0107217Y0099746D01*
X0107164Y0099594D01*
X0107108Y0099443D01*
X0107047Y0099294D01*
X0106984Y0099146D01*
X0106916Y0099000D01*
X0106845Y0098856D01*
X0106771Y0098714D01*
X0106693Y0098573D01*
X0106611Y0098435D01*
X0106526Y0098298D01*
X0106438Y0098164D01*
X0106346Y0098032D01*
X0106251Y0097902D01*
X0106153Y0097774D01*
X0106052Y0097649D01*
X0105948Y0097527D01*
X0105841Y0097407D01*
X0105731Y0097290D01*
X0105618Y0097175D01*
X0105502Y0097064D01*
X0105383Y0096955D01*
X0105262Y0096850D01*
X0105138Y0096747D01*
X0105012Y0096647D01*
X0104884Y0096551D01*
X0104753Y0096458D01*
X0104619Y0096368D01*
X0104484Y0096281D01*
X0104346Y0096198D01*
X0104207Y0096118D01*
X0104065Y0096042D01*
X0103922Y0095969D01*
X0103777Y0095900D01*
X0103630Y0095834D01*
X0103482Y0095772D01*
X0103332Y0095714D01*
X0103181Y0095659D01*
X0103028Y0095608D01*
X0102874Y0095561D01*
X0102719Y0095518D01*
X0102563Y0095479D01*
X0102407Y0095443D01*
X0102249Y0095412D01*
X0102091Y0095384D01*
X0101932Y0095360D01*
X0101772Y0095340D01*
X0101612Y0095324D01*
X0101452Y0095312D01*
X0101291Y0095304D01*
X0101130Y0095300D01*
X0100970Y0095300D01*
X0100809Y0095304D01*
X0100648Y0095312D01*
X0100488Y0095324D01*
X0100328Y0095340D01*
X0100168Y0095360D01*
X0100009Y0095384D01*
X0099851Y0095412D01*
X0099693Y0095443D01*
X0099537Y0095479D01*
X0099381Y0095518D01*
X0099226Y0095561D01*
X0099072Y0095608D01*
X0098919Y0095659D01*
X0098768Y0095714D01*
X0098618Y0095772D01*
X0098470Y0095834D01*
X0098323Y0095900D01*
X0098178Y0095969D01*
X0098035Y0096042D01*
X0097893Y0096118D01*
X0097754Y0096198D01*
X0097616Y0096281D01*
X0097481Y0096368D01*
X0097347Y0096458D01*
X0097216Y0096551D01*
X0097088Y0096647D01*
X0096962Y0096747D01*
X0096838Y0096850D01*
X0096717Y0096955D01*
X0096598Y0097064D01*
X0096482Y0097175D01*
X0096369Y0097290D01*
X0096259Y0097407D01*
X0096152Y0097527D01*
X0096048Y0097649D01*
X0095947Y0097774D01*
X0095849Y0097902D01*
X0095754Y0098032D01*
X0095662Y0098164D01*
X0095574Y0098298D01*
X0095489Y0098435D01*
X0095407Y0098573D01*
X0095329Y0098714D01*
X0095255Y0098856D01*
X0095184Y0099000D01*
X0095116Y0099146D01*
X0095053Y0099294D01*
X0094992Y0099443D01*
X0094936Y0099594D01*
X0094883Y0099746D01*
X0094834Y0099899D01*
X0094789Y0100053D01*
X0094748Y0100208D01*
X0094710Y0100365D01*
X0094677Y0100522D01*
X0094647Y0100680D01*
X0094621Y0100839D01*
X0094600Y0100998D01*
X0094582Y0101158D01*
X0094568Y0101318D01*
X0094558Y0101479D01*
X0094552Y0101639D01*
X0094550Y0101800D01*
D11*
X0131688Y0058800D02*
X0136412Y0058800D01*
X0136412Y0048800D02*
X0131688Y0048800D01*
D12*
X0114050Y0038800D03*
X0114050Y0078800D03*
D13*
X0128680Y0074753D02*
X0130420Y0074753D01*
X0130420Y0066375D01*
X0128680Y0066375D01*
X0128680Y0074753D01*
X0128680Y0067797D02*
X0130420Y0067797D01*
X0130420Y0069219D02*
X0128680Y0069219D01*
X0128680Y0070641D02*
X0130420Y0070641D01*
X0130420Y0072063D02*
X0128680Y0072063D01*
X0128680Y0073485D02*
X0130420Y0073485D01*
X0133680Y0074753D02*
X0135420Y0074753D01*
X0135420Y0066375D01*
X0133680Y0066375D01*
X0133680Y0074753D01*
X0133680Y0067797D02*
X0135420Y0067797D01*
X0135420Y0069219D02*
X0133680Y0069219D01*
X0133680Y0070641D02*
X0135420Y0070641D01*
X0135420Y0072063D02*
X0133680Y0072063D01*
X0133680Y0073485D02*
X0135420Y0073485D01*
X0138680Y0074753D02*
X0140420Y0074753D01*
X0140420Y0066375D01*
X0138680Y0066375D01*
X0138680Y0074753D01*
X0138680Y0067797D02*
X0140420Y0067797D01*
X0140420Y0069219D02*
X0138680Y0069219D01*
X0138680Y0070641D02*
X0140420Y0070641D01*
X0140420Y0072063D02*
X0138680Y0072063D01*
X0138680Y0073485D02*
X0140420Y0073485D01*
X0143680Y0074753D02*
X0145420Y0074753D01*
X0145420Y0066375D01*
X0143680Y0066375D01*
X0143680Y0074753D01*
X0143680Y0067797D02*
X0145420Y0067797D01*
X0145420Y0069219D02*
X0143680Y0069219D01*
X0143680Y0070641D02*
X0145420Y0070641D01*
X0145420Y0072063D02*
X0143680Y0072063D01*
X0143680Y0073485D02*
X0145420Y0073485D01*
X0145420Y0095225D02*
X0143680Y0095225D01*
X0145420Y0095225D02*
X0145420Y0086847D01*
X0143680Y0086847D01*
X0143680Y0095225D01*
X0143680Y0088269D02*
X0145420Y0088269D01*
X0145420Y0089691D02*
X0143680Y0089691D01*
X0143680Y0091113D02*
X0145420Y0091113D01*
X0145420Y0092535D02*
X0143680Y0092535D01*
X0143680Y0093957D02*
X0145420Y0093957D01*
X0140420Y0095225D02*
X0138680Y0095225D01*
X0140420Y0095225D02*
X0140420Y0086847D01*
X0138680Y0086847D01*
X0138680Y0095225D01*
X0138680Y0088269D02*
X0140420Y0088269D01*
X0140420Y0089691D02*
X0138680Y0089691D01*
X0138680Y0091113D02*
X0140420Y0091113D01*
X0140420Y0092535D02*
X0138680Y0092535D01*
X0138680Y0093957D02*
X0140420Y0093957D01*
X0135420Y0095225D02*
X0133680Y0095225D01*
X0135420Y0095225D02*
X0135420Y0086847D01*
X0133680Y0086847D01*
X0133680Y0095225D01*
X0133680Y0088269D02*
X0135420Y0088269D01*
X0135420Y0089691D02*
X0133680Y0089691D01*
X0133680Y0091113D02*
X0135420Y0091113D01*
X0135420Y0092535D02*
X0133680Y0092535D01*
X0133680Y0093957D02*
X0135420Y0093957D01*
X0130420Y0095225D02*
X0128680Y0095225D01*
X0130420Y0095225D02*
X0130420Y0086847D01*
X0128680Y0086847D01*
X0128680Y0095225D01*
X0128680Y0088269D02*
X0130420Y0088269D01*
X0130420Y0089691D02*
X0128680Y0089691D01*
X0128680Y0091113D02*
X0130420Y0091113D01*
X0130420Y0092535D02*
X0128680Y0092535D01*
X0128680Y0093957D02*
X0130420Y0093957D01*
X0184625Y0072170D02*
X0184625Y0070430D01*
X0184625Y0072170D02*
X0193003Y0072170D01*
X0193003Y0070430D01*
X0184625Y0070430D01*
X0184625Y0071852D02*
X0193003Y0071852D01*
X0184625Y0067170D02*
X0184625Y0065430D01*
X0184625Y0067170D02*
X0193003Y0067170D01*
X0193003Y0065430D01*
X0184625Y0065430D01*
X0184625Y0066852D02*
X0193003Y0066852D01*
X0184625Y0062170D02*
X0184625Y0060430D01*
X0184625Y0062170D02*
X0193003Y0062170D01*
X0193003Y0060430D01*
X0184625Y0060430D01*
X0184625Y0061852D02*
X0193003Y0061852D01*
X0184625Y0057170D02*
X0184625Y0055430D01*
X0184625Y0057170D02*
X0193003Y0057170D01*
X0193003Y0055430D01*
X0184625Y0055430D01*
X0184625Y0056852D02*
X0193003Y0056852D01*
X0205097Y0057170D02*
X0205097Y0055430D01*
X0205097Y0057170D02*
X0213475Y0057170D01*
X0213475Y0055430D01*
X0205097Y0055430D01*
X0205097Y0056852D02*
X0213475Y0056852D01*
X0205097Y0060430D02*
X0205097Y0062170D01*
X0213475Y0062170D01*
X0213475Y0060430D01*
X0205097Y0060430D01*
X0205097Y0061852D02*
X0213475Y0061852D01*
X0205097Y0065430D02*
X0205097Y0067170D01*
X0213475Y0067170D01*
X0213475Y0065430D01*
X0205097Y0065430D01*
X0205097Y0066852D02*
X0213475Y0066852D01*
D14*
X0108935Y0065355D02*
X0108935Y0063725D01*
X0108935Y0065355D02*
X0113401Y0065355D01*
X0113401Y0063725D01*
X0108935Y0063725D01*
X0108935Y0065058D02*
X0113401Y0065058D01*
X0108935Y0061615D02*
X0108935Y0059985D01*
X0108935Y0061615D02*
X0113401Y0061615D01*
X0113401Y0059985D01*
X0108935Y0059985D01*
X0108935Y0061318D02*
X0113401Y0061318D01*
X0108935Y0057875D02*
X0108935Y0056245D01*
X0108935Y0057875D02*
X0113401Y0057875D01*
X0113401Y0056245D01*
X0108935Y0056245D01*
X0108935Y0057578D02*
X0113401Y0057578D01*
X0098699Y0057875D02*
X0098699Y0056245D01*
X0098699Y0057875D02*
X0103165Y0057875D01*
X0103165Y0056245D01*
X0098699Y0056245D01*
X0098699Y0057578D02*
X0103165Y0057578D01*
X0098699Y0063725D02*
X0098699Y0065355D01*
X0103165Y0065355D01*
X0103165Y0063725D01*
X0098699Y0063725D01*
X0098699Y0065058D02*
X0103165Y0065058D01*
D15*
X0095648Y0065628D02*
X0095648Y0063058D01*
X0092452Y0063058D01*
X0092452Y0065628D01*
X0095648Y0065628D01*
X0095648Y0065161D02*
X0092452Y0065161D01*
X0097222Y0070202D02*
X0099792Y0070202D01*
X0097222Y0070202D02*
X0097222Y0073398D01*
X0099792Y0073398D01*
X0099792Y0070202D01*
X0099792Y0072305D02*
X0097222Y0072305D01*
X0104308Y0070202D02*
X0106878Y0070202D01*
X0104308Y0070202D02*
X0104308Y0073398D01*
X0106878Y0073398D01*
X0106878Y0070202D01*
X0106878Y0072305D02*
X0104308Y0072305D01*
X0116222Y0067202D02*
X0118792Y0067202D01*
X0116222Y0067202D02*
X0116222Y0070398D01*
X0118792Y0070398D01*
X0118792Y0067202D01*
X0118792Y0069305D02*
X0116222Y0069305D01*
X0123308Y0067202D02*
X0125878Y0067202D01*
X0123308Y0067202D02*
X0123308Y0070398D01*
X0125878Y0070398D01*
X0125878Y0067202D01*
X0125878Y0069305D02*
X0123308Y0069305D01*
X0123648Y0063628D02*
X0123648Y0061058D01*
X0120452Y0061058D01*
X0120452Y0063628D01*
X0123648Y0063628D01*
X0123648Y0063161D02*
X0120452Y0063161D01*
X0123648Y0056542D02*
X0123648Y0053972D01*
X0120452Y0053972D01*
X0120452Y0056542D01*
X0123648Y0056542D01*
X0123648Y0056075D02*
X0120452Y0056075D01*
X0115878Y0051398D02*
X0113308Y0051398D01*
X0115878Y0051398D02*
X0115878Y0048202D01*
X0113308Y0048202D01*
X0113308Y0051398D01*
X0113308Y0050305D02*
X0115878Y0050305D01*
X0108792Y0051398D02*
X0106222Y0051398D01*
X0108792Y0051398D02*
X0108792Y0048202D01*
X0106222Y0048202D01*
X0106222Y0051398D01*
X0106222Y0050305D02*
X0108792Y0050305D01*
X0095648Y0055972D02*
X0095648Y0058542D01*
X0095648Y0055972D02*
X0092452Y0055972D01*
X0092452Y0058542D01*
X0095648Y0058542D01*
X0095648Y0058075D02*
X0092452Y0058075D01*
X0145222Y0061398D02*
X0147792Y0061398D01*
X0147792Y0058202D01*
X0145222Y0058202D01*
X0145222Y0061398D01*
X0145222Y0060305D02*
X0147792Y0060305D01*
X0152308Y0061398D02*
X0154878Y0061398D01*
X0154878Y0058202D01*
X0152308Y0058202D01*
X0152308Y0061398D01*
X0152308Y0060305D02*
X0154878Y0060305D01*
X0154878Y0054398D02*
X0152308Y0054398D01*
X0154878Y0054398D02*
X0154878Y0051202D01*
X0152308Y0051202D01*
X0152308Y0054398D01*
X0152308Y0053305D02*
X0154878Y0053305D01*
X0147792Y0054398D02*
X0145222Y0054398D01*
X0147792Y0054398D02*
X0147792Y0051202D01*
X0145222Y0051202D01*
X0145222Y0054398D01*
X0145222Y0053305D02*
X0147792Y0053305D01*
X0168648Y0037628D02*
X0168648Y0035058D01*
X0165452Y0035058D01*
X0165452Y0037628D01*
X0168648Y0037628D01*
X0168648Y0037161D02*
X0165452Y0037161D01*
X0168648Y0030542D02*
X0168648Y0027972D01*
X0165452Y0027972D01*
X0165452Y0030542D01*
X0168648Y0030542D01*
X0168648Y0030075D02*
X0165452Y0030075D01*
X0158878Y0027702D02*
X0156308Y0027702D01*
X0156308Y0030898D01*
X0158878Y0030898D01*
X0158878Y0027702D01*
X0158878Y0029805D02*
X0156308Y0029805D01*
X0151792Y0027702D02*
X0149222Y0027702D01*
X0149222Y0030898D01*
X0151792Y0030898D01*
X0151792Y0027702D01*
X0151792Y0029805D02*
X0149222Y0029805D01*
X0221452Y0056972D02*
X0221452Y0059542D01*
X0224648Y0059542D01*
X0224648Y0056972D01*
X0221452Y0056972D01*
X0221452Y0059075D02*
X0224648Y0059075D01*
X0228452Y0059058D02*
X0228452Y0061628D01*
X0231648Y0061628D01*
X0231648Y0059058D01*
X0228452Y0059058D01*
X0228452Y0061161D02*
X0231648Y0061161D01*
X0221452Y0064058D02*
X0221452Y0066628D01*
X0224648Y0066628D01*
X0224648Y0064058D01*
X0221452Y0064058D01*
X0221452Y0066161D02*
X0224648Y0066161D01*
X0228452Y0054542D02*
X0228452Y0051972D01*
X0228452Y0054542D02*
X0231648Y0054542D01*
X0231648Y0051972D01*
X0228452Y0051972D01*
X0228452Y0054075D02*
X0231648Y0054075D01*
X0194878Y0080398D02*
X0192308Y0080398D01*
X0194878Y0080398D02*
X0194878Y0077202D01*
X0192308Y0077202D01*
X0192308Y0080398D01*
X0192308Y0079305D02*
X0194878Y0079305D01*
X0187792Y0080398D02*
X0185222Y0080398D01*
X0187792Y0080398D02*
X0187792Y0077202D01*
X0185222Y0077202D01*
X0185222Y0080398D01*
X0185222Y0079305D02*
X0187792Y0079305D01*
X0185792Y0086202D02*
X0183222Y0086202D01*
X0183222Y0089398D01*
X0185792Y0089398D01*
X0185792Y0086202D01*
X0185792Y0088305D02*
X0183222Y0088305D01*
X0190308Y0086202D02*
X0192878Y0086202D01*
X0190308Y0086202D02*
X0190308Y0089398D01*
X0192878Y0089398D01*
X0192878Y0086202D01*
X0192878Y0088305D02*
X0190308Y0088305D01*
X0194648Y0097972D02*
X0194648Y0100542D01*
X0194648Y0097972D02*
X0191452Y0097972D01*
X0191452Y0100542D01*
X0194648Y0100542D01*
X0194648Y0100075D02*
X0191452Y0100075D01*
X0194648Y0105058D02*
X0194648Y0107628D01*
X0194648Y0105058D02*
X0191452Y0105058D01*
X0191452Y0107628D01*
X0194648Y0107628D01*
X0194648Y0107161D02*
X0191452Y0107161D01*
X0174648Y0107628D02*
X0174648Y0105058D01*
X0171452Y0105058D01*
X0171452Y0107628D01*
X0174648Y0107628D01*
X0174648Y0107161D02*
X0171452Y0107161D01*
X0161878Y0108398D02*
X0159308Y0108398D01*
X0161878Y0108398D02*
X0161878Y0105202D01*
X0159308Y0105202D01*
X0159308Y0108398D01*
X0159308Y0107305D02*
X0161878Y0107305D01*
X0154792Y0108398D02*
X0152222Y0108398D01*
X0154792Y0108398D02*
X0154792Y0105202D01*
X0152222Y0105202D01*
X0152222Y0108398D01*
X0152222Y0107305D02*
X0154792Y0107305D01*
X0141878Y0109398D02*
X0139308Y0109398D01*
X0141878Y0109398D02*
X0141878Y0106202D01*
X0139308Y0106202D01*
X0139308Y0109398D01*
X0139308Y0108305D02*
X0141878Y0108305D01*
X0134792Y0109398D02*
X0132222Y0109398D01*
X0134792Y0109398D02*
X0134792Y0106202D01*
X0132222Y0106202D01*
X0132222Y0109398D01*
X0132222Y0108305D02*
X0134792Y0108305D01*
X0121452Y0108628D02*
X0121452Y0106058D01*
X0121452Y0108628D02*
X0124648Y0108628D01*
X0124648Y0106058D01*
X0121452Y0106058D01*
X0121452Y0108161D02*
X0124648Y0108161D01*
X0121452Y0101542D02*
X0121452Y0098972D01*
X0121452Y0101542D02*
X0124648Y0101542D01*
X0124648Y0098972D01*
X0121452Y0098972D01*
X0121452Y0101075D02*
X0124648Y0101075D01*
X0132222Y0099202D02*
X0134792Y0099202D01*
X0132222Y0099202D02*
X0132222Y0102398D01*
X0134792Y0102398D01*
X0134792Y0099202D01*
X0134792Y0101305D02*
X0132222Y0101305D01*
X0139308Y0099202D02*
X0141878Y0099202D01*
X0139308Y0099202D02*
X0139308Y0102398D01*
X0141878Y0102398D01*
X0141878Y0099202D01*
X0141878Y0101305D02*
X0139308Y0101305D01*
X0152222Y0097202D02*
X0154792Y0097202D01*
X0152222Y0097202D02*
X0152222Y0100398D01*
X0154792Y0100398D01*
X0154792Y0097202D01*
X0154792Y0099305D02*
X0152222Y0099305D01*
X0159308Y0097202D02*
X0161878Y0097202D01*
X0159308Y0097202D02*
X0159308Y0100398D01*
X0161878Y0100398D01*
X0161878Y0097202D01*
X0161878Y0099305D02*
X0159308Y0099305D01*
X0174648Y0100542D02*
X0174648Y0097972D01*
X0171452Y0097972D01*
X0171452Y0100542D01*
X0174648Y0100542D01*
X0174648Y0100075D02*
X0171452Y0100075D01*
X0211452Y0088628D02*
X0211452Y0086058D01*
X0211452Y0088628D02*
X0214648Y0088628D01*
X0214648Y0086058D01*
X0211452Y0086058D01*
X0211452Y0088161D02*
X0214648Y0088161D01*
X0211452Y0081542D02*
X0211452Y0078972D01*
X0211452Y0081542D02*
X0214648Y0081542D01*
X0214648Y0078972D01*
X0211452Y0078972D01*
X0211452Y0081075D02*
X0214648Y0081075D01*
X0124878Y0093398D02*
X0122308Y0093398D01*
X0124878Y0093398D02*
X0124878Y0090202D01*
X0122308Y0090202D01*
X0122308Y0093398D01*
X0122308Y0092305D02*
X0124878Y0092305D01*
X0117792Y0093398D02*
X0115222Y0093398D01*
X0117792Y0093398D02*
X0117792Y0090202D01*
X0115222Y0090202D01*
X0115222Y0093398D01*
X0115222Y0092305D02*
X0117792Y0092305D01*
D16*
X0101050Y0101800D03*
X0242050Y0101800D03*
X0242050Y0015800D03*
X0101050Y0015800D03*
D17*
X0189239Y0021800D03*
D18*
X0197113Y0021800D03*
X0204987Y0021800D03*
X0212861Y0021800D03*
D19*
X0244050Y0038800D03*
D20*
X0244050Y0048800D03*
X0244050Y0058800D03*
X0244050Y0068800D03*
X0244050Y0078800D03*
D21*
X0188023Y0097277D02*
X0185877Y0097277D01*
X0185877Y0100323D01*
X0188023Y0100323D01*
X0188023Y0097277D01*
X0188023Y0099031D02*
X0185877Y0099031D01*
X0180423Y0097277D02*
X0178277Y0097277D01*
X0178277Y0100323D01*
X0180423Y0100323D01*
X0180423Y0097277D01*
X0180423Y0099031D02*
X0178277Y0099031D01*
X0182077Y0105277D02*
X0184223Y0105277D01*
X0182077Y0105277D02*
X0182077Y0108323D01*
X0184223Y0108323D01*
X0184223Y0105277D01*
X0184223Y0107031D02*
X0182077Y0107031D01*
D22*
X0158381Y0045359D03*
D23*
X0156744Y0043453D02*
X0156744Y0042147D01*
X0156744Y0043453D02*
X0160018Y0043453D01*
X0160018Y0042147D01*
X0156744Y0042147D01*
X0156744Y0043215D02*
X0160018Y0043215D01*
X0156744Y0040894D02*
X0156744Y0039588D01*
X0156744Y0040894D02*
X0160018Y0040894D01*
X0160018Y0039588D01*
X0156744Y0039588D01*
X0156744Y0040656D02*
X0160018Y0040656D01*
X0148082Y0040894D02*
X0148082Y0039588D01*
X0148082Y0040894D02*
X0151356Y0040894D01*
X0151356Y0039588D01*
X0148082Y0039588D01*
X0148082Y0040656D02*
X0151356Y0040656D01*
X0148082Y0042147D02*
X0148082Y0043453D01*
X0151356Y0043453D01*
X0151356Y0042147D01*
X0148082Y0042147D01*
X0148082Y0043215D02*
X0151356Y0043215D01*
X0148082Y0044706D02*
X0148082Y0046012D01*
X0151356Y0046012D01*
X0151356Y0044706D01*
X0148082Y0044706D01*
X0148082Y0045774D02*
X0151356Y0045774D01*
D24*
X0209286Y0071300D03*
D25*
X0119050Y0014800D03*
D26*
X0119050Y0011800D03*
D27*
X0119050Y0017800D03*
X0132050Y0017800D03*
X0145050Y0017800D03*
D28*
X0119050Y0020800D03*
D29*
X0132050Y0020300D03*
X0132050Y0015300D03*
D30*
X0124050Y0084800D03*
X0152050Y0089800D03*
D31*
X0150050Y0092800D03*
X0142050Y0082800D03*
X0149050Y0080800D03*
X0154050Y0076800D03*
X0176050Y0081800D03*
X0196050Y0090800D03*
X0189050Y0093800D03*
X0173050Y0093800D03*
X0145050Y0107800D03*
X0128050Y0108800D03*
X0127050Y0080800D03*
X0099050Y0078800D03*
X0094050Y0076800D03*
X0117050Y0062800D03*
X0141050Y0053800D03*
X0120050Y0047800D03*
X0134050Y0041800D03*
X0141050Y0042800D03*
X0140050Y0035800D03*
X0126050Y0033800D03*
X0139050Y0025800D03*
X0170050Y0019800D03*
X0184050Y0018800D03*
X0213050Y0015800D03*
X0236050Y0032800D03*
X0211050Y0046800D03*
X0223050Y0052800D03*
X0197050Y0056800D03*
X0173050Y0044800D03*
X0167050Y0041800D03*
X0166050Y0048800D03*
X0163050Y0059800D03*
X0196050Y0071800D03*
X0218050Y0080800D03*
X0236050Y0076800D03*
X0215050Y0092800D03*
X0224050Y0098800D03*
X0215050Y0102800D03*
X0102050Y0046800D03*
X0095050Y0032800D03*
X0183050Y0038800D03*
M02*
