G75*
%MOIN*%
%OFA0B0*%
%FSLAX25Y25*%
%IPPOS*%
%LPD*%
%AMOC8*
5,1,8,0,0,1.08239X$1,22.5*
%
%ADD10C,0.00000*%
%ADD11C,0.03200*%
%ADD12C,0.00300*%
%ADD13C,0.00400*%
%ADD14C,0.00500*%
%ADD15C,0.01200*%
%ADD16C,0.00200*%
%ADD17R,0.01102X0.00039*%
%ADD18R,0.01929X0.00039*%
%ADD19R,0.02205X0.00039*%
%ADD20R,0.02244X0.00039*%
%ADD21R,0.02283X0.00039*%
%ADD22R,0.02323X0.00039*%
%ADD23R,0.02362X0.00039*%
%ADD24R,0.02402X0.00039*%
%ADD25R,0.02441X0.00039*%
%ADD26R,0.00079X0.00039*%
%ADD27R,0.02480X0.00039*%
%ADD28R,0.00039X0.00039*%
%ADD29R,0.00197X0.00039*%
%ADD30R,0.00354X0.00039*%
%ADD31R,0.02520X0.00039*%
%ADD32R,0.00315X0.00039*%
%ADD33R,0.00472X0.00039*%
%ADD34R,0.02559X0.00039*%
%ADD35R,0.00433X0.00039*%
%ADD36R,0.00591X0.00039*%
%ADD37R,0.00709X0.00039*%
%ADD38R,0.02598X0.00039*%
%ADD39R,0.00827X0.00039*%
%ADD40R,0.02638X0.00039*%
%ADD41R,0.00945X0.00039*%
%ADD42R,0.01063X0.00039*%
%ADD43R,0.02677X0.00039*%
%ADD44R,0.01181X0.00039*%
%ADD45R,0.01299X0.00039*%
%ADD46R,0.02717X0.00039*%
%ADD47R,0.01417X0.00039*%
%ADD48R,0.01496X0.00039*%
%ADD49R,0.02756X0.00039*%
%ADD50R,0.01535X0.00039*%
%ADD51R,0.01614X0.00039*%
%ADD52R,0.02795X0.00039*%
%ADD53R,0.01654X0.00039*%
%ADD54R,0.01732X0.00039*%
%ADD55R,0.01811X0.00039*%
%ADD56R,0.03071X0.00039*%
%ADD57R,0.01850X0.00039*%
%ADD58R,0.03386X0.00039*%
%ADD59R,0.02047X0.00039*%
%ADD60R,0.03661X0.00039*%
%ADD61R,0.02126X0.00039*%
%ADD62R,0.03937X0.00039*%
%ADD63R,0.02165X0.00039*%
%ADD64R,0.08701X0.00039*%
%ADD65R,0.08780X0.00039*%
%ADD66R,0.08898X0.00039*%
%ADD67R,0.09016X0.00039*%
%ADD68R,0.09134X0.00039*%
%ADD69R,0.09252X0.00039*%
%ADD70R,0.09331X0.00039*%
%ADD71R,0.09449X0.00039*%
%ADD72R,0.09567X0.00039*%
%ADD73R,0.09528X0.00039*%
%ADD74R,0.09488X0.00039*%
%ADD75R,0.09409X0.00039*%
%ADD76R,0.09370X0.00039*%
%ADD77R,0.09291X0.00039*%
%ADD78R,0.09213X0.00039*%
%ADD79R,0.09173X0.00039*%
%ADD80R,0.04252X0.00039*%
%ADD81R,0.03858X0.00039*%
%ADD82R,0.03622X0.00039*%
%ADD83R,0.03583X0.00039*%
%ADD84R,0.03425X0.00039*%
%ADD85R,0.03268X0.00039*%
%ADD86R,0.03228X0.00039*%
%ADD87R,0.03150X0.00039*%
%ADD88R,0.03031X0.00039*%
%ADD89R,0.02992X0.00039*%
%ADD90R,0.02913X0.00039*%
%ADD91R,0.02953X0.00039*%
%ADD92R,0.02835X0.00039*%
%ADD93R,0.02874X0.00039*%
%ADD94R,0.00157X0.00039*%
%ADD95R,0.00394X0.00039*%
%ADD96R,0.00551X0.00039*%
%ADD97R,0.00787X0.00039*%
%ADD98R,0.00748X0.00039*%
%ADD99R,0.01142X0.00039*%
%ADD100R,0.03780X0.00039*%
%ADD101R,0.03740X0.00039*%
%ADD102R,0.03701X0.00039*%
%ADD103R,0.03543X0.00039*%
%ADD104R,0.03504X0.00039*%
%ADD105R,0.03465X0.00039*%
%ADD106R,0.01890X0.00039*%
%ADD107R,0.03346X0.00039*%
%ADD108R,0.03307X0.00039*%
%ADD109R,0.03189X0.00039*%
%ADD110R,0.03819X0.00039*%
%ADD111R,0.03976X0.00039*%
%ADD112R,0.04134X0.00039*%
%ADD113R,0.03110X0.00039*%
%ADD114R,0.04370X0.00039*%
%ADD115R,0.04528X0.00039*%
%ADD116R,0.04606X0.00039*%
%ADD117R,0.04724X0.00039*%
%ADD118R,0.04843X0.00039*%
%ADD119R,0.04961X0.00039*%
%ADD120R,0.05079X0.00039*%
%ADD121R,0.05157X0.00039*%
%ADD122R,0.05276X0.00039*%
%ADD123R,0.05354X0.00039*%
%ADD124R,0.05472X0.00039*%
%ADD125R,0.05551X0.00039*%
%ADD126R,0.05630X0.00039*%
%ADD127R,0.05709X0.00039*%
%ADD128R,0.05787X0.00039*%
%ADD129R,0.04055X0.00039*%
%ADD130R,0.05866X0.00039*%
%ADD131R,0.10157X0.00039*%
%ADD132R,0.10197X0.00039*%
%ADD133R,0.00669X0.00039*%
%ADD134R,0.01575X0.00039*%
%ADD135R,0.00630X0.00039*%
%ADD136R,0.02087X0.00039*%
%ADD137R,0.00984X0.00039*%
%ADD138R,0.02008X0.00039*%
%ADD139R,0.01693X0.00039*%
%ADD140R,0.01969X0.00039*%
%ADD141R,0.01378X0.00039*%
%ADD142R,0.01772X0.00039*%
%ADD143R,0.01339X0.00039*%
%ADD144R,0.01024X0.00039*%
%ADD145R,0.01260X0.00039*%
%ADD146R,0.01220X0.00039*%
%ADD147R,0.00906X0.00039*%
%ADD148R,0.00866X0.00039*%
%ADD149R,0.04094X0.00039*%
%ADD150R,0.04173X0.00039*%
%ADD151R,0.04291X0.00039*%
%ADD152R,0.04449X0.00039*%
%ADD153R,0.04803X0.00039*%
%ADD154R,0.00512X0.00039*%
%ADD155R,0.05118X0.00039*%
%ADD156R,0.05197X0.00039*%
%ADD157R,0.01457X0.00039*%
%ADD158R,0.00276X0.00039*%
%ADD159R,0.00236X0.00039*%
%ADD160R,0.00118X0.00039*%
%ADD161R,0.10630X0.00039*%
%ADD162R,0.10591X0.00039*%
%ADD163R,0.06850X0.00039*%
%ADD164R,0.06772X0.00039*%
%ADD165R,0.06654X0.00039*%
%ADD166R,0.06496X0.00039*%
%ADD167R,0.06417X0.00039*%
%ADD168R,0.06299X0.00039*%
%ADD169R,0.06142X0.00039*%
%ADD170R,0.05984X0.00039*%
%ADD171R,0.05906X0.00039*%
%ADD172R,0.05827X0.00039*%
%ADD173R,0.05748X0.00039*%
%ADD174R,0.05669X0.00039*%
%ADD175R,0.05591X0.00039*%
%ADD176R,0.05512X0.00039*%
%ADD177R,0.05394X0.00039*%
%ADD178R,0.05315X0.00039*%
%ADD179R,0.05236X0.00039*%
%ADD180R,0.05000X0.00039*%
%ADD181R,0.04921X0.00039*%
%ADD182R,0.04685X0.00039*%
%ADD183R,0.04567X0.00039*%
%ADD184R,0.04331X0.00039*%
%ADD185R,0.03898X0.00039*%
%ADD186R,0.04016X0.00039*%
%ADD187R,0.09094X0.00039*%
%ADD188R,0.08976X0.00039*%
%ADD189R,0.08858X0.00039*%
%ADD190R,0.08740X0.00039*%
%ADD191C,0.00600*%
%ADD192C,0.00100*%
%ADD193C,0.01000*%
%ADD194C,0.00800*%
%ADD195R,0.60150X0.00150*%
%ADD196R,0.60450X0.00150*%
%ADD197R,0.43950X0.00150*%
%ADD198R,0.16200X0.00150*%
%ADD199R,0.28650X0.00150*%
%ADD200R,0.02100X0.00150*%
%ADD201R,0.09750X0.00150*%
%ADD202R,0.00750X0.00150*%
%ADD203R,0.01650X0.00150*%
%ADD204R,0.11700X0.00150*%
%ADD205R,0.01800X0.00150*%
%ADD206R,0.09450X0.00150*%
%ADD207R,0.00450X0.00150*%
%ADD208R,0.10350X0.00150*%
%ADD209R,0.17850X0.00150*%
%ADD210R,0.09300X0.00150*%
%ADD211R,0.01500X0.00150*%
%ADD212R,0.08850X0.00150*%
%ADD213R,0.16500X0.00150*%
%ADD214R,0.00600X0.00150*%
%ADD215R,0.00300X0.00150*%
%ADD216R,0.01350X0.00150*%
%ADD217R,0.11850X0.00150*%
%ADD218R,0.08100X0.00150*%
%ADD219R,0.15750X0.00150*%
%ADD220R,0.01200X0.00150*%
%ADD221R,0.09150X0.00150*%
%ADD222R,0.07650X0.00150*%
%ADD223R,0.15300X0.00150*%
%ADD224R,0.12000X0.00150*%
%ADD225R,0.07350X0.00150*%
%ADD226R,0.14850X0.00150*%
%ADD227R,0.06900X0.00150*%
%ADD228R,0.14550X0.00150*%
%ADD229R,0.11100X0.00150*%
%ADD230R,0.06600X0.00150*%
%ADD231R,0.14250X0.00150*%
%ADD232R,0.10800X0.00150*%
%ADD233R,0.12150X0.00150*%
%ADD234R,0.06300X0.00150*%
%ADD235R,0.13950X0.00150*%
%ADD236R,0.00900X0.00150*%
%ADD237R,0.10200X0.00150*%
%ADD238R,0.06000X0.00150*%
%ADD239R,0.13650X0.00150*%
%ADD240R,0.09600X0.00150*%
%ADD241R,0.05850X0.00150*%
%ADD242R,0.13350X0.00150*%
%ADD243R,0.12300X0.00150*%
%ADD244R,0.05550X0.00150*%
%ADD245R,0.13200X0.00150*%
%ADD246R,0.05400X0.00150*%
%ADD247R,0.12900X0.00150*%
%ADD248R,0.08850X0.00150*%
%ADD249R,0.02250X0.00150*%
%ADD250R,0.12450X0.00150*%
%ADD251R,0.05100X0.00150*%
%ADD252R,0.03000X0.00150*%
%ADD253R,0.12750X0.00150*%
%ADD254R,0.01050X0.00150*%
%ADD255R,0.02700X0.00150*%
%ADD256R,0.00150X0.00150*%
%ADD257R,0.04950X0.00150*%
%ADD258R,0.04350X0.00150*%
%ADD259R,0.12600X0.00150*%
%ADD260R,0.08550X0.00150*%
%ADD261R,0.04800X0.00150*%
%ADD262R,0.05250X0.00150*%
%ADD263R,0.04650X0.00150*%
%ADD264R,0.06000X0.00150*%
%ADD265R,0.04500X0.00150*%
%ADD266R,0.06750X0.00150*%
%ADD267R,0.08400X0.00150*%
%ADD268R,0.04200X0.00150*%
%ADD269R,0.07350X0.00150*%
%ADD270R,0.04050X0.00150*%
%ADD271R,0.07800X0.00150*%
%ADD272R,0.08250X0.00150*%
%ADD273R,0.11550X0.00150*%
%ADD274R,0.01950X0.00150*%
%ADD275R,0.03900X0.00150*%
%ADD276R,0.26700X0.00150*%
%ADD277R,0.03750X0.00150*%
%ADD278R,0.43200X0.00150*%
%ADD279R,0.03600X0.00150*%
%ADD280R,0.03300X0.00150*%
%ADD281R,0.43050X0.00150*%
%ADD282R,0.03450X0.00150*%
%ADD283R,0.42900X0.00150*%
%ADD284R,0.03300X0.00150*%
%ADD285R,0.42750X0.00150*%
%ADD286R,0.02550X0.00150*%
%ADD287R,0.42600X0.00150*%
%ADD288R,0.03150X0.00150*%
%ADD289R,0.02400X0.00150*%
%ADD290R,0.03000X0.00150*%
%ADD291R,0.42450X0.00150*%
%ADD292R,0.02850X0.00150*%
%ADD293R,0.42300X0.00150*%
%ADD294R,0.02700X0.00150*%
%ADD295R,0.42150X0.00150*%
%ADD296R,0.00600X0.00150*%
%ADD297R,0.03600X0.00150*%
%ADD298R,0.04500X0.00150*%
%ADD299R,0.05100X0.00150*%
%ADD300R,0.05700X0.00150*%
%ADD301R,0.05550X0.00150*%
%ADD302R,0.06150X0.00150*%
%ADD303R,0.06600X0.00150*%
%ADD304R,0.03450X0.00150*%
%ADD305R,0.03900X0.00150*%
%ADD306R,0.03150X0.00150*%
%ADD307R,0.04200X0.00150*%
%ADD308R,0.04650X0.00150*%
%ADD309R,0.03750X0.00150*%
%ADD310R,0.02850X0.00150*%
%ADD311R,0.04050X0.00150*%
%ADD312R,0.08700X0.00150*%
%ADD313R,0.07200X0.00150*%
%ADD314R,0.06450X0.00150*%
%ADD315R,0.05850X0.00150*%
%ADD316R,0.04950X0.00150*%
%ADD317R,0.05400X0.00150*%
%ADD318R,0.04800X0.00150*%
%ADD319R,0.60150X0.00150*%
%ADD320R,0.59850X0.00150*%
%ADD321R,0.59550X0.00150*%
%ADD322R,0.58950X0.00150*%
D10*
X0089050Y0003800D02*
X0089050Y0113800D01*
X0254050Y0113800D01*
X0254050Y0003800D01*
X0089050Y0003800D01*
X0094550Y0015800D02*
X0094552Y0015961D01*
X0094558Y0016121D01*
X0094568Y0016282D01*
X0094582Y0016442D01*
X0094600Y0016602D01*
X0094621Y0016761D01*
X0094647Y0016920D01*
X0094677Y0017078D01*
X0094710Y0017235D01*
X0094748Y0017392D01*
X0094789Y0017547D01*
X0094834Y0017701D01*
X0094883Y0017854D01*
X0094936Y0018006D01*
X0094992Y0018157D01*
X0095053Y0018306D01*
X0095116Y0018454D01*
X0095184Y0018600D01*
X0095255Y0018744D01*
X0095329Y0018886D01*
X0095407Y0019027D01*
X0095489Y0019165D01*
X0095574Y0019302D01*
X0095662Y0019436D01*
X0095754Y0019568D01*
X0095849Y0019698D01*
X0095947Y0019826D01*
X0096048Y0019951D01*
X0096152Y0020073D01*
X0096259Y0020193D01*
X0096369Y0020310D01*
X0096482Y0020425D01*
X0096598Y0020536D01*
X0096717Y0020645D01*
X0096838Y0020750D01*
X0096962Y0020853D01*
X0097088Y0020953D01*
X0097216Y0021049D01*
X0097347Y0021142D01*
X0097481Y0021232D01*
X0097616Y0021319D01*
X0097754Y0021402D01*
X0097893Y0021482D01*
X0098035Y0021558D01*
X0098178Y0021631D01*
X0098323Y0021700D01*
X0098470Y0021766D01*
X0098618Y0021828D01*
X0098768Y0021886D01*
X0098919Y0021941D01*
X0099072Y0021992D01*
X0099226Y0022039D01*
X0099381Y0022082D01*
X0099537Y0022121D01*
X0099693Y0022157D01*
X0099851Y0022188D01*
X0100009Y0022216D01*
X0100168Y0022240D01*
X0100328Y0022260D01*
X0100488Y0022276D01*
X0100648Y0022288D01*
X0100809Y0022296D01*
X0100970Y0022300D01*
X0101130Y0022300D01*
X0101291Y0022296D01*
X0101452Y0022288D01*
X0101612Y0022276D01*
X0101772Y0022260D01*
X0101932Y0022240D01*
X0102091Y0022216D01*
X0102249Y0022188D01*
X0102407Y0022157D01*
X0102563Y0022121D01*
X0102719Y0022082D01*
X0102874Y0022039D01*
X0103028Y0021992D01*
X0103181Y0021941D01*
X0103332Y0021886D01*
X0103482Y0021828D01*
X0103630Y0021766D01*
X0103777Y0021700D01*
X0103922Y0021631D01*
X0104065Y0021558D01*
X0104207Y0021482D01*
X0104346Y0021402D01*
X0104484Y0021319D01*
X0104619Y0021232D01*
X0104753Y0021142D01*
X0104884Y0021049D01*
X0105012Y0020953D01*
X0105138Y0020853D01*
X0105262Y0020750D01*
X0105383Y0020645D01*
X0105502Y0020536D01*
X0105618Y0020425D01*
X0105731Y0020310D01*
X0105841Y0020193D01*
X0105948Y0020073D01*
X0106052Y0019951D01*
X0106153Y0019826D01*
X0106251Y0019698D01*
X0106346Y0019568D01*
X0106438Y0019436D01*
X0106526Y0019302D01*
X0106611Y0019165D01*
X0106693Y0019027D01*
X0106771Y0018886D01*
X0106845Y0018744D01*
X0106916Y0018600D01*
X0106984Y0018454D01*
X0107047Y0018306D01*
X0107108Y0018157D01*
X0107164Y0018006D01*
X0107217Y0017854D01*
X0107266Y0017701D01*
X0107311Y0017547D01*
X0107352Y0017392D01*
X0107390Y0017235D01*
X0107423Y0017078D01*
X0107453Y0016920D01*
X0107479Y0016761D01*
X0107500Y0016602D01*
X0107518Y0016442D01*
X0107532Y0016282D01*
X0107542Y0016121D01*
X0107548Y0015961D01*
X0107550Y0015800D01*
X0107548Y0015639D01*
X0107542Y0015479D01*
X0107532Y0015318D01*
X0107518Y0015158D01*
X0107500Y0014998D01*
X0107479Y0014839D01*
X0107453Y0014680D01*
X0107423Y0014522D01*
X0107390Y0014365D01*
X0107352Y0014208D01*
X0107311Y0014053D01*
X0107266Y0013899D01*
X0107217Y0013746D01*
X0107164Y0013594D01*
X0107108Y0013443D01*
X0107047Y0013294D01*
X0106984Y0013146D01*
X0106916Y0013000D01*
X0106845Y0012856D01*
X0106771Y0012714D01*
X0106693Y0012573D01*
X0106611Y0012435D01*
X0106526Y0012298D01*
X0106438Y0012164D01*
X0106346Y0012032D01*
X0106251Y0011902D01*
X0106153Y0011774D01*
X0106052Y0011649D01*
X0105948Y0011527D01*
X0105841Y0011407D01*
X0105731Y0011290D01*
X0105618Y0011175D01*
X0105502Y0011064D01*
X0105383Y0010955D01*
X0105262Y0010850D01*
X0105138Y0010747D01*
X0105012Y0010647D01*
X0104884Y0010551D01*
X0104753Y0010458D01*
X0104619Y0010368D01*
X0104484Y0010281D01*
X0104346Y0010198D01*
X0104207Y0010118D01*
X0104065Y0010042D01*
X0103922Y0009969D01*
X0103777Y0009900D01*
X0103630Y0009834D01*
X0103482Y0009772D01*
X0103332Y0009714D01*
X0103181Y0009659D01*
X0103028Y0009608D01*
X0102874Y0009561D01*
X0102719Y0009518D01*
X0102563Y0009479D01*
X0102407Y0009443D01*
X0102249Y0009412D01*
X0102091Y0009384D01*
X0101932Y0009360D01*
X0101772Y0009340D01*
X0101612Y0009324D01*
X0101452Y0009312D01*
X0101291Y0009304D01*
X0101130Y0009300D01*
X0100970Y0009300D01*
X0100809Y0009304D01*
X0100648Y0009312D01*
X0100488Y0009324D01*
X0100328Y0009340D01*
X0100168Y0009360D01*
X0100009Y0009384D01*
X0099851Y0009412D01*
X0099693Y0009443D01*
X0099537Y0009479D01*
X0099381Y0009518D01*
X0099226Y0009561D01*
X0099072Y0009608D01*
X0098919Y0009659D01*
X0098768Y0009714D01*
X0098618Y0009772D01*
X0098470Y0009834D01*
X0098323Y0009900D01*
X0098178Y0009969D01*
X0098035Y0010042D01*
X0097893Y0010118D01*
X0097754Y0010198D01*
X0097616Y0010281D01*
X0097481Y0010368D01*
X0097347Y0010458D01*
X0097216Y0010551D01*
X0097088Y0010647D01*
X0096962Y0010747D01*
X0096838Y0010850D01*
X0096717Y0010955D01*
X0096598Y0011064D01*
X0096482Y0011175D01*
X0096369Y0011290D01*
X0096259Y0011407D01*
X0096152Y0011527D01*
X0096048Y0011649D01*
X0095947Y0011774D01*
X0095849Y0011902D01*
X0095754Y0012032D01*
X0095662Y0012164D01*
X0095574Y0012298D01*
X0095489Y0012435D01*
X0095407Y0012573D01*
X0095329Y0012714D01*
X0095255Y0012856D01*
X0095184Y0013000D01*
X0095116Y0013146D01*
X0095053Y0013294D01*
X0094992Y0013443D01*
X0094936Y0013594D01*
X0094883Y0013746D01*
X0094834Y0013899D01*
X0094789Y0014053D01*
X0094748Y0014208D01*
X0094710Y0014365D01*
X0094677Y0014522D01*
X0094647Y0014680D01*
X0094621Y0014839D01*
X0094600Y0014998D01*
X0094582Y0015158D01*
X0094568Y0015318D01*
X0094558Y0015479D01*
X0094552Y0015639D01*
X0094550Y0015800D01*
X0235550Y0015800D02*
X0235552Y0015961D01*
X0235558Y0016121D01*
X0235568Y0016282D01*
X0235582Y0016442D01*
X0235600Y0016602D01*
X0235621Y0016761D01*
X0235647Y0016920D01*
X0235677Y0017078D01*
X0235710Y0017235D01*
X0235748Y0017392D01*
X0235789Y0017547D01*
X0235834Y0017701D01*
X0235883Y0017854D01*
X0235936Y0018006D01*
X0235992Y0018157D01*
X0236053Y0018306D01*
X0236116Y0018454D01*
X0236184Y0018600D01*
X0236255Y0018744D01*
X0236329Y0018886D01*
X0236407Y0019027D01*
X0236489Y0019165D01*
X0236574Y0019302D01*
X0236662Y0019436D01*
X0236754Y0019568D01*
X0236849Y0019698D01*
X0236947Y0019826D01*
X0237048Y0019951D01*
X0237152Y0020073D01*
X0237259Y0020193D01*
X0237369Y0020310D01*
X0237482Y0020425D01*
X0237598Y0020536D01*
X0237717Y0020645D01*
X0237838Y0020750D01*
X0237962Y0020853D01*
X0238088Y0020953D01*
X0238216Y0021049D01*
X0238347Y0021142D01*
X0238481Y0021232D01*
X0238616Y0021319D01*
X0238754Y0021402D01*
X0238893Y0021482D01*
X0239035Y0021558D01*
X0239178Y0021631D01*
X0239323Y0021700D01*
X0239470Y0021766D01*
X0239618Y0021828D01*
X0239768Y0021886D01*
X0239919Y0021941D01*
X0240072Y0021992D01*
X0240226Y0022039D01*
X0240381Y0022082D01*
X0240537Y0022121D01*
X0240693Y0022157D01*
X0240851Y0022188D01*
X0241009Y0022216D01*
X0241168Y0022240D01*
X0241328Y0022260D01*
X0241488Y0022276D01*
X0241648Y0022288D01*
X0241809Y0022296D01*
X0241970Y0022300D01*
X0242130Y0022300D01*
X0242291Y0022296D01*
X0242452Y0022288D01*
X0242612Y0022276D01*
X0242772Y0022260D01*
X0242932Y0022240D01*
X0243091Y0022216D01*
X0243249Y0022188D01*
X0243407Y0022157D01*
X0243563Y0022121D01*
X0243719Y0022082D01*
X0243874Y0022039D01*
X0244028Y0021992D01*
X0244181Y0021941D01*
X0244332Y0021886D01*
X0244482Y0021828D01*
X0244630Y0021766D01*
X0244777Y0021700D01*
X0244922Y0021631D01*
X0245065Y0021558D01*
X0245207Y0021482D01*
X0245346Y0021402D01*
X0245484Y0021319D01*
X0245619Y0021232D01*
X0245753Y0021142D01*
X0245884Y0021049D01*
X0246012Y0020953D01*
X0246138Y0020853D01*
X0246262Y0020750D01*
X0246383Y0020645D01*
X0246502Y0020536D01*
X0246618Y0020425D01*
X0246731Y0020310D01*
X0246841Y0020193D01*
X0246948Y0020073D01*
X0247052Y0019951D01*
X0247153Y0019826D01*
X0247251Y0019698D01*
X0247346Y0019568D01*
X0247438Y0019436D01*
X0247526Y0019302D01*
X0247611Y0019165D01*
X0247693Y0019027D01*
X0247771Y0018886D01*
X0247845Y0018744D01*
X0247916Y0018600D01*
X0247984Y0018454D01*
X0248047Y0018306D01*
X0248108Y0018157D01*
X0248164Y0018006D01*
X0248217Y0017854D01*
X0248266Y0017701D01*
X0248311Y0017547D01*
X0248352Y0017392D01*
X0248390Y0017235D01*
X0248423Y0017078D01*
X0248453Y0016920D01*
X0248479Y0016761D01*
X0248500Y0016602D01*
X0248518Y0016442D01*
X0248532Y0016282D01*
X0248542Y0016121D01*
X0248548Y0015961D01*
X0248550Y0015800D01*
X0248548Y0015639D01*
X0248542Y0015479D01*
X0248532Y0015318D01*
X0248518Y0015158D01*
X0248500Y0014998D01*
X0248479Y0014839D01*
X0248453Y0014680D01*
X0248423Y0014522D01*
X0248390Y0014365D01*
X0248352Y0014208D01*
X0248311Y0014053D01*
X0248266Y0013899D01*
X0248217Y0013746D01*
X0248164Y0013594D01*
X0248108Y0013443D01*
X0248047Y0013294D01*
X0247984Y0013146D01*
X0247916Y0013000D01*
X0247845Y0012856D01*
X0247771Y0012714D01*
X0247693Y0012573D01*
X0247611Y0012435D01*
X0247526Y0012298D01*
X0247438Y0012164D01*
X0247346Y0012032D01*
X0247251Y0011902D01*
X0247153Y0011774D01*
X0247052Y0011649D01*
X0246948Y0011527D01*
X0246841Y0011407D01*
X0246731Y0011290D01*
X0246618Y0011175D01*
X0246502Y0011064D01*
X0246383Y0010955D01*
X0246262Y0010850D01*
X0246138Y0010747D01*
X0246012Y0010647D01*
X0245884Y0010551D01*
X0245753Y0010458D01*
X0245619Y0010368D01*
X0245484Y0010281D01*
X0245346Y0010198D01*
X0245207Y0010118D01*
X0245065Y0010042D01*
X0244922Y0009969D01*
X0244777Y0009900D01*
X0244630Y0009834D01*
X0244482Y0009772D01*
X0244332Y0009714D01*
X0244181Y0009659D01*
X0244028Y0009608D01*
X0243874Y0009561D01*
X0243719Y0009518D01*
X0243563Y0009479D01*
X0243407Y0009443D01*
X0243249Y0009412D01*
X0243091Y0009384D01*
X0242932Y0009360D01*
X0242772Y0009340D01*
X0242612Y0009324D01*
X0242452Y0009312D01*
X0242291Y0009304D01*
X0242130Y0009300D01*
X0241970Y0009300D01*
X0241809Y0009304D01*
X0241648Y0009312D01*
X0241488Y0009324D01*
X0241328Y0009340D01*
X0241168Y0009360D01*
X0241009Y0009384D01*
X0240851Y0009412D01*
X0240693Y0009443D01*
X0240537Y0009479D01*
X0240381Y0009518D01*
X0240226Y0009561D01*
X0240072Y0009608D01*
X0239919Y0009659D01*
X0239768Y0009714D01*
X0239618Y0009772D01*
X0239470Y0009834D01*
X0239323Y0009900D01*
X0239178Y0009969D01*
X0239035Y0010042D01*
X0238893Y0010118D01*
X0238754Y0010198D01*
X0238616Y0010281D01*
X0238481Y0010368D01*
X0238347Y0010458D01*
X0238216Y0010551D01*
X0238088Y0010647D01*
X0237962Y0010747D01*
X0237838Y0010850D01*
X0237717Y0010955D01*
X0237598Y0011064D01*
X0237482Y0011175D01*
X0237369Y0011290D01*
X0237259Y0011407D01*
X0237152Y0011527D01*
X0237048Y0011649D01*
X0236947Y0011774D01*
X0236849Y0011902D01*
X0236754Y0012032D01*
X0236662Y0012164D01*
X0236574Y0012298D01*
X0236489Y0012435D01*
X0236407Y0012573D01*
X0236329Y0012714D01*
X0236255Y0012856D01*
X0236184Y0013000D01*
X0236116Y0013146D01*
X0236053Y0013294D01*
X0235992Y0013443D01*
X0235936Y0013594D01*
X0235883Y0013746D01*
X0235834Y0013899D01*
X0235789Y0014053D01*
X0235748Y0014208D01*
X0235710Y0014365D01*
X0235677Y0014522D01*
X0235647Y0014680D01*
X0235621Y0014839D01*
X0235600Y0014998D01*
X0235582Y0015158D01*
X0235568Y0015318D01*
X0235558Y0015479D01*
X0235552Y0015639D01*
X0235550Y0015800D01*
X0235550Y0101800D02*
X0235552Y0101961D01*
X0235558Y0102121D01*
X0235568Y0102282D01*
X0235582Y0102442D01*
X0235600Y0102602D01*
X0235621Y0102761D01*
X0235647Y0102920D01*
X0235677Y0103078D01*
X0235710Y0103235D01*
X0235748Y0103392D01*
X0235789Y0103547D01*
X0235834Y0103701D01*
X0235883Y0103854D01*
X0235936Y0104006D01*
X0235992Y0104157D01*
X0236053Y0104306D01*
X0236116Y0104454D01*
X0236184Y0104600D01*
X0236255Y0104744D01*
X0236329Y0104886D01*
X0236407Y0105027D01*
X0236489Y0105165D01*
X0236574Y0105302D01*
X0236662Y0105436D01*
X0236754Y0105568D01*
X0236849Y0105698D01*
X0236947Y0105826D01*
X0237048Y0105951D01*
X0237152Y0106073D01*
X0237259Y0106193D01*
X0237369Y0106310D01*
X0237482Y0106425D01*
X0237598Y0106536D01*
X0237717Y0106645D01*
X0237838Y0106750D01*
X0237962Y0106853D01*
X0238088Y0106953D01*
X0238216Y0107049D01*
X0238347Y0107142D01*
X0238481Y0107232D01*
X0238616Y0107319D01*
X0238754Y0107402D01*
X0238893Y0107482D01*
X0239035Y0107558D01*
X0239178Y0107631D01*
X0239323Y0107700D01*
X0239470Y0107766D01*
X0239618Y0107828D01*
X0239768Y0107886D01*
X0239919Y0107941D01*
X0240072Y0107992D01*
X0240226Y0108039D01*
X0240381Y0108082D01*
X0240537Y0108121D01*
X0240693Y0108157D01*
X0240851Y0108188D01*
X0241009Y0108216D01*
X0241168Y0108240D01*
X0241328Y0108260D01*
X0241488Y0108276D01*
X0241648Y0108288D01*
X0241809Y0108296D01*
X0241970Y0108300D01*
X0242130Y0108300D01*
X0242291Y0108296D01*
X0242452Y0108288D01*
X0242612Y0108276D01*
X0242772Y0108260D01*
X0242932Y0108240D01*
X0243091Y0108216D01*
X0243249Y0108188D01*
X0243407Y0108157D01*
X0243563Y0108121D01*
X0243719Y0108082D01*
X0243874Y0108039D01*
X0244028Y0107992D01*
X0244181Y0107941D01*
X0244332Y0107886D01*
X0244482Y0107828D01*
X0244630Y0107766D01*
X0244777Y0107700D01*
X0244922Y0107631D01*
X0245065Y0107558D01*
X0245207Y0107482D01*
X0245346Y0107402D01*
X0245484Y0107319D01*
X0245619Y0107232D01*
X0245753Y0107142D01*
X0245884Y0107049D01*
X0246012Y0106953D01*
X0246138Y0106853D01*
X0246262Y0106750D01*
X0246383Y0106645D01*
X0246502Y0106536D01*
X0246618Y0106425D01*
X0246731Y0106310D01*
X0246841Y0106193D01*
X0246948Y0106073D01*
X0247052Y0105951D01*
X0247153Y0105826D01*
X0247251Y0105698D01*
X0247346Y0105568D01*
X0247438Y0105436D01*
X0247526Y0105302D01*
X0247611Y0105165D01*
X0247693Y0105027D01*
X0247771Y0104886D01*
X0247845Y0104744D01*
X0247916Y0104600D01*
X0247984Y0104454D01*
X0248047Y0104306D01*
X0248108Y0104157D01*
X0248164Y0104006D01*
X0248217Y0103854D01*
X0248266Y0103701D01*
X0248311Y0103547D01*
X0248352Y0103392D01*
X0248390Y0103235D01*
X0248423Y0103078D01*
X0248453Y0102920D01*
X0248479Y0102761D01*
X0248500Y0102602D01*
X0248518Y0102442D01*
X0248532Y0102282D01*
X0248542Y0102121D01*
X0248548Y0101961D01*
X0248550Y0101800D01*
X0248548Y0101639D01*
X0248542Y0101479D01*
X0248532Y0101318D01*
X0248518Y0101158D01*
X0248500Y0100998D01*
X0248479Y0100839D01*
X0248453Y0100680D01*
X0248423Y0100522D01*
X0248390Y0100365D01*
X0248352Y0100208D01*
X0248311Y0100053D01*
X0248266Y0099899D01*
X0248217Y0099746D01*
X0248164Y0099594D01*
X0248108Y0099443D01*
X0248047Y0099294D01*
X0247984Y0099146D01*
X0247916Y0099000D01*
X0247845Y0098856D01*
X0247771Y0098714D01*
X0247693Y0098573D01*
X0247611Y0098435D01*
X0247526Y0098298D01*
X0247438Y0098164D01*
X0247346Y0098032D01*
X0247251Y0097902D01*
X0247153Y0097774D01*
X0247052Y0097649D01*
X0246948Y0097527D01*
X0246841Y0097407D01*
X0246731Y0097290D01*
X0246618Y0097175D01*
X0246502Y0097064D01*
X0246383Y0096955D01*
X0246262Y0096850D01*
X0246138Y0096747D01*
X0246012Y0096647D01*
X0245884Y0096551D01*
X0245753Y0096458D01*
X0245619Y0096368D01*
X0245484Y0096281D01*
X0245346Y0096198D01*
X0245207Y0096118D01*
X0245065Y0096042D01*
X0244922Y0095969D01*
X0244777Y0095900D01*
X0244630Y0095834D01*
X0244482Y0095772D01*
X0244332Y0095714D01*
X0244181Y0095659D01*
X0244028Y0095608D01*
X0243874Y0095561D01*
X0243719Y0095518D01*
X0243563Y0095479D01*
X0243407Y0095443D01*
X0243249Y0095412D01*
X0243091Y0095384D01*
X0242932Y0095360D01*
X0242772Y0095340D01*
X0242612Y0095324D01*
X0242452Y0095312D01*
X0242291Y0095304D01*
X0242130Y0095300D01*
X0241970Y0095300D01*
X0241809Y0095304D01*
X0241648Y0095312D01*
X0241488Y0095324D01*
X0241328Y0095340D01*
X0241168Y0095360D01*
X0241009Y0095384D01*
X0240851Y0095412D01*
X0240693Y0095443D01*
X0240537Y0095479D01*
X0240381Y0095518D01*
X0240226Y0095561D01*
X0240072Y0095608D01*
X0239919Y0095659D01*
X0239768Y0095714D01*
X0239618Y0095772D01*
X0239470Y0095834D01*
X0239323Y0095900D01*
X0239178Y0095969D01*
X0239035Y0096042D01*
X0238893Y0096118D01*
X0238754Y0096198D01*
X0238616Y0096281D01*
X0238481Y0096368D01*
X0238347Y0096458D01*
X0238216Y0096551D01*
X0238088Y0096647D01*
X0237962Y0096747D01*
X0237838Y0096850D01*
X0237717Y0096955D01*
X0237598Y0097064D01*
X0237482Y0097175D01*
X0237369Y0097290D01*
X0237259Y0097407D01*
X0237152Y0097527D01*
X0237048Y0097649D01*
X0236947Y0097774D01*
X0236849Y0097902D01*
X0236754Y0098032D01*
X0236662Y0098164D01*
X0236574Y0098298D01*
X0236489Y0098435D01*
X0236407Y0098573D01*
X0236329Y0098714D01*
X0236255Y0098856D01*
X0236184Y0099000D01*
X0236116Y0099146D01*
X0236053Y0099294D01*
X0235992Y0099443D01*
X0235936Y0099594D01*
X0235883Y0099746D01*
X0235834Y0099899D01*
X0235789Y0100053D01*
X0235748Y0100208D01*
X0235710Y0100365D01*
X0235677Y0100522D01*
X0235647Y0100680D01*
X0235621Y0100839D01*
X0235600Y0100998D01*
X0235582Y0101158D01*
X0235568Y0101318D01*
X0235558Y0101479D01*
X0235552Y0101639D01*
X0235550Y0101800D01*
X0094550Y0101800D02*
X0094552Y0101961D01*
X0094558Y0102121D01*
X0094568Y0102282D01*
X0094582Y0102442D01*
X0094600Y0102602D01*
X0094621Y0102761D01*
X0094647Y0102920D01*
X0094677Y0103078D01*
X0094710Y0103235D01*
X0094748Y0103392D01*
X0094789Y0103547D01*
X0094834Y0103701D01*
X0094883Y0103854D01*
X0094936Y0104006D01*
X0094992Y0104157D01*
X0095053Y0104306D01*
X0095116Y0104454D01*
X0095184Y0104600D01*
X0095255Y0104744D01*
X0095329Y0104886D01*
X0095407Y0105027D01*
X0095489Y0105165D01*
X0095574Y0105302D01*
X0095662Y0105436D01*
X0095754Y0105568D01*
X0095849Y0105698D01*
X0095947Y0105826D01*
X0096048Y0105951D01*
X0096152Y0106073D01*
X0096259Y0106193D01*
X0096369Y0106310D01*
X0096482Y0106425D01*
X0096598Y0106536D01*
X0096717Y0106645D01*
X0096838Y0106750D01*
X0096962Y0106853D01*
X0097088Y0106953D01*
X0097216Y0107049D01*
X0097347Y0107142D01*
X0097481Y0107232D01*
X0097616Y0107319D01*
X0097754Y0107402D01*
X0097893Y0107482D01*
X0098035Y0107558D01*
X0098178Y0107631D01*
X0098323Y0107700D01*
X0098470Y0107766D01*
X0098618Y0107828D01*
X0098768Y0107886D01*
X0098919Y0107941D01*
X0099072Y0107992D01*
X0099226Y0108039D01*
X0099381Y0108082D01*
X0099537Y0108121D01*
X0099693Y0108157D01*
X0099851Y0108188D01*
X0100009Y0108216D01*
X0100168Y0108240D01*
X0100328Y0108260D01*
X0100488Y0108276D01*
X0100648Y0108288D01*
X0100809Y0108296D01*
X0100970Y0108300D01*
X0101130Y0108300D01*
X0101291Y0108296D01*
X0101452Y0108288D01*
X0101612Y0108276D01*
X0101772Y0108260D01*
X0101932Y0108240D01*
X0102091Y0108216D01*
X0102249Y0108188D01*
X0102407Y0108157D01*
X0102563Y0108121D01*
X0102719Y0108082D01*
X0102874Y0108039D01*
X0103028Y0107992D01*
X0103181Y0107941D01*
X0103332Y0107886D01*
X0103482Y0107828D01*
X0103630Y0107766D01*
X0103777Y0107700D01*
X0103922Y0107631D01*
X0104065Y0107558D01*
X0104207Y0107482D01*
X0104346Y0107402D01*
X0104484Y0107319D01*
X0104619Y0107232D01*
X0104753Y0107142D01*
X0104884Y0107049D01*
X0105012Y0106953D01*
X0105138Y0106853D01*
X0105262Y0106750D01*
X0105383Y0106645D01*
X0105502Y0106536D01*
X0105618Y0106425D01*
X0105731Y0106310D01*
X0105841Y0106193D01*
X0105948Y0106073D01*
X0106052Y0105951D01*
X0106153Y0105826D01*
X0106251Y0105698D01*
X0106346Y0105568D01*
X0106438Y0105436D01*
X0106526Y0105302D01*
X0106611Y0105165D01*
X0106693Y0105027D01*
X0106771Y0104886D01*
X0106845Y0104744D01*
X0106916Y0104600D01*
X0106984Y0104454D01*
X0107047Y0104306D01*
X0107108Y0104157D01*
X0107164Y0104006D01*
X0107217Y0103854D01*
X0107266Y0103701D01*
X0107311Y0103547D01*
X0107352Y0103392D01*
X0107390Y0103235D01*
X0107423Y0103078D01*
X0107453Y0102920D01*
X0107479Y0102761D01*
X0107500Y0102602D01*
X0107518Y0102442D01*
X0107532Y0102282D01*
X0107542Y0102121D01*
X0107548Y0101961D01*
X0107550Y0101800D01*
X0107548Y0101639D01*
X0107542Y0101479D01*
X0107532Y0101318D01*
X0107518Y0101158D01*
X0107500Y0100998D01*
X0107479Y0100839D01*
X0107453Y0100680D01*
X0107423Y0100522D01*
X0107390Y0100365D01*
X0107352Y0100208D01*
X0107311Y0100053D01*
X0107266Y0099899D01*
X0107217Y0099746D01*
X0107164Y0099594D01*
X0107108Y0099443D01*
X0107047Y0099294D01*
X0106984Y0099146D01*
X0106916Y0099000D01*
X0106845Y0098856D01*
X0106771Y0098714D01*
X0106693Y0098573D01*
X0106611Y0098435D01*
X0106526Y0098298D01*
X0106438Y0098164D01*
X0106346Y0098032D01*
X0106251Y0097902D01*
X0106153Y0097774D01*
X0106052Y0097649D01*
X0105948Y0097527D01*
X0105841Y0097407D01*
X0105731Y0097290D01*
X0105618Y0097175D01*
X0105502Y0097064D01*
X0105383Y0096955D01*
X0105262Y0096850D01*
X0105138Y0096747D01*
X0105012Y0096647D01*
X0104884Y0096551D01*
X0104753Y0096458D01*
X0104619Y0096368D01*
X0104484Y0096281D01*
X0104346Y0096198D01*
X0104207Y0096118D01*
X0104065Y0096042D01*
X0103922Y0095969D01*
X0103777Y0095900D01*
X0103630Y0095834D01*
X0103482Y0095772D01*
X0103332Y0095714D01*
X0103181Y0095659D01*
X0103028Y0095608D01*
X0102874Y0095561D01*
X0102719Y0095518D01*
X0102563Y0095479D01*
X0102407Y0095443D01*
X0102249Y0095412D01*
X0102091Y0095384D01*
X0101932Y0095360D01*
X0101772Y0095340D01*
X0101612Y0095324D01*
X0101452Y0095312D01*
X0101291Y0095304D01*
X0101130Y0095300D01*
X0100970Y0095300D01*
X0100809Y0095304D01*
X0100648Y0095312D01*
X0100488Y0095324D01*
X0100328Y0095340D01*
X0100168Y0095360D01*
X0100009Y0095384D01*
X0099851Y0095412D01*
X0099693Y0095443D01*
X0099537Y0095479D01*
X0099381Y0095518D01*
X0099226Y0095561D01*
X0099072Y0095608D01*
X0098919Y0095659D01*
X0098768Y0095714D01*
X0098618Y0095772D01*
X0098470Y0095834D01*
X0098323Y0095900D01*
X0098178Y0095969D01*
X0098035Y0096042D01*
X0097893Y0096118D01*
X0097754Y0096198D01*
X0097616Y0096281D01*
X0097481Y0096368D01*
X0097347Y0096458D01*
X0097216Y0096551D01*
X0097088Y0096647D01*
X0096962Y0096747D01*
X0096838Y0096850D01*
X0096717Y0096955D01*
X0096598Y0097064D01*
X0096482Y0097175D01*
X0096369Y0097290D01*
X0096259Y0097407D01*
X0096152Y0097527D01*
X0096048Y0097649D01*
X0095947Y0097774D01*
X0095849Y0097902D01*
X0095754Y0098032D01*
X0095662Y0098164D01*
X0095574Y0098298D01*
X0095489Y0098435D01*
X0095407Y0098573D01*
X0095329Y0098714D01*
X0095255Y0098856D01*
X0095184Y0099000D01*
X0095116Y0099146D01*
X0095053Y0099294D01*
X0094992Y0099443D01*
X0094936Y0099594D01*
X0094883Y0099746D01*
X0094834Y0099899D01*
X0094789Y0100053D01*
X0094748Y0100208D01*
X0094710Y0100365D01*
X0094677Y0100522D01*
X0094647Y0100680D01*
X0094621Y0100839D01*
X0094600Y0100998D01*
X0094582Y0101158D01*
X0094568Y0101318D01*
X0094558Y0101479D01*
X0094552Y0101639D01*
X0094550Y0101800D01*
D11*
X0202050Y0098800D02*
X0202050Y0111800D01*
X0202050Y0092800D02*
X0202050Y0080800D01*
X0202050Y0068800D02*
X0202050Y0059800D01*
X0202050Y0045800D02*
X0193250Y0045800D01*
X0186850Y0045800D02*
X0178050Y0045800D01*
X0178050Y0036733D01*
X0178050Y0030333D02*
X0178050Y0021267D01*
X0178050Y0014867D02*
X0178050Y0005800D01*
D12*
X0206200Y0106950D02*
X0206200Y0108251D01*
X0206851Y0108251D01*
X0207067Y0108034D01*
X0207067Y0107601D01*
X0206851Y0107384D01*
X0206200Y0107384D01*
X0207673Y0107601D02*
X0207673Y0107167D01*
X0207890Y0106950D01*
X0208324Y0106950D01*
X0208541Y0107167D01*
X0208541Y0107601D01*
X0208324Y0107817D01*
X0207890Y0107817D01*
X0207673Y0107601D01*
X0209147Y0107817D02*
X0209147Y0107167D01*
X0209363Y0106950D01*
X0209580Y0107167D01*
X0209797Y0106950D01*
X0210014Y0107167D01*
X0210014Y0107817D01*
X0210620Y0107601D02*
X0210837Y0107817D01*
X0211270Y0107817D01*
X0211487Y0107601D01*
X0211487Y0107384D01*
X0210620Y0107384D01*
X0210620Y0107167D02*
X0210620Y0107601D01*
X0210620Y0107167D02*
X0210837Y0106950D01*
X0211270Y0106950D01*
X0212093Y0106950D02*
X0212093Y0107817D01*
X0212093Y0107384D02*
X0212527Y0107817D01*
X0212744Y0107817D01*
X0214794Y0108251D02*
X0214794Y0106950D01*
X0215445Y0106950D01*
X0215661Y0107167D01*
X0215661Y0108034D01*
X0215445Y0108251D01*
X0214794Y0108251D01*
X0216267Y0107817D02*
X0216484Y0107817D01*
X0216484Y0106950D01*
X0216267Y0106950D02*
X0216701Y0106950D01*
X0217249Y0106950D02*
X0217900Y0106950D01*
X0218117Y0107167D01*
X0217900Y0107384D01*
X0217466Y0107384D01*
X0217249Y0107601D01*
X0217466Y0107817D01*
X0218117Y0107817D01*
X0218939Y0107817D02*
X0219373Y0107817D01*
X0219590Y0107601D01*
X0219590Y0106950D01*
X0218939Y0106950D01*
X0218723Y0107167D01*
X0218939Y0107384D01*
X0219590Y0107384D01*
X0220196Y0107817D02*
X0220846Y0107817D01*
X0221063Y0107601D01*
X0221063Y0107167D01*
X0220846Y0106950D01*
X0220196Y0106950D01*
X0220196Y0108251D01*
X0221669Y0108251D02*
X0221886Y0108251D01*
X0221886Y0106950D01*
X0221669Y0106950D02*
X0222103Y0106950D01*
X0222651Y0107167D02*
X0222868Y0106950D01*
X0223302Y0106950D01*
X0223519Y0107384D02*
X0222651Y0107384D01*
X0222651Y0107601D02*
X0222868Y0107817D01*
X0223302Y0107817D01*
X0223519Y0107601D01*
X0223519Y0107384D01*
X0222651Y0107167D02*
X0222651Y0107601D01*
X0225598Y0107817D02*
X0225815Y0107601D01*
X0226248Y0107601D01*
X0226465Y0107384D01*
X0226465Y0107167D01*
X0226248Y0106950D01*
X0225815Y0106950D01*
X0225598Y0107167D01*
X0225598Y0107817D02*
X0225598Y0108034D01*
X0225815Y0108251D01*
X0226248Y0108251D01*
X0226465Y0108034D01*
X0227071Y0107601D02*
X0227288Y0107817D01*
X0227722Y0107817D01*
X0227938Y0107601D01*
X0227938Y0107384D01*
X0227071Y0107384D01*
X0227071Y0107167D02*
X0227071Y0107601D01*
X0227071Y0107167D02*
X0227288Y0106950D01*
X0227722Y0106950D01*
X0228544Y0106950D02*
X0228978Y0106950D01*
X0228761Y0106950D02*
X0228761Y0108251D01*
X0228544Y0108251D01*
X0229527Y0107601D02*
X0229743Y0107817D01*
X0230177Y0107817D01*
X0230394Y0107601D01*
X0230394Y0107384D01*
X0229527Y0107384D01*
X0229527Y0107167D02*
X0229527Y0107601D01*
X0229527Y0107167D02*
X0229743Y0106950D01*
X0230177Y0106950D01*
X0231000Y0107167D02*
X0231217Y0106950D01*
X0231867Y0106950D01*
X0232690Y0107167D02*
X0232907Y0106950D01*
X0232690Y0107167D02*
X0232690Y0108034D01*
X0232473Y0107817D02*
X0232907Y0107817D01*
X0231867Y0107817D02*
X0231217Y0107817D01*
X0231000Y0107601D01*
X0231000Y0107167D01*
X0216484Y0108251D02*
X0216484Y0108468D01*
D13*
X0240250Y0089002D02*
X0241251Y0089002D01*
X0241584Y0088668D01*
X0241584Y0088001D01*
X0241251Y0087667D01*
X0240250Y0087667D01*
X0240250Y0087000D02*
X0240250Y0089002D01*
X0242460Y0089002D02*
X0243461Y0089002D01*
X0243794Y0088668D01*
X0243794Y0087334D01*
X0243461Y0087000D01*
X0242460Y0087000D01*
X0242460Y0089002D01*
X0244670Y0089002D02*
X0245337Y0089002D01*
X0245003Y0089002D02*
X0245003Y0087000D01*
X0244670Y0087000D02*
X0245337Y0087000D01*
X0246143Y0087334D02*
X0246477Y0087000D01*
X0247144Y0087000D01*
X0247477Y0087334D01*
X0247477Y0087667D01*
X0247144Y0088001D01*
X0246477Y0088001D01*
X0246143Y0088334D01*
X0246143Y0088668D01*
X0246477Y0089002D01*
X0247144Y0089002D01*
X0247477Y0088668D01*
D14*
X0237350Y0073745D02*
X0235548Y0073745D01*
X0235098Y0073294D01*
X0235098Y0071943D01*
X0237800Y0071943D01*
X0237800Y0073294D01*
X0237350Y0073745D01*
X0237800Y0070798D02*
X0235098Y0070798D01*
X0235098Y0068997D02*
X0237800Y0070798D01*
X0237800Y0068997D02*
X0235098Y0068997D01*
X0235548Y0067852D02*
X0235098Y0067401D01*
X0235098Y0066500D01*
X0235548Y0066050D01*
X0237350Y0066050D01*
X0237800Y0066500D01*
X0237800Y0067401D01*
X0237350Y0067852D01*
X0236449Y0067852D01*
X0236449Y0066951D01*
X0236449Y0061798D02*
X0236449Y0059997D01*
X0236899Y0058852D02*
X0235098Y0058852D01*
X0236899Y0058852D02*
X0237800Y0057951D01*
X0236899Y0057050D01*
X0235098Y0057050D01*
X0235548Y0060897D02*
X0237350Y0060897D01*
X0237800Y0052745D02*
X0235998Y0052745D01*
X0235098Y0051844D01*
X0235998Y0050943D01*
X0237800Y0050943D01*
X0237350Y0049798D02*
X0235548Y0049798D01*
X0235098Y0049348D01*
X0235098Y0047997D01*
X0237800Y0047997D01*
X0237800Y0049348D01*
X0237350Y0049798D01*
X0236449Y0050943D02*
X0236449Y0052745D01*
X0236899Y0046852D02*
X0237350Y0046852D01*
X0237800Y0046401D01*
X0237800Y0045500D01*
X0237350Y0045050D01*
X0236449Y0045500D02*
X0236449Y0046401D01*
X0236899Y0046852D01*
X0235548Y0046852D02*
X0235098Y0046401D01*
X0235098Y0045500D01*
X0235548Y0045050D01*
X0235998Y0045050D01*
X0236449Y0045500D01*
X0237800Y0042745D02*
X0237800Y0040943D01*
X0235098Y0040943D01*
X0235548Y0039798D02*
X0235098Y0039348D01*
X0235098Y0038447D01*
X0235548Y0037997D01*
X0237350Y0037997D01*
X0237800Y0038447D01*
X0237800Y0039348D01*
X0237350Y0039798D01*
X0237350Y0036852D02*
X0236899Y0036852D01*
X0236449Y0036401D01*
X0236449Y0035500D01*
X0235998Y0035050D01*
X0235548Y0035050D01*
X0235098Y0035500D01*
X0235098Y0036401D01*
X0235548Y0036852D01*
X0237350Y0036852D02*
X0237800Y0036401D01*
X0237800Y0035500D01*
X0237350Y0035050D01*
X0217995Y0034302D02*
X0217995Y0032500D01*
X0217544Y0032050D01*
X0216193Y0032050D01*
X0216193Y0034752D01*
X0217544Y0034752D01*
X0217995Y0034302D01*
X0215048Y0034752D02*
X0215048Y0032050D01*
X0213247Y0034752D01*
X0213247Y0032050D01*
X0212102Y0032500D02*
X0212102Y0033401D01*
X0211201Y0033401D01*
X0212102Y0032500D02*
X0211651Y0032050D01*
X0210750Y0032050D01*
X0210300Y0032500D01*
X0210300Y0034302D01*
X0210750Y0034752D01*
X0211651Y0034752D01*
X0212102Y0034302D01*
X0208048Y0033401D02*
X0206247Y0033401D01*
X0205102Y0032951D02*
X0205102Y0034752D01*
X0205102Y0032951D02*
X0204201Y0032050D01*
X0203300Y0032951D01*
X0203300Y0034752D01*
X0200995Y0033852D02*
X0200995Y0032050D01*
X0200995Y0033401D02*
X0199193Y0033401D01*
X0199193Y0033852D02*
X0200094Y0034752D01*
X0200995Y0033852D01*
X0199193Y0033852D02*
X0199193Y0032050D01*
X0198048Y0032500D02*
X0198048Y0034302D01*
X0197598Y0034752D01*
X0196247Y0034752D01*
X0196247Y0032050D01*
X0197598Y0032050D01*
X0198048Y0032500D01*
X0195102Y0032500D02*
X0195102Y0032951D01*
X0194651Y0033401D01*
X0193750Y0033401D01*
X0193300Y0033852D01*
X0193300Y0034302D01*
X0193750Y0034752D01*
X0194651Y0034752D01*
X0195102Y0034302D01*
X0195102Y0032500D02*
X0194651Y0032050D01*
X0193750Y0032050D01*
X0193300Y0032500D01*
X0190995Y0032050D02*
X0189193Y0032050D01*
X0189193Y0034752D01*
X0188048Y0034302D02*
X0187598Y0034752D01*
X0186697Y0034752D01*
X0186247Y0034302D01*
X0186247Y0032500D01*
X0186697Y0032050D01*
X0187598Y0032050D01*
X0188048Y0032500D01*
X0185102Y0032500D02*
X0185102Y0032951D01*
X0184651Y0033401D01*
X0183750Y0033401D01*
X0183300Y0033852D01*
X0183300Y0034302D01*
X0183750Y0034752D01*
X0184651Y0034752D01*
X0185102Y0034302D01*
X0185102Y0032500D02*
X0184651Y0032050D01*
X0183750Y0032050D01*
X0183300Y0032500D01*
X0181365Y0025737D02*
X0181365Y0017863D01*
X0207147Y0032500D02*
X0207147Y0034302D01*
X0188912Y0048741D02*
X0188912Y0048839D01*
X0145750Y0029300D02*
X0091250Y0029300D01*
X0091250Y0088300D01*
X0145750Y0088300D01*
X0145750Y0029300D01*
D15*
X0149050Y0029800D02*
X0160050Y0029800D01*
X0160050Y0073800D01*
X0149050Y0073800D01*
X0149050Y0029800D01*
X0149050Y0030167D02*
X0160050Y0030167D01*
X0160050Y0031366D02*
X0149050Y0031366D01*
X0149050Y0032564D02*
X0160050Y0032564D01*
X0160050Y0033763D02*
X0149050Y0033763D01*
X0149050Y0034961D02*
X0160050Y0034961D01*
X0160050Y0036160D02*
X0149050Y0036160D01*
X0149050Y0037358D02*
X0160050Y0037358D01*
X0160050Y0038557D02*
X0149050Y0038557D01*
X0149050Y0039755D02*
X0160050Y0039755D01*
X0160050Y0040954D02*
X0149050Y0040954D01*
X0149050Y0042152D02*
X0160050Y0042152D01*
X0160050Y0043351D02*
X0149050Y0043351D01*
X0149050Y0044549D02*
X0160050Y0044549D01*
X0160050Y0045748D02*
X0149050Y0045748D01*
X0149050Y0046946D02*
X0160050Y0046946D01*
X0160050Y0048145D02*
X0149050Y0048145D01*
X0149050Y0049343D02*
X0160050Y0049343D01*
X0160050Y0050542D02*
X0149050Y0050542D01*
X0149050Y0051740D02*
X0160050Y0051740D01*
X0160050Y0052939D02*
X0149050Y0052939D01*
X0149050Y0054137D02*
X0160050Y0054137D01*
X0160050Y0055336D02*
X0149050Y0055336D01*
X0149050Y0056534D02*
X0160050Y0056534D01*
X0160050Y0057733D02*
X0149050Y0057733D01*
X0149050Y0058932D02*
X0160050Y0058932D01*
X0160050Y0060130D02*
X0149050Y0060130D01*
X0149050Y0061329D02*
X0160050Y0061329D01*
X0160050Y0062527D02*
X0149050Y0062527D01*
X0149050Y0063726D02*
X0160050Y0063726D01*
X0160050Y0064924D02*
X0149050Y0064924D01*
X0149050Y0066123D02*
X0160050Y0066123D01*
X0160050Y0067321D02*
X0149050Y0067321D01*
X0149050Y0068520D02*
X0160050Y0068520D01*
X0160050Y0069718D02*
X0149050Y0069718D01*
X0149050Y0070917D02*
X0160050Y0070917D01*
X0160050Y0072115D02*
X0149050Y0072115D01*
X0149050Y0073314D02*
X0160050Y0073314D01*
X0221050Y0105300D02*
X0224550Y0101800D01*
X0228050Y0105300D01*
X0221050Y0105300D01*
X0222550Y0104800D02*
X0226550Y0104800D01*
X0224550Y0102800D01*
X0223050Y0104300D01*
X0225050Y0104300D01*
X0224550Y0103800D02*
X0224550Y0103300D01*
D16*
X0215700Y0097102D02*
X0214232Y0094900D01*
X0213490Y0095634D02*
X0212023Y0095634D01*
X0212023Y0096001D02*
X0212390Y0096368D01*
X0213123Y0096368D01*
X0213490Y0096001D01*
X0213490Y0095634D01*
X0213123Y0094900D02*
X0212390Y0094900D01*
X0212023Y0095267D01*
X0212023Y0096001D01*
X0211281Y0096368D02*
X0210180Y0096368D01*
X0209813Y0096001D01*
X0209813Y0095267D01*
X0210180Y0094900D01*
X0211281Y0094900D01*
X0209071Y0094900D02*
X0207970Y0094900D01*
X0207603Y0095267D01*
X0207970Y0095634D01*
X0209071Y0095634D01*
X0209071Y0096001D02*
X0209071Y0094900D01*
X0209071Y0096001D02*
X0208704Y0096368D01*
X0207970Y0096368D01*
X0206863Y0096001D02*
X0206130Y0096001D01*
X0206497Y0096735D02*
X0206497Y0094900D01*
X0205389Y0096368D02*
X0205022Y0096368D01*
X0204288Y0095634D01*
X0204288Y0094900D02*
X0204288Y0096368D01*
X0203546Y0096001D02*
X0203546Y0095634D01*
X0202078Y0095634D01*
X0202078Y0096001D02*
X0202445Y0096368D01*
X0203179Y0096368D01*
X0203546Y0096001D01*
X0203179Y0094900D02*
X0202445Y0094900D01*
X0202078Y0095267D01*
X0202078Y0096001D01*
X0201339Y0096368D02*
X0200605Y0096368D01*
X0200972Y0096735D02*
X0200972Y0095267D01*
X0201339Y0094900D01*
X0199863Y0094900D02*
X0199863Y0096001D01*
X0199496Y0096368D01*
X0198395Y0096368D01*
X0198395Y0094900D01*
X0197656Y0094900D02*
X0196922Y0094900D01*
X0197289Y0094900D02*
X0197289Y0096368D01*
X0196922Y0096368D01*
X0197289Y0097102D02*
X0197289Y0097469D01*
X0196180Y0096001D02*
X0194712Y0096001D01*
X0193970Y0096001D02*
X0193970Y0095634D01*
X0192502Y0095634D01*
X0192502Y0096001D02*
X0192869Y0096368D01*
X0193603Y0096368D01*
X0193970Y0096001D01*
X0193603Y0094900D02*
X0192869Y0094900D01*
X0192502Y0095267D01*
X0192502Y0096001D01*
X0191760Y0096368D02*
X0190659Y0096368D01*
X0190292Y0096001D01*
X0190659Y0095634D01*
X0191393Y0095634D01*
X0191760Y0095267D01*
X0191393Y0094900D01*
X0190292Y0094900D01*
X0189553Y0094900D02*
X0188819Y0094900D01*
X0189186Y0094900D02*
X0189186Y0096368D01*
X0188819Y0096368D01*
X0189186Y0097102D02*
X0189186Y0097469D01*
X0188077Y0096001D02*
X0186609Y0096001D01*
X0185867Y0096368D02*
X0184766Y0096368D01*
X0184399Y0096001D01*
X0184399Y0095267D01*
X0184766Y0094900D01*
X0185867Y0094900D01*
X0183657Y0094900D02*
X0182189Y0094900D01*
X0183657Y0096368D01*
X0183657Y0096735D01*
X0183290Y0097102D01*
X0182556Y0097102D01*
X0182189Y0096735D01*
X0181083Y0097102D02*
X0181083Y0097469D01*
X0181083Y0096368D02*
X0181083Y0094900D01*
X0180716Y0094900D02*
X0181450Y0094900D01*
X0181083Y0096368D02*
X0180716Y0096368D01*
X0179974Y0096001D02*
X0178506Y0096001D01*
X0177764Y0096001D02*
X0177764Y0094900D01*
X0177764Y0096001D02*
X0177397Y0096368D01*
X0176296Y0096368D01*
X0176296Y0094900D01*
X0175554Y0095267D02*
X0175554Y0096001D01*
X0175187Y0096368D01*
X0174453Y0096368D01*
X0174086Y0096001D01*
X0174086Y0095267D01*
X0174453Y0094900D01*
X0175187Y0094900D01*
X0175554Y0095267D01*
X0173347Y0094900D02*
X0172613Y0094900D01*
X0172980Y0094900D02*
X0172980Y0096368D01*
X0172613Y0096368D01*
X0172980Y0097102D02*
X0172980Y0097469D01*
X0171871Y0096001D02*
X0171504Y0096368D01*
X0170770Y0096368D01*
X0170403Y0096001D01*
X0170403Y0095267D01*
X0170770Y0094900D01*
X0171504Y0094900D01*
X0171871Y0095267D01*
X0171871Y0096001D01*
X0169661Y0096368D02*
X0168560Y0096368D01*
X0168193Y0096001D01*
X0168560Y0095634D01*
X0169294Y0095634D01*
X0169661Y0095267D01*
X0169294Y0094900D01*
X0168193Y0094900D01*
X0167454Y0094900D02*
X0166720Y0094900D01*
X0167087Y0094900D02*
X0167087Y0096368D01*
X0166720Y0096368D01*
X0167087Y0097102D02*
X0167087Y0097469D01*
X0167822Y0098166D02*
X0168189Y0098166D01*
X0168556Y0098533D01*
X0168556Y0100368D01*
X0169298Y0100001D02*
X0169665Y0100368D01*
X0170766Y0100368D01*
X0171508Y0100368D02*
X0171508Y0099267D01*
X0171875Y0098900D01*
X0172242Y0099267D01*
X0172609Y0098900D01*
X0172976Y0099267D01*
X0172976Y0100368D01*
X0173718Y0100368D02*
X0174085Y0100368D01*
X0174085Y0098900D01*
X0173718Y0098900D02*
X0174452Y0098900D01*
X0175191Y0099267D02*
X0175191Y0100001D01*
X0175558Y0100368D01*
X0176659Y0100368D01*
X0176659Y0101102D02*
X0176659Y0098900D01*
X0175558Y0098900D01*
X0175191Y0099267D01*
X0174085Y0101102D02*
X0174085Y0101469D01*
X0174085Y0102900D02*
X0174085Y0104368D01*
X0173718Y0104368D01*
X0172976Y0104368D02*
X0172976Y0103267D01*
X0172609Y0102900D01*
X0172242Y0103267D01*
X0171875Y0102900D01*
X0171508Y0103267D01*
X0171508Y0104368D01*
X0170766Y0104368D02*
X0169665Y0104368D01*
X0169298Y0104001D01*
X0169665Y0103634D01*
X0170399Y0103634D01*
X0170766Y0103267D01*
X0170399Y0102900D01*
X0169298Y0102900D01*
X0168556Y0102900D02*
X0167455Y0102900D01*
X0167088Y0103267D01*
X0167088Y0104368D01*
X0166348Y0104368D02*
X0165247Y0103634D01*
X0166348Y0102900D01*
X0165247Y0102900D02*
X0165247Y0105102D01*
X0164506Y0104368D02*
X0164139Y0104368D01*
X0163405Y0103634D01*
X0163405Y0102900D02*
X0163405Y0104368D01*
X0162663Y0104001D02*
X0162663Y0102900D01*
X0161562Y0102900D01*
X0161195Y0103267D01*
X0161562Y0103634D01*
X0162663Y0103634D01*
X0162663Y0104001D02*
X0162296Y0104368D01*
X0161562Y0104368D01*
X0160453Y0104001D02*
X0160453Y0103267D01*
X0160086Y0102900D01*
X0158985Y0102900D01*
X0158985Y0102166D02*
X0158985Y0104368D01*
X0160086Y0104368D01*
X0160453Y0104001D01*
X0158243Y0104368D02*
X0157143Y0104368D01*
X0156776Y0104001D01*
X0157143Y0103634D01*
X0157876Y0103634D01*
X0158243Y0103267D01*
X0157876Y0102900D01*
X0156776Y0102900D01*
X0156038Y0102900D02*
X0155671Y0102900D01*
X0155671Y0103267D01*
X0156038Y0103267D01*
X0156038Y0102900D01*
X0154929Y0103267D02*
X0154929Y0104368D01*
X0154929Y0103267D02*
X0154562Y0102900D01*
X0154195Y0103267D01*
X0153828Y0102900D01*
X0153461Y0103267D01*
X0153461Y0104368D01*
X0152719Y0104368D02*
X0152719Y0103267D01*
X0152352Y0102900D01*
X0151985Y0103267D01*
X0151618Y0102900D01*
X0151251Y0103267D01*
X0151251Y0104368D01*
X0150509Y0104368D02*
X0150509Y0103267D01*
X0150142Y0102900D01*
X0149775Y0103267D01*
X0149408Y0102900D01*
X0149041Y0103267D01*
X0149041Y0104368D01*
X0148299Y0105102D02*
X0146831Y0102900D01*
X0144621Y0102900D02*
X0146089Y0105102D01*
X0146093Y0106900D02*
X0145726Y0107267D01*
X0145726Y0108001D01*
X0146093Y0108368D01*
X0146827Y0108368D01*
X0147194Y0108001D01*
X0147194Y0107267D01*
X0146827Y0106900D01*
X0146093Y0106900D01*
X0144987Y0106900D02*
X0144253Y0106900D01*
X0144620Y0106900D02*
X0144620Y0109102D01*
X0144253Y0109102D02*
X0144987Y0109102D01*
X0147936Y0108368D02*
X0149037Y0108368D01*
X0149404Y0108001D01*
X0149404Y0106900D01*
X0147936Y0106900D02*
X0147936Y0108368D01*
X0152356Y0109102D02*
X0153090Y0109102D01*
X0152723Y0109102D02*
X0152723Y0106900D01*
X0152356Y0106900D02*
X0153090Y0106900D01*
X0153829Y0106900D02*
X0155297Y0108368D01*
X0155297Y0108735D01*
X0154930Y0109102D01*
X0154196Y0109102D01*
X0153829Y0108735D01*
X0156039Y0108735D02*
X0156039Y0107267D01*
X0156406Y0106900D01*
X0157140Y0106900D01*
X0157507Y0107267D01*
X0157507Y0108735D02*
X0157140Y0109102D01*
X0156406Y0109102D01*
X0156039Y0108735D01*
X0155297Y0106900D02*
X0153829Y0106900D01*
X0160459Y0106900D02*
X0161193Y0106900D01*
X0160826Y0106900D02*
X0160826Y0109102D01*
X0160459Y0109102D02*
X0161193Y0109102D01*
X0161932Y0108735D02*
X0161932Y0108368D01*
X0162299Y0108001D01*
X0163033Y0108001D01*
X0163400Y0107634D01*
X0163400Y0107267D01*
X0163033Y0106900D01*
X0162299Y0106900D01*
X0161932Y0107267D01*
X0161932Y0108735D02*
X0162299Y0109102D01*
X0163033Y0109102D01*
X0163400Y0108735D01*
X0164142Y0109102D02*
X0164142Y0106900D01*
X0165610Y0106900D01*
X0164876Y0108001D02*
X0164142Y0108001D01*
X0164142Y0109102D02*
X0165610Y0109102D01*
X0168562Y0109102D02*
X0169296Y0109102D01*
X0168929Y0109102D02*
X0168929Y0106900D01*
X0168562Y0106900D02*
X0169296Y0106900D01*
X0170035Y0106900D02*
X0170035Y0108368D01*
X0171136Y0108368D01*
X0171503Y0108001D01*
X0171503Y0106900D01*
X0172612Y0107267D02*
X0172979Y0106900D01*
X0172612Y0107267D02*
X0172612Y0108735D01*
X0172245Y0108368D02*
X0172979Y0108368D01*
X0173718Y0108001D02*
X0174085Y0108368D01*
X0174819Y0108368D01*
X0175186Y0108001D01*
X0175186Y0107634D01*
X0173718Y0107634D01*
X0173718Y0107267D02*
X0173718Y0108001D01*
X0173718Y0107267D02*
X0174085Y0106900D01*
X0174819Y0106900D01*
X0175928Y0106900D02*
X0175928Y0108368D01*
X0176662Y0108368D02*
X0177029Y0108368D01*
X0176662Y0108368D02*
X0175928Y0107634D01*
X0177769Y0108001D02*
X0178503Y0108001D01*
X0178136Y0108735D02*
X0178136Y0106900D01*
X0179243Y0107267D02*
X0179610Y0106900D01*
X0180711Y0106900D01*
X0180711Y0108001D01*
X0180344Y0108368D01*
X0179610Y0108368D01*
X0179610Y0107634D02*
X0180711Y0107634D01*
X0181453Y0108001D02*
X0181453Y0107267D01*
X0181820Y0106900D01*
X0182920Y0106900D01*
X0183662Y0107267D02*
X0183662Y0108001D01*
X0184029Y0108368D01*
X0184763Y0108368D01*
X0185130Y0108001D01*
X0185130Y0107634D01*
X0183662Y0107634D01*
X0183662Y0107267D02*
X0184029Y0106900D01*
X0184763Y0106900D01*
X0181820Y0108368D02*
X0181453Y0108001D01*
X0181820Y0108368D02*
X0182920Y0108368D01*
X0179610Y0107634D02*
X0179243Y0107267D01*
X0178136Y0108735D02*
X0178503Y0109102D01*
X0176659Y0105102D02*
X0176659Y0102900D01*
X0175558Y0102900D01*
X0175191Y0103267D01*
X0175191Y0104001D01*
X0175558Y0104368D01*
X0176659Y0104368D01*
X0177401Y0104001D02*
X0177401Y0103267D01*
X0177768Y0102900D01*
X0178869Y0102900D01*
X0178869Y0102533D02*
X0178869Y0104368D01*
X0177768Y0104368D01*
X0177401Y0104001D01*
X0178869Y0102533D02*
X0178502Y0102166D01*
X0178135Y0102166D01*
X0177768Y0100368D02*
X0177401Y0100001D01*
X0177401Y0099267D01*
X0177768Y0098900D01*
X0178869Y0098900D01*
X0178869Y0098533D02*
X0178869Y0100368D01*
X0177768Y0100368D01*
X0179611Y0100001D02*
X0179611Y0099267D01*
X0179978Y0098900D01*
X0180712Y0098900D01*
X0181079Y0099634D02*
X0179611Y0099634D01*
X0179611Y0100001D02*
X0179978Y0100368D01*
X0180712Y0100368D01*
X0181079Y0100001D01*
X0181079Y0099634D01*
X0181821Y0100368D02*
X0182555Y0100368D01*
X0182188Y0100735D02*
X0182188Y0099267D01*
X0182555Y0098900D01*
X0183294Y0098900D02*
X0184395Y0098900D01*
X0184762Y0099267D01*
X0184395Y0099634D01*
X0183661Y0099634D01*
X0183294Y0100001D01*
X0183661Y0100368D01*
X0184762Y0100368D01*
X0185504Y0099267D02*
X0185871Y0099267D01*
X0185871Y0098900D01*
X0185504Y0098900D01*
X0185504Y0099267D01*
X0186609Y0099267D02*
X0186609Y0100001D01*
X0186976Y0100368D01*
X0188077Y0100368D01*
X0188819Y0100001D02*
X0188819Y0099267D01*
X0189186Y0098900D01*
X0189920Y0098900D01*
X0190287Y0099267D01*
X0190287Y0100001D01*
X0189920Y0100368D01*
X0189186Y0100368D01*
X0188819Y0100001D01*
X0188077Y0098900D02*
X0186976Y0098900D01*
X0186609Y0099267D01*
X0191029Y0098900D02*
X0191029Y0100368D01*
X0191396Y0100368D01*
X0191763Y0100001D01*
X0192130Y0100368D01*
X0192497Y0100001D01*
X0192497Y0098900D01*
X0191763Y0098900D02*
X0191763Y0100001D01*
X0191763Y0102900D02*
X0191763Y0104001D01*
X0192130Y0104368D01*
X0192497Y0104001D01*
X0192497Y0102900D01*
X0191763Y0104001D02*
X0191396Y0104368D01*
X0191029Y0104368D01*
X0191029Y0102900D01*
X0190287Y0103267D02*
X0190287Y0104001D01*
X0189920Y0104368D01*
X0189186Y0104368D01*
X0188819Y0104001D01*
X0188819Y0103267D01*
X0189186Y0102900D01*
X0189920Y0102900D01*
X0190287Y0103267D01*
X0188077Y0102900D02*
X0186976Y0102900D01*
X0186609Y0103267D01*
X0186609Y0104001D01*
X0186976Y0104368D01*
X0188077Y0104368D01*
X0185871Y0103267D02*
X0185504Y0103267D01*
X0185504Y0102900D01*
X0185871Y0102900D01*
X0185871Y0103267D01*
X0184762Y0103267D02*
X0184395Y0103634D01*
X0183661Y0103634D01*
X0183294Y0104001D01*
X0183661Y0104368D01*
X0184762Y0104368D01*
X0184762Y0103267D02*
X0184395Y0102900D01*
X0183294Y0102900D01*
X0182555Y0102900D02*
X0182188Y0103267D01*
X0182188Y0104735D01*
X0181821Y0104368D02*
X0182555Y0104368D01*
X0181079Y0104001D02*
X0181079Y0103634D01*
X0179611Y0103634D01*
X0179611Y0104001D02*
X0179978Y0104368D01*
X0180712Y0104368D01*
X0181079Y0104001D01*
X0180712Y0102900D02*
X0179978Y0102900D01*
X0179611Y0103267D01*
X0179611Y0104001D01*
X0174452Y0102900D02*
X0173718Y0102900D01*
X0174085Y0105102D02*
X0174085Y0105469D01*
X0168556Y0104368D02*
X0168556Y0102533D01*
X0168189Y0102166D01*
X0167822Y0102166D01*
X0167088Y0100368D02*
X0167088Y0099267D01*
X0167455Y0098900D01*
X0168556Y0098900D01*
X0169298Y0098900D02*
X0170399Y0098900D01*
X0170766Y0099267D01*
X0170399Y0099634D01*
X0169665Y0099634D01*
X0169298Y0100001D01*
X0166348Y0100368D02*
X0165247Y0099634D01*
X0166348Y0098900D01*
X0165247Y0098900D02*
X0165247Y0101102D01*
X0164506Y0100368D02*
X0164139Y0100368D01*
X0163405Y0099634D01*
X0163405Y0098900D02*
X0163405Y0100368D01*
X0162663Y0100001D02*
X0162663Y0098900D01*
X0161562Y0098900D01*
X0161195Y0099267D01*
X0161562Y0099634D01*
X0162663Y0099634D01*
X0162663Y0100001D02*
X0162296Y0100368D01*
X0161562Y0100368D01*
X0160453Y0100001D02*
X0160453Y0099267D01*
X0160086Y0098900D01*
X0158985Y0098900D01*
X0158985Y0098166D02*
X0158985Y0100368D01*
X0160086Y0100368D01*
X0160453Y0100001D01*
X0158243Y0100368D02*
X0157143Y0100368D01*
X0156776Y0100001D01*
X0157143Y0099634D01*
X0157876Y0099634D01*
X0158243Y0099267D01*
X0157876Y0098900D01*
X0156776Y0098900D01*
X0156038Y0098900D02*
X0155671Y0098900D01*
X0155671Y0099267D01*
X0156038Y0099267D01*
X0156038Y0098900D01*
X0154929Y0099267D02*
X0154929Y0100368D01*
X0154929Y0099267D02*
X0154562Y0098900D01*
X0154195Y0099267D01*
X0153828Y0098900D01*
X0153461Y0099267D01*
X0153461Y0100368D01*
X0152719Y0100368D02*
X0152719Y0099267D01*
X0152352Y0098900D01*
X0151985Y0099267D01*
X0151618Y0098900D01*
X0151251Y0099267D01*
X0151251Y0100368D01*
X0150509Y0100368D02*
X0150509Y0099267D01*
X0150142Y0098900D01*
X0149775Y0099267D01*
X0149408Y0098900D01*
X0149041Y0099267D01*
X0149041Y0100368D01*
X0148299Y0101102D02*
X0146831Y0098900D01*
X0144621Y0098900D02*
X0146089Y0101102D01*
X0143883Y0100368D02*
X0143883Y0100001D01*
X0143516Y0100001D01*
X0143516Y0100368D01*
X0143883Y0100368D01*
X0143883Y0099267D02*
X0143883Y0098900D01*
X0143516Y0098900D01*
X0143516Y0099267D01*
X0143883Y0099267D01*
X0142774Y0099267D02*
X0142407Y0098900D01*
X0141306Y0098900D01*
X0141306Y0098166D02*
X0141306Y0100368D01*
X0142407Y0100368D01*
X0142774Y0100001D01*
X0142774Y0099267D01*
X0140567Y0098900D02*
X0140200Y0099267D01*
X0140200Y0100735D01*
X0139833Y0100368D02*
X0140567Y0100368D01*
X0139094Y0100368D02*
X0138360Y0100368D01*
X0138727Y0100735D02*
X0138727Y0099267D01*
X0139094Y0098900D01*
X0137618Y0098900D02*
X0137618Y0100001D01*
X0137251Y0100368D01*
X0136517Y0100368D01*
X0136150Y0100001D01*
X0136150Y0101102D02*
X0136150Y0098900D01*
X0137618Y0097102D02*
X0136150Y0094900D01*
X0138360Y0094900D02*
X0139461Y0094900D01*
X0139828Y0095267D01*
X0139828Y0096001D01*
X0139461Y0096368D01*
X0138360Y0096368D01*
X0138360Y0094166D01*
X0140570Y0095267D02*
X0140937Y0094900D01*
X0141671Y0094900D01*
X0142038Y0095267D01*
X0142038Y0096001D01*
X0141671Y0096368D01*
X0140937Y0096368D01*
X0140570Y0096001D01*
X0140570Y0095267D01*
X0142780Y0095634D02*
X0143514Y0096368D01*
X0143881Y0096368D01*
X0144621Y0096368D02*
X0145355Y0096368D01*
X0144988Y0096735D02*
X0144988Y0095267D01*
X0145355Y0094900D01*
X0146461Y0094900D02*
X0146461Y0096735D01*
X0146828Y0097102D01*
X0146828Y0096001D02*
X0146094Y0096001D01*
X0147568Y0096001D02*
X0147568Y0095267D01*
X0147935Y0094900D01*
X0148669Y0094900D01*
X0149036Y0095267D01*
X0149036Y0096001D01*
X0148669Y0096368D01*
X0147935Y0096368D01*
X0147568Y0096001D01*
X0149778Y0097102D02*
X0150145Y0097102D01*
X0150145Y0094900D01*
X0149778Y0094900D02*
X0150512Y0094900D01*
X0151251Y0094900D02*
X0151985Y0094900D01*
X0151618Y0094900D02*
X0151618Y0096368D01*
X0151251Y0096368D01*
X0151618Y0097102D02*
X0151618Y0097469D01*
X0152724Y0096001D02*
X0152724Y0095267D01*
X0153091Y0094900D01*
X0153825Y0094900D01*
X0154192Y0095267D01*
X0154192Y0096001D01*
X0153825Y0096368D01*
X0153091Y0096368D01*
X0152724Y0096001D01*
X0154934Y0096001D02*
X0156402Y0096001D01*
X0157144Y0096368D02*
X0157511Y0096368D01*
X0157511Y0094900D01*
X0157144Y0094900D02*
X0157878Y0094900D01*
X0158984Y0095267D02*
X0159351Y0094900D01*
X0158984Y0095267D02*
X0158984Y0096735D01*
X0158617Y0096368D02*
X0159351Y0096368D01*
X0160090Y0096001D02*
X0160457Y0096368D01*
X0161191Y0096368D01*
X0161558Y0096001D01*
X0161558Y0095634D01*
X0160090Y0095634D01*
X0160090Y0095267D02*
X0160090Y0096001D01*
X0160090Y0095267D02*
X0160457Y0094900D01*
X0161191Y0094900D01*
X0162300Y0094900D02*
X0162300Y0096368D01*
X0162667Y0096368D01*
X0163034Y0096001D01*
X0163401Y0096368D01*
X0163768Y0096001D01*
X0163768Y0094900D01*
X0163034Y0094900D02*
X0163034Y0096001D01*
X0164510Y0094900D02*
X0165978Y0097102D01*
X0157511Y0097102D02*
X0157511Y0097469D01*
X0143883Y0102900D02*
X0143516Y0102900D01*
X0143516Y0103267D01*
X0143883Y0103267D01*
X0143883Y0102900D01*
X0143883Y0104001D02*
X0143516Y0104001D01*
X0143516Y0104368D01*
X0143883Y0104368D01*
X0143883Y0104001D01*
X0142774Y0104001D02*
X0142774Y0103267D01*
X0142407Y0102900D01*
X0141306Y0102900D01*
X0141306Y0102166D02*
X0141306Y0104368D01*
X0142407Y0104368D01*
X0142774Y0104001D01*
X0140567Y0104368D02*
X0139833Y0104368D01*
X0140200Y0104735D02*
X0140200Y0103267D01*
X0140567Y0102900D01*
X0139094Y0102900D02*
X0138727Y0103267D01*
X0138727Y0104735D01*
X0138360Y0104368D02*
X0139094Y0104368D01*
X0137618Y0104001D02*
X0137618Y0102900D01*
X0137618Y0104001D02*
X0137251Y0104368D01*
X0136517Y0104368D01*
X0136150Y0104001D01*
X0136150Y0105102D02*
X0136150Y0102900D01*
X0136150Y0106900D02*
X0136884Y0106900D01*
X0136517Y0106900D02*
X0136517Y0109102D01*
X0136150Y0109102D02*
X0136884Y0109102D01*
X0137623Y0108001D02*
X0137990Y0108368D01*
X0139091Y0108368D01*
X0138724Y0107634D02*
X0137990Y0107634D01*
X0137623Y0108001D01*
X0137623Y0106900D02*
X0138724Y0106900D01*
X0139091Y0107267D01*
X0138724Y0107634D01*
X0139833Y0108001D02*
X0140200Y0108368D01*
X0140934Y0108368D01*
X0141301Y0108001D01*
X0141301Y0107267D01*
X0140934Y0106900D01*
X0140200Y0106900D01*
X0139833Y0107267D01*
X0139833Y0108001D01*
X0142780Y0096368D02*
X0142780Y0094900D01*
X0178135Y0098166D02*
X0178502Y0098166D01*
X0178869Y0098533D01*
X0206497Y0096735D02*
X0206863Y0097102D01*
D17*
X0128700Y0103328D03*
X0128700Y0103367D03*
X0126495Y0103367D03*
X0126495Y0103406D03*
X0126692Y0099863D03*
X0126692Y0099824D03*
X0124251Y0099627D03*
X0125786Y0093800D03*
X0122676Y0108406D03*
D18*
X0120137Y0103800D03*
X0119782Y0102855D03*
X0123837Y0099194D03*
X0122578Y0094981D03*
X0125767Y0093839D03*
X0128956Y0094981D03*
D19*
X0125786Y0093918D03*
X0125786Y0093879D03*
X0125786Y0097540D03*
X0131456Y0099115D03*
X0123700Y0102304D03*
X0123700Y0102343D03*
X0123700Y0102580D03*
X0123700Y0102619D03*
X0120078Y0103997D03*
X0119644Y0102776D03*
X0122558Y0108013D03*
X0125786Y0109194D03*
X0125786Y0109233D03*
X0128975Y0108013D03*
D20*
X0125767Y0109115D03*
X0125767Y0109154D03*
X0123680Y0102540D03*
X0123680Y0102501D03*
X0123680Y0102461D03*
X0123680Y0102422D03*
X0123680Y0102383D03*
X0131475Y0099076D03*
X0131948Y0100335D03*
X0125767Y0093957D03*
D21*
X0125786Y0093997D03*
X0125786Y0094036D03*
X0123660Y0099115D03*
X0119566Y0102737D03*
X0120078Y0104036D03*
X0125786Y0109076D03*
D22*
X0125767Y0109036D03*
X0125767Y0108997D03*
X0120097Y0104076D03*
X0131475Y0099036D03*
X0131475Y0098997D03*
X0125767Y0094115D03*
X0125767Y0094076D03*
D23*
X0125786Y0094154D03*
X0132007Y0100375D03*
X0125786Y0105532D03*
X0120078Y0104115D03*
X0125786Y0108918D03*
X0125786Y0108957D03*
D24*
X0125767Y0108879D03*
X0125767Y0108839D03*
X0131475Y0098957D03*
X0125767Y0094233D03*
X0125767Y0094194D03*
D25*
X0125786Y0094272D03*
X0125786Y0094312D03*
X0119487Y0102698D03*
X0120078Y0104154D03*
X0125786Y0108800D03*
D26*
X0119684Y0106320D03*
X0125944Y0101477D03*
X0125944Y0101438D03*
X0125904Y0101359D03*
X0127085Y0101398D03*
X0127085Y0101438D03*
X0128267Y0101438D03*
X0128267Y0101398D03*
X0122873Y0094351D03*
D27*
X0125767Y0094351D03*
X0125767Y0094391D03*
X0125767Y0097580D03*
X0131475Y0098918D03*
X0132105Y0100414D03*
X0120058Y0104194D03*
X0125767Y0108721D03*
X0125767Y0108761D03*
D28*
X0125924Y0101398D03*
X0127105Y0101477D03*
X0128247Y0101359D03*
X0128680Y0094351D03*
D29*
X0128719Y0094391D03*
X0131830Y0096792D03*
X0128326Y0101635D03*
X0128326Y0101674D03*
X0127026Y0101241D03*
X0127026Y0101202D03*
X0126003Y0101674D03*
X0122853Y0094391D03*
D30*
X0122814Y0094430D03*
X0119782Y0096831D03*
X0126987Y0101005D03*
X0126987Y0101044D03*
X0126081Y0101950D03*
X0126081Y0101989D03*
D31*
X0131495Y0098879D03*
X0129526Y0096989D03*
X0125786Y0094430D03*
X0122007Y0106083D03*
X0122046Y0106123D03*
X0125786Y0108643D03*
X0125786Y0108682D03*
D32*
X0126062Y0101910D03*
X0126062Y0101871D03*
X0127007Y0101083D03*
X0128385Y0101871D03*
X0128385Y0101910D03*
X0128739Y0094430D03*
D33*
X0122794Y0094469D03*
X0124566Y0100493D03*
X0124566Y0100532D03*
X0124566Y0100572D03*
X0124566Y0100611D03*
X0124566Y0101556D03*
X0126141Y0102146D03*
X0126141Y0102186D03*
X0126928Y0100808D03*
X0128424Y0102107D03*
X0128424Y0102146D03*
X0131731Y0106241D03*
D34*
X0129507Y0106123D03*
X0125767Y0108603D03*
X0120058Y0104233D03*
X0119428Y0102658D03*
X0119349Y0102383D03*
X0119310Y0102068D03*
X0119310Y0102028D03*
X0119310Y0101989D03*
X0119310Y0101950D03*
X0119310Y0101910D03*
X0119310Y0101871D03*
X0119310Y0101831D03*
X0119310Y0101792D03*
X0119310Y0101753D03*
X0119310Y0101713D03*
X0119310Y0101674D03*
X0119310Y0101635D03*
X0119310Y0101595D03*
X0119310Y0101556D03*
X0119310Y0101517D03*
X0119310Y0101477D03*
X0119310Y0101438D03*
X0119310Y0101398D03*
X0119310Y0101359D03*
X0119310Y0101320D03*
X0119310Y0101280D03*
X0119310Y0101241D03*
X0119310Y0101202D03*
X0119310Y0101162D03*
X0119310Y0101123D03*
X0119310Y0101083D03*
X0119310Y0101044D03*
X0119310Y0101005D03*
X0119349Y0100729D03*
X0122026Y0096989D03*
X0122066Y0096950D03*
X0125767Y0094509D03*
X0125767Y0094469D03*
X0129467Y0096950D03*
X0132223Y0100847D03*
X0132223Y0100887D03*
X0132223Y0100926D03*
X0132223Y0100965D03*
X0132263Y0101241D03*
X0132263Y0101280D03*
X0132263Y0101320D03*
X0132263Y0101359D03*
X0132263Y0101398D03*
X0132263Y0101438D03*
X0132263Y0101477D03*
X0132263Y0101517D03*
X0132263Y0101556D03*
X0132263Y0101595D03*
X0132263Y0101635D03*
X0132263Y0101674D03*
X0132263Y0101713D03*
X0132263Y0101753D03*
X0132263Y0101792D03*
X0132263Y0101831D03*
X0132223Y0102107D03*
X0132223Y0102146D03*
X0132223Y0102186D03*
X0132223Y0102225D03*
X0131475Y0102973D03*
D35*
X0128404Y0102068D03*
X0128404Y0102028D03*
X0126948Y0100887D03*
X0126948Y0100847D03*
X0126121Y0102068D03*
X0126121Y0102107D03*
X0124585Y0101517D03*
X0124585Y0101477D03*
X0124585Y0101438D03*
X0124585Y0100769D03*
X0124585Y0100729D03*
X0124585Y0100690D03*
X0124585Y0100650D03*
X0128759Y0094469D03*
D36*
X0128798Y0094509D03*
X0122774Y0094509D03*
X0119861Y0096871D03*
X0124507Y0100217D03*
X0124507Y0100257D03*
X0124507Y0101713D03*
X0126200Y0102383D03*
X0128483Y0102383D03*
X0128483Y0102343D03*
X0129704Y0101477D03*
X0129704Y0101438D03*
X0129664Y0101398D03*
X0129664Y0101359D03*
X0129625Y0101320D03*
X0129625Y0101280D03*
X0129743Y0101517D03*
X0129782Y0101595D03*
X0129822Y0101674D03*
X0129861Y0101753D03*
X0129900Y0101831D03*
X0129940Y0101871D03*
X0129940Y0101910D03*
X0129979Y0101950D03*
X0129979Y0101989D03*
X0130019Y0102028D03*
X0130019Y0102068D03*
X0130058Y0102107D03*
X0130058Y0102146D03*
X0130097Y0102186D03*
X0130097Y0102225D03*
X0130137Y0102265D03*
X0130137Y0102304D03*
X0130176Y0102343D03*
X0130176Y0102383D03*
X0130215Y0102422D03*
X0130215Y0102461D03*
X0132459Y0103052D03*
X0132184Y0103918D03*
X0126869Y0100611D03*
X0126869Y0100572D03*
X0121318Y0101438D03*
X0121278Y0101517D03*
X0121239Y0101595D03*
X0121318Y0102816D03*
X0121357Y0102894D03*
X0121396Y0102973D03*
X0121436Y0103052D03*
D37*
X0121652Y0103367D03*
X0121692Y0103406D03*
X0121731Y0103446D03*
X0121416Y0101320D03*
X0121456Y0101280D03*
X0124448Y0101831D03*
X0124448Y0100060D03*
X0124448Y0100020D03*
X0126849Y0100454D03*
X0126849Y0100493D03*
X0129526Y0100965D03*
X0129526Y0101005D03*
X0128542Y0102580D03*
X0128542Y0102619D03*
X0126259Y0102619D03*
X0126259Y0102580D03*
X0132204Y0103997D03*
X0128818Y0094548D03*
X0122755Y0094548D03*
D38*
X0125786Y0094548D03*
X0129408Y0096910D03*
X0131495Y0098839D03*
X0132164Y0100454D03*
X0132164Y0100493D03*
X0132164Y0100532D03*
X0132164Y0100572D03*
X0132204Y0100611D03*
X0132204Y0100650D03*
X0132204Y0100690D03*
X0132204Y0100729D03*
X0132204Y0100769D03*
X0132204Y0100808D03*
X0132243Y0101005D03*
X0132243Y0101044D03*
X0132243Y0101083D03*
X0132243Y0101123D03*
X0132243Y0101162D03*
X0132243Y0101202D03*
X0132243Y0101871D03*
X0132243Y0101910D03*
X0132243Y0101950D03*
X0132243Y0101989D03*
X0132243Y0102028D03*
X0132243Y0102068D03*
X0132204Y0102265D03*
X0132204Y0102304D03*
X0132204Y0102343D03*
X0132204Y0102383D03*
X0132204Y0102422D03*
X0132204Y0102461D03*
X0131495Y0102934D03*
X0125786Y0105493D03*
X0122085Y0106162D03*
X0120038Y0104272D03*
X0119369Y0102580D03*
X0119369Y0102540D03*
X0119369Y0102501D03*
X0119369Y0102461D03*
X0119369Y0102422D03*
X0119330Y0102343D03*
X0119330Y0102304D03*
X0119330Y0102265D03*
X0119330Y0102225D03*
X0119330Y0102186D03*
X0119330Y0102146D03*
X0119330Y0102107D03*
X0119330Y0100965D03*
X0119330Y0100926D03*
X0119330Y0100887D03*
X0119330Y0100847D03*
X0119330Y0100808D03*
X0119330Y0100769D03*
X0119369Y0100690D03*
X0119369Y0100650D03*
X0122125Y0096910D03*
X0129448Y0106162D03*
X0125786Y0108524D03*
X0125786Y0108564D03*
D39*
X0121987Y0103682D03*
X0126318Y0102816D03*
X0128601Y0102816D03*
X0128601Y0102855D03*
X0129428Y0100729D03*
X0129428Y0100690D03*
X0129389Y0100611D03*
X0126790Y0100257D03*
X0124389Y0099902D03*
X0124389Y0099863D03*
X0122735Y0094587D03*
X0128837Y0094587D03*
D40*
X0125767Y0094587D03*
X0125767Y0094627D03*
X0122184Y0096871D03*
X0131515Y0098800D03*
X0131475Y0102855D03*
X0131475Y0102894D03*
X0129389Y0106202D03*
X0125767Y0108446D03*
X0125767Y0108485D03*
X0122144Y0106202D03*
X0119389Y0102619D03*
D41*
X0122164Y0103800D03*
X0124330Y0101950D03*
X0126377Y0103013D03*
X0126377Y0103052D03*
X0126416Y0103091D03*
X0126416Y0103131D03*
X0128621Y0103052D03*
X0128621Y0103013D03*
X0128621Y0102973D03*
X0129290Y0100335D03*
X0129251Y0100257D03*
X0129251Y0100217D03*
X0129211Y0100178D03*
X0129211Y0100139D03*
X0129172Y0100060D03*
X0129133Y0099981D03*
X0128739Y0099233D03*
X0128700Y0099154D03*
X0128660Y0099115D03*
X0126731Y0100020D03*
X0126731Y0100060D03*
X0124330Y0099745D03*
X0125786Y0097422D03*
X0122715Y0094627D03*
X0119999Y0096950D03*
X0128857Y0094627D03*
X0131574Y0096950D03*
D42*
X0128877Y0094666D03*
X0122696Y0094666D03*
X0121711Y0101123D03*
X0124270Y0101989D03*
X0126475Y0103288D03*
X0126475Y0103328D03*
X0128680Y0103288D03*
X0128680Y0103249D03*
X0122302Y0103879D03*
X0120019Y0106123D03*
X0131515Y0106123D03*
D43*
X0129330Y0106241D03*
X0125786Y0108406D03*
X0122204Y0106241D03*
X0120038Y0104312D03*
X0122243Y0096831D03*
X0125786Y0094706D03*
X0125786Y0094666D03*
X0129369Y0096871D03*
D44*
X0131495Y0096989D03*
X0128857Y0094706D03*
X0122676Y0094706D03*
X0124211Y0099548D03*
X0126652Y0099706D03*
X0128739Y0103485D03*
X0128739Y0103524D03*
X0126534Y0103524D03*
D45*
X0126593Y0103721D03*
X0126593Y0103761D03*
X0125767Y0105650D03*
X0128798Y0103761D03*
X0128798Y0103721D03*
X0126593Y0099509D03*
X0126593Y0099469D03*
X0124152Y0099469D03*
X0122656Y0094745D03*
X0128877Y0094745D03*
D46*
X0125767Y0094745D03*
X0125767Y0094784D03*
X0129310Y0096831D03*
X0131515Y0098761D03*
X0125767Y0097619D03*
X0129270Y0106280D03*
X0125767Y0108328D03*
X0125767Y0108367D03*
X0122263Y0106280D03*
D47*
X0128818Y0103918D03*
X0128818Y0103879D03*
X0126534Y0099312D03*
X0126534Y0099272D03*
X0124093Y0099391D03*
X0122637Y0094784D03*
X0128896Y0094784D03*
D48*
X0125786Y0097461D03*
X0126534Y0099194D03*
X0126534Y0099233D03*
X0124054Y0099351D03*
X0122637Y0094824D03*
X0122637Y0108288D03*
D49*
X0125786Y0108288D03*
X0125786Y0108249D03*
X0129211Y0106320D03*
X0131495Y0102816D03*
X0120038Y0104351D03*
X0122322Y0096792D03*
X0125786Y0094824D03*
X0129251Y0096792D03*
D50*
X0128916Y0094824D03*
X0126515Y0099154D03*
X0122499Y0100650D03*
D51*
X0122459Y0100769D03*
X0119979Y0103013D03*
X0119979Y0103052D03*
X0120019Y0103170D03*
X0125767Y0109272D03*
X0131593Y0100139D03*
X0131554Y0099981D03*
X0122617Y0094863D03*
D52*
X0125767Y0094863D03*
X0125767Y0094902D03*
X0122381Y0096753D03*
X0131515Y0098721D03*
X0120019Y0104391D03*
X0122341Y0106320D03*
X0125767Y0108209D03*
D53*
X0128936Y0108209D03*
X0120117Y0103485D03*
X0120078Y0103367D03*
X0120078Y0103328D03*
X0120038Y0103288D03*
X0120038Y0103249D03*
X0120038Y0103209D03*
X0119999Y0103131D03*
X0119999Y0103091D03*
X0119959Y0102973D03*
X0131495Y0099824D03*
X0131495Y0099784D03*
X0131534Y0099863D03*
X0131534Y0099902D03*
X0131534Y0099942D03*
X0131574Y0100020D03*
X0131574Y0100060D03*
X0131574Y0100099D03*
X0131456Y0099666D03*
X0128936Y0094863D03*
D54*
X0128936Y0094902D03*
X0122597Y0094902D03*
X0131377Y0099430D03*
X0131652Y0100178D03*
X0120156Y0103682D03*
D55*
X0120156Y0103721D03*
X0119841Y0102894D03*
X0123896Y0099233D03*
X0122597Y0094942D03*
X0122597Y0108170D03*
D56*
X0120353Y0104981D03*
X0120314Y0104942D03*
X0131180Y0105020D03*
X0131219Y0104981D03*
X0131219Y0104942D03*
X0131259Y0104902D03*
X0131613Y0102737D03*
X0131259Y0098170D03*
X0131219Y0098131D03*
X0125786Y0094942D03*
X0122676Y0096595D03*
X0120353Y0098091D03*
X0120314Y0098131D03*
X0120314Y0098170D03*
X0120274Y0098209D03*
D57*
X0123837Y0102934D03*
X0120137Y0103761D03*
X0131396Y0099351D03*
X0128956Y0094942D03*
D58*
X0128621Y0096477D03*
X0130707Y0097501D03*
X0125786Y0094981D03*
X0120865Y0097461D03*
X0120826Y0097501D03*
X0130707Y0105611D03*
X0130747Y0105572D03*
D59*
X0125786Y0105572D03*
X0123739Y0102776D03*
X0120117Y0103879D03*
X0119723Y0102816D03*
X0122558Y0095020D03*
X0128975Y0095020D03*
D60*
X0125767Y0095020D03*
X0121239Y0097107D03*
X0121200Y0097146D03*
X0125767Y0097816D03*
X0130885Y0104154D03*
X0130924Y0104194D03*
X0130333Y0105965D03*
X0121200Y0105965D03*
D61*
X0123700Y0102698D03*
X0123700Y0102658D03*
X0123739Y0102225D03*
X0131456Y0099154D03*
X0122558Y0095060D03*
D62*
X0125786Y0095060D03*
X0120747Y0100139D03*
D63*
X0123719Y0102265D03*
X0120097Y0103957D03*
X0128995Y0095060D03*
D64*
X0125767Y0095099D03*
D65*
X0125767Y0095139D03*
D66*
X0125786Y0095178D03*
D67*
X0125767Y0095217D03*
D68*
X0125786Y0095257D03*
X0125786Y0106753D03*
D69*
X0125767Y0106950D03*
X0125767Y0106989D03*
X0125767Y0096123D03*
X0125767Y0096083D03*
X0125767Y0095296D03*
D70*
X0125767Y0095335D03*
X0125767Y0095926D03*
X0125767Y0095965D03*
X0125767Y0107107D03*
X0125767Y0107146D03*
D71*
X0125786Y0107383D03*
X0125786Y0107422D03*
X0125786Y0095729D03*
X0125786Y0095690D03*
X0125786Y0095375D03*
D72*
X0125767Y0095414D03*
X0125767Y0095454D03*
X0125767Y0095493D03*
X0125767Y0107619D03*
X0125767Y0107658D03*
D73*
X0125786Y0107580D03*
X0125786Y0107540D03*
X0125786Y0095572D03*
X0125786Y0095532D03*
D74*
X0125767Y0095611D03*
X0125767Y0095650D03*
X0125767Y0107461D03*
X0125767Y0107501D03*
X0125767Y0107698D03*
D75*
X0125767Y0107737D03*
X0125767Y0107343D03*
X0125767Y0107304D03*
X0125767Y0107265D03*
X0125767Y0095808D03*
X0125767Y0095769D03*
D76*
X0125786Y0095847D03*
X0125786Y0095887D03*
X0125786Y0107186D03*
X0125786Y0107225D03*
D77*
X0125786Y0107068D03*
X0125786Y0107028D03*
X0125786Y0107776D03*
X0125786Y0096044D03*
X0125786Y0096005D03*
D78*
X0125786Y0096162D03*
X0125786Y0096202D03*
X0125786Y0106871D03*
X0125786Y0106910D03*
D79*
X0125767Y0106831D03*
X0125767Y0106792D03*
X0125767Y0107816D03*
X0125767Y0096320D03*
X0125767Y0096280D03*
X0125767Y0096241D03*
D80*
X0123345Y0096359D03*
X0125786Y0097973D03*
X0128227Y0096359D03*
D81*
X0128424Y0096398D03*
X0123148Y0096398D03*
D82*
X0123030Y0096438D03*
X0121141Y0097186D03*
X0130353Y0097146D03*
X0130393Y0097186D03*
X0127755Y0103957D03*
X0127755Y0103997D03*
X0130393Y0105926D03*
X0130432Y0105887D03*
X0121180Y0105926D03*
D83*
X0121121Y0105887D03*
X0121081Y0105847D03*
X0125767Y0105296D03*
X0128522Y0096438D03*
X0130452Y0097225D03*
X0130491Y0097265D03*
X0121121Y0097225D03*
D84*
X0122932Y0096477D03*
X0130648Y0097422D03*
X0130688Y0097461D03*
X0130648Y0105650D03*
X0125767Y0105335D03*
X0120924Y0105690D03*
X0120885Y0105650D03*
X0120845Y0105611D03*
D85*
X0120648Y0105375D03*
X0120609Y0105335D03*
X0130845Y0105454D03*
X0130885Y0105414D03*
X0130924Y0105375D03*
X0130924Y0097737D03*
X0130885Y0097698D03*
X0122853Y0096517D03*
X0120688Y0097658D03*
X0120648Y0097698D03*
D86*
X0120629Y0097737D03*
X0120589Y0097776D03*
X0128700Y0096517D03*
X0130944Y0097776D03*
X0130983Y0097816D03*
X0131652Y0102698D03*
X0130983Y0105296D03*
X0130944Y0105335D03*
X0125786Y0105375D03*
X0125786Y0108131D03*
X0120589Y0105296D03*
X0120550Y0105257D03*
D87*
X0120471Y0105178D03*
X0120471Y0105139D03*
X0120432Y0105099D03*
X0131062Y0105178D03*
X0131101Y0105139D03*
X0131141Y0098013D03*
X0131101Y0097973D03*
X0128778Y0096556D03*
X0125786Y0097698D03*
X0122755Y0096556D03*
X0120471Y0097934D03*
X0120432Y0097973D03*
D88*
X0120255Y0098249D03*
X0120215Y0098288D03*
X0128877Y0096595D03*
X0131278Y0098209D03*
X0131318Y0098249D03*
X0131318Y0098288D03*
X0131318Y0104824D03*
X0131278Y0104863D03*
X0128916Y0106477D03*
X0125767Y0105414D03*
X0122617Y0106477D03*
X0120294Y0104902D03*
X0120255Y0104863D03*
X0120215Y0104784D03*
D89*
X0120196Y0104745D03*
X0120156Y0104706D03*
X0120117Y0104627D03*
X0120235Y0104824D03*
X0131337Y0104784D03*
X0131377Y0104745D03*
X0131377Y0104706D03*
X0131416Y0104666D03*
X0131416Y0098446D03*
X0131377Y0098367D03*
X0131337Y0098328D03*
X0128975Y0096635D03*
X0122597Y0096635D03*
X0120196Y0098328D03*
X0120196Y0098367D03*
X0120156Y0098406D03*
D90*
X0122519Y0096674D03*
X0131495Y0098564D03*
X0131495Y0098603D03*
X0131534Y0098643D03*
X0131534Y0102776D03*
X0131456Y0104587D03*
X0125786Y0108170D03*
X0122479Y0106398D03*
X0120078Y0104548D03*
X0120038Y0104509D03*
X0120038Y0104469D03*
D91*
X0120097Y0104587D03*
X0120137Y0104666D03*
X0122538Y0106438D03*
X0128995Y0106438D03*
X0131436Y0104627D03*
X0131475Y0104548D03*
X0131475Y0098524D03*
X0131436Y0098485D03*
X0131396Y0098406D03*
X0129034Y0096674D03*
X0125767Y0097658D03*
X0120137Y0098446D03*
X0120097Y0098485D03*
X0120097Y0098524D03*
X0120058Y0098564D03*
D92*
X0122440Y0096713D03*
X0129172Y0096753D03*
X0131534Y0098682D03*
X0125786Y0105454D03*
X0122400Y0106359D03*
X0129133Y0106359D03*
D93*
X0129074Y0106398D03*
X0120019Y0104430D03*
X0129113Y0096713D03*
D94*
X0128306Y0101556D03*
X0128306Y0101595D03*
X0127046Y0101320D03*
X0127046Y0101280D03*
X0125983Y0101595D03*
X0125983Y0101635D03*
X0119723Y0096792D03*
X0128700Y0108721D03*
D95*
X0128739Y0108643D03*
X0122794Y0108643D03*
X0126101Y0102028D03*
X0126967Y0100965D03*
X0126967Y0100926D03*
X0128385Y0101950D03*
X0128385Y0101989D03*
X0124605Y0101398D03*
X0124605Y0101359D03*
X0124605Y0101320D03*
X0124605Y0101280D03*
X0124605Y0101241D03*
X0124605Y0101202D03*
X0124605Y0101162D03*
X0124605Y0101123D03*
X0124605Y0101083D03*
X0124605Y0101044D03*
X0124605Y0101005D03*
X0124605Y0100965D03*
X0124605Y0100926D03*
X0124605Y0100887D03*
X0124605Y0100847D03*
X0124605Y0100808D03*
X0131770Y0096831D03*
D96*
X0131692Y0096871D03*
X0126889Y0100650D03*
X0126889Y0100690D03*
X0126180Y0102304D03*
X0126180Y0102343D03*
X0124526Y0101674D03*
X0124526Y0100375D03*
X0124526Y0100335D03*
X0124526Y0100296D03*
X0121259Y0101556D03*
X0121219Y0101635D03*
X0121219Y0101674D03*
X0121180Y0101753D03*
X0121180Y0101792D03*
X0121180Y0101831D03*
X0121180Y0102225D03*
X0121180Y0102265D03*
X0121180Y0102304D03*
X0121219Y0102461D03*
X0121219Y0102501D03*
X0121259Y0102580D03*
X0121259Y0102619D03*
X0121259Y0102658D03*
X0121298Y0102698D03*
X0121298Y0102737D03*
X0121298Y0102776D03*
X0121337Y0102855D03*
X0121377Y0102934D03*
X0119093Y0100099D03*
X0119093Y0100060D03*
X0119093Y0100020D03*
X0119133Y0099981D03*
X0119133Y0099942D03*
X0119133Y0099902D03*
X0119172Y0099863D03*
X0119172Y0099824D03*
X0119172Y0099784D03*
X0119211Y0099745D03*
X0119211Y0099706D03*
X0119211Y0099666D03*
X0119251Y0099627D03*
X0119251Y0099587D03*
X0119251Y0099548D03*
X0119290Y0099509D03*
X0119290Y0099469D03*
X0119290Y0099430D03*
X0119330Y0099391D03*
X0119330Y0099351D03*
X0119330Y0099312D03*
X0119369Y0099272D03*
X0119369Y0099233D03*
X0119369Y0099194D03*
X0128463Y0102265D03*
X0128463Y0102304D03*
X0132282Y0103524D03*
X0132282Y0103564D03*
X0132282Y0103603D03*
X0132243Y0103643D03*
X0132243Y0103682D03*
X0132243Y0103721D03*
X0132204Y0103761D03*
X0132204Y0103800D03*
X0132204Y0103839D03*
X0132164Y0103879D03*
X0132322Y0103485D03*
X0132322Y0103446D03*
X0132322Y0103406D03*
X0132361Y0103367D03*
X0132361Y0103328D03*
X0132361Y0103288D03*
X0132400Y0103249D03*
X0132400Y0103209D03*
X0132400Y0103170D03*
X0132440Y0103131D03*
X0132440Y0103091D03*
X0132479Y0103013D03*
X0128778Y0108603D03*
D97*
X0128818Y0108524D03*
X0121928Y0103643D03*
X0121889Y0103603D03*
X0126298Y0102776D03*
X0126298Y0102737D03*
X0124408Y0101871D03*
X0126810Y0100335D03*
X0126810Y0100296D03*
X0124408Y0099942D03*
X0121495Y0101241D03*
X0128581Y0102737D03*
X0128581Y0102776D03*
X0129487Y0100847D03*
X0129487Y0100808D03*
X0129448Y0100769D03*
X0119920Y0096910D03*
D98*
X0124428Y0099981D03*
X0126830Y0100375D03*
X0126830Y0100414D03*
X0129507Y0100887D03*
X0129507Y0100926D03*
X0128562Y0102658D03*
X0128562Y0102698D03*
X0126278Y0102698D03*
X0126278Y0102658D03*
X0121830Y0103564D03*
X0121790Y0103524D03*
X0121751Y0103485D03*
X0122735Y0108524D03*
X0131633Y0096910D03*
D99*
X0126672Y0099745D03*
X0126672Y0099784D03*
X0124231Y0099587D03*
X0120058Y0096989D03*
X0126515Y0103446D03*
X0126515Y0103485D03*
X0128719Y0103446D03*
X0128719Y0103406D03*
X0122381Y0103918D03*
X0128877Y0108406D03*
D100*
X0130196Y0106083D03*
X0131101Y0104469D03*
X0131101Y0104430D03*
X0131062Y0104391D03*
X0121337Y0097028D03*
D101*
X0121278Y0097068D03*
X0130215Y0097028D03*
X0130255Y0097068D03*
X0131003Y0104312D03*
X0131042Y0104351D03*
X0130255Y0106044D03*
X0125767Y0105257D03*
X0121318Y0106044D03*
D102*
X0121259Y0106005D03*
X0123070Y0106674D03*
X0128463Y0106674D03*
X0130274Y0106005D03*
X0131101Y0104509D03*
X0130983Y0104272D03*
X0130944Y0104233D03*
X0130314Y0097107D03*
D103*
X0121062Y0097265D03*
X0121022Y0097304D03*
X0131731Y0102501D03*
X0130550Y0105769D03*
X0130511Y0105808D03*
X0130471Y0105847D03*
X0125786Y0108091D03*
D104*
X0122971Y0106635D03*
X0121042Y0105808D03*
X0121003Y0105769D03*
X0120963Y0105729D03*
X0131711Y0102540D03*
X0125767Y0097776D03*
X0130530Y0097304D03*
X0130570Y0097343D03*
D105*
X0130589Y0097383D03*
X0120983Y0097343D03*
X0120944Y0097383D03*
X0120904Y0097422D03*
X0131731Y0102580D03*
X0131731Y0102619D03*
X0130629Y0105690D03*
X0130589Y0105729D03*
X0128581Y0106635D03*
D106*
X0128975Y0108131D03*
X0122597Y0108131D03*
X0123818Y0102894D03*
X0131731Y0100217D03*
X0131416Y0099312D03*
X0125786Y0097501D03*
D107*
X0125767Y0097737D03*
X0120806Y0097540D03*
X0120767Y0097580D03*
X0120727Y0097619D03*
X0130767Y0097540D03*
X0130806Y0097580D03*
X0131711Y0102658D03*
X0130806Y0105493D03*
X0130767Y0105532D03*
X0120806Y0105572D03*
X0120767Y0105532D03*
D108*
X0120747Y0105493D03*
X0120707Y0105454D03*
X0120668Y0105414D03*
X0122912Y0106595D03*
X0128660Y0106595D03*
X0130865Y0097658D03*
X0130826Y0097619D03*
D109*
X0131003Y0097855D03*
X0131042Y0097894D03*
X0131081Y0097934D03*
X0120570Y0097816D03*
X0120530Y0097855D03*
X0120491Y0097894D03*
X0120530Y0105217D03*
X0122814Y0106556D03*
X0128759Y0106556D03*
X0131003Y0105257D03*
X0131042Y0105217D03*
D110*
X0125767Y0108052D03*
X0125767Y0097855D03*
D111*
X0125767Y0097894D03*
X0123207Y0106713D03*
D112*
X0125767Y0097934D03*
D113*
X0120412Y0098013D03*
X0120373Y0098052D03*
X0131160Y0098052D03*
X0131200Y0098091D03*
X0131160Y0105060D03*
X0131121Y0105099D03*
X0128837Y0106517D03*
X0122696Y0106517D03*
X0120412Y0105060D03*
X0120373Y0105020D03*
D114*
X0125767Y0098013D03*
D115*
X0125767Y0098052D03*
D116*
X0125767Y0098091D03*
X0120806Y0100335D03*
D117*
X0125786Y0098131D03*
D118*
X0125767Y0098170D03*
D119*
X0125786Y0098209D03*
X0120707Y0100414D03*
D120*
X0125767Y0098249D03*
D121*
X0125767Y0098288D03*
X0120648Y0100493D03*
X0120648Y0100532D03*
D122*
X0125786Y0098328D03*
D123*
X0125786Y0098367D03*
D124*
X0125767Y0098406D03*
D125*
X0125767Y0098446D03*
D126*
X0125767Y0098485D03*
D127*
X0125767Y0098524D03*
D128*
X0125767Y0098564D03*
D129*
X0120609Y0098603D03*
X0125767Y0105178D03*
D130*
X0125767Y0098603D03*
D131*
X0124054Y0099076D03*
X0124015Y0099036D03*
X0123975Y0098997D03*
X0123936Y0098957D03*
X0123660Y0098643D03*
D132*
X0123680Y0098682D03*
X0123719Y0098721D03*
X0123759Y0098761D03*
X0123798Y0098800D03*
X0123837Y0098839D03*
X0123877Y0098879D03*
X0123916Y0098918D03*
D133*
X0124467Y0100099D03*
X0124467Y0101792D03*
X0126239Y0102501D03*
X0126239Y0102540D03*
X0128522Y0102540D03*
X0128522Y0102501D03*
X0129585Y0101162D03*
X0129585Y0101123D03*
X0129546Y0101083D03*
X0129546Y0101044D03*
X0121396Y0101359D03*
X0121554Y0103249D03*
X0121593Y0103288D03*
X0121633Y0103328D03*
X0119900Y0106202D03*
X0128798Y0108564D03*
X0131672Y0106202D03*
X0119349Y0099115D03*
D134*
X0122479Y0100690D03*
X0122479Y0100729D03*
X0124015Y0099312D03*
X0126495Y0099115D03*
X0128936Y0108249D03*
X0122637Y0108249D03*
D135*
X0122755Y0108564D03*
X0132204Y0103957D03*
X0129881Y0101792D03*
X0129841Y0101713D03*
X0129802Y0101635D03*
X0129763Y0101556D03*
X0129605Y0101241D03*
X0129605Y0101202D03*
X0128503Y0102422D03*
X0128503Y0102461D03*
X0126219Y0102461D03*
X0126219Y0102422D03*
X0124487Y0101753D03*
X0124487Y0100178D03*
X0124487Y0100139D03*
X0126849Y0100532D03*
X0121337Y0101398D03*
X0121298Y0101477D03*
X0121416Y0103013D03*
X0121456Y0103091D03*
X0121495Y0103131D03*
X0121495Y0103170D03*
X0121534Y0103209D03*
X0119369Y0099154D03*
D136*
X0123759Y0099154D03*
X0123759Y0102186D03*
X0123719Y0102737D03*
X0120097Y0103918D03*
X0122578Y0108052D03*
X0128995Y0108052D03*
X0131869Y0100296D03*
X0131436Y0099194D03*
D137*
X0129192Y0100099D03*
X0129152Y0100020D03*
X0129113Y0099942D03*
X0129113Y0099902D03*
X0129074Y0099863D03*
X0129074Y0099824D03*
X0129034Y0099784D03*
X0128995Y0099706D03*
X0128956Y0099627D03*
X0128916Y0099548D03*
X0128877Y0099469D03*
X0128837Y0099391D03*
X0128798Y0099351D03*
X0128798Y0099312D03*
X0128759Y0099272D03*
X0128719Y0099194D03*
X0126711Y0099981D03*
X0124310Y0099706D03*
X0126436Y0103170D03*
X0128641Y0103131D03*
X0128641Y0103091D03*
X0122223Y0103839D03*
X0122696Y0108446D03*
D138*
X0122578Y0108091D03*
X0123759Y0102816D03*
X0131436Y0099233D03*
D139*
X0131396Y0099469D03*
X0131396Y0099509D03*
X0131396Y0099548D03*
X0131436Y0099587D03*
X0131436Y0099627D03*
X0131475Y0099706D03*
X0131475Y0099745D03*
X0123956Y0099272D03*
X0122420Y0100808D03*
X0122381Y0100847D03*
X0122144Y0101005D03*
X0123956Y0102107D03*
X0123916Y0102973D03*
X0125767Y0105611D03*
X0120176Y0103643D03*
X0120176Y0103603D03*
X0120137Y0103564D03*
X0120137Y0103524D03*
X0120097Y0103446D03*
X0120097Y0103406D03*
X0119940Y0102934D03*
X0122617Y0108209D03*
D140*
X0128975Y0108091D03*
X0123778Y0102855D03*
X0123818Y0102146D03*
X0120117Y0103839D03*
X0131416Y0099272D03*
X0131810Y0100257D03*
D141*
X0126554Y0099391D03*
X0126554Y0099351D03*
X0124113Y0099430D03*
X0126633Y0103879D03*
X0126633Y0103918D03*
X0122656Y0108328D03*
D142*
X0128956Y0108170D03*
X0122302Y0100926D03*
X0122341Y0100887D03*
X0122223Y0100965D03*
X0131396Y0099391D03*
D143*
X0126574Y0099430D03*
X0126613Y0103800D03*
X0126613Y0103839D03*
X0128818Y0103839D03*
X0128818Y0103800D03*
X0128896Y0108328D03*
D144*
X0128857Y0108446D03*
X0128660Y0103209D03*
X0128660Y0103170D03*
X0126456Y0103209D03*
X0126456Y0103249D03*
X0126692Y0099942D03*
X0126692Y0099902D03*
X0128857Y0099430D03*
X0128896Y0099509D03*
X0128936Y0099587D03*
X0128975Y0099666D03*
X0129015Y0099745D03*
X0124290Y0099666D03*
D145*
X0124172Y0099509D03*
X0126613Y0099548D03*
X0126613Y0099587D03*
X0121849Y0101083D03*
X0122479Y0103957D03*
X0120078Y0106083D03*
X0122676Y0108367D03*
X0126574Y0103682D03*
X0126574Y0103643D03*
X0128778Y0103643D03*
X0128778Y0103682D03*
D146*
X0128759Y0103603D03*
X0128759Y0103564D03*
X0126554Y0103564D03*
X0126554Y0103603D03*
X0124192Y0102028D03*
X0126633Y0099666D03*
X0126633Y0099627D03*
X0128877Y0108367D03*
D147*
X0128837Y0108485D03*
X0128601Y0102934D03*
X0128601Y0102894D03*
X0126357Y0102934D03*
X0126357Y0102973D03*
X0126751Y0100139D03*
X0126751Y0100099D03*
X0124349Y0099784D03*
X0121633Y0101162D03*
X0129270Y0100296D03*
X0129310Y0100375D03*
X0129310Y0100414D03*
X0129349Y0100493D03*
D148*
X0129330Y0100454D03*
X0129369Y0100532D03*
X0129369Y0100572D03*
X0129408Y0100650D03*
X0126770Y0100217D03*
X0126770Y0100178D03*
X0124369Y0099824D03*
X0124369Y0101910D03*
X0126337Y0102855D03*
X0126337Y0102894D03*
X0122085Y0103761D03*
X0122046Y0103721D03*
X0121574Y0101202D03*
X0119959Y0106162D03*
X0122715Y0108485D03*
X0131613Y0106162D03*
D149*
X0125786Y0108013D03*
X0120826Y0100178D03*
D150*
X0120865Y0100217D03*
X0125786Y0105139D03*
D151*
X0120885Y0100257D03*
D152*
X0120845Y0100296D03*
X0125767Y0105060D03*
D153*
X0125786Y0104942D03*
X0120747Y0100375D03*
D154*
X0121200Y0101713D03*
X0121160Y0101871D03*
X0121160Y0101910D03*
X0121160Y0101950D03*
X0121160Y0101989D03*
X0121160Y0102028D03*
X0121160Y0102068D03*
X0121160Y0102107D03*
X0121160Y0102146D03*
X0121160Y0102186D03*
X0121200Y0102343D03*
X0121200Y0102383D03*
X0121200Y0102422D03*
X0121239Y0102540D03*
X0124546Y0101635D03*
X0124546Y0101595D03*
X0124546Y0100454D03*
X0124546Y0100414D03*
X0126908Y0100729D03*
X0126908Y0100769D03*
X0126160Y0102225D03*
X0126160Y0102265D03*
X0128444Y0102225D03*
X0128444Y0102186D03*
X0125767Y0105690D03*
X0119822Y0106241D03*
X0122774Y0108603D03*
D155*
X0125786Y0104824D03*
X0120629Y0100454D03*
D156*
X0120668Y0100572D03*
X0120668Y0100611D03*
D157*
X0121987Y0101044D03*
X0124074Y0102068D03*
X0122656Y0103997D03*
X0128916Y0108288D03*
D158*
X0128719Y0108682D03*
X0131790Y0106280D03*
X0128365Y0101831D03*
X0128365Y0101792D03*
X0127026Y0101123D03*
X0126042Y0101792D03*
X0126042Y0101831D03*
X0119743Y0106280D03*
X0122814Y0108682D03*
D159*
X0126022Y0101753D03*
X0126022Y0101713D03*
X0127007Y0101162D03*
X0128345Y0101713D03*
X0128345Y0101753D03*
D160*
X0128286Y0101517D03*
X0128286Y0101477D03*
X0127066Y0101359D03*
X0125963Y0101517D03*
X0125963Y0101556D03*
X0131869Y0106320D03*
X0122853Y0108721D03*
D161*
X0127322Y0104076D03*
X0127282Y0104036D03*
D162*
X0127381Y0104115D03*
D163*
X0125589Y0104154D03*
D164*
X0125589Y0104194D03*
D165*
X0125609Y0104233D03*
D166*
X0125648Y0104272D03*
D167*
X0125688Y0104312D03*
D168*
X0125707Y0104351D03*
D169*
X0125747Y0104391D03*
D170*
X0125786Y0104430D03*
D171*
X0125786Y0104469D03*
D172*
X0125786Y0104509D03*
D173*
X0125786Y0104548D03*
D174*
X0125786Y0104587D03*
D175*
X0125786Y0104627D03*
D176*
X0125786Y0104666D03*
D177*
X0125767Y0104706D03*
D178*
X0125767Y0104745D03*
D179*
X0125767Y0104784D03*
D180*
X0125767Y0104863D03*
D181*
X0125767Y0104902D03*
D182*
X0125767Y0104981D03*
D183*
X0125786Y0105020D03*
D184*
X0125786Y0105099D03*
D185*
X0125767Y0105217D03*
D186*
X0128345Y0106713D03*
D187*
X0125767Y0107855D03*
D188*
X0125786Y0107894D03*
D189*
X0125767Y0107934D03*
D190*
X0125786Y0107973D03*
D191*
X0156452Y0087989D02*
X0156822Y0087989D01*
X0156452Y0087989D02*
X0156452Y0081611D01*
X0156822Y0081611D01*
X0159995Y0081611D02*
X0164105Y0081611D01*
X0167278Y0081611D02*
X0167648Y0081611D01*
X0167648Y0087989D01*
X0167278Y0087989D01*
X0164105Y0087989D02*
X0163735Y0087989D01*
X0160365Y0087989D02*
X0159995Y0087989D01*
X0175869Y0086438D02*
X0178231Y0086438D01*
X0178231Y0091162D02*
X0175869Y0091162D01*
X0174231Y0074162D02*
X0171869Y0074162D01*
X0171869Y0069438D02*
X0174231Y0069438D01*
X0174231Y0066162D02*
X0171869Y0066162D01*
X0171869Y0061438D02*
X0174231Y0061438D01*
X0173231Y0058162D02*
X0170869Y0058162D01*
X0170869Y0053438D02*
X0173231Y0053438D01*
X0220450Y0042300D02*
X0220450Y0039300D01*
X0231850Y0039300D01*
X0231850Y0042300D01*
X0220450Y0042300D01*
X0225869Y0065438D02*
X0228231Y0065438D01*
X0228231Y0070162D02*
X0225869Y0070162D01*
X0225869Y0073438D02*
X0228231Y0073438D01*
X0228231Y0078162D02*
X0225869Y0078162D01*
X0229050Y0086800D02*
X0219050Y0086800D01*
X0218990Y0086802D01*
X0218929Y0086807D01*
X0218870Y0086816D01*
X0218811Y0086829D01*
X0218752Y0086845D01*
X0218695Y0086865D01*
X0218640Y0086888D01*
X0218585Y0086915D01*
X0218533Y0086944D01*
X0218482Y0086977D01*
X0218433Y0087013D01*
X0218387Y0087051D01*
X0218343Y0087093D01*
X0218301Y0087137D01*
X0218263Y0087183D01*
X0218227Y0087232D01*
X0218194Y0087283D01*
X0218165Y0087335D01*
X0218138Y0087390D01*
X0218115Y0087445D01*
X0218095Y0087502D01*
X0218079Y0087561D01*
X0218066Y0087620D01*
X0218057Y0087679D01*
X0218052Y0087740D01*
X0218050Y0087800D01*
X0218050Y0093800D01*
X0218052Y0093860D01*
X0218057Y0093921D01*
X0218066Y0093980D01*
X0218079Y0094039D01*
X0218095Y0094098D01*
X0218115Y0094155D01*
X0218138Y0094210D01*
X0218165Y0094265D01*
X0218194Y0094317D01*
X0218227Y0094368D01*
X0218263Y0094417D01*
X0218301Y0094463D01*
X0218343Y0094507D01*
X0218387Y0094549D01*
X0218433Y0094587D01*
X0218482Y0094623D01*
X0218533Y0094656D01*
X0218585Y0094685D01*
X0218640Y0094712D01*
X0218695Y0094735D01*
X0218752Y0094755D01*
X0218811Y0094771D01*
X0218870Y0094784D01*
X0218929Y0094793D01*
X0218990Y0094798D01*
X0219050Y0094800D01*
X0229050Y0094800D01*
X0229110Y0094798D01*
X0229171Y0094793D01*
X0229230Y0094784D01*
X0229289Y0094771D01*
X0229348Y0094755D01*
X0229405Y0094735D01*
X0229460Y0094712D01*
X0229515Y0094685D01*
X0229567Y0094656D01*
X0229618Y0094623D01*
X0229667Y0094587D01*
X0229713Y0094549D01*
X0229757Y0094507D01*
X0229799Y0094463D01*
X0229837Y0094417D01*
X0229873Y0094368D01*
X0229906Y0094317D01*
X0229935Y0094265D01*
X0229962Y0094210D01*
X0229985Y0094155D01*
X0230005Y0094098D01*
X0230021Y0094039D01*
X0230034Y0093980D01*
X0230043Y0093921D01*
X0230048Y0093860D01*
X0230050Y0093800D01*
X0230050Y0087800D01*
X0230048Y0087740D01*
X0230043Y0087679D01*
X0230034Y0087620D01*
X0230021Y0087561D01*
X0230005Y0087502D01*
X0229985Y0087445D01*
X0229962Y0087390D01*
X0229935Y0087335D01*
X0229906Y0087283D01*
X0229873Y0087232D01*
X0229837Y0087183D01*
X0229799Y0087137D01*
X0229757Y0087093D01*
X0229713Y0087051D01*
X0229667Y0087013D01*
X0229618Y0086977D01*
X0229567Y0086944D01*
X0229515Y0086915D01*
X0229460Y0086888D01*
X0229405Y0086865D01*
X0229348Y0086845D01*
X0229289Y0086829D01*
X0229230Y0086816D01*
X0229171Y0086807D01*
X0229110Y0086802D01*
X0229050Y0086800D01*
D192*
X0227574Y0083601D02*
X0226573Y0083601D01*
X0226573Y0082851D01*
X0227074Y0083101D01*
X0227324Y0083101D01*
X0227574Y0082851D01*
X0227574Y0082350D01*
X0227324Y0082100D01*
X0226823Y0082100D01*
X0226573Y0082350D01*
X0226101Y0082350D02*
X0225851Y0082100D01*
X0225350Y0082100D01*
X0225100Y0082350D01*
X0225100Y0083351D01*
X0225350Y0083601D01*
X0225851Y0083601D01*
X0226101Y0083351D01*
X0224574Y0064601D02*
X0224074Y0064351D01*
X0223573Y0063851D01*
X0224324Y0063851D01*
X0224574Y0063600D01*
X0224574Y0063350D01*
X0224324Y0063100D01*
X0223823Y0063100D01*
X0223573Y0063350D01*
X0223573Y0063851D01*
X0223101Y0064351D02*
X0222851Y0064601D01*
X0222350Y0064601D01*
X0222100Y0064351D01*
X0222100Y0063350D01*
X0222350Y0063100D01*
X0222851Y0063100D01*
X0223101Y0063350D01*
X0173628Y0051501D02*
X0173628Y0051251D01*
X0172627Y0050250D01*
X0172627Y0050000D01*
X0172154Y0050250D02*
X0171904Y0050000D01*
X0171404Y0050000D01*
X0171153Y0050250D01*
X0171153Y0051251D01*
X0171404Y0051501D01*
X0171904Y0051501D01*
X0172154Y0051251D01*
X0172627Y0051501D02*
X0173628Y0051501D01*
X0165377Y0065000D02*
X0164877Y0065000D01*
X0164627Y0065250D01*
X0164154Y0065000D02*
X0163654Y0065500D01*
X0163904Y0065500D02*
X0163153Y0065500D01*
X0163153Y0065000D02*
X0163153Y0066501D01*
X0163904Y0066501D01*
X0164154Y0066251D01*
X0164154Y0065751D01*
X0163904Y0065500D01*
X0164627Y0066251D02*
X0164877Y0066501D01*
X0165377Y0066501D01*
X0165628Y0066251D01*
X0165628Y0066001D01*
X0165377Y0065751D01*
X0165628Y0065500D01*
X0165628Y0065250D01*
X0165377Y0065000D01*
X0165377Y0065751D02*
X0165127Y0065751D01*
X0169404Y0077000D02*
X0169904Y0077000D01*
X0170154Y0077250D01*
X0170627Y0077250D02*
X0170627Y0077500D01*
X0170877Y0077751D01*
X0171377Y0077751D01*
X0171628Y0077500D01*
X0171628Y0077250D01*
X0171377Y0077000D01*
X0170877Y0077000D01*
X0170627Y0077250D01*
X0170877Y0077751D02*
X0170627Y0078001D01*
X0170627Y0078251D01*
X0170877Y0078501D01*
X0171377Y0078501D01*
X0171628Y0078251D01*
X0171628Y0078001D01*
X0171377Y0077751D01*
X0170154Y0078251D02*
X0169904Y0078501D01*
X0169404Y0078501D01*
X0169153Y0078251D01*
X0169153Y0077250D01*
X0169404Y0077000D01*
X0169404Y0084000D02*
X0169904Y0084000D01*
X0170154Y0084250D01*
X0170627Y0084000D02*
X0171628Y0085001D01*
X0171628Y0085251D01*
X0171377Y0085501D01*
X0170877Y0085501D01*
X0170627Y0085251D01*
X0170154Y0085251D02*
X0169904Y0085501D01*
X0169404Y0085501D01*
X0169153Y0085251D01*
X0169153Y0084250D01*
X0169404Y0084000D01*
X0170627Y0084000D02*
X0171628Y0084000D01*
D193*
X0181365Y0030461D02*
X0220735Y0030461D01*
X0220735Y0013139D01*
X0220735Y0010776D01*
X0213648Y0010776D01*
X0213648Y0013139D01*
X0188452Y0013139D01*
X0188452Y0010776D01*
X0181365Y0010776D01*
X0181365Y0013139D01*
X0188452Y0013139D01*
X0181365Y0013139D02*
X0181365Y0030461D01*
X0213648Y0013139D02*
X0220735Y0013139D01*
X0220735Y0015894D02*
X0220735Y0027706D01*
D194*
X0239050Y0036300D02*
X0241550Y0033800D01*
X0246550Y0033800D01*
X0249050Y0036300D01*
X0249050Y0041300D01*
X0246550Y0043800D01*
X0249050Y0046300D01*
X0249050Y0051300D01*
X0246550Y0053800D01*
X0249050Y0056300D01*
X0249050Y0061300D01*
X0246550Y0063800D01*
X0249050Y0066300D01*
X0249050Y0071300D01*
X0246550Y0073800D01*
X0249050Y0076300D01*
X0249050Y0081300D01*
X0246550Y0083800D01*
X0241550Y0083800D01*
X0239050Y0081300D01*
X0239050Y0076300D01*
X0241550Y0073800D01*
X0246550Y0073800D01*
X0241550Y0073800D01*
X0239050Y0071300D01*
X0239050Y0066300D01*
X0241550Y0063800D01*
X0239050Y0061300D01*
X0239050Y0056300D01*
X0241550Y0053800D01*
X0239050Y0051300D01*
X0239050Y0046300D01*
X0241550Y0043800D01*
X0239050Y0041300D01*
X0239050Y0036300D01*
X0209286Y0048839D02*
X0188912Y0048839D01*
X0188814Y0048839D02*
X0188814Y0078761D01*
X0209286Y0078761D01*
X0209286Y0048839D01*
X0204636Y0051800D02*
X0204638Y0051875D01*
X0204644Y0051949D01*
X0204654Y0052023D01*
X0204667Y0052096D01*
X0204685Y0052169D01*
X0204706Y0052240D01*
X0204731Y0052311D01*
X0204760Y0052380D01*
X0204793Y0052447D01*
X0204829Y0052512D01*
X0204868Y0052576D01*
X0204910Y0052637D01*
X0204956Y0052696D01*
X0205005Y0052753D01*
X0205057Y0052806D01*
X0205111Y0052857D01*
X0205168Y0052906D01*
X0205228Y0052950D01*
X0205290Y0052992D01*
X0205354Y0053031D01*
X0205420Y0053066D01*
X0205487Y0053097D01*
X0205557Y0053125D01*
X0205627Y0053149D01*
X0205699Y0053170D01*
X0205772Y0053186D01*
X0205845Y0053199D01*
X0205920Y0053208D01*
X0205994Y0053213D01*
X0206069Y0053214D01*
X0206143Y0053211D01*
X0206218Y0053204D01*
X0206291Y0053193D01*
X0206365Y0053179D01*
X0206437Y0053160D01*
X0206508Y0053138D01*
X0206578Y0053112D01*
X0206647Y0053082D01*
X0206713Y0053049D01*
X0206778Y0053012D01*
X0206841Y0052972D01*
X0206902Y0052928D01*
X0206960Y0052882D01*
X0207016Y0052832D01*
X0207069Y0052780D01*
X0207120Y0052725D01*
X0207167Y0052667D01*
X0207211Y0052607D01*
X0207252Y0052544D01*
X0207290Y0052480D01*
X0207324Y0052414D01*
X0207355Y0052345D01*
X0207382Y0052276D01*
X0207405Y0052205D01*
X0207424Y0052133D01*
X0207440Y0052060D01*
X0207452Y0051986D01*
X0207460Y0051912D01*
X0207464Y0051837D01*
X0207464Y0051763D01*
X0207460Y0051688D01*
X0207452Y0051614D01*
X0207440Y0051540D01*
X0207424Y0051467D01*
X0207405Y0051395D01*
X0207382Y0051324D01*
X0207355Y0051255D01*
X0207324Y0051186D01*
X0207290Y0051120D01*
X0207252Y0051056D01*
X0207211Y0050993D01*
X0207167Y0050933D01*
X0207120Y0050875D01*
X0207069Y0050820D01*
X0207016Y0050768D01*
X0206960Y0050718D01*
X0206902Y0050672D01*
X0206841Y0050628D01*
X0206778Y0050588D01*
X0206713Y0050551D01*
X0206647Y0050518D01*
X0206578Y0050488D01*
X0206508Y0050462D01*
X0206437Y0050440D01*
X0206365Y0050421D01*
X0206291Y0050407D01*
X0206218Y0050396D01*
X0206143Y0050389D01*
X0206069Y0050386D01*
X0205994Y0050387D01*
X0205920Y0050392D01*
X0205845Y0050401D01*
X0205772Y0050414D01*
X0205699Y0050430D01*
X0205627Y0050451D01*
X0205557Y0050475D01*
X0205487Y0050503D01*
X0205420Y0050534D01*
X0205354Y0050569D01*
X0205290Y0050608D01*
X0205228Y0050650D01*
X0205168Y0050694D01*
X0205111Y0050743D01*
X0205057Y0050794D01*
X0205005Y0050847D01*
X0204956Y0050904D01*
X0204910Y0050963D01*
X0204868Y0051024D01*
X0204829Y0051088D01*
X0204793Y0051153D01*
X0204760Y0051220D01*
X0204731Y0051289D01*
X0204706Y0051360D01*
X0204685Y0051431D01*
X0204667Y0051504D01*
X0204654Y0051577D01*
X0204644Y0051651D01*
X0204638Y0051725D01*
X0204636Y0051800D01*
D195*
X0144200Y0006800D03*
D196*
X0144200Y0006950D03*
X0144200Y0007100D03*
X0144200Y0007250D03*
X0144200Y0007400D03*
X0144200Y0007550D03*
X0144200Y0007700D03*
X0144200Y0007850D03*
D197*
X0135950Y0008000D03*
D198*
X0166325Y0008000D03*
X0166325Y0011450D03*
D199*
X0128300Y0008300D03*
X0128300Y0008150D03*
D200*
X0119675Y0012800D03*
X0119525Y0012950D03*
X0119375Y0013100D03*
X0122375Y0015800D03*
X0126875Y0015800D03*
X0129725Y0013100D03*
X0145775Y0008150D03*
X0148775Y0015950D03*
X0160175Y0017300D03*
X0157475Y0024800D03*
X0148625Y0024800D03*
X0129575Y0023000D03*
X0129425Y0023150D03*
X0119525Y0023150D03*
D201*
X0152450Y0008150D03*
D202*
X0159200Y0008150D03*
X0161150Y0009350D03*
X0161150Y0009500D03*
X0159650Y0009500D03*
X0147200Y0010700D03*
X0145700Y0010550D03*
X0145550Y0010700D03*
X0145550Y0010850D03*
X0128150Y0017000D03*
X0123650Y0017000D03*
X0145850Y0022550D03*
X0158300Y0020300D03*
D203*
X0158300Y0020750D03*
X0158600Y0021950D03*
X0161900Y0021950D03*
X0162050Y0021800D03*
X0162200Y0021500D03*
X0162200Y0019100D03*
X0162050Y0018800D03*
X0161900Y0018650D03*
X0163850Y0016550D03*
X0163700Y0016400D03*
X0158600Y0018650D03*
X0156650Y0016400D03*
X0149600Y0016550D03*
X0149450Y0016400D03*
X0142550Y0016250D03*
X0142400Y0016400D03*
X0142250Y0016550D03*
X0145850Y0023150D03*
X0145850Y0023300D03*
X0142400Y0024350D03*
X0149300Y0024350D03*
X0149450Y0024200D03*
X0156650Y0024200D03*
X0156800Y0024350D03*
X0163700Y0024350D03*
X0163850Y0024200D03*
X0159500Y0009950D03*
X0161150Y0008300D03*
X0161150Y0008150D03*
X0146000Y0008450D03*
X0145700Y0009800D03*
X0131150Y0015200D03*
X0131150Y0015350D03*
X0131000Y0015050D03*
X0131000Y0014900D03*
X0130850Y0014750D03*
X0130850Y0014600D03*
X0130700Y0014450D03*
X0130550Y0014150D03*
X0131300Y0015650D03*
X0125750Y0016700D03*
X0125600Y0016850D03*
X0123500Y0019400D03*
X0121100Y0019250D03*
X0117950Y0020900D03*
X0117950Y0021050D03*
X0118100Y0021200D03*
X0118250Y0021500D03*
X0117800Y0020600D03*
X0117650Y0020150D03*
X0121100Y0016850D03*
X0117800Y0015500D03*
X0117950Y0015200D03*
X0117950Y0015050D03*
X0118100Y0014900D03*
X0118100Y0014750D03*
X0118250Y0014600D03*
X0118400Y0014300D03*
X0117650Y0015950D03*
X0128000Y0019400D03*
X0131300Y0020300D03*
X0131450Y0019850D03*
X0131150Y0020750D03*
X0131000Y0021050D03*
X0131000Y0021200D03*
X0130850Y0021350D03*
X0130700Y0021650D03*
D204*
X0136775Y0011150D03*
X0168575Y0008450D03*
X0168575Y0008300D03*
X0168575Y0008150D03*
D205*
X0159875Y0011150D03*
X0156875Y0016250D03*
X0158675Y0018500D03*
X0161825Y0018500D03*
X0163475Y0016250D03*
X0163325Y0016100D03*
X0158825Y0022100D03*
X0157025Y0024500D03*
X0163475Y0024500D03*
X0149075Y0024500D03*
X0148925Y0024650D03*
X0142625Y0024500D03*
X0145925Y0019250D03*
X0145925Y0019100D03*
X0145925Y0018950D03*
X0145925Y0018800D03*
X0145925Y0018650D03*
X0145925Y0018500D03*
X0145925Y0018350D03*
X0145925Y0018200D03*
X0145925Y0018050D03*
X0145925Y0017900D03*
X0145925Y0017750D03*
X0145925Y0017600D03*
X0145925Y0017450D03*
X0145925Y0017300D03*
X0145925Y0017150D03*
X0145925Y0017000D03*
X0145925Y0016850D03*
X0145925Y0016700D03*
X0142775Y0016100D03*
X0149225Y0016250D03*
X0145925Y0008300D03*
X0130625Y0014300D03*
X0130475Y0014000D03*
X0130325Y0013850D03*
X0121175Y0016700D03*
X0118325Y0014450D03*
X0118475Y0014150D03*
X0118625Y0014000D03*
X0122375Y0020300D03*
X0118775Y0022250D03*
X0118625Y0022100D03*
X0118475Y0021950D03*
X0118475Y0021800D03*
X0118325Y0021650D03*
X0118175Y0021350D03*
X0124475Y0025850D03*
X0130175Y0022400D03*
X0130325Y0022250D03*
X0130325Y0022100D03*
X0130475Y0021950D03*
X0130625Y0021800D03*
X0130775Y0021500D03*
X0126875Y0020300D03*
D206*
X0152300Y0008300D03*
D207*
X0147200Y0010400D03*
X0158000Y0010850D03*
X0161150Y0009950D03*
X0161150Y0009800D03*
X0159650Y0009050D03*
X0159650Y0008900D03*
X0159650Y0008750D03*
X0159500Y0008450D03*
X0159350Y0008300D03*
X0158300Y0020150D03*
X0145850Y0024050D03*
X0128000Y0018950D03*
X0123500Y0018950D03*
D208*
X0119150Y0008450D03*
D209*
X0133700Y0008450D03*
D210*
X0152225Y0008450D03*
X0152225Y0008600D03*
X0152375Y0009800D03*
D211*
X0147125Y0011300D03*
X0145625Y0009950D03*
X0146075Y0009350D03*
X0146075Y0008750D03*
X0146075Y0008600D03*
X0159875Y0011000D03*
X0161225Y0008450D03*
X0164075Y0016700D03*
X0164225Y0016850D03*
X0164375Y0017000D03*
X0162125Y0018950D03*
X0162275Y0019250D03*
X0162275Y0019400D03*
X0162275Y0019550D03*
X0162425Y0019700D03*
X0162425Y0019850D03*
X0162425Y0020000D03*
X0162425Y0020150D03*
X0162425Y0020300D03*
X0162425Y0020450D03*
X0162425Y0020600D03*
X0162425Y0020750D03*
X0162425Y0020900D03*
X0162275Y0021200D03*
X0162275Y0021350D03*
X0162125Y0021650D03*
X0160175Y0023300D03*
X0158525Y0021800D03*
X0158375Y0021500D03*
X0158375Y0021350D03*
X0158375Y0021200D03*
X0158375Y0019250D03*
X0158375Y0019100D03*
X0158375Y0018950D03*
X0158525Y0018800D03*
X0156425Y0016700D03*
X0156275Y0016850D03*
X0156125Y0017000D03*
X0155975Y0017150D03*
X0156575Y0016550D03*
X0150125Y0017150D03*
X0149825Y0016850D03*
X0149675Y0016700D03*
X0142025Y0016700D03*
X0131675Y0017600D03*
X0131675Y0017750D03*
X0131675Y0017900D03*
X0131675Y0018050D03*
X0131675Y0018200D03*
X0131675Y0018350D03*
X0131675Y0018500D03*
X0131525Y0019250D03*
X0131525Y0019400D03*
X0131525Y0019550D03*
X0131525Y0019700D03*
X0131375Y0020000D03*
X0131375Y0020150D03*
X0131225Y0020450D03*
X0131225Y0020600D03*
X0131075Y0020900D03*
X0125675Y0019250D03*
X0125525Y0019100D03*
X0125375Y0018800D03*
X0125375Y0017300D03*
X0125375Y0017150D03*
X0125525Y0017000D03*
X0123575Y0016700D03*
X0120875Y0017000D03*
X0120875Y0017150D03*
X0120875Y0017300D03*
X0120725Y0017750D03*
X0120725Y0017900D03*
X0120725Y0018050D03*
X0120725Y0018200D03*
X0120725Y0018350D03*
X0120875Y0018800D03*
X0120875Y0018950D03*
X0121025Y0019100D03*
X0117575Y0019700D03*
X0117575Y0019850D03*
X0117575Y0020000D03*
X0117725Y0020300D03*
X0117725Y0020450D03*
X0117875Y0020750D03*
X0117425Y0019550D03*
X0117425Y0019400D03*
X0117425Y0019250D03*
X0117425Y0019100D03*
X0117425Y0018950D03*
X0117425Y0018800D03*
X0117425Y0018650D03*
X0117275Y0018050D03*
X0117425Y0017450D03*
X0117425Y0017300D03*
X0117425Y0017150D03*
X0117425Y0017000D03*
X0117425Y0016850D03*
X0117425Y0016700D03*
X0117425Y0016550D03*
X0117575Y0016400D03*
X0117575Y0016250D03*
X0117575Y0016100D03*
X0117725Y0015800D03*
X0117725Y0015650D03*
X0117875Y0015350D03*
X0128225Y0016700D03*
X0131375Y0016100D03*
X0131375Y0015950D03*
X0131375Y0015800D03*
X0131225Y0015500D03*
X0131525Y0016250D03*
X0131525Y0016400D03*
X0131525Y0016550D03*
X0131525Y0016700D03*
X0145925Y0023000D03*
X0145925Y0023450D03*
X0145925Y0023600D03*
X0142325Y0024200D03*
X0142175Y0024050D03*
X0142025Y0023900D03*
X0141875Y0023750D03*
X0141725Y0023600D03*
X0149675Y0024050D03*
X0149825Y0023900D03*
X0149975Y0023750D03*
X0156125Y0023750D03*
X0156275Y0023900D03*
X0156425Y0024050D03*
X0163925Y0024050D03*
X0164075Y0023900D03*
X0164225Y0023750D03*
X0164375Y0023600D03*
D212*
X0118400Y0008600D03*
D213*
X0134375Y0008600D03*
D214*
X0145325Y0011150D03*
X0145475Y0011000D03*
X0147125Y0010550D03*
X0158075Y0008600D03*
X0159725Y0009200D03*
X0159725Y0009350D03*
X0161225Y0009650D03*
X0174125Y0013100D03*
X0174125Y0013250D03*
X0174125Y0013400D03*
X0174125Y0013550D03*
X0174125Y0013700D03*
X0174125Y0013850D03*
X0174125Y0014000D03*
X0174125Y0014150D03*
X0174125Y0014300D03*
X0174125Y0014450D03*
X0174125Y0014600D03*
X0174125Y0014750D03*
X0174125Y0014900D03*
X0174125Y0015050D03*
X0174125Y0015200D03*
X0174125Y0015350D03*
X0174125Y0015500D03*
X0174125Y0015650D03*
X0174125Y0015800D03*
X0174125Y0015950D03*
X0174125Y0016100D03*
X0174125Y0016250D03*
X0174125Y0016400D03*
X0174125Y0016550D03*
X0174125Y0016700D03*
X0174125Y0016850D03*
X0174125Y0017000D03*
X0174125Y0017150D03*
X0174125Y0017300D03*
X0174125Y0017450D03*
X0174125Y0017600D03*
X0174125Y0017750D03*
X0174125Y0017900D03*
X0174125Y0018050D03*
X0174125Y0018200D03*
X0174125Y0018350D03*
X0174125Y0018500D03*
X0174125Y0018650D03*
X0174125Y0018800D03*
X0174125Y0018950D03*
X0174125Y0019100D03*
X0174125Y0019250D03*
X0174125Y0019400D03*
X0174125Y0019550D03*
X0174125Y0019700D03*
X0174125Y0019850D03*
X0174125Y0020000D03*
X0174125Y0020150D03*
X0174125Y0020300D03*
X0174125Y0020450D03*
X0174125Y0020600D03*
X0174125Y0020750D03*
X0174125Y0020900D03*
X0174125Y0021050D03*
X0174125Y0021200D03*
X0174125Y0021350D03*
X0174125Y0021500D03*
X0174125Y0021650D03*
X0174125Y0021800D03*
X0174125Y0021950D03*
X0174125Y0022100D03*
X0174125Y0022250D03*
X0174125Y0022400D03*
X0174125Y0022550D03*
X0174125Y0022700D03*
X0174125Y0022850D03*
X0174125Y0023000D03*
X0174125Y0023150D03*
X0174125Y0023300D03*
X0174125Y0023450D03*
X0174125Y0023600D03*
X0174125Y0023750D03*
X0174125Y0023900D03*
X0174125Y0024050D03*
X0174125Y0024200D03*
X0174125Y0024350D03*
X0174125Y0024500D03*
X0174125Y0024650D03*
X0174125Y0024800D03*
X0174125Y0024950D03*
X0174125Y0025100D03*
X0174125Y0025250D03*
X0174125Y0025400D03*
X0174125Y0025550D03*
X0174125Y0025700D03*
X0174125Y0025850D03*
X0174125Y0026000D03*
X0174125Y0026150D03*
X0174125Y0026300D03*
X0174125Y0026450D03*
X0174125Y0026600D03*
X0174125Y0026750D03*
X0174125Y0026900D03*
X0174125Y0027050D03*
X0173975Y0027200D03*
X0114425Y0027200D03*
D215*
X0122375Y0020450D03*
X0126875Y0020450D03*
X0128075Y0017150D03*
X0123575Y0017150D03*
X0147125Y0010250D03*
X0159575Y0008600D03*
X0161225Y0010100D03*
X0160175Y0017150D03*
D216*
X0164450Y0017150D03*
X0164600Y0017300D03*
X0164750Y0017600D03*
X0158300Y0019400D03*
X0158300Y0020600D03*
X0158450Y0021650D03*
X0155750Y0023150D03*
X0155600Y0023000D03*
X0155450Y0022700D03*
X0155900Y0023450D03*
X0156050Y0023600D03*
X0150650Y0022700D03*
X0150500Y0023000D03*
X0150350Y0023150D03*
X0150350Y0023300D03*
X0150200Y0023450D03*
X0150050Y0023600D03*
X0145850Y0023750D03*
X0145850Y0022850D03*
X0141650Y0023450D03*
X0141500Y0023300D03*
X0141200Y0022850D03*
X0141050Y0022550D03*
X0131600Y0019100D03*
X0131600Y0018950D03*
X0131600Y0018800D03*
X0131600Y0018650D03*
X0131600Y0017450D03*
X0131600Y0017300D03*
X0131600Y0017150D03*
X0131600Y0017000D03*
X0131600Y0016850D03*
X0128150Y0019250D03*
X0125450Y0018950D03*
X0125300Y0018650D03*
X0125300Y0018500D03*
X0125300Y0018350D03*
X0125300Y0018200D03*
X0125300Y0018050D03*
X0125300Y0017900D03*
X0125300Y0017750D03*
X0125300Y0017600D03*
X0125300Y0017450D03*
X0123650Y0019250D03*
X0120800Y0018650D03*
X0120800Y0018500D03*
X0120800Y0017600D03*
X0120800Y0017450D03*
X0117350Y0017600D03*
X0117350Y0017750D03*
X0117350Y0017900D03*
X0117350Y0018200D03*
X0117350Y0018350D03*
X0117350Y0018500D03*
X0141350Y0017600D03*
X0141500Y0017450D03*
X0141500Y0017300D03*
X0141650Y0017150D03*
X0141800Y0017000D03*
X0141950Y0016850D03*
X0150050Y0017000D03*
X0150200Y0017300D03*
X0150350Y0017450D03*
X0150650Y0017900D03*
X0155750Y0017450D03*
X0155900Y0017300D03*
X0162350Y0021050D03*
X0165050Y0022550D03*
X0164900Y0022850D03*
X0164750Y0023150D03*
X0164600Y0023300D03*
X0164450Y0023450D03*
X0159950Y0010850D03*
X0159950Y0010700D03*
X0161150Y0008600D03*
X0158000Y0009050D03*
X0146150Y0009050D03*
X0146150Y0008900D03*
X0146150Y0009200D03*
X0146000Y0009500D03*
X0145850Y0009650D03*
X0144050Y0009200D03*
X0144050Y0009050D03*
X0144050Y0008900D03*
D217*
X0136700Y0011000D03*
X0168500Y0008750D03*
X0168500Y0008600D03*
D218*
X0118025Y0008750D03*
D219*
X0134750Y0008750D03*
D220*
X0143975Y0008750D03*
X0143975Y0009350D03*
X0143975Y0010250D03*
X0143975Y0010400D03*
X0143975Y0010550D03*
X0145775Y0010100D03*
X0147125Y0011150D03*
X0158075Y0010550D03*
X0158075Y0010400D03*
X0158075Y0008900D03*
X0158075Y0008750D03*
X0159575Y0009800D03*
X0159875Y0010400D03*
X0159875Y0010550D03*
X0161225Y0008750D03*
X0164675Y0017450D03*
X0164825Y0017750D03*
X0164975Y0017900D03*
X0164975Y0018050D03*
X0165125Y0018200D03*
X0165125Y0018350D03*
X0165275Y0018650D03*
X0165275Y0018800D03*
X0165425Y0019100D03*
X0165425Y0019250D03*
X0165425Y0021350D03*
X0165425Y0021500D03*
X0165275Y0021800D03*
X0165275Y0021950D03*
X0165125Y0022250D03*
X0165125Y0022400D03*
X0164975Y0022700D03*
X0164825Y0023000D03*
X0160175Y0026150D03*
X0155825Y0023300D03*
X0155525Y0022850D03*
X0155375Y0022550D03*
X0155375Y0022400D03*
X0155225Y0022250D03*
X0155225Y0022100D03*
X0155075Y0021800D03*
X0155075Y0021650D03*
X0154925Y0021050D03*
X0154925Y0020900D03*
X0154925Y0019850D03*
X0154925Y0019700D03*
X0154925Y0019550D03*
X0155075Y0018950D03*
X0155075Y0018800D03*
X0155225Y0018500D03*
X0155225Y0018350D03*
X0155375Y0018200D03*
X0155375Y0018050D03*
X0155525Y0017900D03*
X0155525Y0017750D03*
X0155675Y0017600D03*
X0151025Y0018800D03*
X0151025Y0018950D03*
X0150875Y0018500D03*
X0150875Y0018350D03*
X0150725Y0018200D03*
X0150725Y0018050D03*
X0150575Y0017750D03*
X0150425Y0017600D03*
X0151175Y0019700D03*
X0151175Y0019850D03*
X0151175Y0020000D03*
X0151175Y0020600D03*
X0151175Y0020750D03*
X0151175Y0020900D03*
X0151025Y0021650D03*
X0151025Y0021800D03*
X0150875Y0022100D03*
X0150875Y0022250D03*
X0150725Y0022550D03*
X0150575Y0022850D03*
X0145925Y0026150D03*
X0141425Y0023150D03*
X0141275Y0023000D03*
X0141125Y0022700D03*
X0140975Y0022400D03*
X0140975Y0022250D03*
X0140825Y0022100D03*
X0140825Y0021950D03*
X0140825Y0021800D03*
X0140675Y0021500D03*
X0140675Y0021350D03*
X0140675Y0019250D03*
X0140675Y0019100D03*
X0140825Y0018800D03*
X0140825Y0018650D03*
X0140975Y0018350D03*
X0140975Y0018200D03*
X0141125Y0018050D03*
X0141125Y0017900D03*
X0141275Y0017750D03*
X0128225Y0016850D03*
X0126875Y0015650D03*
X0123725Y0016850D03*
X0122375Y0015650D03*
D221*
X0124550Y0024500D03*
X0152450Y0009950D03*
X0152150Y0009050D03*
X0152150Y0008900D03*
X0152150Y0008750D03*
D222*
X0117800Y0008900D03*
D223*
X0134975Y0008900D03*
D224*
X0136625Y0010850D03*
X0168425Y0009200D03*
X0168425Y0009050D03*
X0168425Y0008900D03*
D225*
X0117650Y0009050D03*
D226*
X0135200Y0009050D03*
D227*
X0117425Y0009200D03*
D228*
X0135350Y0009200D03*
D229*
X0153125Y0009200D03*
D230*
X0117275Y0009350D03*
D231*
X0135500Y0009350D03*
D232*
X0152975Y0009350D03*
D233*
X0168350Y0009350D03*
X0168350Y0009500D03*
X0168350Y0009650D03*
X0136550Y0010700D03*
D234*
X0117125Y0009500D03*
D235*
X0135650Y0009500D03*
D236*
X0143825Y0009500D03*
X0143825Y0010100D03*
X0145175Y0011300D03*
X0145625Y0010400D03*
X0147125Y0010850D03*
X0159725Y0009650D03*
X0128075Y0019100D03*
X0123575Y0019100D03*
D237*
X0152675Y0009500D03*
D238*
X0116975Y0009650D03*
D239*
X0135800Y0009650D03*
D240*
X0152525Y0009650D03*
D241*
X0116900Y0009800D03*
D242*
X0135950Y0009800D03*
D243*
X0168275Y0009800D03*
X0168275Y0009950D03*
D244*
X0116750Y0009950D03*
D245*
X0136025Y0009950D03*
D246*
X0116675Y0010100D03*
D247*
X0136175Y0010100D03*
X0167975Y0011300D03*
D248*
X0152450Y0010250D03*
X0152450Y0010100D03*
X0124550Y0011450D03*
D249*
X0120050Y0012500D03*
X0119900Y0012650D03*
X0129200Y0012650D03*
X0129350Y0012800D03*
X0129500Y0012950D03*
X0143300Y0015800D03*
X0148400Y0015800D03*
X0157700Y0015800D03*
X0162800Y0015800D03*
X0158300Y0021050D03*
X0159200Y0010100D03*
X0129350Y0023300D03*
X0129200Y0023450D03*
X0119900Y0023450D03*
X0119750Y0023300D03*
D250*
X0136400Y0010550D03*
X0168200Y0010400D03*
X0168200Y0010250D03*
X0168200Y0010100D03*
D251*
X0116525Y0010250D03*
D252*
X0121025Y0011900D03*
X0124475Y0010250D03*
X0127925Y0011900D03*
X0126875Y0016100D03*
X0122375Y0016100D03*
X0122375Y0020000D03*
X0121175Y0024200D03*
X0145925Y0026000D03*
X0145925Y0021950D03*
X0145925Y0019400D03*
X0160175Y0023000D03*
X0160175Y0026000D03*
D253*
X0168050Y0011150D03*
X0168050Y0011000D03*
X0136250Y0010250D03*
D254*
X0143900Y0010700D03*
X0145700Y0010250D03*
X0147200Y0011000D03*
X0158000Y0010700D03*
X0155150Y0018650D03*
X0155000Y0019100D03*
X0155000Y0019250D03*
X0155000Y0019400D03*
X0154850Y0020000D03*
X0154850Y0020150D03*
X0154850Y0020300D03*
X0154850Y0020450D03*
X0154850Y0020600D03*
X0154850Y0020750D03*
X0155000Y0021200D03*
X0155000Y0021350D03*
X0155000Y0021500D03*
X0155150Y0021950D03*
X0158300Y0020450D03*
X0151250Y0020450D03*
X0151250Y0020300D03*
X0151250Y0020150D03*
X0151100Y0019550D03*
X0151100Y0019400D03*
X0151100Y0019250D03*
X0151100Y0019100D03*
X0150950Y0018650D03*
X0151100Y0021050D03*
X0151100Y0021200D03*
X0151100Y0021350D03*
X0151100Y0021500D03*
X0150950Y0021950D03*
X0150800Y0022400D03*
X0145850Y0022700D03*
X0145850Y0023900D03*
X0140750Y0021650D03*
X0140600Y0021200D03*
X0140600Y0021050D03*
X0140600Y0020900D03*
X0140600Y0020750D03*
X0140600Y0020600D03*
X0140600Y0020450D03*
X0140600Y0020300D03*
X0140600Y0020150D03*
X0140600Y0020000D03*
X0140600Y0019850D03*
X0140600Y0019700D03*
X0140600Y0019550D03*
X0140600Y0019400D03*
X0140750Y0018950D03*
X0140900Y0018500D03*
X0165200Y0018500D03*
X0165350Y0018950D03*
X0165500Y0019400D03*
X0165500Y0019550D03*
X0165500Y0019700D03*
X0165500Y0019850D03*
X0165500Y0020000D03*
X0165500Y0020150D03*
X0165500Y0020300D03*
X0165500Y0020450D03*
X0165500Y0020600D03*
X0165500Y0020750D03*
X0165500Y0020900D03*
X0165500Y0021050D03*
X0165500Y0021200D03*
X0165350Y0021650D03*
X0165200Y0022100D03*
D255*
X0160175Y0017450D03*
X0158975Y0010250D03*
X0145925Y0022100D03*
X0128525Y0023900D03*
X0128225Y0024050D03*
X0126875Y0015950D03*
X0122375Y0015950D03*
X0120725Y0012050D03*
X0128225Y0012050D03*
X0128525Y0012200D03*
D256*
X0161150Y0010400D03*
X0161150Y0010250D03*
D257*
X0116450Y0010400D03*
D258*
X0122150Y0011600D03*
X0124550Y0010400D03*
X0126950Y0011600D03*
X0160250Y0018200D03*
X0160250Y0022400D03*
D259*
X0168125Y0010850D03*
X0168125Y0010700D03*
X0168125Y0010550D03*
X0136325Y0010400D03*
D260*
X0152450Y0010400D03*
X0152450Y0010550D03*
X0152600Y0010700D03*
X0152750Y0011000D03*
X0152900Y0011150D03*
X0153050Y0011300D03*
D261*
X0116375Y0010550D03*
D262*
X0124550Y0010550D03*
D263*
X0116300Y0010700D03*
D264*
X0124475Y0010700D03*
X0145925Y0025400D03*
X0160175Y0025400D03*
D265*
X0116225Y0010850D03*
D266*
X0124550Y0010850D03*
D267*
X0152675Y0010850D03*
D268*
X0116075Y0011000D03*
D269*
X0124550Y0011000D03*
D270*
X0116000Y0011150D03*
X0116000Y0011300D03*
D271*
X0124475Y0011150D03*
X0124475Y0024950D03*
D272*
X0124550Y0024800D03*
X0124550Y0011300D03*
D273*
X0136850Y0011300D03*
D274*
X0130250Y0013700D03*
X0130100Y0013550D03*
X0129950Y0013400D03*
X0129800Y0013250D03*
X0119300Y0013250D03*
X0119150Y0013400D03*
X0119000Y0013550D03*
X0118850Y0013700D03*
X0118700Y0013850D03*
X0121400Y0019400D03*
X0125900Y0019400D03*
X0129800Y0022850D03*
X0129950Y0022700D03*
X0130100Y0022550D03*
X0119450Y0023000D03*
X0119300Y0022850D03*
X0119150Y0022700D03*
X0119000Y0022550D03*
X0118850Y0022400D03*
X0142850Y0024650D03*
X0143150Y0024800D03*
X0157250Y0024650D03*
X0161750Y0022100D03*
X0158300Y0020900D03*
X0163250Y0024650D03*
X0162950Y0024800D03*
X0163100Y0015950D03*
X0157400Y0015950D03*
X0157100Y0016100D03*
X0149000Y0016100D03*
X0143000Y0015950D03*
X0159800Y0011300D03*
D275*
X0115925Y0011450D03*
D276*
X0144575Y0011450D03*
D277*
X0115850Y0011600D03*
D278*
X0152825Y0011600D03*
D279*
X0115775Y0011750D03*
D280*
X0121475Y0011750D03*
X0127625Y0011750D03*
X0126875Y0016250D03*
X0126875Y0019850D03*
X0122375Y0019850D03*
X0121475Y0024350D03*
X0147725Y0025100D03*
X0158375Y0025100D03*
D281*
X0152900Y0011750D03*
D282*
X0115700Y0011900D03*
D283*
X0152975Y0011900D03*
D284*
X0115625Y0012050D03*
X0115625Y0012200D03*
D285*
X0153050Y0012050D03*
D286*
X0148100Y0015650D03*
X0145850Y0014600D03*
X0158000Y0015650D03*
X0160250Y0014600D03*
X0162500Y0015650D03*
X0160250Y0023150D03*
X0128750Y0023750D03*
X0126950Y0020150D03*
X0120500Y0023900D03*
X0120350Y0023750D03*
X0120500Y0012200D03*
X0128750Y0012350D03*
D287*
X0153125Y0012350D03*
X0153125Y0012200D03*
D288*
X0115550Y0012350D03*
D289*
X0120275Y0012350D03*
X0128975Y0012500D03*
X0143675Y0015650D03*
X0128975Y0023600D03*
X0122375Y0020150D03*
X0120125Y0023600D03*
X0143525Y0024950D03*
X0148325Y0024950D03*
X0157775Y0024950D03*
X0162575Y0024950D03*
D290*
X0115475Y0012650D03*
X0115475Y0012500D03*
D291*
X0153200Y0012500D03*
X0153200Y0012650D03*
D292*
X0115400Y0012800D03*
D293*
X0153275Y0012800D03*
D294*
X0115325Y0012950D03*
D295*
X0153350Y0012950D03*
D296*
X0114275Y0013100D03*
X0114275Y0013250D03*
X0114275Y0013400D03*
X0114275Y0013550D03*
X0114275Y0013700D03*
X0114275Y0013850D03*
X0114275Y0014000D03*
X0114275Y0014150D03*
X0114275Y0014300D03*
X0114275Y0014450D03*
X0114275Y0014600D03*
X0114275Y0014750D03*
X0114275Y0014900D03*
X0114275Y0015050D03*
X0114275Y0015200D03*
X0114275Y0015350D03*
X0114275Y0015500D03*
X0114275Y0015650D03*
X0114275Y0015800D03*
X0114275Y0015950D03*
X0114275Y0016100D03*
X0114275Y0016250D03*
X0114275Y0016400D03*
X0114275Y0016550D03*
X0114275Y0016700D03*
X0114275Y0016850D03*
X0114275Y0017000D03*
X0114275Y0017150D03*
X0114275Y0017300D03*
X0114275Y0017450D03*
X0114275Y0017600D03*
X0114275Y0017750D03*
X0114275Y0017900D03*
X0114275Y0018050D03*
X0114275Y0018200D03*
X0114275Y0018350D03*
X0114275Y0018500D03*
X0114275Y0018650D03*
X0114275Y0018800D03*
X0114275Y0018950D03*
X0114275Y0019100D03*
X0114275Y0019250D03*
X0114275Y0019400D03*
X0114275Y0019550D03*
X0114275Y0019700D03*
X0114275Y0019850D03*
X0114275Y0020000D03*
X0114275Y0020150D03*
X0114275Y0020300D03*
X0114275Y0020450D03*
X0114275Y0020600D03*
X0114275Y0020750D03*
X0114275Y0020900D03*
X0114275Y0021050D03*
X0114275Y0021200D03*
X0114275Y0021350D03*
X0114275Y0021500D03*
X0114275Y0021650D03*
X0114275Y0021800D03*
X0114275Y0021950D03*
X0114275Y0022100D03*
X0114275Y0022250D03*
X0114275Y0022400D03*
X0114275Y0022550D03*
X0114275Y0022700D03*
X0114275Y0022850D03*
X0114275Y0023000D03*
X0114275Y0023150D03*
X0114275Y0023300D03*
X0114275Y0023450D03*
X0114275Y0023600D03*
X0114275Y0023750D03*
X0114275Y0023900D03*
X0114275Y0024050D03*
X0114275Y0024200D03*
X0114275Y0024350D03*
X0114275Y0024500D03*
X0114275Y0024650D03*
X0114275Y0024800D03*
X0114275Y0024950D03*
X0114275Y0025100D03*
X0114275Y0025250D03*
X0114275Y0025400D03*
X0114275Y0025550D03*
X0114275Y0025700D03*
X0114275Y0025850D03*
X0114275Y0026000D03*
X0114275Y0026150D03*
X0114275Y0026300D03*
X0114275Y0026450D03*
X0114275Y0026600D03*
X0114275Y0026750D03*
X0114275Y0026900D03*
X0114275Y0027050D03*
D297*
X0122375Y0019700D03*
X0126875Y0019700D03*
X0126875Y0016400D03*
X0122375Y0016400D03*
X0145925Y0014750D03*
X0160175Y0014750D03*
X0160175Y0017750D03*
D298*
X0160175Y0014900D03*
X0145925Y0014900D03*
D299*
X0145925Y0015050D03*
X0160175Y0015050D03*
D300*
X0145925Y0015200D03*
D301*
X0160250Y0015200D03*
D302*
X0160250Y0015350D03*
X0145850Y0015350D03*
D303*
X0145925Y0015500D03*
X0160175Y0015500D03*
X0124475Y0025250D03*
D304*
X0127550Y0024350D03*
X0122300Y0016250D03*
X0160250Y0022850D03*
D305*
X0160175Y0017900D03*
X0126875Y0016550D03*
X0122375Y0016550D03*
X0124475Y0025700D03*
D306*
X0127850Y0024200D03*
X0144050Y0025100D03*
X0145850Y0021800D03*
X0145850Y0021650D03*
X0145850Y0021500D03*
X0145850Y0021350D03*
X0145850Y0021200D03*
X0145850Y0021050D03*
X0145850Y0020900D03*
X0145850Y0020750D03*
X0145850Y0020600D03*
X0145850Y0020450D03*
X0145850Y0020300D03*
X0145850Y0020150D03*
X0145850Y0020000D03*
X0145850Y0019850D03*
X0145850Y0019700D03*
X0145850Y0019550D03*
X0160250Y0017600D03*
X0162050Y0025100D03*
D307*
X0160175Y0018050D03*
D308*
X0160250Y0018350D03*
X0160250Y0022250D03*
D309*
X0160250Y0022700D03*
X0126950Y0019550D03*
X0122300Y0019550D03*
D310*
X0126950Y0020000D03*
X0120800Y0024050D03*
D311*
X0145850Y0025850D03*
X0160250Y0025850D03*
X0160250Y0022550D03*
D312*
X0124475Y0024650D03*
D313*
X0124475Y0025100D03*
D314*
X0145850Y0025250D03*
X0160250Y0025250D03*
D315*
X0124550Y0025400D03*
D316*
X0124550Y0025550D03*
D317*
X0145925Y0025550D03*
X0160175Y0025550D03*
D318*
X0160175Y0025700D03*
X0145925Y0025700D03*
D319*
X0144200Y0027350D03*
D320*
X0144200Y0027500D03*
D321*
X0144200Y0027650D03*
D322*
X0144200Y0027800D03*
M02*
