G75*
%MOIN*%
%OFA0B0*%
%FSLAX25Y25*%
%IPPOS*%
%LPD*%
%AMOC8*
5,1,8,0,0,1.08239X$1,22.5*
%
%ADD10C,0.00000*%
%ADD11C,0.00974*%
%ADD12C,0.01744*%
%ADD13R,0.06000X0.01650*%
%ADD14C,0.00742*%
%ADD15R,0.06700X0.07900*%
%ADD16C,0.01395*%
D10*
X0089050Y0003800D02*
X0089050Y0113800D01*
X0254050Y0113800D01*
X0254050Y0003800D01*
X0089050Y0003800D01*
X0094550Y0015800D02*
X0094552Y0015961D01*
X0094558Y0016121D01*
X0094568Y0016282D01*
X0094582Y0016442D01*
X0094600Y0016602D01*
X0094621Y0016761D01*
X0094647Y0016920D01*
X0094677Y0017078D01*
X0094710Y0017235D01*
X0094748Y0017392D01*
X0094789Y0017547D01*
X0094834Y0017701D01*
X0094883Y0017854D01*
X0094936Y0018006D01*
X0094992Y0018157D01*
X0095053Y0018306D01*
X0095116Y0018454D01*
X0095184Y0018600D01*
X0095255Y0018744D01*
X0095329Y0018886D01*
X0095407Y0019027D01*
X0095489Y0019165D01*
X0095574Y0019302D01*
X0095662Y0019436D01*
X0095754Y0019568D01*
X0095849Y0019698D01*
X0095947Y0019826D01*
X0096048Y0019951D01*
X0096152Y0020073D01*
X0096259Y0020193D01*
X0096369Y0020310D01*
X0096482Y0020425D01*
X0096598Y0020536D01*
X0096717Y0020645D01*
X0096838Y0020750D01*
X0096962Y0020853D01*
X0097088Y0020953D01*
X0097216Y0021049D01*
X0097347Y0021142D01*
X0097481Y0021232D01*
X0097616Y0021319D01*
X0097754Y0021402D01*
X0097893Y0021482D01*
X0098035Y0021558D01*
X0098178Y0021631D01*
X0098323Y0021700D01*
X0098470Y0021766D01*
X0098618Y0021828D01*
X0098768Y0021886D01*
X0098919Y0021941D01*
X0099072Y0021992D01*
X0099226Y0022039D01*
X0099381Y0022082D01*
X0099537Y0022121D01*
X0099693Y0022157D01*
X0099851Y0022188D01*
X0100009Y0022216D01*
X0100168Y0022240D01*
X0100328Y0022260D01*
X0100488Y0022276D01*
X0100648Y0022288D01*
X0100809Y0022296D01*
X0100970Y0022300D01*
X0101130Y0022300D01*
X0101291Y0022296D01*
X0101452Y0022288D01*
X0101612Y0022276D01*
X0101772Y0022260D01*
X0101932Y0022240D01*
X0102091Y0022216D01*
X0102249Y0022188D01*
X0102407Y0022157D01*
X0102563Y0022121D01*
X0102719Y0022082D01*
X0102874Y0022039D01*
X0103028Y0021992D01*
X0103181Y0021941D01*
X0103332Y0021886D01*
X0103482Y0021828D01*
X0103630Y0021766D01*
X0103777Y0021700D01*
X0103922Y0021631D01*
X0104065Y0021558D01*
X0104207Y0021482D01*
X0104346Y0021402D01*
X0104484Y0021319D01*
X0104619Y0021232D01*
X0104753Y0021142D01*
X0104884Y0021049D01*
X0105012Y0020953D01*
X0105138Y0020853D01*
X0105262Y0020750D01*
X0105383Y0020645D01*
X0105502Y0020536D01*
X0105618Y0020425D01*
X0105731Y0020310D01*
X0105841Y0020193D01*
X0105948Y0020073D01*
X0106052Y0019951D01*
X0106153Y0019826D01*
X0106251Y0019698D01*
X0106346Y0019568D01*
X0106438Y0019436D01*
X0106526Y0019302D01*
X0106611Y0019165D01*
X0106693Y0019027D01*
X0106771Y0018886D01*
X0106845Y0018744D01*
X0106916Y0018600D01*
X0106984Y0018454D01*
X0107047Y0018306D01*
X0107108Y0018157D01*
X0107164Y0018006D01*
X0107217Y0017854D01*
X0107266Y0017701D01*
X0107311Y0017547D01*
X0107352Y0017392D01*
X0107390Y0017235D01*
X0107423Y0017078D01*
X0107453Y0016920D01*
X0107479Y0016761D01*
X0107500Y0016602D01*
X0107518Y0016442D01*
X0107532Y0016282D01*
X0107542Y0016121D01*
X0107548Y0015961D01*
X0107550Y0015800D01*
X0107548Y0015639D01*
X0107542Y0015479D01*
X0107532Y0015318D01*
X0107518Y0015158D01*
X0107500Y0014998D01*
X0107479Y0014839D01*
X0107453Y0014680D01*
X0107423Y0014522D01*
X0107390Y0014365D01*
X0107352Y0014208D01*
X0107311Y0014053D01*
X0107266Y0013899D01*
X0107217Y0013746D01*
X0107164Y0013594D01*
X0107108Y0013443D01*
X0107047Y0013294D01*
X0106984Y0013146D01*
X0106916Y0013000D01*
X0106845Y0012856D01*
X0106771Y0012714D01*
X0106693Y0012573D01*
X0106611Y0012435D01*
X0106526Y0012298D01*
X0106438Y0012164D01*
X0106346Y0012032D01*
X0106251Y0011902D01*
X0106153Y0011774D01*
X0106052Y0011649D01*
X0105948Y0011527D01*
X0105841Y0011407D01*
X0105731Y0011290D01*
X0105618Y0011175D01*
X0105502Y0011064D01*
X0105383Y0010955D01*
X0105262Y0010850D01*
X0105138Y0010747D01*
X0105012Y0010647D01*
X0104884Y0010551D01*
X0104753Y0010458D01*
X0104619Y0010368D01*
X0104484Y0010281D01*
X0104346Y0010198D01*
X0104207Y0010118D01*
X0104065Y0010042D01*
X0103922Y0009969D01*
X0103777Y0009900D01*
X0103630Y0009834D01*
X0103482Y0009772D01*
X0103332Y0009714D01*
X0103181Y0009659D01*
X0103028Y0009608D01*
X0102874Y0009561D01*
X0102719Y0009518D01*
X0102563Y0009479D01*
X0102407Y0009443D01*
X0102249Y0009412D01*
X0102091Y0009384D01*
X0101932Y0009360D01*
X0101772Y0009340D01*
X0101612Y0009324D01*
X0101452Y0009312D01*
X0101291Y0009304D01*
X0101130Y0009300D01*
X0100970Y0009300D01*
X0100809Y0009304D01*
X0100648Y0009312D01*
X0100488Y0009324D01*
X0100328Y0009340D01*
X0100168Y0009360D01*
X0100009Y0009384D01*
X0099851Y0009412D01*
X0099693Y0009443D01*
X0099537Y0009479D01*
X0099381Y0009518D01*
X0099226Y0009561D01*
X0099072Y0009608D01*
X0098919Y0009659D01*
X0098768Y0009714D01*
X0098618Y0009772D01*
X0098470Y0009834D01*
X0098323Y0009900D01*
X0098178Y0009969D01*
X0098035Y0010042D01*
X0097893Y0010118D01*
X0097754Y0010198D01*
X0097616Y0010281D01*
X0097481Y0010368D01*
X0097347Y0010458D01*
X0097216Y0010551D01*
X0097088Y0010647D01*
X0096962Y0010747D01*
X0096838Y0010850D01*
X0096717Y0010955D01*
X0096598Y0011064D01*
X0096482Y0011175D01*
X0096369Y0011290D01*
X0096259Y0011407D01*
X0096152Y0011527D01*
X0096048Y0011649D01*
X0095947Y0011774D01*
X0095849Y0011902D01*
X0095754Y0012032D01*
X0095662Y0012164D01*
X0095574Y0012298D01*
X0095489Y0012435D01*
X0095407Y0012573D01*
X0095329Y0012714D01*
X0095255Y0012856D01*
X0095184Y0013000D01*
X0095116Y0013146D01*
X0095053Y0013294D01*
X0094992Y0013443D01*
X0094936Y0013594D01*
X0094883Y0013746D01*
X0094834Y0013899D01*
X0094789Y0014053D01*
X0094748Y0014208D01*
X0094710Y0014365D01*
X0094677Y0014522D01*
X0094647Y0014680D01*
X0094621Y0014839D01*
X0094600Y0014998D01*
X0094582Y0015158D01*
X0094568Y0015318D01*
X0094558Y0015479D01*
X0094552Y0015639D01*
X0094550Y0015800D01*
X0235550Y0015800D02*
X0235552Y0015961D01*
X0235558Y0016121D01*
X0235568Y0016282D01*
X0235582Y0016442D01*
X0235600Y0016602D01*
X0235621Y0016761D01*
X0235647Y0016920D01*
X0235677Y0017078D01*
X0235710Y0017235D01*
X0235748Y0017392D01*
X0235789Y0017547D01*
X0235834Y0017701D01*
X0235883Y0017854D01*
X0235936Y0018006D01*
X0235992Y0018157D01*
X0236053Y0018306D01*
X0236116Y0018454D01*
X0236184Y0018600D01*
X0236255Y0018744D01*
X0236329Y0018886D01*
X0236407Y0019027D01*
X0236489Y0019165D01*
X0236574Y0019302D01*
X0236662Y0019436D01*
X0236754Y0019568D01*
X0236849Y0019698D01*
X0236947Y0019826D01*
X0237048Y0019951D01*
X0237152Y0020073D01*
X0237259Y0020193D01*
X0237369Y0020310D01*
X0237482Y0020425D01*
X0237598Y0020536D01*
X0237717Y0020645D01*
X0237838Y0020750D01*
X0237962Y0020853D01*
X0238088Y0020953D01*
X0238216Y0021049D01*
X0238347Y0021142D01*
X0238481Y0021232D01*
X0238616Y0021319D01*
X0238754Y0021402D01*
X0238893Y0021482D01*
X0239035Y0021558D01*
X0239178Y0021631D01*
X0239323Y0021700D01*
X0239470Y0021766D01*
X0239618Y0021828D01*
X0239768Y0021886D01*
X0239919Y0021941D01*
X0240072Y0021992D01*
X0240226Y0022039D01*
X0240381Y0022082D01*
X0240537Y0022121D01*
X0240693Y0022157D01*
X0240851Y0022188D01*
X0241009Y0022216D01*
X0241168Y0022240D01*
X0241328Y0022260D01*
X0241488Y0022276D01*
X0241648Y0022288D01*
X0241809Y0022296D01*
X0241970Y0022300D01*
X0242130Y0022300D01*
X0242291Y0022296D01*
X0242452Y0022288D01*
X0242612Y0022276D01*
X0242772Y0022260D01*
X0242932Y0022240D01*
X0243091Y0022216D01*
X0243249Y0022188D01*
X0243407Y0022157D01*
X0243563Y0022121D01*
X0243719Y0022082D01*
X0243874Y0022039D01*
X0244028Y0021992D01*
X0244181Y0021941D01*
X0244332Y0021886D01*
X0244482Y0021828D01*
X0244630Y0021766D01*
X0244777Y0021700D01*
X0244922Y0021631D01*
X0245065Y0021558D01*
X0245207Y0021482D01*
X0245346Y0021402D01*
X0245484Y0021319D01*
X0245619Y0021232D01*
X0245753Y0021142D01*
X0245884Y0021049D01*
X0246012Y0020953D01*
X0246138Y0020853D01*
X0246262Y0020750D01*
X0246383Y0020645D01*
X0246502Y0020536D01*
X0246618Y0020425D01*
X0246731Y0020310D01*
X0246841Y0020193D01*
X0246948Y0020073D01*
X0247052Y0019951D01*
X0247153Y0019826D01*
X0247251Y0019698D01*
X0247346Y0019568D01*
X0247438Y0019436D01*
X0247526Y0019302D01*
X0247611Y0019165D01*
X0247693Y0019027D01*
X0247771Y0018886D01*
X0247845Y0018744D01*
X0247916Y0018600D01*
X0247984Y0018454D01*
X0248047Y0018306D01*
X0248108Y0018157D01*
X0248164Y0018006D01*
X0248217Y0017854D01*
X0248266Y0017701D01*
X0248311Y0017547D01*
X0248352Y0017392D01*
X0248390Y0017235D01*
X0248423Y0017078D01*
X0248453Y0016920D01*
X0248479Y0016761D01*
X0248500Y0016602D01*
X0248518Y0016442D01*
X0248532Y0016282D01*
X0248542Y0016121D01*
X0248548Y0015961D01*
X0248550Y0015800D01*
X0248548Y0015639D01*
X0248542Y0015479D01*
X0248532Y0015318D01*
X0248518Y0015158D01*
X0248500Y0014998D01*
X0248479Y0014839D01*
X0248453Y0014680D01*
X0248423Y0014522D01*
X0248390Y0014365D01*
X0248352Y0014208D01*
X0248311Y0014053D01*
X0248266Y0013899D01*
X0248217Y0013746D01*
X0248164Y0013594D01*
X0248108Y0013443D01*
X0248047Y0013294D01*
X0247984Y0013146D01*
X0247916Y0013000D01*
X0247845Y0012856D01*
X0247771Y0012714D01*
X0247693Y0012573D01*
X0247611Y0012435D01*
X0247526Y0012298D01*
X0247438Y0012164D01*
X0247346Y0012032D01*
X0247251Y0011902D01*
X0247153Y0011774D01*
X0247052Y0011649D01*
X0246948Y0011527D01*
X0246841Y0011407D01*
X0246731Y0011290D01*
X0246618Y0011175D01*
X0246502Y0011064D01*
X0246383Y0010955D01*
X0246262Y0010850D01*
X0246138Y0010747D01*
X0246012Y0010647D01*
X0245884Y0010551D01*
X0245753Y0010458D01*
X0245619Y0010368D01*
X0245484Y0010281D01*
X0245346Y0010198D01*
X0245207Y0010118D01*
X0245065Y0010042D01*
X0244922Y0009969D01*
X0244777Y0009900D01*
X0244630Y0009834D01*
X0244482Y0009772D01*
X0244332Y0009714D01*
X0244181Y0009659D01*
X0244028Y0009608D01*
X0243874Y0009561D01*
X0243719Y0009518D01*
X0243563Y0009479D01*
X0243407Y0009443D01*
X0243249Y0009412D01*
X0243091Y0009384D01*
X0242932Y0009360D01*
X0242772Y0009340D01*
X0242612Y0009324D01*
X0242452Y0009312D01*
X0242291Y0009304D01*
X0242130Y0009300D01*
X0241970Y0009300D01*
X0241809Y0009304D01*
X0241648Y0009312D01*
X0241488Y0009324D01*
X0241328Y0009340D01*
X0241168Y0009360D01*
X0241009Y0009384D01*
X0240851Y0009412D01*
X0240693Y0009443D01*
X0240537Y0009479D01*
X0240381Y0009518D01*
X0240226Y0009561D01*
X0240072Y0009608D01*
X0239919Y0009659D01*
X0239768Y0009714D01*
X0239618Y0009772D01*
X0239470Y0009834D01*
X0239323Y0009900D01*
X0239178Y0009969D01*
X0239035Y0010042D01*
X0238893Y0010118D01*
X0238754Y0010198D01*
X0238616Y0010281D01*
X0238481Y0010368D01*
X0238347Y0010458D01*
X0238216Y0010551D01*
X0238088Y0010647D01*
X0237962Y0010747D01*
X0237838Y0010850D01*
X0237717Y0010955D01*
X0237598Y0011064D01*
X0237482Y0011175D01*
X0237369Y0011290D01*
X0237259Y0011407D01*
X0237152Y0011527D01*
X0237048Y0011649D01*
X0236947Y0011774D01*
X0236849Y0011902D01*
X0236754Y0012032D01*
X0236662Y0012164D01*
X0236574Y0012298D01*
X0236489Y0012435D01*
X0236407Y0012573D01*
X0236329Y0012714D01*
X0236255Y0012856D01*
X0236184Y0013000D01*
X0236116Y0013146D01*
X0236053Y0013294D01*
X0235992Y0013443D01*
X0235936Y0013594D01*
X0235883Y0013746D01*
X0235834Y0013899D01*
X0235789Y0014053D01*
X0235748Y0014208D01*
X0235710Y0014365D01*
X0235677Y0014522D01*
X0235647Y0014680D01*
X0235621Y0014839D01*
X0235600Y0014998D01*
X0235582Y0015158D01*
X0235568Y0015318D01*
X0235558Y0015479D01*
X0235552Y0015639D01*
X0235550Y0015800D01*
X0235550Y0101800D02*
X0235552Y0101961D01*
X0235558Y0102121D01*
X0235568Y0102282D01*
X0235582Y0102442D01*
X0235600Y0102602D01*
X0235621Y0102761D01*
X0235647Y0102920D01*
X0235677Y0103078D01*
X0235710Y0103235D01*
X0235748Y0103392D01*
X0235789Y0103547D01*
X0235834Y0103701D01*
X0235883Y0103854D01*
X0235936Y0104006D01*
X0235992Y0104157D01*
X0236053Y0104306D01*
X0236116Y0104454D01*
X0236184Y0104600D01*
X0236255Y0104744D01*
X0236329Y0104886D01*
X0236407Y0105027D01*
X0236489Y0105165D01*
X0236574Y0105302D01*
X0236662Y0105436D01*
X0236754Y0105568D01*
X0236849Y0105698D01*
X0236947Y0105826D01*
X0237048Y0105951D01*
X0237152Y0106073D01*
X0237259Y0106193D01*
X0237369Y0106310D01*
X0237482Y0106425D01*
X0237598Y0106536D01*
X0237717Y0106645D01*
X0237838Y0106750D01*
X0237962Y0106853D01*
X0238088Y0106953D01*
X0238216Y0107049D01*
X0238347Y0107142D01*
X0238481Y0107232D01*
X0238616Y0107319D01*
X0238754Y0107402D01*
X0238893Y0107482D01*
X0239035Y0107558D01*
X0239178Y0107631D01*
X0239323Y0107700D01*
X0239470Y0107766D01*
X0239618Y0107828D01*
X0239768Y0107886D01*
X0239919Y0107941D01*
X0240072Y0107992D01*
X0240226Y0108039D01*
X0240381Y0108082D01*
X0240537Y0108121D01*
X0240693Y0108157D01*
X0240851Y0108188D01*
X0241009Y0108216D01*
X0241168Y0108240D01*
X0241328Y0108260D01*
X0241488Y0108276D01*
X0241648Y0108288D01*
X0241809Y0108296D01*
X0241970Y0108300D01*
X0242130Y0108300D01*
X0242291Y0108296D01*
X0242452Y0108288D01*
X0242612Y0108276D01*
X0242772Y0108260D01*
X0242932Y0108240D01*
X0243091Y0108216D01*
X0243249Y0108188D01*
X0243407Y0108157D01*
X0243563Y0108121D01*
X0243719Y0108082D01*
X0243874Y0108039D01*
X0244028Y0107992D01*
X0244181Y0107941D01*
X0244332Y0107886D01*
X0244482Y0107828D01*
X0244630Y0107766D01*
X0244777Y0107700D01*
X0244922Y0107631D01*
X0245065Y0107558D01*
X0245207Y0107482D01*
X0245346Y0107402D01*
X0245484Y0107319D01*
X0245619Y0107232D01*
X0245753Y0107142D01*
X0245884Y0107049D01*
X0246012Y0106953D01*
X0246138Y0106853D01*
X0246262Y0106750D01*
X0246383Y0106645D01*
X0246502Y0106536D01*
X0246618Y0106425D01*
X0246731Y0106310D01*
X0246841Y0106193D01*
X0246948Y0106073D01*
X0247052Y0105951D01*
X0247153Y0105826D01*
X0247251Y0105698D01*
X0247346Y0105568D01*
X0247438Y0105436D01*
X0247526Y0105302D01*
X0247611Y0105165D01*
X0247693Y0105027D01*
X0247771Y0104886D01*
X0247845Y0104744D01*
X0247916Y0104600D01*
X0247984Y0104454D01*
X0248047Y0104306D01*
X0248108Y0104157D01*
X0248164Y0104006D01*
X0248217Y0103854D01*
X0248266Y0103701D01*
X0248311Y0103547D01*
X0248352Y0103392D01*
X0248390Y0103235D01*
X0248423Y0103078D01*
X0248453Y0102920D01*
X0248479Y0102761D01*
X0248500Y0102602D01*
X0248518Y0102442D01*
X0248532Y0102282D01*
X0248542Y0102121D01*
X0248548Y0101961D01*
X0248550Y0101800D01*
X0248548Y0101639D01*
X0248542Y0101479D01*
X0248532Y0101318D01*
X0248518Y0101158D01*
X0248500Y0100998D01*
X0248479Y0100839D01*
X0248453Y0100680D01*
X0248423Y0100522D01*
X0248390Y0100365D01*
X0248352Y0100208D01*
X0248311Y0100053D01*
X0248266Y0099899D01*
X0248217Y0099746D01*
X0248164Y0099594D01*
X0248108Y0099443D01*
X0248047Y0099294D01*
X0247984Y0099146D01*
X0247916Y0099000D01*
X0247845Y0098856D01*
X0247771Y0098714D01*
X0247693Y0098573D01*
X0247611Y0098435D01*
X0247526Y0098298D01*
X0247438Y0098164D01*
X0247346Y0098032D01*
X0247251Y0097902D01*
X0247153Y0097774D01*
X0247052Y0097649D01*
X0246948Y0097527D01*
X0246841Y0097407D01*
X0246731Y0097290D01*
X0246618Y0097175D01*
X0246502Y0097064D01*
X0246383Y0096955D01*
X0246262Y0096850D01*
X0246138Y0096747D01*
X0246012Y0096647D01*
X0245884Y0096551D01*
X0245753Y0096458D01*
X0245619Y0096368D01*
X0245484Y0096281D01*
X0245346Y0096198D01*
X0245207Y0096118D01*
X0245065Y0096042D01*
X0244922Y0095969D01*
X0244777Y0095900D01*
X0244630Y0095834D01*
X0244482Y0095772D01*
X0244332Y0095714D01*
X0244181Y0095659D01*
X0244028Y0095608D01*
X0243874Y0095561D01*
X0243719Y0095518D01*
X0243563Y0095479D01*
X0243407Y0095443D01*
X0243249Y0095412D01*
X0243091Y0095384D01*
X0242932Y0095360D01*
X0242772Y0095340D01*
X0242612Y0095324D01*
X0242452Y0095312D01*
X0242291Y0095304D01*
X0242130Y0095300D01*
X0241970Y0095300D01*
X0241809Y0095304D01*
X0241648Y0095312D01*
X0241488Y0095324D01*
X0241328Y0095340D01*
X0241168Y0095360D01*
X0241009Y0095384D01*
X0240851Y0095412D01*
X0240693Y0095443D01*
X0240537Y0095479D01*
X0240381Y0095518D01*
X0240226Y0095561D01*
X0240072Y0095608D01*
X0239919Y0095659D01*
X0239768Y0095714D01*
X0239618Y0095772D01*
X0239470Y0095834D01*
X0239323Y0095900D01*
X0239178Y0095969D01*
X0239035Y0096042D01*
X0238893Y0096118D01*
X0238754Y0096198D01*
X0238616Y0096281D01*
X0238481Y0096368D01*
X0238347Y0096458D01*
X0238216Y0096551D01*
X0238088Y0096647D01*
X0237962Y0096747D01*
X0237838Y0096850D01*
X0237717Y0096955D01*
X0237598Y0097064D01*
X0237482Y0097175D01*
X0237369Y0097290D01*
X0237259Y0097407D01*
X0237152Y0097527D01*
X0237048Y0097649D01*
X0236947Y0097774D01*
X0236849Y0097902D01*
X0236754Y0098032D01*
X0236662Y0098164D01*
X0236574Y0098298D01*
X0236489Y0098435D01*
X0236407Y0098573D01*
X0236329Y0098714D01*
X0236255Y0098856D01*
X0236184Y0099000D01*
X0236116Y0099146D01*
X0236053Y0099294D01*
X0235992Y0099443D01*
X0235936Y0099594D01*
X0235883Y0099746D01*
X0235834Y0099899D01*
X0235789Y0100053D01*
X0235748Y0100208D01*
X0235710Y0100365D01*
X0235677Y0100522D01*
X0235647Y0100680D01*
X0235621Y0100839D01*
X0235600Y0100998D01*
X0235582Y0101158D01*
X0235568Y0101318D01*
X0235558Y0101479D01*
X0235552Y0101639D01*
X0235550Y0101800D01*
X0094550Y0101800D02*
X0094552Y0101961D01*
X0094558Y0102121D01*
X0094568Y0102282D01*
X0094582Y0102442D01*
X0094600Y0102602D01*
X0094621Y0102761D01*
X0094647Y0102920D01*
X0094677Y0103078D01*
X0094710Y0103235D01*
X0094748Y0103392D01*
X0094789Y0103547D01*
X0094834Y0103701D01*
X0094883Y0103854D01*
X0094936Y0104006D01*
X0094992Y0104157D01*
X0095053Y0104306D01*
X0095116Y0104454D01*
X0095184Y0104600D01*
X0095255Y0104744D01*
X0095329Y0104886D01*
X0095407Y0105027D01*
X0095489Y0105165D01*
X0095574Y0105302D01*
X0095662Y0105436D01*
X0095754Y0105568D01*
X0095849Y0105698D01*
X0095947Y0105826D01*
X0096048Y0105951D01*
X0096152Y0106073D01*
X0096259Y0106193D01*
X0096369Y0106310D01*
X0096482Y0106425D01*
X0096598Y0106536D01*
X0096717Y0106645D01*
X0096838Y0106750D01*
X0096962Y0106853D01*
X0097088Y0106953D01*
X0097216Y0107049D01*
X0097347Y0107142D01*
X0097481Y0107232D01*
X0097616Y0107319D01*
X0097754Y0107402D01*
X0097893Y0107482D01*
X0098035Y0107558D01*
X0098178Y0107631D01*
X0098323Y0107700D01*
X0098470Y0107766D01*
X0098618Y0107828D01*
X0098768Y0107886D01*
X0098919Y0107941D01*
X0099072Y0107992D01*
X0099226Y0108039D01*
X0099381Y0108082D01*
X0099537Y0108121D01*
X0099693Y0108157D01*
X0099851Y0108188D01*
X0100009Y0108216D01*
X0100168Y0108240D01*
X0100328Y0108260D01*
X0100488Y0108276D01*
X0100648Y0108288D01*
X0100809Y0108296D01*
X0100970Y0108300D01*
X0101130Y0108300D01*
X0101291Y0108296D01*
X0101452Y0108288D01*
X0101612Y0108276D01*
X0101772Y0108260D01*
X0101932Y0108240D01*
X0102091Y0108216D01*
X0102249Y0108188D01*
X0102407Y0108157D01*
X0102563Y0108121D01*
X0102719Y0108082D01*
X0102874Y0108039D01*
X0103028Y0107992D01*
X0103181Y0107941D01*
X0103332Y0107886D01*
X0103482Y0107828D01*
X0103630Y0107766D01*
X0103777Y0107700D01*
X0103922Y0107631D01*
X0104065Y0107558D01*
X0104207Y0107482D01*
X0104346Y0107402D01*
X0104484Y0107319D01*
X0104619Y0107232D01*
X0104753Y0107142D01*
X0104884Y0107049D01*
X0105012Y0106953D01*
X0105138Y0106853D01*
X0105262Y0106750D01*
X0105383Y0106645D01*
X0105502Y0106536D01*
X0105618Y0106425D01*
X0105731Y0106310D01*
X0105841Y0106193D01*
X0105948Y0106073D01*
X0106052Y0105951D01*
X0106153Y0105826D01*
X0106251Y0105698D01*
X0106346Y0105568D01*
X0106438Y0105436D01*
X0106526Y0105302D01*
X0106611Y0105165D01*
X0106693Y0105027D01*
X0106771Y0104886D01*
X0106845Y0104744D01*
X0106916Y0104600D01*
X0106984Y0104454D01*
X0107047Y0104306D01*
X0107108Y0104157D01*
X0107164Y0104006D01*
X0107217Y0103854D01*
X0107266Y0103701D01*
X0107311Y0103547D01*
X0107352Y0103392D01*
X0107390Y0103235D01*
X0107423Y0103078D01*
X0107453Y0102920D01*
X0107479Y0102761D01*
X0107500Y0102602D01*
X0107518Y0102442D01*
X0107532Y0102282D01*
X0107542Y0102121D01*
X0107548Y0101961D01*
X0107550Y0101800D01*
X0107548Y0101639D01*
X0107542Y0101479D01*
X0107532Y0101318D01*
X0107518Y0101158D01*
X0107500Y0100998D01*
X0107479Y0100839D01*
X0107453Y0100680D01*
X0107423Y0100522D01*
X0107390Y0100365D01*
X0107352Y0100208D01*
X0107311Y0100053D01*
X0107266Y0099899D01*
X0107217Y0099746D01*
X0107164Y0099594D01*
X0107108Y0099443D01*
X0107047Y0099294D01*
X0106984Y0099146D01*
X0106916Y0099000D01*
X0106845Y0098856D01*
X0106771Y0098714D01*
X0106693Y0098573D01*
X0106611Y0098435D01*
X0106526Y0098298D01*
X0106438Y0098164D01*
X0106346Y0098032D01*
X0106251Y0097902D01*
X0106153Y0097774D01*
X0106052Y0097649D01*
X0105948Y0097527D01*
X0105841Y0097407D01*
X0105731Y0097290D01*
X0105618Y0097175D01*
X0105502Y0097064D01*
X0105383Y0096955D01*
X0105262Y0096850D01*
X0105138Y0096747D01*
X0105012Y0096647D01*
X0104884Y0096551D01*
X0104753Y0096458D01*
X0104619Y0096368D01*
X0104484Y0096281D01*
X0104346Y0096198D01*
X0104207Y0096118D01*
X0104065Y0096042D01*
X0103922Y0095969D01*
X0103777Y0095900D01*
X0103630Y0095834D01*
X0103482Y0095772D01*
X0103332Y0095714D01*
X0103181Y0095659D01*
X0103028Y0095608D01*
X0102874Y0095561D01*
X0102719Y0095518D01*
X0102563Y0095479D01*
X0102407Y0095443D01*
X0102249Y0095412D01*
X0102091Y0095384D01*
X0101932Y0095360D01*
X0101772Y0095340D01*
X0101612Y0095324D01*
X0101452Y0095312D01*
X0101291Y0095304D01*
X0101130Y0095300D01*
X0100970Y0095300D01*
X0100809Y0095304D01*
X0100648Y0095312D01*
X0100488Y0095324D01*
X0100328Y0095340D01*
X0100168Y0095360D01*
X0100009Y0095384D01*
X0099851Y0095412D01*
X0099693Y0095443D01*
X0099537Y0095479D01*
X0099381Y0095518D01*
X0099226Y0095561D01*
X0099072Y0095608D01*
X0098919Y0095659D01*
X0098768Y0095714D01*
X0098618Y0095772D01*
X0098470Y0095834D01*
X0098323Y0095900D01*
X0098178Y0095969D01*
X0098035Y0096042D01*
X0097893Y0096118D01*
X0097754Y0096198D01*
X0097616Y0096281D01*
X0097481Y0096368D01*
X0097347Y0096458D01*
X0097216Y0096551D01*
X0097088Y0096647D01*
X0096962Y0096747D01*
X0096838Y0096850D01*
X0096717Y0096955D01*
X0096598Y0097064D01*
X0096482Y0097175D01*
X0096369Y0097290D01*
X0096259Y0097407D01*
X0096152Y0097527D01*
X0096048Y0097649D01*
X0095947Y0097774D01*
X0095849Y0097902D01*
X0095754Y0098032D01*
X0095662Y0098164D01*
X0095574Y0098298D01*
X0095489Y0098435D01*
X0095407Y0098573D01*
X0095329Y0098714D01*
X0095255Y0098856D01*
X0095184Y0099000D01*
X0095116Y0099146D01*
X0095053Y0099294D01*
X0094992Y0099443D01*
X0094936Y0099594D01*
X0094883Y0099746D01*
X0094834Y0099899D01*
X0094789Y0100053D01*
X0094748Y0100208D01*
X0094710Y0100365D01*
X0094677Y0100522D01*
X0094647Y0100680D01*
X0094621Y0100839D01*
X0094600Y0100998D01*
X0094582Y0101158D01*
X0094568Y0101318D01*
X0094558Y0101479D01*
X0094552Y0101639D01*
X0094550Y0101800D01*
D11*
X0157715Y0091931D02*
X0158905Y0091931D01*
X0158905Y0087905D01*
X0157715Y0087905D01*
X0157715Y0091931D01*
X0157715Y0088878D02*
X0158905Y0088878D01*
X0158905Y0089851D02*
X0157715Y0089851D01*
X0157715Y0090824D02*
X0158905Y0090824D01*
X0158905Y0091797D02*
X0157715Y0091797D01*
X0161455Y0091931D02*
X0162645Y0091931D01*
X0162645Y0087905D01*
X0161455Y0087905D01*
X0161455Y0091931D01*
X0161455Y0088878D02*
X0162645Y0088878D01*
X0162645Y0089851D02*
X0161455Y0089851D01*
X0161455Y0090824D02*
X0162645Y0090824D01*
X0162645Y0091797D02*
X0161455Y0091797D01*
X0165195Y0091931D02*
X0166385Y0091931D01*
X0166385Y0087905D01*
X0165195Y0087905D01*
X0165195Y0091931D01*
X0165195Y0088878D02*
X0166385Y0088878D01*
X0166385Y0089851D02*
X0165195Y0089851D01*
X0165195Y0090824D02*
X0166385Y0090824D01*
X0166385Y0091797D02*
X0165195Y0091797D01*
X0165195Y0081695D02*
X0166385Y0081695D01*
X0166385Y0077669D01*
X0165195Y0077669D01*
X0165195Y0081695D01*
X0165195Y0078642D02*
X0166385Y0078642D01*
X0166385Y0079615D02*
X0165195Y0079615D01*
X0165195Y0080588D02*
X0166385Y0080588D01*
X0166385Y0081561D02*
X0165195Y0081561D01*
X0158905Y0081695D02*
X0157715Y0081695D01*
X0158905Y0081695D02*
X0158905Y0077669D01*
X0157715Y0077669D01*
X0157715Y0081695D01*
X0157715Y0078642D02*
X0158905Y0078642D01*
X0158905Y0079615D02*
X0157715Y0079615D01*
X0157715Y0080588D02*
X0158905Y0080588D01*
X0158905Y0081561D02*
X0157715Y0081561D01*
D12*
X0172442Y0090178D02*
X0174572Y0090178D01*
X0174572Y0087422D01*
X0172442Y0087422D01*
X0172442Y0090178D01*
X0172442Y0089165D02*
X0174572Y0089165D01*
X0179528Y0090178D02*
X0181658Y0090178D01*
X0181658Y0087422D01*
X0179528Y0087422D01*
X0179528Y0090178D01*
X0179528Y0089165D02*
X0181658Y0089165D01*
X0177658Y0073178D02*
X0175528Y0073178D01*
X0177658Y0073178D02*
X0177658Y0070422D01*
X0175528Y0070422D01*
X0175528Y0073178D01*
X0175528Y0072165D02*
X0177658Y0072165D01*
X0170572Y0073178D02*
X0168442Y0073178D01*
X0170572Y0073178D02*
X0170572Y0070422D01*
X0168442Y0070422D01*
X0168442Y0073178D01*
X0168442Y0072165D02*
X0170572Y0072165D01*
X0170572Y0065178D02*
X0168442Y0065178D01*
X0170572Y0065178D02*
X0170572Y0062422D01*
X0168442Y0062422D01*
X0168442Y0065178D01*
X0168442Y0064165D02*
X0170572Y0064165D01*
X0175528Y0065178D02*
X0177658Y0065178D01*
X0177658Y0062422D01*
X0175528Y0062422D01*
X0175528Y0065178D01*
X0175528Y0064165D02*
X0177658Y0064165D01*
X0176658Y0054422D02*
X0174528Y0054422D01*
X0174528Y0057178D01*
X0176658Y0057178D01*
X0176658Y0054422D01*
X0176658Y0056165D02*
X0174528Y0056165D01*
X0169572Y0054422D02*
X0167442Y0054422D01*
X0167442Y0057178D01*
X0169572Y0057178D01*
X0169572Y0054422D01*
X0169572Y0056165D02*
X0167442Y0056165D01*
X0222442Y0066422D02*
X0224572Y0066422D01*
X0222442Y0066422D02*
X0222442Y0069178D01*
X0224572Y0069178D01*
X0224572Y0066422D01*
X0224572Y0068165D02*
X0222442Y0068165D01*
X0229528Y0066422D02*
X0231658Y0066422D01*
X0229528Y0066422D02*
X0229528Y0069178D01*
X0231658Y0069178D01*
X0231658Y0066422D01*
X0231658Y0068165D02*
X0229528Y0068165D01*
X0229528Y0074422D02*
X0231658Y0074422D01*
X0229528Y0074422D02*
X0229528Y0077178D01*
X0231658Y0077178D01*
X0231658Y0074422D01*
X0231658Y0076165D02*
X0229528Y0076165D01*
X0224572Y0074422D02*
X0222442Y0074422D01*
X0222442Y0077178D01*
X0224572Y0077178D01*
X0224572Y0074422D01*
X0224572Y0076165D02*
X0222442Y0076165D01*
D13*
X0213322Y0052284D03*
D14*
X0215951Y0054389D02*
X0215951Y0055297D01*
X0215951Y0054389D02*
X0210693Y0054389D01*
X0210693Y0055297D01*
X0215951Y0055297D01*
X0215951Y0055130D02*
X0210693Y0055130D01*
X0215951Y0056948D02*
X0215951Y0057856D01*
X0215951Y0056948D02*
X0210693Y0056948D01*
X0210693Y0057856D01*
X0215951Y0057856D01*
X0215951Y0057689D02*
X0210693Y0057689D01*
X0215951Y0059507D02*
X0215951Y0060415D01*
X0215951Y0059507D02*
X0210693Y0059507D01*
X0210693Y0060415D01*
X0215951Y0060415D01*
X0215951Y0060248D02*
X0210693Y0060248D01*
X0215951Y0062066D02*
X0215951Y0062974D01*
X0215951Y0062066D02*
X0210693Y0062066D01*
X0210693Y0062974D01*
X0215951Y0062974D01*
X0215951Y0062807D02*
X0210693Y0062807D01*
X0215951Y0064626D02*
X0215951Y0065534D01*
X0215951Y0064626D02*
X0210693Y0064626D01*
X0210693Y0065534D01*
X0215951Y0065534D01*
X0215951Y0065367D02*
X0210693Y0065367D01*
X0215951Y0067185D02*
X0215951Y0068093D01*
X0215951Y0067185D02*
X0210693Y0067185D01*
X0210693Y0068093D01*
X0215951Y0068093D01*
X0215951Y0067926D02*
X0210693Y0067926D01*
X0215951Y0069744D02*
X0215951Y0070652D01*
X0215951Y0069744D02*
X0210693Y0069744D01*
X0210693Y0070652D01*
X0215951Y0070652D01*
X0215951Y0070485D02*
X0210693Y0070485D01*
X0215951Y0072303D02*
X0215951Y0073211D01*
X0215951Y0072303D02*
X0210693Y0072303D01*
X0210693Y0073211D01*
X0215951Y0073211D01*
X0215951Y0073044D02*
X0210693Y0073044D01*
X0215951Y0074862D02*
X0215951Y0075770D01*
X0215951Y0074862D02*
X0210693Y0074862D01*
X0210693Y0075770D01*
X0215951Y0075770D01*
X0215951Y0075603D02*
X0210693Y0075603D01*
X0187407Y0075770D02*
X0187407Y0074862D01*
X0182149Y0074862D01*
X0182149Y0075770D01*
X0187407Y0075770D01*
X0187407Y0075603D02*
X0182149Y0075603D01*
X0187407Y0073211D02*
X0187407Y0072303D01*
X0182149Y0072303D01*
X0182149Y0073211D01*
X0187407Y0073211D01*
X0187407Y0073044D02*
X0182149Y0073044D01*
X0187407Y0070652D02*
X0187407Y0069744D01*
X0182149Y0069744D01*
X0182149Y0070652D01*
X0187407Y0070652D01*
X0187407Y0070485D02*
X0182149Y0070485D01*
X0187407Y0068093D02*
X0187407Y0067185D01*
X0182149Y0067185D01*
X0182149Y0068093D01*
X0187407Y0068093D01*
X0187407Y0067926D02*
X0182149Y0067926D01*
X0187407Y0065534D02*
X0187407Y0064626D01*
X0182149Y0064626D01*
X0182149Y0065534D01*
X0187407Y0065534D01*
X0187407Y0065367D02*
X0182149Y0065367D01*
X0187407Y0062974D02*
X0187407Y0062066D01*
X0182149Y0062066D01*
X0182149Y0062974D01*
X0187407Y0062974D01*
X0187407Y0062807D02*
X0182149Y0062807D01*
X0187407Y0060415D02*
X0187407Y0059507D01*
X0182149Y0059507D01*
X0182149Y0060415D01*
X0187407Y0060415D01*
X0187407Y0060248D02*
X0182149Y0060248D01*
X0187407Y0057856D02*
X0187407Y0056948D01*
X0182149Y0056948D01*
X0182149Y0057856D01*
X0187407Y0057856D01*
X0187407Y0057689D02*
X0182149Y0057689D01*
X0187407Y0055297D02*
X0187407Y0054389D01*
X0182149Y0054389D01*
X0182149Y0055297D01*
X0187407Y0055297D01*
X0187407Y0055130D02*
X0182149Y0055130D01*
X0187407Y0052738D02*
X0187407Y0051830D01*
X0182149Y0051830D01*
X0182149Y0052738D01*
X0187407Y0052738D01*
X0187407Y0052571D02*
X0182149Y0052571D01*
D15*
X0226300Y0090750D03*
D16*
X0229097Y0043497D02*
X0230803Y0043497D01*
X0229097Y0043497D02*
X0229097Y0046103D01*
X0230803Y0046103D01*
X0230803Y0043497D01*
X0230803Y0044891D02*
X0229097Y0044891D01*
X0223203Y0043497D02*
X0221497Y0043497D01*
X0221497Y0046103D01*
X0223203Y0046103D01*
X0223203Y0043497D01*
X0223203Y0044891D02*
X0221497Y0044891D01*
X0225297Y0035497D02*
X0227003Y0035497D01*
X0225297Y0035497D02*
X0225297Y0038103D01*
X0227003Y0038103D01*
X0227003Y0035497D01*
X0227003Y0036891D02*
X0225297Y0036891D01*
M02*
