%
M48
M72
T01C0.01575
T02C0.03150
T03C0.04000
T04C0.08661
T05C0.13000
%
T01
X121050Y106000
X141050Y101000
X144050Y97000
X152050Y100000
X173050Y86000
X156050Y82000
X175050Y106000
X156050Y126000
X162050Y128000
X166050Y151000
X172050Y54000
T02
X134050Y93000
X134050Y103000
X186050Y100063
X186050Y107937
X186050Y115811
X186050Y92189
T03
X158050Y56000
X148050Y56000
X138050Y56000
X128050Y56000
T04
X114050Y83000
X114050Y123000
T05
X101050Y60000
X187050Y60000
X187050Y146000
X101050Y146000
M30
