<svg xmlns="http://www.w3.org/2000/svg" xmlns:svg="http://www.w3.org/2000/svg" id="svg2" width="191mm" height="240mm" version="1.1" viewBox="0 0 676.772 850.394"><metadata id="metadata7"/><g id="layer1" transform="translate(0,-201.96851)"><rect style="fill:none;stroke:none;stroke-opacity:1" id="rect3336" width="496.063" height="354.331" x="67.633" y="680.133"/></g><g id="layer2" transform="translate(0,457.08661)"><path id="path3388" d="m 606.90646,-39.225955 a 7.3873897,7.3873892 0 0 1 7.38867,7.38868 7.3873897,7.3873892 0 0 1 -7.38867,7.38672 7.3873897,7.3873892 0 0 1 -7.38672,-7.38672 7.3873897,7.3873892 0 0 1 7.38672,-7.38868 z m -537.043222,-0.10301 a 7.3873897,7.3873892 0 0 1 7.386718,7.38868 7.3873897,7.3873892 0 0 1 -7.386718,7.38672 7.3873897,7.3873892 0 0 1 -7.386719,-7.38672 7.3873897,7.3873892 0 0 1 7.386719,-7.38868 z" style="fill:none;stroke:#000;stroke-width:1.09668827;stroke-opacity:1"/><path id="rect4150" d="m 338.30853,316.04636 a 7.3873897,7.3873892 0 0 1 7.38672,7.38672 7.3873897,7.3873892 0 0 1 -7.38672,7.38867 7.3873897,7.3873892 0 0 1 -7.38672,-7.38867 7.3873897,7.3873892 0 0 1 7.38672,-7.38672 z m 0.0134,-710.6894 a 7.3873897,7.3873892 0 0 1 7.38672,7.38867 7.3873897,7.3873892 0 0 1 -7.38672,7.38672 7.3873897,7.3873892 0 0 1 -7.38867,-7.38672 7.3873897,7.3873892 0 0 1 7.38867,-7.38867 z" style="fill:none;stroke:#000;stroke-width:1.09668827;stroke-opacity:1"/><path style="fill:none;fill-opacity:1;stroke:none;stroke-width:.5616225;stroke-linecap:round;stroke-linejoin:round;stroke-miterlimit:4;stroke-dasharray:none;stroke-opacity:1" id="path3132" d="m 145.16962,264.58823 350.45242,0 0,-4.49298 8.98596,-8.98596 0,-121.31046 -8.98596,-8.98596 0,-35.943836 -8.89998,-8.98596 -341.55244,2.2e-5 z"/><path id="path5052-6" d="m 378.75535,198.73951 a 5.6076665,5.6076665 0 0 1 -5.60767,5.60767 5.6076665,5.6076665 0 0 1 -5.60766,-5.60767 5.6076665,5.6076665 0 0 1 5.60766,-5.60767 5.6076665,5.6076665 0 0 1 5.60767,5.60767 z m 0,-98.845554 a 5.6076665,5.6076665 0 0 1 -5.60767,5.607674 5.6076665,5.6076665 0 0 1 -5.60766,-5.607674 5.6076665,5.6076665 0 0 1 5.60766,-5.60767 5.6076665,5.6076665 0 0 1 5.60767,5.60767 z M 199.03616,45.978191 a 5.6076665,5.6076665 0 0 1 -5.60767,5.607667 5.6076665,5.6076665 0 0 1 -5.60766,-5.607667 5.6076665,5.6076665 0 0 1 5.60766,-5.607666 5.6076665,5.6076665 0 0 1 5.60767,5.607666 z m -4.49298,170.733239 a 5.6076665,5.6076665 0 0 1 -5.60767,5.60767 5.6076665,5.6076665 0 0 1 -5.60767,-5.60767 5.6076665,5.6076665 0 0 1 5.60767,-5.60766 5.6076665,5.6076665 0 0 1 5.60767,5.60766 z M 464.12196,45.978191 a 5.6076665,5.6076665 0 0 1 -5.60767,5.607667 5.6076665,5.6076665 0 0 1 -5.60766,-5.607667 5.6076665,5.6076665 0 0 1 5.60766,-5.607666 5.6076665,5.6076665 0 0 1 5.60767,5.607666 z m 22.4649,170.733239 a 5.6076665,5.6076665 0 0 1 -5.60766,5.60767 5.6076665,5.6076665 0 0 1 -5.60767,-5.60767 5.6076665,5.6076665 0 0 1 5.60767,-5.60766 5.6076665,5.6076665 0 0 1 5.60766,5.60766 z" style="fill:#fff;fill-opacity:1;stroke:#000;stroke-width:.5616225;stroke-linecap:round;stroke-linejoin:round;stroke-miterlimit:4;stroke-dasharray:none;stroke-dashoffset:0;stroke-opacity:1"/><path style="fill:none;stroke:#000;stroke-opacity:1;stroke-width:2.06220472;stroke-miterlimit:4;stroke-dasharray:none" id="rect3398" d="M 161.1582 26.574219 L 161.1582 99.199219 L 28.345703 99.199219 L 28.345703 751.18359 L 161.21094 751.18359 L 161.21094 823.81836 L 515.5625 823.81836 L 515.5625 751.1875 L 648.42578 751.1875 L 648.42578 99.201172 L 515.55664 99.201172 L 515.55664 26.574219 L 161.1582 26.574219 z" transform="translate(0,-457.08661)"/><text style="font-style:normal;font-weight:400;font-size:15px;line-height:125%;font-family:sans-serif;letter-spacing:0;word-spacing:0;fill:#000;fill-opacity:1;stroke:none;stroke-width:1px;stroke-linecap:butt;stroke-linejoin:miter;stroke-opacity:1" id="text4247" x="189.505" y="25.126" xml:space="preserve"><tspan id="tspan4249" x="189.505" y="25.126">Arduino Mega</tspan></text><path id="path3388-6" d="m 607.21351,-261.47545 a 7.3873897,7.3873892 0 0 1 7.38867,7.38868 7.3873897,7.3873892 0 0 1 -7.38867,7.38672 7.3873897,7.3873892 0 0 1 -7.38672,-7.38672 7.3873897,7.3873892 0 0 1 7.38672,-7.38868 z M 70.1703,-261.57846 a 7.3873897,7.3873892 0 0 1 7.386711,7.38868 7.3873897,7.3873892 0 0 1 -7.386711,7.38672 7.3873897,7.3873892 0 0 1 -7.38672,-7.38672 7.3873897,7.3873892 0 0 1 7.38672,-7.38868 z" style="fill:none;stroke:#000;stroke-width:1.09668827;stroke-opacity:1"/><path id="path3388-6-5" d="m 607.31315,183.09755 a 7.3873897,7.3873892 0 0 1 7.38867,7.38868 7.3873897,7.3873892 0 0 1 -7.38867,7.38672 7.3873897,7.3873892 0 0 1 -7.38672,-7.38672 7.3873897,7.3873892 0 0 1 7.38672,-7.38868 z M 70.269959,182.99454 a 7.3873897,7.3873892 0 0 1 7.38671,7.38868 7.3873897,7.3873892 0 0 1 -7.38671,7.38672 7.3873897,7.3873892 0 0 1 -7.38672,-7.38672 7.3873897,7.3873892 0 0 1 7.38672,-7.38868 z" style="fill:none;stroke:#000;stroke-width:1.09668827;stroke-opacity:1"/><text style="font-style:normal;font-weight:400;font-size:15px;line-height:125%;font-family:sans-serif;letter-spacing:0;word-spacing:0;fill:#000;fill-opacity:1;stroke:none;stroke-width:1px;stroke-linecap:butt;stroke-linejoin:miter;stroke-opacity:1" id="text4247-4" x="197.499" y="-404.408" xml:space="preserve"><tspan id="tspan4249-9" x="197.499" y="-404.408">Mount Screws - FIBOX Tempo </tspan><tspan id="tspan4301" x="197.499" y="-385.658"> TA241911T</tspan></text><path id="path4311-4-6-9" d="m 445.41027,-135.09743 a 5.6076665,5.6076665 0 0 1 -5.60767,5.60766 5.6076665,5.6076665 0 0 1 -5.60766,-5.60766 5.6076665,5.6076665 0 0 1 5.60766,-5.60767 5.6076665,5.6076665 0 0 1 5.60767,5.60767 z m -227.33212,-0.10984 a 5.6076665,5.6076665 0 0 1 -5.60767,5.60766 5.6076665,5.6076665 0 0 1 -5.60766,-5.60766 5.6076665,5.6076665 0 0 1 5.60766,-5.60767 5.6076665,5.6076665 0 0 1 5.60767,5.60767 z m 227.46822,-173.52841 a 5.6076665,5.6076665 0 0 1 -5.60767,5.60766 5.6076665,5.6076665 0 0 1 -5.60766,-5.60766 5.6076665,5.6076665 0 0 1 5.60766,-5.60767 5.6076665,5.6076665 0 0 1 5.60767,5.60767 z m -227.33212,-0.10984 a 5.6076665,5.6076665 0 0 1 -5.60767,5.60766 5.6076665,5.6076665 0 0 1 -5.60766,-5.60766 5.6076665,5.6076665 0 0 1 5.60766,-5.60767 5.6076665,5.6076665 0 0 1 5.60767,5.60767 z" style="fill:#fff;fill-opacity:1;stroke:#000;stroke-width:.5616225;stroke-linecap:round;stroke-linejoin:round;stroke-miterlimit:4;stroke-dasharray:none;stroke-dashoffset:0;stroke-opacity:1"/><text style="font-style:normal;font-weight:400;font-size:15px;line-height:125%;font-family:sans-serif;letter-spacing:0;word-spacing:0;fill:#000;fill-opacity:1;stroke:none;stroke-width:1px;stroke-linecap:butt;stroke-linejoin:miter;stroke-opacity:1" id="text4453" x="205.889" y="-325.113" xml:space="preserve"><tspan id="tspan4455" x="205.889" y="-325.113">Edison Board DFR0338</tspan></text></g></svg>