<?xml version="1.0" encoding="UTF-8" standalone="no"?>
<!-- Created with Inkscape (http://www.inkscape.org/) -->

<svg
   xmlns:dc="http://purl.org/dc/elements/1.1/"
   xmlns:cc="http://creativecommons.org/ns#"
   xmlns:rdf="http://www.w3.org/1999/02/22-rdf-syntax-ns#"
   xmlns:svg="http://www.w3.org/2000/svg"
   xmlns="http://www.w3.org/2000/svg"
   xmlns:sodipodi="http://sodipodi.sourceforge.net/DTD/sodipodi-0.dtd"
   xmlns:inkscape="http://www.inkscape.org/namespaces/inkscape"
   width="176mm"
   height="111mm"
   viewBox="0 0 623.62205 393.30708"
   id="svg2"
   version="1.1"
   inkscape:version="0.91 r13725"
   sodipodi:docname="FiboxSmallPanelUnited.svg">
  <defs
     id="defs4" />
  <sodipodi:namedview
     id="base"
     pagecolor="#ffffff"
     bordercolor="#666666"
     borderopacity="1.0"
     inkscape:pageopacity="0.0"
     inkscape:pageshadow="2"
     inkscape:zoom="1.979899"
     inkscape:cx="341.71052"
     inkscape:cy="208.81599"
     inkscape:document-units="px"
     inkscape:current-layer="layer2"
     showgrid="false"
     inkscape:window-width="1920"
     inkscape:window-height="1137"
     inkscape:window-x="1912"
     inkscape:window-y="-8"
     inkscape:window-maximized="1" />
  <metadata
     id="metadata7">
    <rdf:RDF>
      <cc:Work
         rdf:about="">
        <dc:format>image/svg+xml</dc:format>
        <dc:type
           rdf:resource="http://purl.org/dc/dcmitype/StillImage" />
        <dc:title></dc:title>
      </cc:Work>
    </rdf:RDF>
  </metadata>
  <g
     inkscape:label="CHarting"
     inkscape:groupmode="layer"
     id="layer1"
     transform="translate(0,-659.05512)">
    <rect
       style="fill:none;stroke:none;stroke-opacity:1"
       id="rect3336"
       width="496.06299"
       height="354.33072"
       x="67.633064"
       y="680.13263" />
  </g>
  <g
     inkscape:groupmode="layer"
     id="layer2"
     inkscape:label="Cutting">
    <path
       style="fill:none;stroke:#000000;stroke-width:1.09668827;stroke-opacity:1"
       d="m 64.328603,2.3205216 0,62.0253904 -53.132813,0 0,264.615228 53.132813,0 0,62.02539 494.966797,0 0,-62.02539 53.13086,0 0,-264.615228 -53.13086,0 0,-62.0253904 -494.966797,0 z M 311.00048,28.045131 a 7.3873897,7.3873892 0 0 1 7.38672,7.388672 7.3873897,7.3873892 0 0 1 -7.38672,7.386718 7.3873897,7.3873892 0 0 1 -7.38867,-7.386718 7.3873897,7.3873892 0 0 1 7.38867,-7.388672 z M 81.496572,189.26582 a 7.3873897,7.3873892 0 0 1 7.386718,7.38868 7.3873897,7.3873892 0 0 1 -7.386718,7.38672 7.3873897,7.3873892 0 0 1 -7.386719,-7.38672 7.3873897,7.3873892 0 0 1 7.386719,-7.38868 z m 460.628908,0 a 7.3873897,7.3873892 0 0 1 7.38867,7.38868 7.3873897,7.3873892 0 0 1 -7.38867,7.38672 7.3873897,7.3873892 0 0 1 -7.38672,-7.38672 7.3873897,7.3873892 0 0 1 7.38672,-7.38868 z M 312.62353,350.48653 a 7.3873897,7.3873892 0 0 1 7.38672,7.38672 7.3873897,7.3873892 0 0 1 -7.38672,7.38867 7.3873897,7.3873892 0 0 1 -7.38672,-7.38867 7.3873897,7.3873892 0 0 1 7.38672,-7.38672 z"
       id="rect4150"
       inkscape:connector-curvature="0" />
  </g>
</svg>
