<svg xmlns="http://www.w3.org/2000/svg" xmlns:svg="http://www.w3.org/2000/svg" id="svg2" width="176mm" height="111mm" version="1.1" viewBox="0 0 623.622 393.307"><metadata id="metadata7"/><g id="layer1" transform="translate(0,-659.05512)"><rect style="fill:none;stroke:none;stroke-opacity:1" id="rect3336" width="496.063" height="354.331" x="67.633" y="680.133"/></g><g id="layer2"><path style="fill:none;stroke:#000;stroke-width:1.09668827;stroke-opacity:1" id="rect4150" d="m 64.328603,2.3205216 0,62.0253904 -53.132813,0 0,264.615228 53.132813,0 0,62.02539 494.966797,0 0,-62.02539 53.13086,0 0,-264.615228 -53.13086,0 0,-62.0253904 -494.966797,0 z M 311.00048,28.045131 a 7.3873897,7.3873892 0 0 1 7.38672,7.388672 7.3873897,7.3873892 0 0 1 -7.38672,7.386718 7.3873897,7.3873892 0 0 1 -7.38867,-7.386718 7.3873897,7.3873892 0 0 1 7.38867,-7.388672 z M 81.496572,189.26582 a 7.3873897,7.3873892 0 0 1 7.386718,7.38868 7.3873897,7.3873892 0 0 1 -7.386718,7.38672 7.3873897,7.3873892 0 0 1 -7.386719,-7.38672 7.3873897,7.3873892 0 0 1 7.386719,-7.38868 z m 460.628908,0 a 7.3873897,7.3873892 0 0 1 7.38867,7.38868 7.3873897,7.3873892 0 0 1 -7.38867,7.38672 7.3873897,7.3873892 0 0 1 -7.38672,-7.38672 7.3873897,7.3873892 0 0 1 7.38672,-7.38868 z M 312.62353,350.48653 a 7.3873897,7.3873892 0 0 1 7.38672,7.38672 7.3873897,7.3873892 0 0 1 -7.38672,7.38867 7.3873897,7.3873892 0 0 1 -7.38672,-7.38867 7.3873897,7.3873892 0 0 1 7.38672,-7.38672 z"/></g></svg>