<svg xmlns="http://www.w3.org/2000/svg" xmlns:svg="http://www.w3.org/2000/svg" id="svg2" width="176mm" height="111mm" version="1.1" viewBox="0 0 623.622 393.307"><metadata id="metadata7"/><g id="layer1" transform="translate(0,-659.05512)"><rect style="fill:none;stroke:none;stroke-opacity:1" id="rect3336" width="496.063" height="354.331" x="67.633" y="680.133"/></g><g id="layer2"><path style="fill:none;stroke:#000;stroke-width:1.09668827;stroke-opacity:1" id="rect4150" d="m 64.328603,2.3205216 0,62.0253904 -53.132813,0 0,264.615228 53.132813,0 0,62.02539 494.966797,0 0,-62.02539 53.13086,0 0,-264.615228 -53.13086,0 0,-62.0253904 -494.966797,0 z M 311.00048,28.045131 a 7.3873897,7.3873892 0 0 1 7.38672,7.388672 7.3873897,7.3873892 0 0 1 -7.38672,7.386718 7.3873897,7.3873892 0 0 1 -7.38867,-7.386718 7.3873897,7.3873892 0 0 1 7.38867,-7.388672 z M 81.496572,189.26582 a 7.3873897,7.3873892 0 0 1 7.386718,7.38868 7.3873897,7.3873892 0 0 1 -7.386718,7.38672 7.3873897,7.3873892 0 0 1 -7.386719,-7.38672 7.3873897,7.3873892 0 0 1 7.386719,-7.38868 z m 460.628908,0 a 7.3873897,7.3873892 0 0 1 7.38867,7.38868 7.3873897,7.3873892 0 0 1 -7.38867,7.38672 7.3873897,7.3873892 0 0 1 -7.38672,-7.38672 7.3873897,7.3873892 0 0 1 7.38672,-7.38868 z M 312.62353,350.48653 a 7.3873897,7.3873892 0 0 1 7.38672,7.38672 7.3873897,7.3873892 0 0 1 -7.38672,7.38867 7.3873897,7.3873892 0 0 1 -7.38672,-7.38867 7.3873897,7.3873892 0 0 1 7.38672,-7.38672 z"/><circle style="fill:none;fill-opacity:.1360947;stroke:#000;stroke-width:1.0893501;stroke-opacity:1" id="path4248" cx="50.151" cy="383.656" r="7.428"/><path style="fill:none;fill-opacity:1;stroke:none;stroke-width:.5616225;stroke-linecap:round;stroke-linejoin:round;stroke-miterlimit:4;stroke-dasharray:none;stroke-opacity:1" id="path3132" d="m 145.16962,264.58823 350.45242,0 0,-4.49298 8.98596,-8.98596 0,-121.31046 -8.98596,-8.98596 0,-35.943836 -8.89998,-8.98596 -341.55244,2.2e-5 z"/><circle style="fill:#fff;fill-opacity:1;stroke:#000;stroke-width:.5616225;stroke-linecap:round;stroke-linejoin:round;stroke-miterlimit:4;stroke-dasharray:none;stroke-dashoffset:0;stroke-opacity:1" id="path4253" cx="378.805" cy="237.63" r="5.608"/><circle style="fill:#fff;fill-opacity:1;stroke:#000;stroke-width:.5616225;stroke-linecap:round;stroke-linejoin:round;stroke-miterlimit:4;stroke-dasharray:none;stroke-dashoffset:0;stroke-opacity:1" id="path4371" cx="378.805" cy="138.785" r="5.608"/><circle id="path4355" cx="199.085" cy="84.869" r="5.608" style="fill:#fff;fill-opacity:1;stroke:#000;stroke-width:.5616225;stroke-linecap:round;stroke-linejoin:round;stroke-miterlimit:4;stroke-dasharray:none;stroke-dashoffset:0;stroke-opacity:1"/><circle id="path4554" cx="194.592" cy="255.602" r="5.608" style="fill:#fff;fill-opacity:1;stroke:#000;stroke-width:.5616225;stroke-linecap:round;stroke-linejoin:round;stroke-miterlimit:4;stroke-dasharray:none;stroke-dashoffset:0;stroke-opacity:1"/><circle id="path5052" cx="464.171" cy="84.869" r="5.608" style="fill:#fff;fill-opacity:1;stroke:#000;stroke-width:.5616225;stroke-linecap:round;stroke-linejoin:round;stroke-miterlimit:4;stroke-dasharray:none;stroke-dashoffset:0;stroke-opacity:1"/><circle id="path5052-6" cx="486.636" cy="255.602" r="5.608" style="fill:#fff;fill-opacity:1;stroke:#000;stroke-width:.5616225;stroke-linecap:round;stroke-linejoin:round;stroke-miterlimit:4;stroke-dasharray:none;stroke-dashoffset:0;stroke-opacity:1"/></g></svg>