<svg xmlns="http://www.w3.org/2000/svg" xmlns:svg="http://www.w3.org/2000/svg" id="svg2" width="176mm" height="111mm" version="1.1" viewBox="0 0 623.622 393.307"><metadata id="metadata7"/><g id="layer1" transform="translate(0,-659.05512)"><rect style="fill:none;stroke:none;stroke-opacity:1" id="rect3336" width="496.063" height="354.331" x="67.633" y="680.133"/></g><g id="layer2"><circle id="path4355-3-7" cx="225.797" cy="-153.064" r="3.88" transform="matrix(-0.0063298,0.99997997,-0.99997997,-0.0063298,0,0)" style="fill:#fff;fill-opacity:1;stroke:#000;stroke-width:.38864055;stroke-linecap:round;stroke-linejoin:round;stroke-miterlimit:4;stroke-dasharray:none;stroke-dashoffset:0;stroke-opacity:1"/><circle style="fill:#fff;fill-opacity:1;stroke:#000;stroke-width:.5616225;stroke-linecap:round;stroke-linejoin:round;stroke-miterlimit:4;stroke-dasharray:none;stroke-dashoffset:0;stroke-opacity:1" id="path4371-5-5" cx="428.397" cy="259.139" r="5.608"/><path style="fill:none;stroke:#000;stroke-width:1.09668827;stroke-opacity:1" id="rect4150" d="m 64.328603,2.3205216 0,62.0253904 -53.132813,0 0,264.615228 53.132813,0 0,62.02539 494.966797,0 0,-62.02539 53.13086,0 0,-264.615228 -53.13086,0 0,-62.0253904 -494.966797,0 z M 311.00048,28.045131 a 7.3873897,7.3873892 0 0 1 7.38672,7.388672 7.3873897,7.3873892 0 0 1 -7.38672,7.386718 7.3873897,7.3873892 0 0 1 -7.38867,-7.386718 7.3873897,7.3873892 0 0 1 7.38867,-7.388672 z M 81.496572,189.26582 a 7.3873897,7.3873892 0 0 1 7.386718,7.38868 7.3873897,7.3873892 0 0 1 -7.386718,7.38672 7.3873897,7.3873892 0 0 1 -7.386719,-7.38672 7.3873897,7.3873892 0 0 1 7.386719,-7.38868 z m 460.628908,0 a 7.3873897,7.3873892 0 0 1 7.38867,7.38868 7.3873897,7.3873892 0 0 1 -7.38867,7.38672 7.3873897,7.3873892 0 0 1 -7.38672,-7.38672 7.3873897,7.3873892 0 0 1 7.38672,-7.38868 z M 312.62353,350.48653 a 7.3873897,7.3873892 0 0 1 7.38672,7.38672 7.3873897,7.3873892 0 0 1 -7.38672,7.38867 7.3873897,7.3873892 0 0 1 -7.38672,-7.38867 7.3873897,7.3873892 0 0 1 7.38672,-7.38672 z"/><path style="fill:none;fill-opacity:1;stroke:none;stroke-width:.5616225;stroke-linecap:round;stroke-linejoin:round;stroke-miterlimit:4;stroke-dasharray:none;stroke-opacity:1" id="path3132" d="m 145.16962,264.58823 350.45242,0 0,-4.49298 8.98596,-8.98596 0,-121.31046 -8.98596,-8.98596 0,-35.943836 -8.89998,-8.98596 -341.55244,2.2e-5 z"/><circle style="fill:#fff;fill-opacity:1;stroke:#000;stroke-width:.5616225;stroke-linecap:round;stroke-linejoin:round;stroke-miterlimit:4;stroke-dasharray:none;stroke-dashoffset:0;stroke-opacity:1" id="path4253" cx="326.233" cy="-246.981" r="5.608" transform="matrix(-0.00137813,0.99999905,-0.99999905,-0.00137813,0,0)"/><circle style="fill:#fff;fill-opacity:1;stroke:#000;stroke-width:.5616225;stroke-linecap:round;stroke-linejoin:round;stroke-miterlimit:4;stroke-dasharray:none;stroke-dashoffset:0;stroke-opacity:1" id="path4371" cx="326.204" cy="-380.787" r="5.608" transform="matrix(-0.00137813,0.99999905,-0.99999905,-0.00137813,0,0)"/><circle id="path4355" cx="94.882" cy="-380.763" r="5.608" transform="matrix(-0.00137813,0.99999905,-0.99999905,-0.00137813,0,0)" style="fill:#fff;fill-opacity:1;stroke:#000;stroke-width:.5616225;stroke-linecap:round;stroke-linejoin:round;stroke-miterlimit:4;stroke-dasharray:none;stroke-dashoffset:0;stroke-opacity:1"/><circle id="path4554" cx="94.851" cy="-246.97" r="5.608" transform="matrix(-0.00137813,0.99999905,-0.99999905,-0.00137813,0,0)" style="fill:#fff;fill-opacity:1;stroke:#000;stroke-width:.5616225;stroke-linecap:round;stroke-linejoin:round;stroke-miterlimit:4;stroke-dasharray:none;stroke-dashoffset:0;stroke-opacity:1"/><rect style="fill:none;stroke:#000;stroke-width:.2;stroke-miterlimit:4;stroke-dasharray:.2,.2;stroke-dashoffset:0;stroke-opacity:1" id="rect4144" width="231.109" height="133.668" x="94.994" y="-380.693" transform="matrix(-0.00137813,0.99999905,-0.99999905,-0.00137813,0,0)"/><circle style="fill:#fff;fill-opacity:1;stroke:#000;stroke-width:.5616225;stroke-linecap:round;stroke-linejoin:round;stroke-miterlimit:4;stroke-dasharray:none;stroke-dashoffset:0;stroke-opacity:1" id="path4371-5" cx="428.347" cy="131.75" r="5.608"/><rect style="fill:none;stroke:#000;stroke-width:.95557117;stroke-miterlimit:4;stroke-dasharray:.95557119,.95557119;stroke-dashoffset:0;stroke-opacity:1" id="rect4176" width="70.01" height="126.603" x="430.839" y="131.863"/><circle id="path4355-3" cx="225.932" cy="-223.571" r="3.88" transform="matrix(-0.0063298,0.99997997,-0.99997997,-0.0063298,0,0)" style="fill:#fff;fill-opacity:1;stroke:#000;stroke-width:.38864055;stroke-linecap:round;stroke-linejoin:round;stroke-miterlimit:4;stroke-dasharray:none;stroke-dashoffset:0;stroke-opacity:1"/><rect style="fill:none;stroke:#000;stroke-width:.295284;stroke-miterlimit:4;stroke-dasharray:.295284,.295284;stroke-dashoffset:0;stroke-opacity:1" id="rect4210" width="141.437" height="70.571" x="119.77" y="-223.682" transform="matrix(-0.0063298,0.99997997,-0.99997997,-0.0063298,0,0)"/><circle id="path4355-3-7-1" cx="119.814" cy="-188.391" r="3.88" transform="matrix(-0.0063298,0.99997997,-0.99997997,-0.0063298,0,0)" style="fill:#fff;fill-opacity:1;stroke:#000;stroke-width:.38864055;stroke-linecap:round;stroke-linejoin:round;stroke-miterlimit:4;stroke-dasharray:none;stroke-dashoffset:0;stroke-opacity:1"/><rect style="fill:none;stroke:#000;stroke-width:.2557537;stroke-miterlimit:4;stroke-dasharray:.25575371,.25575371;stroke-dashoffset:0;stroke-opacity:1" id="rect4210-6" width="106.043" height="70.61" x="119.819" y="-223.769" transform="matrix(-0.0063298,0.99997997,-0.99997997,-0.0063298,0,0)"/><rect style="fill:none;stroke:#000;stroke-width:.19794163;stroke-miterlimit:4;stroke-dasharray:.19794163,.19794163;stroke-dashoffset:0;stroke-opacity:1" id="rect4257" width="106.298" height="35.235" x="119.795" y="-188.334" transform="matrix(-0.0063298,0.99997997,-0.99997997,-0.0063298,0,0)"/><circle style="fill:#fff;fill-opacity:1;stroke:#000;stroke-width:.5616225;stroke-linecap:round;stroke-linejoin:round;stroke-miterlimit:4;stroke-dasharray:none;stroke-dashoffset:0;stroke-opacity:1" id="path4371-5-5-5" cx="-501.408" cy="-131.419" r="5.608" transform="scale(-1,-1)"/><circle style="fill:#fff;fill-opacity:1;stroke:#000;stroke-width:.5616225;stroke-linecap:round;stroke-linejoin:round;stroke-miterlimit:4;stroke-dasharray:none;stroke-dashoffset:0;stroke-opacity:1" id="path4371-5-1" cx="-501.458" cy="-258.807" r="5.608" transform="scale(-1,-1)"/><rect style="fill:none;stroke:#000;stroke-width:.52307647;stroke-miterlimit:4;stroke-dasharray:.52307648,.52307648;stroke-dashoffset:0;stroke-opacity:1" id="rect4176-1" width="20.907" height="127.036" x="-501.246" y="-258.616" transform="scale(-1,-1)"/></g></svg>