<?xml version="1.0" encoding="UTF-8" standalone="no"?>
<!-- Created with Inkscape (http://www.inkscape.org/) -->

<svg
   xmlns:dc="http://purl.org/dc/elements/1.1/"
   xmlns:cc="http://creativecommons.org/ns#"
   xmlns:rdf="http://www.w3.org/1999/02/22-rdf-syntax-ns#"
   xmlns:svg="http://www.w3.org/2000/svg"
   xmlns="http://www.w3.org/2000/svg"
   xmlns:sodipodi="http://sodipodi.sourceforge.net/DTD/sodipodi-0.dtd"
   xmlns:inkscape="http://www.inkscape.org/namespaces/inkscape"
   width="176mm"
   height="111mm"
   viewBox="0 0 623.62205 393.30708"
   id="svg2"
   version="1.1"
   inkscape:version="0.91 r13725"
   sodipodi:docname="SmallPanelArchRearranged.svg">
  <defs
     id="defs4" />
  <sodipodi:namedview
     id="base"
     pagecolor="#ffffff"
     bordercolor="#666666"
     borderopacity="1.0"
     inkscape:pageopacity="0.0"
     inkscape:pageshadow="2"
     inkscape:zoom="1.1990709"
     inkscape:cx="534.31931"
     inkscape:cy="173.96069"
     inkscape:document-units="px"
     inkscape:current-layer="layer2"
     showgrid="false"
     inkscape:window-width="1920"
     inkscape:window-height="1137"
     inkscape:window-x="-8"
     inkscape:window-y="-8"
     inkscape:window-maximized="1"
     showguides="false" />
  <metadata
     id="metadata7">
    <rdf:RDF>
      <cc:Work
         rdf:about="">
        <dc:format>image/svg+xml</dc:format>
        <dc:type
           rdf:resource="http://purl.org/dc/dcmitype/StillImage" />
        <dc:title></dc:title>
      </cc:Work>
    </rdf:RDF>
  </metadata>
  <g
     inkscape:label="CHarting"
     inkscape:groupmode="layer"
     id="layer1"
     transform="translate(0,-659.05512)">
    <rect
       style="fill:none;stroke:none;stroke-opacity:1"
       id="rect3336"
       width="496.06299"
       height="354.33072"
       x="67.633064"
       y="680.13263" />
  </g>
  <g
     inkscape:groupmode="layer"
     id="layer2"
     inkscape:label="Cutting">
    <circle
       cy="-153.06351"
       cx="225.79666"
       id="path4355-3-7"
       style="fill:#ffffff;fill-opacity:1;stroke:#000000;stroke-width:0.38864055;stroke-linecap:round;stroke-linejoin:round;stroke-miterlimit:4;stroke-dasharray:none;stroke-dashoffset:0;stroke-opacity:1"
       r="3.8804829"
       transform="matrix(-0.0063298,0.99997997,-0.99997997,-0.0063298,0,0)" />
    <circle
       r="5.6076665"
       cy="259.13889"
       cx="428.39719"
       style="fill:#ffffff;fill-opacity:1;stroke:#000000;stroke-width:0.5616225;stroke-linecap:round;stroke-linejoin:round;stroke-miterlimit:4;stroke-dasharray:none;stroke-dashoffset:0;stroke-opacity:1"
       id="path4371-5-5" />
    <path
       style="fill:none;stroke:#000000;stroke-width:1.09668827;stroke-opacity:1"
       d="m 64.328603,2.3205216 0,62.0253904 -53.132813,0 0,264.615228 53.132813,0 0,62.02539 494.966797,0 0,-62.02539 53.13086,0 0,-264.615228 -53.13086,0 0,-62.0253904 -494.966797,0 z M 311.00048,28.045131 a 7.3873897,7.3873892 0 0 1 7.38672,7.388672 7.3873897,7.3873892 0 0 1 -7.38672,7.386718 7.3873897,7.3873892 0 0 1 -7.38867,-7.386718 7.3873897,7.3873892 0 0 1 7.38867,-7.388672 z M 81.496572,189.26582 a 7.3873897,7.3873892 0 0 1 7.386718,7.38868 7.3873897,7.3873892 0 0 1 -7.386718,7.38672 7.3873897,7.3873892 0 0 1 -7.386719,-7.38672 7.3873897,7.3873892 0 0 1 7.386719,-7.38868 z m 460.628908,0 a 7.3873897,7.3873892 0 0 1 7.38867,7.38868 7.3873897,7.3873892 0 0 1 -7.38867,7.38672 7.3873897,7.3873892 0 0 1 -7.38672,-7.38672 7.3873897,7.3873892 0 0 1 7.38672,-7.38868 z M 312.62353,350.48653 a 7.3873897,7.3873892 0 0 1 7.38672,7.38672 7.3873897,7.3873892 0 0 1 -7.38672,7.38867 7.3873897,7.3873892 0 0 1 -7.38672,-7.38867 7.3873897,7.3873892 0 0 1 7.38672,-7.38672 z"
       id="rect4150"
       inkscape:connector-curvature="0" />
    <path
       style="fill:none;fill-opacity:1;stroke:none;stroke-width:0.5616225;stroke-linecap:round;stroke-linejoin:round;stroke-miterlimit:4;stroke-dasharray:none;stroke-opacity:1"
       d="m 145.16962,264.58823 350.45242,0 0,-4.49298 8.98596,-8.98596 0,-121.31046 -8.98596,-8.98596 0,-35.943836 -8.89998,-8.98596 -341.55244,2.2e-5 z"
       id="path3132"
       inkscape:connector-curvature="0"
       sodipodi:nodetypes="cccccccccc" />
    <circle
       r="5.6076665"
       cy="-246.98125"
       cx="326.23254"
       style="fill:#ffffff;fill-opacity:1;stroke:#000000;stroke-width:0.5616225;stroke-linecap:round;stroke-linejoin:round;stroke-miterlimit:4;stroke-dasharray:none;stroke-dashoffset:0;stroke-opacity:1"
       id="path4253"
       transform="matrix(-0.00137813,0.99999905,-0.99999905,-0.00137813,0,0)" />
    <circle
       r="5.6076665"
       cy="-380.78665"
       cx="326.20401"
       style="fill:#ffffff;fill-opacity:1;stroke:#000000;stroke-width:0.5616225;stroke-linecap:round;stroke-linejoin:round;stroke-miterlimit:4;stroke-dasharray:none;stroke-dashoffset:0;stroke-opacity:1"
       id="path4371"
       transform="matrix(-0.00137813,0.99999905,-0.99999905,-0.00137813,0,0)" />
    <circle
       r="5.6076665"
       cy="-380.76282"
       cx="94.881615"
       id="path4355"
       style="fill:#ffffff;fill-opacity:1;stroke:#000000;stroke-width:0.5616225;stroke-linecap:round;stroke-linejoin:round;stroke-miterlimit:4;stroke-dasharray:none;stroke-dashoffset:0;stroke-opacity:1"
       transform="matrix(-0.00137813,0.99999905,-0.99999905,-0.00137813,0,0)" />
    <circle
       r="5.6076665"
       cy="-246.96999"
       cx="94.850586"
       id="path4554"
       style="fill:#ffffff;fill-opacity:1;stroke:#000000;stroke-width:0.5616225;stroke-linecap:round;stroke-linejoin:round;stroke-miterlimit:4;stroke-dasharray:none;stroke-dashoffset:0;stroke-opacity:1"
       transform="matrix(-0.00137813,0.99999905,-0.99999905,-0.00137813,0,0)" />
    <rect
       style="fill:none;stroke:#000000;stroke-width:0.2;stroke-miterlimit:4;stroke-dasharray:0.2, 0.2;stroke-dashoffset:0;stroke-opacity:1"
       id="rect4144"
       width="231.10931"
       height="133.66838"
       x="94.994385"
       y="-380.69305"
       transform="matrix(-0.00137813,0.99999905,-0.99999905,-0.00137813,0,0)" />
    <circle
       r="5.6076665"
       cy="131.75044"
       cx="428.34732"
       style="fill:#ffffff;fill-opacity:1;stroke:#000000;stroke-width:0.5616225;stroke-linecap:round;stroke-linejoin:round;stroke-miterlimit:4;stroke-dasharray:none;stroke-dashoffset:0;stroke-opacity:1"
       id="path4371-5" />
    <rect
       style="fill:none;stroke:#000000;stroke-width:0.95557117;stroke-miterlimit:4;stroke-dasharray:0.95557119, 0.95557119;stroke-dashoffset:0;stroke-opacity:1"
       id="rect4176"
       width="70.009895"
       height="126.60349"
       x="430.8389"
       y="131.86275" />
    <circle
       cy="-223.57079"
       cx="225.93182"
       id="path4355-3"
       style="fill:#ffffff;fill-opacity:1;stroke:#000000;stroke-width:0.38864055;stroke-linecap:round;stroke-linejoin:round;stroke-miterlimit:4;stroke-dasharray:none;stroke-dashoffset:0;stroke-opacity:1"
       r="3.8804829"
       transform="matrix(-0.0063298,0.99997997,-0.99997997,-0.0063298,0,0)" />
    <rect
       style="fill:none;stroke:#000000;stroke-width:0.295284;stroke-miterlimit:4;stroke-dasharray:0.295284, 0.295284;stroke-dashoffset:0;stroke-opacity:1"
       id="rect4210"
       width="141.437"
       height="70.570854"
       x="119.76983"
       y="-223.68187"
       transform="matrix(-0.0063298,0.99997997,-0.99997997,-0.0063298,0,0)" />
    <circle
       cy="-188.39095"
       cx="119.81432"
       id="path4355-3-7-1"
       style="fill:#ffffff;fill-opacity:1;stroke:#000000;stroke-width:0.38864055;stroke-linecap:round;stroke-linejoin:round;stroke-miterlimit:4;stroke-dasharray:none;stroke-dashoffset:0;stroke-opacity:1"
       r="3.8804829"
       transform="matrix(-0.0063298,0.99997997,-0.99997997,-0.0063298,0,0)" />
    <rect
       style="fill:none;stroke:#000000;stroke-width:0.2557537;stroke-miterlimit:4;stroke-dasharray:0.25575371, 0.25575371;stroke-dashoffset:0;stroke-opacity:1"
       id="rect4210-6"
       width="106.04346"
       height="70.610382"
       x="119.81938"
       y="-223.76933"
       transform="matrix(-0.0063298,0.99997997,-0.99997997,-0.0063298,0,0)" />
    <rect
       style="fill:none;stroke:#000000;stroke-width:0.19794163;stroke-miterlimit:4;stroke-dasharray:0.19794163, 0.19794163;stroke-dashoffset:0;stroke-opacity:1"
       id="rect4257"
       width="106.29769"
       height="35.23513"
       x="119.79485"
       y="-188.33446"
       transform="matrix(-0.0063298,0.99997997,-0.99997997,-0.0063298,0,0)" />
    <circle
       r="5.6076665"
       cy="-131.41898"
       cx="-501.40771"
       style="fill:#ffffff;fill-opacity:1;stroke:#000000;stroke-width:0.5616225;stroke-linecap:round;stroke-linejoin:round;stroke-miterlimit:4;stroke-dasharray:none;stroke-dashoffset:0;stroke-opacity:1"
       id="path4371-5-5-5"
       transform="scale(-1,-1)" />
    <circle
       r="5.6076665"
       cy="-258.8074"
       cx="-501.45758"
       style="fill:#ffffff;fill-opacity:1;stroke:#000000;stroke-width:0.5616225;stroke-linecap:round;stroke-linejoin:round;stroke-miterlimit:4;stroke-dasharray:none;stroke-dashoffset:0;stroke-opacity:1"
       id="path4371-5-1"
       transform="scale(-1,-1)" />
    <rect
       style="fill:none;stroke:#000000;stroke-width:0.52307647;stroke-miterlimit:4;stroke-dasharray:0.52307648, 0.52307648;stroke-dashoffset:0;stroke-opacity:1"
       id="rect4176-1"
       width="20.906563"
       height="127.03599"
       x="-501.24622"
       y="-258.61649"
       transform="scale(-1,-1)" />
  </g>
</svg>
