<?xml version="1.0" encoding="UTF-8" standalone="no"?>
<!-- Created with Inkscape (http://www.inkscape.org/) -->

<svg
   xmlns:dc="http://purl.org/dc/elements/1.1/"
   xmlns:cc="http://creativecommons.org/ns#"
   xmlns:rdf="http://www.w3.org/1999/02/22-rdf-syntax-ns#"
   xmlns:svg="http://www.w3.org/2000/svg"
   xmlns="http://www.w3.org/2000/svg"
   xmlns:sodipodi="http://sodipodi.sourceforge.net/DTD/sodipodi-0.dtd"
   xmlns:inkscape="http://www.inkscape.org/namespaces/inkscape"
   width="176mm"
   height="111mm"
   viewBox="0 0 623.62205 393.30708"
   id="svg2"
   version="1.1"
   inkscape:version="0.91 r13725"
   sodipodi:docname="SmallPanelARch.svg">
  <defs
     id="defs4" />
  <sodipodi:namedview
     id="base"
     pagecolor="#ffffff"
     bordercolor="#666666"
     borderopacity="1.0"
     inkscape:pageopacity="0.0"
     inkscape:pageshadow="2"
     inkscape:zoom="0.84787116"
     inkscape:cx="277.39919"
     inkscape:cy="243.46704"
     inkscape:document-units="px"
     inkscape:current-layer="layer2"
     showgrid="false"
     inkscape:window-width="1920"
     inkscape:window-height="1137"
     inkscape:window-x="-8"
     inkscape:window-y="-8"
     inkscape:window-maximized="1" />
  <metadata
     id="metadata7">
    <rdf:RDF>
      <cc:Work
         rdf:about="">
        <dc:format>image/svg+xml</dc:format>
        <dc:type
           rdf:resource="http://purl.org/dc/dcmitype/StillImage" />
        <dc:title></dc:title>
      </cc:Work>
    </rdf:RDF>
  </metadata>
  <g
     inkscape:label="CHarting"
     inkscape:groupmode="layer"
     id="layer1"
     transform="translate(0,-659.05512)">
    <rect
       style="fill:none;stroke:none;stroke-opacity:1"
       id="rect3336"
       width="496.06299"
       height="354.33072"
       x="67.633064"
       y="680.13263" />
  </g>
  <g
     inkscape:groupmode="layer"
     id="layer2"
     inkscape:label="Cutting">
    <circle
       cy="104.34807"
       cx="206.32556"
       id="path4355-3-7"
       style="fill:#ffffff;fill-opacity:1;stroke:#000000;stroke-width:0.38864055;stroke-linecap:round;stroke-linejoin:round;stroke-miterlimit:4;stroke-dasharray:none;stroke-dashoffset:0;stroke-opacity:1"
       r="3.8804829" />
    <circle
       r="5.6076665"
       cy="263.27551"
       cx="567.30316"
       style="fill:#ffffff;fill-opacity:1;stroke:#000000;stroke-width:0.5616225;stroke-linecap:round;stroke-linejoin:round;stroke-miterlimit:4;stroke-dasharray:none;stroke-dashoffset:0;stroke-opacity:1"
       id="path4371-5-5" />
    <path
       style="fill:none;stroke:#000000;stroke-width:1.09668827;stroke-opacity:1"
       d="m 64.328603,2.3205216 0,62.0253904 -53.132813,0 0,264.615228 53.132813,0 0,62.02539 494.966797,0 0,-62.02539 53.13086,0 0,-264.615228 -53.13086,0 0,-62.0253904 -494.966797,0 z M 311.00048,28.045131 a 7.3873897,7.3873892 0 0 1 7.38672,7.388672 7.3873897,7.3873892 0 0 1 -7.38672,7.386718 7.3873897,7.3873892 0 0 1 -7.38867,-7.386718 7.3873897,7.3873892 0 0 1 7.38867,-7.388672 z M 81.496572,189.26582 a 7.3873897,7.3873892 0 0 1 7.386718,7.38868 7.3873897,7.3873892 0 0 1 -7.386718,7.38672 7.3873897,7.3873892 0 0 1 -7.386719,-7.38672 7.3873897,7.3873892 0 0 1 7.386719,-7.38868 z m 460.628908,0 a 7.3873897,7.3873892 0 0 1 7.38867,7.38868 7.3873897,7.3873892 0 0 1 -7.38867,7.38672 7.3873897,7.3873892 0 0 1 -7.38672,-7.38672 7.3873897,7.3873892 0 0 1 7.38672,-7.38868 z M 312.62353,350.48653 a 7.3873897,7.3873892 0 0 1 7.38672,7.38672 7.3873897,7.3873892 0 0 1 -7.38672,7.38867 7.3873897,7.3873892 0 0 1 -7.38672,-7.38867 7.3873897,7.3873892 0 0 1 7.38672,-7.38672 z"
       id="rect4150"
       inkscape:connector-curvature="0" />
    <circle
       style="fill:none;fill-opacity:0.1360947;stroke:#000000;stroke-width:1.0893501;stroke-opacity:1"
       id="path4248"
       cx="50.151012"
       cy="383.65607"
       r="7.4277658" />
    <path
       style="fill:none;fill-opacity:1;stroke:none;stroke-width:0.5616225;stroke-linecap:round;stroke-linejoin:round;stroke-miterlimit:4;stroke-dasharray:none;stroke-opacity:1"
       d="m 145.16962,264.58823 350.45242,0 0,-4.49298 8.98596,-8.98596 0,-121.31046 -8.98596,-8.98596 0,-35.943836 -8.89998,-8.98596 -341.55244,2.2e-5 z"
       id="path3132"
       inkscape:connector-curvature="0"
       sodipodi:nodetypes="cccccccccc" />
    <circle
       r="5.6076665"
       cy="266.71558"
       cx="502.87137"
       style="fill:#ffffff;fill-opacity:1;stroke:#000000;stroke-width:0.5616225;stroke-linecap:round;stroke-linejoin:round;stroke-miterlimit:4;stroke-dasharray:none;stroke-dashoffset:0;stroke-opacity:1"
       id="path4253" />
    <circle
       r="5.6076665"
       cy="132.91017"
       cx="502.84283"
       style="fill:#ffffff;fill-opacity:1;stroke:#000000;stroke-width:0.5616225;stroke-linecap:round;stroke-linejoin:round;stroke-miterlimit:4;stroke-dasharray:none;stroke-dashoffset:0;stroke-opacity:1"
       id="path4371" />
    <circle
       r="5.6076665"
       cy="132.93401"
       cx="271.52042"
       id="path4355"
       style="fill:#ffffff;fill-opacity:1;stroke:#000000;stroke-width:0.5616225;stroke-linecap:round;stroke-linejoin:round;stroke-miterlimit:4;stroke-dasharray:none;stroke-dashoffset:0;stroke-opacity:1" />
    <circle
       r="5.6076665"
       cy="266.72684"
       cx="271.48938"
       id="path4554"
       style="fill:#ffffff;fill-opacity:1;stroke:#000000;stroke-width:0.5616225;stroke-linecap:round;stroke-linejoin:round;stroke-miterlimit:4;stroke-dasharray:none;stroke-dashoffset:0;stroke-opacity:1" />
    <rect
       style="fill:none;stroke:#000000;stroke-width:0.2;stroke-miterlimit:4;stroke-dasharray:0.2, 0.2;stroke-dashoffset:0;stroke-opacity:1"
       id="rect4144"
       width="231.10931"
       height="133.66838"
       x="271.63318"
       y="133.00377" />
    <circle
       r="5.6076665"
       cy="135.8871"
       cx="567.2533"
       style="fill:#ffffff;fill-opacity:1;stroke:#000000;stroke-width:0.5616225;stroke-linecap:round;stroke-linejoin:round;stroke-miterlimit:4;stroke-dasharray:none;stroke-dashoffset:0;stroke-opacity:1"
       id="path4371-5" />
    <rect
       style="fill:none;stroke:#000000;stroke-width:0.52307647;stroke-miterlimit:4;stroke-dasharray:0.52307648, 0.52307648;stroke-dashoffset:0;stroke-opacity:1"
       id="rect4176"
       width="20.906563"
       height="127.03599"
       x="567.46466"
       y="136.07802" />
    <circle
       cy="33.84079"
       cx="206.46074"
       id="path4355-3"
       style="fill:#ffffff;fill-opacity:1;stroke:#000000;stroke-width:0.38864055;stroke-linecap:round;stroke-linejoin:round;stroke-miterlimit:4;stroke-dasharray:none;stroke-dashoffset:0;stroke-opacity:1"
       r="3.8804829" />
    <rect
       style="fill:none;stroke:#000000;stroke-width:0.295284;stroke-miterlimit:4;stroke-dasharray:0.295284, 0.295284;stroke-dashoffset:0;stroke-opacity:1"
       id="rect4210"
       width="141.437"
       height="70.570854"
       x="100.29872"
       y="33.729702" />
    <circle
       cy="69.02063"
       cx="100.34322"
       id="path4355-3-7-1"
       style="fill:#ffffff;fill-opacity:1;stroke:#000000;stroke-width:0.38864055;stroke-linecap:round;stroke-linejoin:round;stroke-miterlimit:4;stroke-dasharray:none;stroke-dashoffset:0;stroke-opacity:1"
       r="3.8804829" />
    <rect
       style="fill:none;stroke:#000000;stroke-width:0.2557537;stroke-miterlimit:4;stroke-dasharray:0.25575371, 0.25575371;stroke-dashoffset:0;stroke-opacity:1"
       id="rect4210-6"
       width="106.04346"
       height="70.610382"
       x="100.34829"
       y="33.642265" />
    <rect
       style="fill:none;stroke:#000000;stroke-width:0.19794163;stroke-miterlimit:4;stroke-dasharray:0.19794163, 0.19794163;stroke-dashoffset:0;stroke-opacity:1"
       id="rect4257"
       width="106.29769"
       height="35.23513"
       x="100.32376"
       y="69.077118" />
  </g>
</svg>
